<svg width="32" height="32" viewBox="0 0 32 32" fill="none" xmlns="http://www.w3.org/2000/svg">
     <path fill-rule="evenodd" clip-rule="evenodd" d="M30.6505 0H1.3495C0.605375 0 0 0.620779 0 1.38384V28.7436C0 29.5067 0.605375 30.1275 1.3495 30.1275H2.29219C2.54375 30.1275 2.74763 29.9184 2.74763 29.6604C2.74763 29.4025 2.54375 29.1934 2.29219 29.1934H1.3495C1.10763 29.1934 0.910813 28.9916 0.910813 28.7436V1.38384C0.910813 1.13581 1.10763 0.933989 1.3495 0.933989H30.6505C30.8924 0.933989 31.0892 1.13581 31.0892 1.38384V6.97643C31.0892 7.23433 31.2931 7.44346 31.5446 7.44346C31.7962 7.44346 32 7.23439 32 6.97649V1.38384C32 0.620779 31.3946 0 30.6505 0ZM31.5445 9.48455C31.293 9.48455 31.0891 9.69362 31.0891 9.95158V28.7436C31.0891 28.9917 30.8923 29.1935 30.6504 29.1935H18.0444C17.7928 29.1935 17.5889 29.4026 17.5889 29.6605C17.5889 29.9184 17.7928 30.1276 18.0444 30.1276H30.6505C31.3946 30.1276 32 29.5068 32 28.7437V9.95152C32 9.69362 31.7961 9.48455 31.5445 9.48455ZM22.454 18.3859H20.8725C20.5426 18.3859 20.2742 18.6612 20.2742 18.9995V20.6212C20.2742 20.9595 20.5426 21.2347 20.8725 21.2347H22.454C22.7839 21.2347 23.0523 20.9595 23.0523 20.6212V18.9995C23.0523 18.6612 22.7839 18.3859 22.454 18.3859ZM22.4369 20.6053H20.8897V19.0187H22.4369V20.6053ZM25.9507 18.3859H27.5322C27.8621 18.3859 28.1305 18.6612 28.1305 18.9995V20.6212C28.1305 20.9595 27.8621 21.2347 27.5322 21.2347H25.9507C25.6208 21.2347 25.3524 20.9595 25.3524 20.6212V18.9995C25.3524 18.6612 25.6208 18.3859 25.9507 18.3859ZM25.9679 20.6053H27.5151V19.0187H25.9679V20.6053ZM22.4539 23.4844H20.8725C20.5426 23.4844 20.2742 23.7596 20.2742 24.0979V25.7196C20.2742 26.0579 20.5426 26.3332 20.8725 26.3332H22.4539C22.7839 26.3332 23.0523 26.0579 23.0523 25.7196V24.0979C23.0523 23.7596 22.7839 23.4844 22.4539 23.4844ZM22.4369 25.7038H20.8896V24.1172H22.4369V25.7038ZM25.9506 23.4844H27.5321C27.862 23.4844 28.1304 23.7596 28.1304 24.0979V25.7196C28.1304 26.0579 27.862 26.3332 27.5321 26.3332H25.9506C25.6207 26.3332 25.3523 26.0579 25.3523 25.7196V24.0979C25.3523 23.7596 25.6207 23.4844 25.9506 23.4844ZM25.9678 25.7038H27.515V24.1172H25.9678V25.7038ZM17.9516 19.6734C17.9516 18.9635 17.3884 18.3859 16.6961 18.3859H3.79161C3.09929 18.3859 2.53604 18.9635 2.53604 19.6734C2.53604 20.3834 3.09929 20.9609 3.79161 20.9609H4.45092L3.63611 28.7684L3.42079 30.8312C3.41361 30.9005 3.41354 30.969 3.41936 31.0363L3.41964 31.0428C3.41969 31.0452 3.41975 31.0476 3.41998 31.05C3.42043 31.0544 3.42118 31.0587 3.42192 31.0631L3.4229 31.069L3.42354 31.0735C3.44854 31.2796 3.53298 31.4724 3.67248 31.6315L3.67254 31.6316L3.67361 31.6327C3.85061 31.8341 4.10136 31.9608 4.37573 31.992C4.41942 31.9969 4.46354 32 4.50823 32H15.9796C16.3055 32 16.6101 31.8657 16.8153 31.6315C17.0084 31.4112 17.0978 31.1269 17.0669 30.831L16.0368 20.9609H16.6962C17.3884 20.9609 17.9516 20.3834 17.9516 19.6734ZM3.79166 20.0269C3.60153 20.0269 3.44691 19.8683 3.44691 19.6733C3.44691 19.4784 3.60153 19.3198 3.79166 19.3198H4.62222L4.54841 20.0269H3.79166ZM4.50818 31.0659H6.43455C6.43574 31.0348 6.43637 31.0036 6.43643 30.9724C6.43643 29.8258 5.62624 28.8695 4.56199 28.674L4.32643 30.9303C4.3233 30.9607 4.33074 30.9852 4.34993 31.0071C4.38262 31.0444 4.4403 31.0659 4.50818 31.0659ZM7.34492 31.0659L7.34575 31.0396C7.34649 31.0172 7.34723 30.9949 7.34723 30.9725C7.34723 29.3443 6.18023 27.9907 4.65904 27.744L5.53823 19.3198H14.9495L15.8287 27.744C14.3075 27.9907 13.1406 29.3443 13.1406 30.9725C13.1406 30.9954 13.1413 31.0182 13.1421 31.041L13.1429 31.0659H7.34492ZM16.1378 31.0072C16.157 30.9853 16.1644 30.9609 16.1613 30.9304L15.9258 28.6742C14.8616 28.8697 14.0514 29.826 14.0514 30.9726C14.0514 31.0037 14.0519 31.0348 14.0531 31.066H15.9796C16.0474 31.066 16.1051 31.0446 16.1378 31.0072ZM15.8655 19.3198H16.6961C16.8861 19.3198 17.0408 19.4784 17.0408 19.6733C17.0408 19.8683 16.8861 20.0269 16.6961 20.0269H15.9393L15.8655 19.3198ZM10.2439 21.649C11.8181 21.649 13.1253 22.6858 13.2199 24.0093C13.2633 24.6154 13.0481 25.213 12.6141 25.6918C12.0488 26.3156 11.1849 26.6733 10.2439 26.6733C9.30289 26.6733 8.43898 26.3156 7.87366 25.6918C7.43963 25.213 7.22448 24.6154 7.26784 24.0093C7.36246 22.6858 8.66968 21.649 10.2439 21.649ZM10.244 26.028C11.0107 26.028 11.7066 25.7453 12.1533 25.2525C12.4714 24.9015 12.6232 24.4879 12.5924 24.0565C12.5217 23.0684 11.4902 22.2944 10.244 22.2944C8.99781 22.2944 7.96629 23.0684 7.89559 24.0565C7.8648 24.4879 8.01664 24.9015 8.33476 25.2525C8.78144 25.7453 9.47727 26.028 10.244 26.028ZM11.6803 11.5486L10.2971 6.92176C10.2158 6.65629 9.88295 6.52734 9.5427 6.52734C9.20245 6.52734 8.86964 6.65629 8.78827 6.92176L7.41246 11.5486C7.40508 11.5789 7.39771 11.6093 7.39771 11.632C7.39771 11.9126 7.81927 12.1174 8.13745 12.1174C8.32233 12.1174 8.47027 12.0567 8.51464 11.8975L8.76608 10.9494H10.3268L10.5782 11.8975C10.6226 12.0567 10.7705 12.1174 10.9555 12.1174C11.2735 12.1174 11.6951 11.9127 11.6951 11.632C11.6951 11.6093 11.6878 11.5789 11.6803 11.5486ZM9.00269 10.0406L9.54269 8.00781L10.0827 10.0406H9.00269ZM17.0947 6.57126H13.8994C13.6552 6.57126 13.5517 6.84429 13.5517 7.09462C13.5517 7.38284 13.6775 7.63311 13.8994 7.63311H14.9202V11.7518C14.9202 11.9945 15.2087 12.1158 15.4971 12.1158C15.7856 12.1158 16.074 11.9945 16.074 11.7518V7.63311H17.0947C17.3167 7.63311 17.4424 7.38284 17.4424 7.09462C17.4424 6.84429 17.3389 6.57126 17.0947 6.57126ZM23.1302 7.16288C23.4335 6.61677 23.6109 6.57126 24.0252 6.57126C24.321 6.57126 24.602 6.73053 24.602 7.16288V11.7518C24.602 11.9945 24.3136 12.1158 24.0252 12.1158C23.7367 12.1158 23.4482 11.9945 23.4482 11.7518V8.90742L22.7382 10.1514C22.642 10.3182 22.4941 10.3713 22.3535 10.3713C22.2204 10.3713 22.0798 10.3258 21.9911 10.1514L21.2884 8.8316V11.7518C21.2884 11.9945 21 12.1158 20.7115 12.1158C20.423 12.1158 20.1346 11.9945 20.1346 11.7518V7.16288C20.1346 6.73053 20.423 6.57126 20.7115 6.57126C21.1257 6.57126 21.3033 6.61677 21.6065 7.16288L22.3683 8.5282L23.1302 7.16288Z" fill="black"/>
     </svg>