<svg viewBox="0 0 9 21" fill="none" xmlns="http://www.w3.org/2000/svg">
      <path d="M0.859064 15.4868C0.819087 15.4423 0.800083 15.383 0.806314 15.3236C0.806314 15.3236 0.779066 8.49873 0.764313 5.08456C0.760057 4.08117 1.15463 3.17197 1.80175 2.51198C2.46557 1.83487 3.39612 1.41884 4.42556 1.4232C5.48273 1.42789 6.41177 1.88364 7.10042 2.57228C7.77859 3.25046 8.11928 4.14065 8.11462 5.11227L8.05402 17.7422C8.05037 18.4922 7.75579 19.1739 7.27252 19.6681C6.77723 20.1746 6.0838 20.4856 5.31394 20.4822C4.53123 20.4789 3.81661 20.1516 3.31372 19.6263C2.83967 19.1311 2.55194 18.457 2.55069 17.719L2.52756 5.43333C2.52891 5.42866 2.53047 5.42399 2.53213 5.41942C2.56212 4.97863 2.74479 4.54613 3.08112 4.20981C3.81918 3.47174 5.02244 3.47172 5.76063 4.20991C6.16437 4.61365 6.34286 5.15558 6.30486 5.68453C6.30444 5.69076 6.30538 5.69688 6.30486 5.70322L6.38381 15.3189" stroke="black" stroke-linecap="round"/>
      </svg>
      