<svg x="0px" y="0px" viewBox="0 0 32 32" style="enable-background:new 0 0 32 32;" xml:space="preserve">
    <style type="text/css">
     .st0{fill:#36B77A;}
    </style>
    <path d="M15,2c-4.2,0-7.6,3.4-7.6,7.6c0,4.2,3.4,7.6,7.6,7.6c4.2,0,7.6-3.4,7.6-7.6C22.6,5.4,19.2,2,15,2z M15,15.5
     c-3.2,0-5.9-2.6-5.9-5.9s2.6-5.9,5.9-5.9s5.9,2.6,5.9,5.9S18.3,15.5,15,15.5z"/>
    <path d="M19.7,20h-9.5c-5.2,0-9.4,4.2-9.4,9.4v0.3h1.7v-0.3c0-4.3,3.5-7.7,7.7-7.7h9.5c1.5,0,2.9,0.4,4.1,1.2l1.1-1.3
     C23.4,20.6,21.6,20,19.7,20z"/>
    <polygon class="st0" points="30,19.7 23.1,27.5 19.3,24.2 18.2,25.4 22,28.8 23.3,29.9 24.4,28.6 31.3,20.8 "/>
    </svg>