<svg width="32" height="32" viewBox="0 0 38 38" fill="none" xmlns="http://www.w3.org/2000/svg">
      <path fill-rule="evenodd" clip-rule="evenodd" d="M9.51165 8.0891C9.51165 9.93023 10.9562 11.4282 12.7321 11.4282C14.5084 11.4282 15.9529 9.93023 15.9529 8.0887C15.9529 6.24757 14.508 4.75 12.7321 4.75C10.9566 4.75 9.51165 6.24797 9.51165 8.0891ZM10.432 8.08878C10.432 6.77363 11.4642 5.704 12.7323 5.704C14.0013 5.704 15.033 6.77363 15.033 8.08878C15.033 9.40393 14.0013 10.4736 12.7323 10.4736C11.4642 10.4736 10.432 9.40393 10.432 8.08878ZM11.2731 28.617C11.3661 28.2152 11.4359 27.8053 11.4785 27.3914L12.6916 15.582C12.4742 14.473 11.525 13.6694 10.4359 13.6694H7.90497C6.81585 13.6694 5.87015 14.473 5.6531 15.582L6.85849 27.4397C6.90073 27.8214 6.95538 28.2031 7.0329 28.5808L7.50575 30.9355C7.66428 31.723 8.34681 32.2936 9.12586 32.2936C9.88901 32.2936 10.5518 31.7552 10.7301 30.9797L11.2731 28.617ZM7.90494 12.7171H10.4359C11.9629 12.7171 13.2885 13.8422 13.5947 15.3932L12.242 28.5246L11.6257 31.2047C11.3463 32.4101 10.3196 33.2499 9.12583 33.2499C7.91269 33.2499 6.85419 32.3579 6.60653 31.1284L6.08329 28.5406L4.75 15.3892C5.05232 13.8422 6.38173 12.7171 7.90494 12.7171ZM30.5515 23.1442C29.6484 23.1442 28.8577 22.4772 28.6713 21.553C28.5709 21.0347 28.6678 20.5043 28.9508 20.0583C29.2337 19.6163 29.6639 19.3109 30.1678 19.2064C30.2957 19.1783 30.4275 19.1622 30.5554 19.1622C31.4623 19.1622 32.253 19.8333 32.4348 20.7534C32.6483 21.8303 31.9778 22.8831 30.9429 23.1041C30.8112 23.1322 30.6794 23.1442 30.5515 23.1442ZM33.1948 20.5927C32.939 19.2988 31.8305 18.3586 30.5553 18.3586C30.3732 18.3586 30.191 18.3787 30.0123 18.4189C29.3073 18.5675 28.6988 18.9935 28.3031 19.6163C27.9081 20.2395 27.7686 20.9865 27.9155 21.7178C28.1713 23.0116 29.2802 23.9479 30.5515 23.9479C30.7336 23.9479 30.9154 23.9278 31.0979 23.8916C32.5514 23.5822 33.4932 22.0995 33.1948 20.5927ZM20.6989 23.1443C19.7532 23.1323 18.7412 22.5537 18.7412 21.3201C18.7412 20.408 19.5904 19.2748 19.6873 19.1463C19.7648 19.0458 19.7919 18.9132 19.7609 18.7846C19.726 18.6601 19.6369 18.5596 19.5206 18.5154L17.8187 17.8685C17.6715 17.8122 17.5784 17.756 17.5168 17.6796C17.4157 17.5631 17.3695 17.4104 17.3808 17.2577C17.3889 17.101 17.4587 16.9564 17.5711 16.8559C17.687 16.7514 17.7881 16.7072 17.9083 16.7072C17.966 16.7072 18.0246 16.7153 18.0904 16.7354L21.1946 17.5671C21.3535 17.6193 21.4818 17.7198 21.5709 17.8564C21.714 18.0774 21.745 18.3346 21.6523 18.5275L20.8888 20.1267C20.7958 20.3276 20.8729 20.5687 21.0628 20.6651C21.0903 20.6772 21.2101 20.7053 21.2376 20.7053C21.3849 20.7053 21.5202 20.6209 21.5865 20.4843L21.8578 19.9137L23.679 19.9338L23.6445 20.4562C23.6368 20.5647 23.6717 20.6691 23.7375 20.7495C23.8073 20.8299 23.9042 20.8781 24.0321 20.8861C24.2375 20.8861 24.4042 20.7214 24.4197 20.5124L24.598 17.9328C24.6096 17.7761 24.6406 17.6676 24.6984 17.5832C24.8034 17.4269 24.9778 17.33 25.1639 17.33C25.2763 17.33 25.3848 17.3662 25.4778 17.4345C25.6561 17.5591 25.7258 17.6997 25.722 17.9207V22.405C25.722 22.5537 25.6793 22.6983 25.5941 22.8229C25.4662 23.0158 25.2491 23.1363 24.9891 23.1443H20.6989ZM25.9198 16.7714C25.695 16.6107 25.4315 16.5263 25.1641 16.5263C24.7222 16.5263 24.3075 16.7514 24.0594 17.1291C23.885 17.3943 23.842 17.6755 23.823 17.8684L23.7339 19.1301L22.2378 19.114L22.3463 18.889C22.5634 18.435 22.5165 17.8684 22.2145 17.4063C22.032 17.1254 21.7611 16.9121 21.4626 16.8116C21.4084 16.7875 21.3502 16.7674 21.2882 16.7514L18.2879 15.9558C18.16 15.92 18.0364 15.9035 17.9158 15.9035C17.6062 15.9035 17.319 16.0204 17.0632 16.2491C16.7922 16.4942 16.6333 16.8317 16.6058 17.2014C16.5829 17.5711 16.6992 17.9291 16.9314 18.2059C17.1333 18.447 17.3848 18.5595 17.5558 18.6198L18.7724 19.0859C18.424 19.6284 17.9623 20.5003 17.9623 21.32C17.9623 23.084 19.3619 23.9198 20.6909 23.9479H25.0245L25.0537 23.9452C25.0621 23.9445 25.0693 23.9439 25.0706 23.9439C25.5357 23.9238 25.9702 23.6747 26.2334 23.2809C26.4043 23.0237 26.4973 22.7224 26.5012 22.4089V17.9247C26.5047 17.4425 26.3035 17.0447 25.9198 16.7714ZM18.5593 27.0982C18.3345 27.0982 18.1484 26.9093 18.1484 26.6722C18.1484 26.4392 18.3345 26.2503 18.5593 26.2503H32.8422C32.6751 25.7802 32.241 25.4467 31.7294 25.4467H18.5593C17.9047 25.4467 17.3733 25.9972 17.3733 26.6722C17.3733 27.3513 17.9047 27.9018 18.5593 27.9018H31.7294C32.241 27.9018 32.6751 27.5683 32.8422 27.0982H32.6521C32.6521 27.0981 32.6521 27.0981 32.6521 27.0981H32.156C32.156 27.0981 32.1559 27.0981 32.1559 27.0982H18.5593Z" fill="white"/>
      <path d="M11.4785 27.3914L11.6277 27.4068L11.6277 27.4068L11.4785 27.3914ZM11.2731 28.617L11.1269 28.5832L11.1269 28.5834L11.2731 28.617ZM12.6916 15.582L12.8408 15.5974L12.8431 15.5751L12.8388 15.5532L12.6916 15.582ZM5.6531 15.582L5.50589 15.5532L5.50162 15.5751L5.50387 15.5972L5.6531 15.582ZM6.85849 27.4397L6.70925 27.4548L6.7094 27.4562L6.85849 27.4397ZM7.0329 28.5808L7.17997 28.5513L7.17984 28.5507L7.0329 28.5808ZM7.50575 30.9355L7.35869 30.965L7.3587 30.9651L7.50575 30.9355ZM10.7301 30.9797L10.8763 31.0133L10.8763 31.0133L10.7301 30.9797ZM13.5947 15.3932L13.7439 15.4086L13.7462 15.3862L13.7418 15.3641L13.5947 15.3932ZM12.242 28.5246L12.3882 28.5582L12.3903 28.5492L12.3912 28.5399L12.242 28.5246ZM11.6257 31.2047L11.7719 31.2386L11.7719 31.2383L11.6257 31.2047ZM6.60653 31.1284L6.75358 31.0987L6.75355 31.0986L6.60653 31.1284ZM6.08329 28.5406L5.93405 28.5558L5.9348 28.5631L5.93627 28.5704L6.08329 28.5406ZM4.75 15.3892L4.60278 15.3604L4.59852 15.3822L4.60076 15.4043L4.75 15.3892ZM28.6713 21.553L28.524 21.5816L28.5243 21.5827L28.6713 21.553ZM28.9508 20.0583L28.8244 19.9774L28.8241 19.9779L28.9508 20.0583ZM30.1678 19.2064L30.1982 19.3533L30.2 19.3529L30.1678 19.2064ZM32.4348 20.7534L32.2876 20.7825L32.2876 20.7826L32.4348 20.7534ZM30.9429 23.1041L30.9743 23.2507L30.9743 23.2507L30.9429 23.1041ZM33.1948 20.5927L33.0476 20.6218L33.0476 20.6218L33.1948 20.5927ZM30.0123 18.4189L30.0433 18.5656L30.0452 18.5652L30.0123 18.4189ZM28.3031 19.6163L28.1765 19.5358L28.1764 19.536L28.3031 19.6163ZM27.9155 21.7178L28.0626 21.6887L28.0626 21.6882L27.9155 21.7178ZM31.0979 23.8916L31.1271 24.0388L31.1292 24.0383L31.0979 23.8916ZM20.6989 23.1443L20.697 23.2943H20.6989V23.1443ZM19.6873 19.1463L19.5685 19.0546L19.5675 19.056L19.6873 19.1463ZM19.7609 18.7846L19.9068 18.7494L19.9054 18.7442L19.7609 18.7846ZM19.5206 18.5154L19.5739 18.3752L19.5739 18.3752L19.5206 18.5154ZM17.8187 17.8685L17.7652 18.0086L17.7654 18.0087L17.8187 17.8685ZM17.5168 17.6796L17.6336 17.5853L17.6301 17.5813L17.5168 17.6796ZM17.3808 17.2577L17.5304 17.2687L17.5306 17.2655L17.3808 17.2577ZM17.5711 16.8559L17.671 16.9677L17.6715 16.9673L17.5711 16.8559ZM18.0904 16.7354L18.0467 16.8789L18.0516 16.8802L18.0904 16.7354ZM21.1946 17.5671L21.2415 17.4244L21.2334 17.4222L21.1946 17.5671ZM21.5709 17.8564L21.6969 17.7749L21.6966 17.7745L21.5709 17.8564ZM21.6523 18.5275L21.5171 18.4625L21.517 18.4628L21.6523 18.5275ZM20.8888 20.1267L20.7534 20.0621L20.7527 20.0637L20.8888 20.1267ZM21.0628 20.6651L20.9948 20.7991L21.0026 20.8025L21.0628 20.6651ZM21.5865 20.4843L21.7214 20.5498L21.7219 20.5487L21.5865 20.4843ZM21.8578 19.9137L21.8594 19.7637L21.7635 19.7627L21.7223 19.8493L21.8578 19.9137ZM23.679 19.9338L23.8287 19.9437L23.8391 19.7856L23.6807 19.7838L23.679 19.9338ZM23.6445 20.4562L23.7941 20.4669L23.7942 20.4661L23.6445 20.4562ZM23.7375 20.7495L23.6215 20.8446L23.6243 20.8478L23.7375 20.7495ZM24.0321 20.8861L24.0227 21.0361H24.0321V20.8861ZM24.4197 20.5124L24.5693 20.5235L24.5693 20.5228L24.4197 20.5124ZM24.598 17.9328L24.4484 17.9217L24.4483 17.9224L24.598 17.9328ZM24.6984 17.5832L24.8222 17.6679L24.8229 17.6668L24.6984 17.5832ZM25.4778 17.4345L25.389 17.5555L25.3919 17.5575L25.4778 17.4345ZM25.722 17.9207L25.572 17.9181V17.9207H25.722ZM25.5941 22.8229L25.4703 22.7381L25.4691 22.74L25.5941 22.8229ZM24.9891 23.1443V23.2944L24.9937 23.2943L24.9891 23.1443ZM25.9198 16.7714L25.8326 16.8935L25.8328 16.8936L25.9198 16.7714ZM24.0594 17.1291L24.1848 17.2115L24.1848 17.2114L24.0594 17.1291ZM23.823 17.8684L23.6737 17.8537L23.6734 17.8578L23.823 17.8684ZM23.7339 19.1301L23.7323 19.2801L23.8735 19.2816L23.8835 19.1407L23.7339 19.1301ZM22.2378 19.114L22.1027 19.0489L22.0001 19.2615L22.2362 19.264L22.2378 19.114ZM22.3463 18.889L22.4814 18.9542L22.4816 18.9537L22.3463 18.889ZM22.2145 17.4063L22.0888 17.4881L22.089 17.4884L22.2145 17.4063ZM21.4626 16.8116L21.4015 16.9493L21.4148 16.9538L21.4626 16.8116ZM21.2882 16.7514L21.2498 16.8963L21.2506 16.8966L21.2882 16.7514ZM18.2879 15.9558L18.2475 16.1002L18.2495 16.1007L18.2879 15.9558ZM17.0632 16.2491L16.9632 16.1372L16.9625 16.1378L17.0632 16.2491ZM16.6058 17.2014L16.4562 17.1903L16.4561 17.1921L16.6058 17.2014ZM16.9314 18.2059L17.0464 18.1096L17.0463 18.1095L16.9314 18.2059ZM17.5558 18.6198L17.6095 18.4797L17.6057 18.4783L17.5558 18.6198ZM18.7724 19.0859L18.8986 19.167L18.9983 19.0118L18.8261 18.9458L18.7724 19.0859ZM20.6909 23.9479L20.6878 24.0979H20.6909V23.9479ZM25.0245 23.9479V24.0985L25.0382 24.0973L25.0245 23.9479ZM25.0537 23.9452L25.0405 23.7958L25.04 23.7958L25.0537 23.9452ZM25.0706 23.9439V24.094L25.0771 24.0937L25.0706 23.9439ZM26.2334 23.2809L26.3581 23.3642L26.3583 23.3639L26.2334 23.2809ZM26.5012 22.4089L26.6512 22.4108V22.4089H26.5012ZM26.5012 17.9247L26.3512 17.9236V17.9247H26.5012ZM32.8422 26.2503V26.4003H33.0546L32.9835 26.2001L32.8422 26.2503ZM32.8422 27.0982L32.9835 27.1484L33.0546 26.9482H32.8422V27.0982ZM32.6521 27.0982L32.5134 27.041L32.4281 27.2482H32.6521V27.0982ZM32.6521 27.0981L32.7908 27.1552L32.8761 26.9481H32.6521V27.0981ZM32.156 27.0981V26.9481H32.0912L32.0468 26.9953L32.156 27.0981ZM32.1559 27.0982V27.2482H32.2207L32.2651 27.201L32.1559 27.0982ZM12.7321 11.2782C11.0441 11.2782 9.66165 9.85255 9.66165 8.0891H9.36165C9.36165 10.0079 10.8683 11.5782 12.7321 11.5782V11.2782ZM15.8029 8.0887C15.8029 9.85255 14.4205 11.2782 12.7321 11.2782V11.5782C14.5963 11.5782 16.1029 10.0079 16.1029 8.0887H15.8029ZM12.7321 4.9C14.4201 4.9 15.8029 6.32529 15.8029 8.0887H16.1029C16.1029 6.16985 14.5959 4.6 12.7321 4.6V4.9ZM9.66165 8.0891C9.66165 6.32566 11.0445 4.9 12.7321 4.9V4.6C10.8687 4.6 9.36165 6.17029 9.36165 8.0891H9.66165ZM12.7323 5.554C11.3763 5.554 10.282 6.69592 10.282 8.08878H10.582C10.582 6.85135 11.552 5.854 12.7323 5.854V5.554ZM15.183 8.08878C15.183 6.69592 14.0892 5.554 12.7323 5.554V5.854C13.9134 5.854 14.883 6.85135 14.883 8.08878H15.183ZM12.7323 10.6236C14.0892 10.6236 15.183 9.48164 15.183 8.08878H14.883C14.883 9.32621 13.9134 10.3236 12.7323 10.3236V10.6236ZM10.282 8.08878C10.282 9.48164 11.3763 10.6236 12.7323 10.6236V10.3236C11.552 10.3236 10.582 9.32621 10.582 8.08878H10.282ZM11.3293 27.3761C11.2873 27.7834 11.2186 28.1871 11.1269 28.5832L11.4192 28.6508C11.5136 28.2432 11.5844 27.8272 11.6277 27.4068L11.3293 27.3761ZM12.5424 15.5667L11.3293 27.3761L11.6277 27.4068L12.8408 15.5974L12.5424 15.5667ZM10.4359 13.8194C11.4496 13.8194 12.3401 14.5685 12.5444 15.6109L12.8388 15.5532C12.6083 14.3775 11.6004 13.5194 10.4359 13.5194V13.8194ZM7.90497 13.8194H10.4359V13.5194H7.90497V13.8194ZM5.80031 15.6108C6.00435 14.5683 6.89155 13.8194 7.90497 13.8194V13.5194C6.74016 13.5194 5.73594 14.3778 5.50589 15.5532L5.80031 15.6108ZM7.00772 27.4245L5.80233 15.5669L5.50387 15.5972L6.70926 27.4548L7.00772 27.4245ZM7.17984 28.5507C7.10351 28.1787 7.04948 27.8018 7.00758 27.4232L6.7094 27.4562C6.75199 27.841 6.80726 28.2275 6.88596 28.611L7.17984 28.5507ZM7.65282 30.9059L7.17996 28.5513L6.88584 28.6104L7.35869 30.965L7.65282 30.9059ZM9.12586 32.1436C8.42111 32.1436 7.7978 31.6263 7.6528 30.9059L7.3587 30.9651C7.53075 31.8198 8.27251 32.4436 9.12586 32.4436V32.1436ZM10.5839 30.9461C10.4205 31.6566 9.8159 32.1436 9.12586 32.1436V32.4436C9.96212 32.4436 10.683 31.8537 10.8763 31.0133L10.5839 30.9461ZM11.1269 28.5834L10.5839 30.9461L10.8763 31.0133L11.4193 28.6506L11.1269 28.5834ZM10.4359 12.5671H7.90494V12.8671H10.4359V12.5671ZM13.7418 15.3641C13.4225 13.7467 12.0385 12.5671 10.4359 12.5671V12.8671C11.8874 12.8671 13.1544 13.9376 13.4475 15.4222L13.7418 15.3641ZM12.3912 28.5399L13.7439 15.4086L13.4455 15.3778L12.0928 28.5092L12.3912 28.5399ZM11.7719 31.2383L12.3882 28.5582L12.0958 28.491L11.4796 31.1711L11.7719 31.2383ZM9.12583 33.3999C10.393 33.3999 11.4775 32.5085 11.7719 31.2386L11.4796 31.1708C11.2151 32.3118 10.2462 33.0999 9.12583 33.0999V33.3999ZM6.45948 31.158C6.72053 32.454 7.83767 33.3999 9.12583 33.3999V33.0999C7.9877 33.0999 6.98786 32.2619 6.75358 31.0987L6.45948 31.158ZM5.93627 28.5704L6.4595 31.1581L6.75355 31.0986L6.23031 28.5109L5.93627 28.5704ZM4.60076 15.4043L5.93405 28.5558L6.23252 28.5255L4.89924 15.374L4.60076 15.4043ZM7.90494 12.5671C6.30646 12.5671 4.91817 13.7465 4.60278 15.3604L4.89722 15.4179C5.18646 13.9378 6.457 12.8671 7.90494 12.8671V12.5671ZM28.5243 21.5827C28.724 22.5728 29.5729 23.2942 30.5515 23.2942V22.9942C29.7239 22.9942 28.9915 22.3817 28.8183 21.5234L28.5243 21.5827ZM28.8241 19.9779C28.5203 20.4569 28.4165 21.0263 28.524 21.5816L28.8186 21.5245C28.7253 21.0431 28.8154 20.5517 29.0774 20.1386L28.8241 19.9779ZM30.1373 19.0595C29.5919 19.1726 29.128 19.5032 28.8244 19.9774L29.0771 20.1391C29.3394 19.7294 29.7359 19.4492 30.1982 19.3533L30.1373 19.0595ZM30.5554 19.0122C30.4152 19.0122 30.2726 19.0298 30.1356 19.0599L30.2 19.3529C30.3188 19.3268 30.4397 19.3122 30.5554 19.3122V19.0122ZM32.5819 20.7243C32.387 19.7378 31.5378 19.0122 30.5554 19.0122V19.3122C31.3868 19.3122 32.1189 19.9288 32.2876 20.7825L32.5819 20.7243ZM30.9743 23.2507C32.0937 23.0117 32.8105 21.877 32.5819 20.7242L32.2876 20.7826C32.4861 21.7836 31.8618 22.7544 30.9116 22.9574L30.9743 23.2507ZM30.5515 23.2942C30.6887 23.2942 30.8311 23.2813 30.9743 23.2507L30.9116 22.9574C30.7912 22.9831 30.67 22.9942 30.5515 22.9942V23.2942ZM30.5553 18.5086C31.755 18.5086 32.805 19.3944 33.0476 20.6218L33.3419 20.5636C33.073 19.2033 31.9059 18.2086 30.5553 18.2086V18.5086ZM30.0452 18.5652C30.2131 18.5275 30.3842 18.5086 30.5553 18.5086V18.2086C30.3621 18.2086 30.1689 18.2299 29.9794 18.2725L30.0452 18.5652ZM28.4297 19.6967C28.8043 19.1071 29.3788 18.7058 30.0433 18.5656L29.9814 18.2721C29.2359 18.4293 28.5933 18.8798 28.1765 19.5358L28.4297 19.6967ZM28.0626 21.6882C27.9233 20.9947 28.0555 20.2871 28.4298 19.6966L28.1764 19.536C27.7607 20.1919 27.6139 20.9782 27.7684 21.7473L28.0626 21.6882ZM30.5515 23.7979C29.3554 23.7979 28.3053 22.9159 28.0626 21.6887L27.7683 21.7469C28.0373 23.1074 29.2049 24.0979 30.5515 24.0979V23.7979ZM31.0688 23.7445C30.8945 23.779 30.7225 23.7979 30.5515 23.7979V24.0979C30.7447 24.0979 30.9363 24.0765 31.1271 24.0387L31.0688 23.7445ZM33.0476 20.6218C33.3311 22.0528 32.4354 23.4535 31.0667 23.7449L31.1292 24.0383C32.6674 23.7109 33.6554 22.1462 33.3419 20.5635L33.0476 20.6218ZM18.5912 21.3201C18.5912 21.9829 18.8652 22.4785 19.271 22.8069C19.6728 23.132 20.1965 23.2879 20.697 23.2943L20.7008 22.9943C20.2555 22.9887 19.8004 22.8493 19.4598 22.5737C19.1232 22.3013 18.8912 21.8909 18.8912 21.3201H18.5912ZM19.5675 19.056C19.5174 19.1224 19.2757 19.4447 19.0461 19.8678C18.8191 20.2859 18.5912 20.8249 18.5912 21.3201H18.8912C18.8912 20.9032 19.0879 20.4195 19.3097 20.0109C19.5289 19.6072 19.7603 19.2987 19.8071 19.2365L19.5675 19.056ZM19.6151 18.8198C19.6359 18.9062 19.6171 18.9917 19.5685 19.0546L19.806 19.2379C19.9126 19.0999 19.9479 18.9202 19.9068 18.7495L19.6151 18.8198ZM19.4673 18.6556C19.5366 18.6819 19.5937 18.7436 19.6165 18.8251L19.9054 18.7442C19.8584 18.5765 19.7372 18.4373 19.5739 18.3752L19.4673 18.6556ZM17.7654 18.0087L19.4673 18.6556L19.5739 18.3752L17.872 17.7283L17.7654 18.0087ZM17.4001 17.7738C17.4866 17.8809 17.6092 17.949 17.7652 18.0086L17.8723 17.7283C17.7338 17.6754 17.6703 17.631 17.6335 17.5854L17.4001 17.7738ZM17.2312 17.2467C17.2172 17.4362 17.2743 17.6291 17.4035 17.778L17.6301 17.5813C17.557 17.4971 17.5218 17.3846 17.5304 17.2687L17.2312 17.2467ZM17.4711 16.7441C17.3285 16.8715 17.2412 17.0538 17.231 17.2499L17.5306 17.2655C17.5367 17.1482 17.5889 17.0412 17.671 16.9677L17.4711 16.7441ZM17.9083 16.5572C17.7415 16.5572 17.606 16.6224 17.4706 16.7445L17.6715 16.9673C17.7679 16.8804 17.8348 16.8572 17.9083 16.8572V16.5572ZM18.1342 16.5919C18.0543 16.5675 17.9811 16.5572 17.9083 16.5572V16.8572C17.951 16.8572 17.9948 16.863 18.0467 16.8788L18.1342 16.5919ZM21.2334 17.4222L18.1293 16.5905L18.0516 16.8802L21.1558 17.712L21.2334 17.4222ZM21.6966 17.7745C21.5891 17.6097 21.4332 17.4877 21.2414 17.4246L21.1478 17.7096C21.2738 17.751 21.3745 17.8299 21.4453 17.9384L21.6966 17.7745ZM21.7876 18.5924C21.9082 18.3412 21.8608 18.0282 21.6969 17.7749L21.445 17.9379C21.5671 18.1266 21.5818 18.328 21.5171 18.4625L21.7876 18.5924ZM21.0242 20.1913L21.7877 18.5921L21.517 18.4628L20.7534 20.0621L21.0242 20.1913ZM21.1307 20.5314C21.0182 20.4742 20.9632 20.323 21.0249 20.1897L20.7527 20.0637C20.6283 20.3322 20.7276 20.6631 20.9949 20.7989L21.1307 20.5314ZM21.2376 20.5553C21.2443 20.5553 21.2473 20.5559 21.2431 20.5554C21.2403 20.555 21.2357 20.5543 21.2294 20.5531C21.2169 20.5509 21.2009 20.5475 21.1841 20.5436C21.1674 20.5397 21.1512 20.5356 21.1382 20.532C21.1223 20.5276 21.119 20.526 21.123 20.5277L21.0026 20.8025C21.0314 20.8151 21.0824 20.828 21.1163 20.8359C21.1364 20.8405 21.1572 20.8449 21.1757 20.8483C21.1898 20.8509 21.2153 20.8553 21.2376 20.8553V20.5553ZM21.4515 20.4188C21.41 20.5044 21.3267 20.5553 21.2376 20.5553V20.8553C21.4431 20.8553 21.6304 20.7374 21.7214 20.5498L21.4515 20.4188ZM21.7223 19.8493L21.451 20.4199L21.7219 20.5487L21.9932 19.9781L21.7223 19.8493ZM23.6807 19.7838L21.8594 19.7637L21.8561 20.0637L23.6774 20.0838L23.6807 19.7838ZM23.7942 20.4661L23.8287 19.9437L23.5293 19.9239L23.4949 20.4463L23.7942 20.4661ZM23.8535 20.6544C23.8115 20.6031 23.7892 20.5364 23.7941 20.4669L23.4949 20.4455C23.4844 20.593 23.5318 20.7351 23.6215 20.8446L23.8535 20.6544ZM24.0415 20.7364C23.9497 20.7306 23.8917 20.6983 23.8508 20.6512L23.6243 20.8478C23.7229 20.9615 23.8587 21.0255 24.0227 21.0358L24.0415 20.7364ZM24.2701 20.5013C24.2599 20.6382 24.1529 20.7361 24.0321 20.7361V21.0361C24.3221 21.0361 24.5484 20.8046 24.5693 20.5235L24.2701 20.5013ZM24.4483 17.9224L24.27 20.5021L24.5693 20.5228L24.7476 17.9431L24.4483 17.9224ZM24.5746 17.4985C24.4959 17.6135 24.461 17.7518 24.4484 17.9217L24.7476 17.9439C24.7582 17.8003 24.7854 17.7216 24.8221 17.6679L24.5746 17.4985ZM25.1639 17.18C24.9254 17.18 24.7054 17.3038 24.5739 17.4995L24.8229 17.6668C24.9014 17.5499 25.0302 17.48 25.1639 17.48V17.18ZM25.5666 17.3136C25.4486 17.227 25.3092 17.18 25.1639 17.18V17.48C25.2433 17.48 25.3209 17.5054 25.389 17.5554L25.5666 17.3136ZM25.872 17.9233C25.8742 17.7965 25.8554 17.6804 25.8023 17.5743C25.749 17.4679 25.6673 17.384 25.5637 17.3116L25.3919 17.5575C25.4665 17.6096 25.5089 17.6583 25.5341 17.7086C25.5594 17.7592 25.5736 17.8239 25.572 17.9181L25.872 17.9233ZM25.872 22.405V17.9207H25.572V22.405H25.872ZM25.7178 22.9076C25.8209 22.7571 25.872 22.5827 25.872 22.405H25.572C25.572 22.5246 25.5378 22.6395 25.4703 22.7382L25.7178 22.9076ZM24.9937 23.2943C25.299 23.2848 25.5625 23.1419 25.7191 22.9058L25.4691 22.74C25.3698 22.8896 25.1992 22.9878 24.9844 22.9944L24.9937 23.2943ZM20.6989 23.2943H24.9891V22.9943H20.6989V23.2943ZM25.1641 16.6763C25.3997 16.6763 25.6329 16.7507 25.8326 16.8935L26.0071 16.6494C25.7572 16.4708 25.4632 16.3763 25.1641 16.3763V16.6763ZM24.1848 17.2114C24.4056 16.8752 24.7736 16.6763 25.1641 16.6763V16.3763C24.6708 16.3763 24.2093 16.6275 23.9341 17.0467L24.1848 17.2114ZM23.9723 17.8831C23.9906 17.6973 24.0307 17.4457 24.1848 17.2115L23.9341 17.0466C23.7393 17.3428 23.6934 17.6537 23.6737 17.8537L23.9723 17.8831ZM23.8835 19.1407L23.9726 17.879L23.6734 17.8578L23.5842 19.1195L23.8835 19.1407ZM22.2362 19.264L23.7323 19.2801L23.7355 18.9801L22.2394 18.964L22.2362 19.264ZM22.2112 18.8239L22.1027 19.0489L22.3729 19.1792L22.4814 18.9542L22.2112 18.8239ZM22.089 17.4884C22.3649 17.9106 22.4034 18.4217 22.211 18.8243L22.4816 18.9537C22.7233 18.4482 22.6681 17.8262 22.3401 17.3243L22.089 17.4884ZM21.4148 16.9538C21.6794 17.0429 21.9236 17.2339 22.0888 17.4881L22.3403 17.3246C22.1404 17.017 21.8427 16.7813 21.5105 16.6695L21.4148 16.9538ZM21.2506 16.8966C21.3052 16.9107 21.3555 16.9282 21.4017 16.9487L21.5235 16.6745C21.4612 16.6468 21.3952 16.6241 21.3258 16.6061L21.2506 16.8966ZM18.2495 16.1007L21.2498 16.8963L21.3267 16.6064L18.3264 15.8108L18.2495 16.1007ZM17.9158 16.0535C18.0224 16.0535 18.1325 16.0681 18.2475 16.1002L18.3283 15.8113C18.1875 15.7719 18.0503 15.7535 17.9158 15.7535V16.0535ZM17.1631 16.3609C17.3948 16.1538 17.6474 16.0535 17.9158 16.0535V15.7535C17.565 15.7535 17.2431 15.8871 16.9632 16.1372L17.1631 16.3609ZM16.7554 17.2125C16.7802 16.8793 16.9229 16.5783 17.1638 16.3603L16.9625 16.1378C16.6616 16.4101 16.4864 16.7841 16.4562 17.1903L16.7554 17.2125ZM17.0463 18.1095C16.8395 17.8629 16.735 17.5429 16.7555 17.2106L16.4561 17.1921C16.4309 17.5992 16.559 17.9953 16.8164 18.3023L17.0463 18.1095ZM17.6057 18.4783C17.4458 18.422 17.2234 18.321 17.0464 18.1096L16.8164 18.3022C17.0432 18.5731 17.3239 18.6971 17.5059 18.7613L17.6057 18.4783ZM18.8261 18.9458L17.6094 18.4797L17.5021 18.7599L18.7187 19.226L18.8261 18.9458ZM18.1123 21.32C18.1123 20.5467 18.5521 19.7065 18.8986 19.167L18.6462 19.0048C18.2959 19.5503 17.8123 20.4539 17.8123 21.32H18.1123ZM20.6941 23.7979C20.0578 23.7845 19.4103 23.5774 18.9247 23.17C18.4428 22.7657 18.1123 22.1579 18.1123 21.32H17.8123C17.8123 22.2461 18.1817 22.9382 18.7318 23.3998C19.2783 23.8583 19.995 24.0832 20.6878 24.0979L20.6941 23.7979ZM25.0245 23.7979H20.6909V24.0979H25.0245V23.7979ZM25.04 23.7958L25.0108 23.7985L25.0382 24.0973L25.0674 24.0946L25.04 23.7958ZM25.0706 23.7939C25.0606 23.7939 25.0431 23.7956 25.0405 23.7958L25.0669 24.0946C25.071 24.0943 25.0744 24.094 25.0768 24.0938C25.0774 24.0937 25.0779 24.0937 25.0783 24.0937C25.0784 24.0937 25.0786 24.0937 25.0787 24.0936C25.0788 24.0936 25.0788 24.0936 25.0788 24.0936C25.0788 24.0936 25.0787 24.0936 25.0786 24.0937C25.0784 24.0937 25.0781 24.0937 25.0777 24.0937C25.0773 24.0937 25.0766 24.0938 25.0757 24.0938C25.0749 24.0938 25.073 24.0939 25.0706 24.0939V23.7939ZM26.1087 23.1975C25.8713 23.5528 25.4801 23.7761 25.0642 23.794L25.0771 24.0937C25.5914 24.0715 26.0692 23.7965 26.3581 23.3642L26.1087 23.1975ZM26.3512 22.4071C26.3477 22.6918 26.2633 22.965 26.1085 23.1978L26.3583 23.3639C26.5454 23.0825 26.647 22.7529 26.6512 22.4108L26.3512 22.4071ZM26.3512 17.9247V22.4089H26.6512V17.9247H26.3512ZM25.8328 16.8936C26.1758 17.1378 26.3544 17.4891 26.3512 17.9236L26.6512 17.9257C26.655 17.3958 26.4313 16.9515 26.0068 16.6493L25.8328 16.8936ZM17.9984 26.6722C17.9984 26.9879 18.2475 27.2482 18.5593 27.2482V26.9482C18.4215 26.9482 18.2984 26.8307 18.2984 26.6722H17.9984ZM18.5593 26.1003C18.2484 26.1003 17.9984 26.3596 17.9984 26.6722H18.2984C18.2984 26.5187 18.4206 26.4003 18.5593 26.4003V26.1003ZM32.8422 26.1003H18.5593V26.4003H32.8422V26.1003ZM31.7294 25.5967C32.1729 25.5967 32.5534 25.8857 32.7008 26.3005L32.9835 26.2001C32.7968 25.6747 32.3091 25.2967 31.7294 25.2967V25.5967ZM18.5593 25.5967H31.7294V25.2967H18.5593V25.5967ZM17.5233 26.6722C17.5233 26.0752 17.9922 25.5967 18.5593 25.5967V25.2967C17.8171 25.2967 17.2233 25.9191 17.2233 26.6722H17.5233ZM18.5593 27.7518C17.9925 27.7518 17.5233 27.2736 17.5233 26.6722H17.2233C17.2233 27.429 17.8168 28.0518 18.5593 28.0518V27.7518ZM31.7294 27.7518H18.5593V28.0518H31.7294V27.7518ZM32.7008 27.0479C32.5534 27.4627 32.1729 27.7518 31.7294 27.7518V28.0518C32.3091 28.0518 32.7968 27.6738 32.9835 27.1484L32.7008 27.0479ZM32.6521 27.2482H32.8422V26.9482H32.6521V27.2482ZM32.7908 27.1553L32.7908 27.1552L32.5134 27.0409L32.5134 27.041L32.7908 27.1553ZM32.6521 26.9481H32.156V27.2481H32.6521V26.9481ZM32.0468 26.9953L32.0467 26.9953L32.2651 27.201L32.2652 27.2009L32.0468 26.9953ZM18.5593 27.2482H32.1559V26.9482H18.5593V27.2482Z" fill="white"/>
      </svg>
      