<svg width="32" height="32" viewBox="0 0 31 34" fill="none" xmlns="http://www.w3.org/2000/svg">
      <path fill-rule="evenodd" clip-rule="evenodd" d="M29.0769 14.4389C29.086 14.2537 29.0903 14.0677 29.0903 13.881C29.0903 10.9677 27.9863 8.30782 26.1748 6.29756L19.4488 14.4389H29.0769ZM26.637 4.48194C26.6789 4.51654 26.7165 4.55452 26.7495 4.59517C29.1767 6.94791 30.6874 10.2412 30.6874 13.881C30.6874 14.2489 30.6729 14.6132 30.6424 14.9739C30.6711 15.0562 30.6867 15.1447 30.6867 15.2368C30.6867 19.9563 26.5547 23.7966 21.473 23.7966H13.1851C8.10336 23.7966 3.97139 19.9563 3.97139 15.2368C3.97139 15.1167 3.99788 15.0028 4.04536 14.9006C4.04174 14.8929 4.03822 14.8851 4.03483 14.8772L0.751359 7.20456C0.579526 6.79829 0.766011 6.3294 1.17228 6.1549C1.57855 5.98173 2.04743 6.16955 2.22193 6.5745L5.50539 14.2472C5.53218 14.31 5.55032 14.3744 5.56036 14.4389H16.9531V1.74455C16.9531 1.30231 17.3114 0.945312 17.7523 0.945312H17.7528H17.7533C21.1737 0.945312 24.2882 2.27994 26.6036 4.45592C26.6149 4.46425 26.626 4.47293 26.637 4.48194ZM25.0203 5.18434C23.2425 3.69595 21.0032 2.74158 18.5515 2.57025V13.0151L25.0203 5.18434ZM13.1848 22.2012C9.28056 22.2012 6.05304 19.5025 5.6188 16.0378H29.0386C28.6044 19.5025 25.3769 22.2012 21.4727 22.2012H13.1848ZM11.8775 26.3895C10.4669 26.3895 9.32002 27.5377 9.32002 28.9484C9.32002 30.3577 10.4669 31.5059 11.8775 31.5059C13.2882 31.5059 14.435 30.3577 14.435 28.9484C14.435 27.5377 13.2882 26.3895 11.8775 26.3895ZM11.8757 33.1038C9.58463 33.1038 7.72111 31.2402 7.72111 28.9491C7.72111 26.6566 9.58463 24.793 11.8757 24.793C14.1668 24.793 16.0304 26.6566 16.0304 28.9491C16.0304 31.2402 14.1668 33.1038 11.8757 33.1038ZM19.3818 28.9484C19.3818 27.5377 20.5287 26.3895 21.9393 26.3895C23.3499 26.3895 24.4982 27.5377 24.4982 28.9484C24.4982 30.3577 23.3499 31.5059 21.9393 31.5059C20.5287 31.5059 19.3818 30.3577 19.3818 28.9484ZM17.7853 28.9491C17.7853 31.2402 19.6488 33.1038 21.9399 33.1038C24.2323 33.1038 26.0958 31.2402 26.0958 28.9491C26.0958 26.6566 24.2323 24.793 21.9399 24.793C19.6488 24.793 17.7853 26.6566 17.7853 28.9491Z" fill="white"/>
      <path d="M29.0769 14.4389V14.6889H29.315L29.3266 14.4511L29.0769 14.4389ZM26.1748 6.29756L26.3605 6.1302L26.1666 5.91498L25.982 6.13833L26.1748 6.29756ZM19.4488 14.4389L19.2561 14.2796L18.918 14.6889H19.4488V14.4389ZM26.7495 4.59517L26.5555 4.75281L26.5648 4.76434L26.5755 4.77468L26.7495 4.59517ZM26.637 4.48194L26.796 4.28903L26.7958 4.2889L26.637 4.48194ZM30.6424 14.9739L30.3933 14.9529L30.3888 15.0059L30.4063 15.0562L30.6424 14.9739ZM4.04536 14.9006L4.27207 15.006L4.32129 14.9001L4.27165 14.7944L4.04536 14.9006ZM4.03483 14.8772L3.80499 14.9756L3.8053 14.9763L4.03483 14.8772ZM0.751359 7.20456L0.521104 7.30195L0.52152 7.30292L0.751359 7.20456ZM1.17228 6.1549L1.07425 5.92492L1.07362 5.92519L1.17228 6.1549ZM2.22193 6.5745L2.45176 6.47614L2.45152 6.47556L2.22193 6.5745ZM5.50539 14.2472L5.73537 14.1492L5.73523 14.1488L5.50539 14.2472ZM5.56036 14.4389L5.31334 14.4773L5.34626 14.6889H5.56036V14.4389ZM16.9531 14.4389V14.6889H17.2031V14.4389H16.9531ZM26.6036 4.45592L26.4324 4.63809L26.4432 4.64823L26.4551 4.65702L26.6036 4.45592ZM18.5515 2.57025L18.5689 2.32086L18.3015 2.30217V2.57025H18.5515ZM25.0203 5.18434L25.213 5.34356L25.3712 5.15208L25.1808 4.99265L25.0203 5.18434ZM18.5515 13.0151H18.3015V13.7103L18.7442 13.1744L18.5515 13.0151ZM5.6188 16.0378V15.7878H5.33551L5.37074 16.0689L5.6188 16.0378ZM29.0386 16.0378L29.2867 16.0689L29.3219 15.7878H29.0386V16.0378ZM28.8403 13.881C28.8403 14.0638 28.8361 14.2458 28.8272 14.4267L29.3266 14.4511C29.3359 14.2616 29.3403 14.0715 29.3403 13.881H28.8403ZM25.9891 6.46491C27.7609 8.43119 28.8403 11.0321 28.8403 13.881H29.3403C29.3403 10.9034 28.2116 8.18445 26.3605 6.1302L25.9891 6.46491ZM19.6415 14.5981L26.3675 6.45678L25.982 6.13833L19.2561 14.2796L19.6415 14.5981ZM29.0769 14.1889H19.4488V14.6889H29.0769V14.1889ZM26.9435 4.43753C26.9001 4.38406 26.8508 4.33425 26.796 4.28903L26.4779 4.67486C26.507 4.69882 26.5328 4.72498 26.5555 4.75281L26.9435 4.43753ZM30.9374 13.881C30.9374 10.1706 29.3971 6.81339 26.9235 4.41566L26.5755 4.77468C28.9563 7.08244 30.4374 10.3118 30.4374 13.881H30.9374ZM30.8915 14.9949C30.9226 14.6268 30.9374 14.2555 30.9374 13.881H30.4374C30.4374 14.2424 30.4232 14.5996 30.3933 14.9529L30.8915 14.9949ZM30.9367 15.2368C30.9367 15.1163 30.9163 15 30.8785 14.8916L30.4063 15.0562C30.4259 15.1124 30.4367 15.173 30.4367 15.2368H30.9367ZM21.473 24.0466C26.6752 24.0466 30.9367 20.1113 30.9367 15.2368H30.4367C30.4367 19.8012 26.4343 23.5466 21.473 23.5466V24.0466ZM13.1851 24.0466H21.473V23.5466H13.1851V24.0466ZM3.72139 15.2368C3.72139 20.1113 7.98291 24.0466 13.1851 24.0466V23.5466C8.22381 23.5466 4.22139 19.8012 4.22139 15.2368H3.72139ZM3.81864 14.7953C3.75614 14.9298 3.72139 15.0795 3.72139 15.2368H4.22139C4.22139 15.1538 4.23963 15.0758 4.27207 15.006L3.81864 14.7953ZM3.8053 14.9763C3.80974 14.9866 3.81433 14.9968 3.81907 15.0069L4.27165 14.7944C4.26914 14.789 4.26671 14.7836 4.26435 14.7782L3.8053 14.9763ZM0.52152 7.30292L3.80499 14.9756L4.26466 14.7789L0.981197 7.10621L0.52152 7.30292ZM1.07362 5.92519C0.540124 6.15434 0.296066 6.76987 0.521106 7.30195L0.981612 7.10718C0.862986 6.8267 0.991898 6.50446 1.27095 6.38461L1.07362 5.92519ZM2.45152 6.47556C2.22253 5.94418 1.60719 5.69776 1.07426 5.92492L1.27031 6.38488C1.54991 6.2657 1.87232 6.39493 1.99233 6.67343L2.45152 6.47556ZM5.73523 14.1488L2.45176 6.47614L1.99209 6.67286L5.27555 14.3455L5.73523 14.1488ZM5.80739 14.4004C5.79419 14.3156 5.77035 14.2312 5.73537 14.1492L5.27541 14.3452C5.294 14.3888 5.30646 14.4331 5.31334 14.4773L5.80739 14.4004ZM16.9531 14.1889H5.56036V14.6889H16.9531V14.1889ZM16.7031 1.74455V14.4389H17.2031V1.74455H16.7031ZM17.7523 0.695312C17.1736 0.695312 16.7031 1.16397 16.7031 1.74455H17.2031C17.2031 1.44064 17.4492 1.19531 17.7523 1.19531V0.695312ZM17.7528 0.695312H17.7523V1.19531H17.7528V0.695312ZM17.7533 0.695312H17.7528V1.19531H17.7533V0.695312ZM26.7748 4.27374C24.4151 2.05608 21.24 0.695312 17.7533 0.695312V1.19531C21.1073 1.19531 24.1614 2.50381 26.4324 4.63809L26.7748 4.27374ZM26.7958 4.2889C26.7815 4.2771 26.7669 4.26574 26.7521 4.25481L26.4551 4.65702C26.4628 4.66277 26.4705 4.66875 26.4781 4.67499L26.7958 4.2889ZM18.5341 2.81965C20.9312 2.98717 23.1209 3.92022 24.8598 5.37603L25.1808 4.99265C23.364 3.47168 21.0751 2.496 18.5689 2.32086L18.5341 2.81965ZM18.8015 13.0151V2.57025H18.3015V13.0151H18.8015ZM24.8275 5.02512L18.3588 12.8559L18.7442 13.1744L25.213 5.34356L24.8275 5.02512ZM5.37074 16.0689C5.82259 19.674 9.17066 22.4512 13.1848 22.4512V21.9512C9.39047 21.9512 6.2835 19.3309 5.86686 16.0067L5.37074 16.0689ZM29.0386 15.7878H5.6188V16.2878H29.0386V15.7878ZM21.4727 22.4512C25.4868 22.4512 28.8349 19.674 29.2867 16.0689L28.7906 16.0067C28.3739 19.3309 25.267 21.9512 21.4727 21.9512V22.4512ZM13.1848 22.4512H21.4727V21.9512H13.1848V22.4512ZM9.57002 28.9484C9.57002 27.6756 10.6052 26.6395 11.8775 26.6395V26.1395C10.3287 26.1395 9.07002 27.3998 9.07002 28.9484H9.57002ZM11.8775 31.2559C10.6051 31.2559 9.57002 30.2197 9.57002 28.9484H9.07002C9.07002 30.4957 10.3287 31.7559 11.8775 31.7559V31.2559ZM14.185 28.9484C14.185 30.2197 13.15 31.2559 11.8775 31.2559V31.7559C13.4263 31.7559 14.685 30.4957 14.685 28.9484H14.185ZM11.8775 26.6395C13.1499 26.6395 14.185 27.6756 14.185 28.9484H14.685C14.685 27.3998 13.4264 26.1395 11.8775 26.1395V26.6395ZM7.47111 28.9491C7.47111 31.3783 9.44656 33.3538 11.8757 33.3538V32.8538C9.72271 32.8538 7.97111 31.1021 7.97111 28.9491H7.47111ZM11.8757 24.543C9.4465 24.543 7.47111 26.5186 7.47111 28.9491H7.97111C7.97111 26.7946 9.72276 25.043 11.8757 25.043V24.543ZM16.2804 28.9491C16.2804 26.5186 14.305 24.543 11.8757 24.543V25.043C14.0287 25.043 15.7804 26.7946 15.7804 28.9491H16.2804ZM11.8757 33.3538C14.3049 33.3538 16.2804 31.3783 16.2804 28.9491H15.7804C15.7804 31.1021 14.0288 32.8538 11.8757 32.8538V33.3538ZM21.9393 26.1395C20.3904 26.1395 19.1318 27.3998 19.1318 28.9484H19.6318C19.6318 27.6756 20.6669 26.6395 21.9393 26.6395V26.1395ZM24.7482 28.9484C24.7482 27.3996 23.488 26.1395 21.9393 26.1395V26.6395C23.2119 26.6395 24.2482 27.6758 24.2482 28.9484H24.7482ZM21.9393 31.7559C23.4879 31.7559 24.7482 30.4958 24.7482 28.9484H24.2482C24.2482 30.2195 23.212 31.2559 21.9393 31.2559V31.7559ZM19.1318 28.9484C19.1318 30.4957 20.3905 31.7559 21.9393 31.7559V31.2559C20.6669 31.2559 19.6318 30.2197 19.6318 28.9484H19.1318ZM21.9399 32.8538C19.7869 32.8538 18.0353 31.1021 18.0353 28.9491H17.5353C17.5353 31.3783 19.5107 33.3538 21.9399 33.3538V32.8538ZM25.8458 28.9491C25.8458 31.1021 24.0943 32.8538 21.9399 32.8538V33.3538C24.3704 33.3538 26.3458 31.3783 26.3458 28.9491H25.8458ZM21.9399 25.043C24.0943 25.043 25.8458 26.7946 25.8458 28.9491H26.3458C26.3458 26.5185 24.3704 24.543 21.9399 24.543V25.043ZM18.0353 28.9491C18.0353 26.7946 19.7869 25.043 21.9399 25.043V24.543C19.5107 24.543 17.5353 26.5186 17.5353 28.9491H18.0353Z" fill="#1F1D1C"/>
      </svg>
      