<svg width="32" height="32" viewBox="0 0 32 32" fill="none" xmlns="http://www.w3.org/2000/svg">
      <path d="M17.9163 7.0293H9.55518" stroke="black" stroke-linecap="round"/>
      <path d="M9.55518 11.8889V6.54167C9.55518 3.48109 12.0363 1 15.0968 1V1C18.1574 1 20.6385 3.48109 20.6385 6.54167V11.8889" stroke="black" stroke-linecap="round"/>
      <circle cx="9.55556" cy="12.0849" r="1.55556" stroke="black" stroke-linecap="round"/>
      <circle cx="20.4442" cy="12.0849" r="1.55556" stroke="black" stroke-linecap="round"/>
      <path fill-rule="evenodd" clip-rule="evenodd" d="M6.55509 6.5293C5.3484 6.5293 4.31392 7.39123 4.09614 8.57811L0.941197 25.7726C0.659405 27.3083 1.83875 28.7237 3.40015 28.7237H26.5994C28.1608 28.7237 29.3402 27.3083 29.0584 25.7726L28.7063 23.8535C28.4209 24.0647 28.1143 24.2487 27.7902 24.4018L28.0748 25.953C28.2439 26.8745 27.5363 27.7237 26.5994 27.7237H3.40015C2.46331 27.7237 1.7557 26.8745 1.92478 25.953L5.07972 8.75859C5.21039 8.04646 5.83107 7.5293 6.55509 7.5293H7.22201C7.49815 7.5293 7.72201 7.30544 7.72201 7.0293C7.72201 6.75315 7.49815 6.5293 7.22201 6.5293H6.55509ZM25.8845 14.0162C26.2457 14.0439 26.5971 14.1068 26.9352 14.2014L25.9034 8.57811C25.6857 7.39123 24.6512 6.5293 23.4445 6.5293H20.6387C20.3625 6.5293 20.1387 6.75315 20.1387 7.0293C20.1387 7.30544 20.3625 7.5293 20.6387 7.5293H23.4445C24.1685 7.5293 24.7892 8.04646 24.9198 8.75859L25.8845 14.0162Z" fill="black"/>
      <path d="M25.461 24.9221C28.4771 24.9221 30.9221 22.4771 30.9221 19.461C30.9221 16.445 28.4771 14 25.461 14C22.445 14 20 16.445 20 19.461C20 22.4771 22.445 24.9221 25.461 24.9221Z" fill="white" stroke="black"/>
      <path d="M22.6729 19.3813L24.6035 21.6585L28.6729 18.1387" stroke="black" stroke-linecap="round"/>
      </svg>
      