<svg width="24" height="24" viewBox="0 0 32 32" fill="none" xmlns="http://www.w3.org/2000/svg"><path fill-rule="evenodd" clip-rule="evenodd" d="M27.7 19.695C28.2086 19.6333 28.6929 19.9293 28.87 20.41C29.0925 20.8647 28.9553 21.4135 28.545 21.71L19.315 28.47C19.1217 28.6499 18.8637 28.7437 18.6 28.73H18.2101L11.0601 26.13L11.5151 24.96L18.0151 27.235C18.3575 27.3975 18.7631 27.3468 19.0551 27.105L27.31 20.995L22.76 21.515C22.8117 21.5913 22.8348 21.6834 22.825 21.775C22.7581 22.884 21.8556 23.7584 20.745 23.79H15.545C15.3083 23.7853 15.0892 23.6636 14.96 23.465C14.8286 23.2683 14.8286 23.0117 14.96 22.815C15.0892 22.6165 15.3083 22.4948 15.545 22.49H20.745C20.9376 22.4977 21.1251 22.4274 21.2651 22.295C21.433 22.1469 21.5292 21.9339 21.5292 21.71C21.5292 21.4862 21.433 21.2731 21.2651 21.125C21.1117 20.965 20.9016 20.8716 20.68 20.865H16.845L16.65 20.735C13.9851 18.655 9.95505 19.5 9.50004 19.63V27.43C9.50004 28.148 8.918 28.73 8.20004 28.73H4.30004C3.96135 28.7479 3.63028 28.6257 3.38443 28.3921C3.13854 28.1585 2.99957 27.8341 3 27.495V17.03C3.03468 16.3375 3.60668 15.7941 4.3 15.795H8.2C8.89333 15.7941 9.46533 16.3375 9.5 17.03V18.395C10.3167 18.2629 11.1428 18.1977 11.97 18.2V11.895C11.1955 11.8274 10.6021 11.1775 10.605 10.4V8.905C10.6046 8.49697 10.771 8.10652 11.0656 7.82421C11.3602 7.54189 11.7574 7.39225 12.165 7.41H15.22C14.5865 6.70385 14.365 5.71944 14.635 4.81C14.9256 3.92419 15.6681 3.26172 16.5812 3.07373C17.4943 2.88574 18.4382 3.201 19.0551 3.9C19.6876 3.18444 20.6547 2.86208 21.5901 3.055C22.5029 3.2574 23.243 3.92342 23.5401 4.81C23.8101 5.71944 23.5886 6.70385 22.9551 7.41H26.01C26.4176 7.39224 26.8148 7.54187 27.1094 7.82417C27.404 8.10648 27.5704 8.49693 27.57 8.905V10.4C27.5441 11.166 26.9655 11.7996 26.2051 11.895V19.89L27.7 19.695ZM19.7709 5.34007C19.7234 5.39338 19.6999 5.4639 19.706 5.53506V6.70506H21.1359C21.8026 6.63805 22.3092 6.07518 22.3059 5.40506V5.21006C22.2929 5.07185 22.2484 4.93844 22.1759 4.82006C22.14 4.82006 22.1109 4.79096 22.1109 4.75506C22.0242 4.62506 21.9593 4.56006 21.9159 4.56006L21.7209 4.36506H20.7459C20.2942 4.4542 19.9234 4.77562 19.7709 5.21007V5.34007ZM18.4051 5.53494C18.4051 4.81697 17.823 4.23494 17.1051 4.23494C16.4011 4.26773 15.8378 4.831 15.8051 5.53494C15.8051 6.25291 16.3871 6.83494 17.1051 6.83494H18.4051V5.53494ZM13.27 18.21C14.1643 18.2952 15.0408 18.5143 15.87 18.86V11.905H13.27V18.21ZM17.365 19.64H21.07V11.905H17.17V19.51L17.365 19.64ZM22.37 20.29L24.9051 19.965V11.905H22.37V20.29ZM12.0351 10.54H26.1401V10.345H26.2051C26.2424 10.3077 26.2583 10.2918 26.265 10.2727C26.27 10.2585 26.27 10.2427 26.27 10.215V8.72003H11.97C11.9051 8.72003 11.9051 8.78503 11.9051 8.85003V10.475H11.9701C11.9701 10.5075 11.9701 10.5238 11.9782 10.5319C11.9863 10.54 12.0026 10.54 12.0351 10.54ZM8.19981 27.441H4.29981V17.041H8.19981V27.441Z" fill="black"/></svg>