<svg width="18" height="18" viewBox="0 0 18 18" fill="none" xmlns="http://www.w3.org/2000/svg">
    <circle cx="9" cy="9" r="9" fill="#333333"/>
    <path d="M5.97563 9.14019L5.82836 8.99794L5.68358 9.14273L5.42495 9.40135L5.27506 9.55124L5.42753 9.69851L7.05318 11.2687L7.20045 11.411L7.34524 11.2662L7.60386 11.0076L7.75375 10.8577L7.60128 10.7104L5.97563 9.14019Z" fill="white" stroke="white" stroke-width="0.416667"/>
    <path d="M12.4803 7.44238L12.6288 7.29507L12.4809 7.14715L12.2223 6.88852L12.0756 6.74184L11.9283 6.88787L7.6979 11.0813L7.69779 11.0812L7.69226 11.0871L7.43363 11.3642L7.29112 11.5169L7.44418 11.6591L7.7028 11.8992L7.84931 12.0352L7.99127 11.8945L12.4803 7.44238Z" fill="white" stroke="white" stroke-width="0.416667"/>
    </svg>