<svg width="32" height="33" viewBox="0 0 32 33" fill="none" xmlns="http://www.w3.org/2000/svg">
    <g clip-path="url(#clip0)">
    <path d="M18.5144 30.672H3.09375C2.54147 30.672 2.09375 30.2243 2.09375 29.672V10.9672M2.09375 10.9672H21.3458C21.8981 10.9672 22.3458 11.415 22.3458 11.9672V30.1246L27.1908 28.1867C27.5704 28.0348 27.8194 27.6671 27.8194 27.2582V9.23047C27.8194 8.67818 27.3717 8.23047 26.8194 8.23047H7.27906C7.10912 8.23047 6.94198 8.27378 6.79342 8.35631L2.09375 10.9672Z" stroke="black"/>
    <path d="M27.2738 8.77734L22.3477 11.5141" stroke="black"/>
    <path d="M14.684 8.23047L9.75781 10.9672V15.8934L10.8525 15.3461L11.9472 15.8934L13.0419 15.3461L14.1366 15.8934V11.5146L20.1575 8.23047" stroke="black"/>
    <path d="M4.28125 25.7461H6.47067" stroke="black"/>
    <path d="M4.28125 27.9355H8.66008" stroke="black"/>
    <circle cx="24.5336" cy="10.9672" r="6.6156" fill="#D1D1D1" stroke="black"/>
    <path d="M27.7704 8.22958C27.7704 7.95344 27.5466 7.72958 27.2704 7.72958L22.7704 7.72958C22.4943 7.72958 22.2704 7.95344 22.2704 8.22958C22.2704 8.50572 22.4943 8.72958 22.7704 8.72958L26.7704 8.72958L26.7704 12.7296C26.7704 13.0057 26.9943 13.2296 27.2704 13.2296C27.5466 13.2296 27.7704 13.0057 27.7704 12.7296L27.7704 8.22958ZM22.1504 14.0567L27.624 8.58314L26.9169 7.87603L21.4433 13.3496L22.1504 14.0567Z" fill="black"/>
    </g>
    <defs>
    <clipPath id="clip0">
    <rect width="31" height="27.3677" fill="white" transform="translate(1 3.85156)"/>
    </clipPath>
    </defs>
    </svg>
    