<svg width="32" height="32" viewBox="0 0 32 32" fill="none" xmlns="http://www.w3.org/2000/svg">
      <g clip-path="url(#clip0_2641:11920)">
      <path fill-rule="evenodd" clip-rule="evenodd" d="M7.58273 5.5C7.32781 5.5 7.0771 5.56497 6.85426 5.68876L1.85191 8.46785L1.59473 8.61073V8.90493V28.8204C1.59473 29.6488 2.2663 30.3204 3.09473 30.3204H19.5243V29.3204H3.09473C2.81858 29.3204 2.59473 29.0966 2.59473 28.8204V9.40493H22.5912C22.8673 9.40493 23.0912 9.62879 23.0912 9.90493V11.7795L24.0912 11.5545V9.90493C24.0912 9.0765 23.4196 8.40493 22.5912 8.40493H4.02429L7.3399 6.56292C7.41418 6.52166 7.49775 6.5 7.58273 6.5H28.4011C28.6772 6.5 28.9011 6.72386 28.9011 7V10.4723L29.9011 10.2473V7C29.9011 6.17157 29.2295 5.5 28.4011 5.5H7.58273ZM29.9011 25.4966L28.9011 25.7778V26.2385C28.9011 26.4429 28.7766 26.6268 28.5868 26.7027L24.0912 28.5009V27.1306L23.0912 27.4118V29.2394V29.9779L23.7769 29.7037L28.9581 27.6312C29.5276 27.4034 29.9011 26.8518 29.9011 26.2385V25.4966Z" fill="black"/>
      <path d="M28.8197 6.58008L23.5908 9.48501" stroke="black"/>
      <path d="M15.4574 6L10.2285 8.90493V14.1338L11.3905 13.5528L12.5525 14.1338L13.7144 13.5528L14.8764 14.1338V9.48592L21.2672 6" stroke="black"/>
      <path d="M4.41895 24.5918H6.74289" stroke="black"/>
      <path d="M4.41895 26.916H9.06683" stroke="black"/>
      <path d="M20.1934 15.3245L21.3239 14.1902C21.5701 13.9715 21.8023 14.0991 21.8876 14.1902L22.2446 14.4635L22.7941 14.9142C23.0774 14.7601 23.3715 14.6378 23.6728 14.5483L23.7909 13.3715C23.8122 13.1606 23.9895 13 24.2015 13H25.8026C26.0145 13 26.1918 13.1606 26.2131 13.3715L26.3312 14.5481C26.633 14.6378 26.9259 14.7599 27.2067 14.9136L28.1225 14.1626C28.2857 14.0284 28.5254 14.0393 28.6757 14.1898L29.8102 15.3241C29.8852 15.3991 29.9257 15.4965 29.9306 15.5957C29.9355 15.6948 29.9049 15.7957 29.8376 15.8777L29.0858 16.7939C29.2405 17.0784 29.363 17.3723 29.4521 17.6728L30.6285 17.7907C30.8396 17.8118 31 17.9893 31 18.2012V19.3954V19.8743C30.9836 19.9749 30.8866 20.1827 30.6297 20.2091L29.4484 20.3304C29.359 20.6322 29.2377 20.9249 29.0854 21.2059L29.8376 22.1225C29.9722 22.2865 29.9601 22.526 29.8102 22.6759L28.6757 23.8102C28.5254 23.9605 28.2857 23.972 28.1225 23.8374L27.2067 23.0862C26.9291 23.2371 26.6366 23.359 26.3312 23.4502L26.2131 24.6285C26.1918 24.8394 26.0145 25 25.8026 25H24.2015C23.9895 25 23.8122 24.8394 23.7909 24.6285L23.6728 23.4502C23.3678 23.359 23.0737 23.2369 22.7941 23.0856L21.8775 23.8374C21.7135 23.9718 21.4738 23.9603 21.3239 23.8098L20.1934 22.6755C20.0439 22.5256 20.0322 22.2871 20.166 22.1231L20.915 21.2063C20.7635 20.9265 20.641 20.6324 20.55 20.3274L19.3715 20.2093C19.1604 20.1882 19 20.0107 19 19.7988V18.2012C19 17.9897 19.16 17.8124 19.3703 17.7909L20.5536 17.6694C20.6446 17.3642 20.7655 17.0713 20.915 16.7939L20.166 15.8769C20.0322 15.7129 20.0439 15.4744 20.1934 15.3245Z" stroke="black"/>
      <path d="M23.3896 18.9991C23.3896 18.1107 24.1154 17.3887 25 17.3887C25.9041 17.3887 26.6104 18.1258 26.6104 18.9991C26.6104 19.8865 25.8875 20.6095 25 20.6095C24.1126 20.6095 23.3896 19.8865 23.3896 18.9991Z" stroke="black"/>
      </g>
      <defs>
      <clipPath id="clip0_2641:11920">
      <rect width="31" height="27.3677" fill="white" transform="translate(1 3)"/>
      </clipPath>
      </defs>
      </svg>
      