<svg width="32" height="32" viewBox="0 0 32 32" fill="none" xmlns="http://www.w3.org/2000/svg">
      <g clip-path="url(#clip0_2641:11992)">
      <path d="M18.5153 29.8204H3.09473C2.54244 29.8204 2.09473 29.3727 2.09473 28.8204V10.1157M2.09473 10.1157H21.3468C21.8991 10.1157 22.3468 10.5634 22.3468 11.1157V29.2731L27.1918 27.3351C27.5714 27.1832 27.8204 26.8155 27.8204 26.4066V8.3789C27.8204 7.82662 27.3727 7.37891 26.8204 7.37891H7.28004C7.1101 7.37891 6.94295 7.42222 6.7944 7.50475L2.09473 10.1157Z" stroke="black"/>
      <path d="M27.2729 7.92578L22.3467 10.6626" stroke="black"/>
      <path d="M14.684 7.37891L9.75781 10.1157V15.0419L10.8525 14.4945L11.9472 15.0419L13.0419 14.4945L14.1366 15.0419V10.663L20.1575 7.37891" stroke="black"/>
      <path d="M4.28418 24.8945H6.4736" stroke="black"/>
      <path d="M4.28418 27.084H8.66301" stroke="black"/>
      <circle cx="24.536" cy="10.1156" r="6.6156" fill="white" stroke="black"/>
      <path d="M27.7729 7.37802C27.7729 7.10188 27.549 6.87802 27.2729 6.87802L22.7729 6.87802C22.4967 6.87802 22.2729 7.10188 22.2729 7.37802C22.2729 7.65416 22.4967 7.87802 22.7729 7.87802L26.7729 7.87802L26.7729 11.878C26.7729 12.1542 26.9967 12.378 27.2729 12.378C27.549 12.378 27.7729 12.1542 27.7729 11.878L27.7729 7.37802ZM22.1529 13.2051L27.6264 7.73157L26.9193 7.02447L21.4458 12.498L22.1529 13.2051Z" fill="black"/>
      </g>
      <defs>
      <clipPath id="clip0_2641:11992">
      <rect width="31" height="27.3677" fill="white" transform="translate(1 3)"/>
      </clipPath>
      </defs>
      </svg>