<svg width="24" height="24" viewBox="0 0 32 32" fill="none" xmlns="http://www.w3.org/2000/svg"><path d="M28.0005 27.4424L5.79241 27.4424C5.11098 27.4424 4.55859 26.8966 4.55859 26.2232V7.54731C4.55859 6.87398 5.11098 6.32812 5.79238 6.32813H26.2058C26.8872 6.32812 27.4396 6.87398 27.4396 7.54732V25.0041" stroke="black"/><path d="M9.77441 4V6.32756" stroke="black"/><path d="M22.2246 4V6.32756" stroke="black"/><path fill-rule="evenodd" clip-rule="evenodd" d="M8.65276 9.65632H11.2325C11.4599 9.65457 11.6527 9.82127 11.6811 10.0443V12.6489C11.6527 12.8719 11.4599 13.0386 11.2325 13.0368H8.65276C8.53933 13.053 8.42439 13.0194 8.33816 12.9448C8.25191 12.8702 8.20293 12.7622 8.20412 12.6489V10.0442C8.20293 9.931 8.25191 9.82291 8.33816 9.74833C8.42439 9.67375 8.53933 9.64013 8.65276 9.65632Z" stroke="black"/><path fill-rule="evenodd" clip-rule="evenodd" d="M14.8214 9.65236H17.4572C17.6846 9.65061 17.8774 9.8173 17.9058 10.0403V12.6449C17.8774 12.8679 17.6846 13.0346 17.4571 13.0329H14.8213C14.6045 13.0329 14.4287 12.8592 14.4287 12.6449V10.0403C14.4287 9.9374 14.4701 9.83871 14.5437 9.76596C14.6173 9.69321 14.7172 9.65235 14.8213 9.65237L14.8214 9.65236Z" stroke="black"/><path fill-rule="evenodd" clip-rule="evenodd" d="M21.1587 9.65633H23.7384C23.9658 9.65458 24.1586 9.82128 24.187 10.0443V12.6489C24.1586 12.8719 23.9658 13.0386 23.7383 13.0368H21.1586C21.0452 13.053 20.9302 13.0194 20.844 12.9448C20.7578 12.8703 20.7088 12.7622 20.71 12.6489V10.0443C20.7088 9.931 20.7578 9.8229 20.844 9.74832C20.9303 9.67374 21.0452 9.64014 21.1587 9.65633Z" stroke="black"/><path fill-rule="evenodd" clip-rule="evenodd" d="M8.65276 15.1993H11.2325C11.4599 15.1975 11.6527 15.3642 11.6811 15.5872V18.1919C11.6527 18.4149 11.4599 18.5816 11.2325 18.5798H8.65276C8.53933 18.596 8.42439 18.5624 8.33816 18.4878C8.25191 18.4132 8.20293 18.3051 8.20412 18.1919V15.5872C8.20293 15.474 8.25191 15.3659 8.33816 15.2913C8.42439 15.2167 8.53933 15.1831 8.65276 15.1993Z" stroke="black"/><path fill-rule="evenodd" clip-rule="evenodd" d="M14.8214 15.1953H17.4572C17.6846 15.1936 17.8774 15.3603 17.9058 15.5833V18.1879C17.8774 18.4109 17.6846 18.5776 17.4571 18.5758H14.8213C14.6045 18.5758 14.4287 18.4022 14.4287 18.1879V15.5833C14.4287 15.4804 14.4701 15.3817 14.5437 15.3089C14.6173 15.2362 14.7172 15.1953 14.8213 15.1953L14.8214 15.1953Z" stroke="black"/><path fill-rule="evenodd" clip-rule="evenodd" d="M21.1587 15.1993H23.7384C23.9658 15.1976 24.1586 15.3642 24.187 15.5872V18.1919C24.1586 18.4149 23.9658 18.5816 23.7383 18.5798H21.1586C21.0452 18.596 20.9302 18.5624 20.844 18.4878C20.7578 18.4132 20.7088 18.3051 20.71 18.1919V15.5872C20.7088 15.474 20.7578 15.3659 20.844 15.2913C20.9303 15.2167 21.0452 15.1831 21.1587 15.1993Z" stroke="black"/><path fill-rule="evenodd" clip-rule="evenodd" d="M8.65749 20.741H11.2372C11.485 20.741 11.6858 20.9395 11.6858 21.1844V23.7336C11.6607 23.9674 11.4738 24.1521 11.2372 24.1769H8.65749C8.4097 24.1769 8.20885 23.9784 8.20885 23.7336V21.1844C8.18941 21.0619 8.23038 20.9376 8.31907 20.85C8.40779 20.7623 8.53354 20.7218 8.65749 20.741Z" stroke="black"/><path fill-rule="evenodd" clip-rule="evenodd" d="M14.8254 20.7363H17.4612C17.7089 20.7363 17.9098 20.9348 17.9098 21.1797V23.7289C17.8847 23.9627 17.6978 24.1475 17.4612 24.1723H14.8254C14.5997 24.1442 14.431 23.9537 14.4327 23.7289V21.1797C14.4164 21.0676 14.4504 20.954 14.5259 20.8688C14.6014 20.7835 14.7108 20.7352 14.8254 20.7363Z" stroke="black"/><path fill-rule="evenodd" clip-rule="evenodd" d="M21.1634 20.741H23.7431C23.9908 20.741 24.1917 20.9395 24.1917 21.1844V23.7336C24.1666 23.9674 23.9796 24.1521 23.7431 24.1769H21.1633C20.9156 24.1769 20.7147 23.9785 20.7147 23.7336V21.1844C20.6953 21.0619 20.7362 20.9376 20.825 20.8499C20.9136 20.7623 21.0394 20.7218 21.1634 20.741Z" stroke="black"/></svg>