<svg width="32" height="32" viewBox="0 0 32 32" fill="none" xmlns="http://www.w3.org/2000/svg"><path fill-rule="evenodd" clip-rule="evenodd" d="M23.3818 12.3301H26.0042V14.5342H23.3818V12.3301Z" stroke="black" stroke-linejoin="round"/><path d="M16.0281 14.1934C18.6098 14.1934 20.7027 16.2682 20.7027 18.8276C20.7027 21.387 18.6098 23.4618 16.0281 23.4618C13.4464 23.4618 11.3535 21.387 11.3535 18.8276C11.3731 17.0123 12.4352 15.3669 14.0898 14.589" stroke="black"/><path d="M18.9352 18.8848C18.936 20.4752 17.635 21.7663 16.0293 21.767" stroke="black" stroke-width="0.5"/><path d="M13.1211 18.8842C13.1203 17.2938 14.4214 16.0027 16.027 16.002" stroke="black" stroke-width="0.5"/><path d="M28 26.5714V10.0126H22.2423L19.962 6H12.38L10.0998 10.0126H8.27553C5.92707 10.043 4.03071 11.923 4 14.2512V25.9498H24.4085" stroke="black" stroke-linejoin="round"/><path fill-rule="evenodd" clip-rule="evenodd" d="M19.5171 9.67556H13.0753C12.8808 9.68687 12.6965 9.58792 12.5998 9.42016C12.5031 9.2524 12.5107 9.0448 12.6193 8.88437L13.3034 7.58453C13.3982 7.42072 13.5693 7.31469 13.7594 7.30196H18.8901C19.0879 7.28783 19.2722 7.40206 19.3461 7.58453L19.9732 8.88437C20.0818 9.0448 20.0893 9.25238 19.9926 9.42015C19.8959 9.58791 19.7117 9.68685 19.5171 9.67556Z" fill="black"/></svg>