<svg width="24" height="24" viewBox="0 0 24 24" fill="none" xmlns="http://www.w3.org/2000/svg">
    <g clip-path="url(#clip0_732_5192)">
    <path d="M4.25361 18.1608C2.76432 16.3825 1.95406 14.1336 1.96695 11.8141C1.9886 7.22589 5.16212 3.25464 9.6326 2.22155C14.1031 1.18845 18.6972 3.36467 20.7298 7.4782C22.7624 11.5917 21.6999 16.563 18.1634 19.4863C14.6269 22.4096 9.54457 22.5177 5.88695 19.7475" stroke="#FD4248" stroke-linecap="round"/>
    <path d="M15.8721 7.875L7.99707 16.125" stroke="#FD4248" stroke-linecap="round"/>
    <path fill-rule="evenodd" clip-rule="evenodd" d="M15.7719 16.4092C15.9672 16.6044 16.2838 16.6044 16.479 16.4092C16.6743 16.2139 16.6743 15.8973 16.479 15.7021L15.4441 14.6671L14.737 15.3742L15.7719 16.4092ZM14.0468 14.6841L14.7539 13.977L8.29749 7.52071C8.10223 7.32545 7.78564 7.32545 7.59038 7.52072C7.39512 7.71598 7.39513 8.03257 7.59039 8.22782L14.0468 14.6841Z" fill="#FD4248"/>
    </g>
    <defs>
    <clipPath id="clip0_732_5192">
    <rect width="24" height="24" fill="white"/>
    </clipPath>
    </defs>
    </svg>
    