<svg viewBox="0 0 60 60" fill="none" xmlns="http://www.w3.org/2000/svg">
      <path d="M46.6763 50.4945C35.6949 59.4426 19.6275 58.215 10.133 47.7025C0.638434 37.1899 1.04797 21.0809 11.0644 11.0644C21.0809 1.04797 37.1899 0.638434 47.7024 10.133C58.215 19.6275 59.4426 35.6949 50.4945 46.6763" stroke="black" stroke-linejoin="bevel"/>
      <g clip-path="url(#clip0)">
      <path d="M31.5144 42.8204H16.0938C15.5415 42.8204 15.0938 42.3727 15.0938 41.8204V23.1157M15.0938 23.1157H34.3458C34.8981 23.1157 35.3458 23.5634 35.3458 24.1157V42.2731L40.1908 40.3351C40.5704 40.1832 40.8194 39.8155 40.8194 39.4066V21.3789C40.8194 20.8266 40.3717 20.3789 39.8194 20.3789H20.2791C20.1091 20.3789 19.942 20.4222 19.7934 20.5047L15.0938 23.1157Z" stroke="black"/>
      <path d="M40.2719 20.9258L35.3457 23.6626" stroke="black"/>
      <path d="M27.682 20.3789L22.7559 23.1157V28.0419L23.8506 27.4945L24.9453 28.0419L26.04 27.4945L27.1347 28.0419V23.663L33.1556 20.3789" stroke="black"/>
      <path d="M17.2832 37.8945H19.4726" stroke="black"/>
      <path d="M17.2832 40.084H21.662" stroke="black"/>
      <circle cx="37" cy="24" r="7.5" fill="white" stroke="black"/>
      <path d="M34 27L40 21" stroke="black"/>
      <path d="M40 27L34 21" stroke="black"/>
      </g>
      <defs>
      <clipPath id="clip0">
      <rect width="31" height="27.3677" fill="white" transform="translate(14 16)"/>
      </clipPath>
      </defs>
      </svg>
      