<svg width="24" height="24" viewBox="0 0 32 32" fill="none" xmlns="http://www.w3.org/2000/svg"><path d="M7.73488 4.55814H10.1907C10.3254 4.55542 10.4428 4.64936 10.4698 4.7814V9.80465C10.4428 9.93669 10.3254 10.0306 10.1907 10.0279H5.22326C5.09996 10.0279 5 9.92795 5 9.80465V4" stroke="black"/><path d="M16.4419 4.55814H18.9535C19.0768 4.55814 19.1768 4.65809 19.1768 4.7814V9.80465C19.1768 9.92795 19.0768 10.0279 18.9535 10.0279H13.9303C13.807 10.0279 13.707 9.92795 13.707 9.80465V4" stroke="black"/><path d="M25.1489 4.55814H27.6606C27.7839 4.55814 27.8838 4.65809 27.8838 4.7814V9.80465C27.8838 9.92795 27.7839 10.0279 27.6606 10.0279H22.6931C22.5584 10.0306 22.441 9.93669 22.4141 9.80465V4" stroke="black"/><path d="M7.73488 13.2652H10.1907C10.3254 13.2625 10.4428 13.3564 10.4698 13.4884V18.5117C10.4428 18.6437 10.3254 18.7377 10.1907 18.7349H5.22326C5.09996 18.7349 5 18.635 5 18.5117V12.707" stroke="black"/><path d="M16.4419 13.2652H18.9535C19.0768 13.2652 19.1768 13.3651 19.1768 13.4884V18.5117C19.1768 18.635 19.0768 18.7349 18.9535 18.7349H13.9303C13.807 18.7349 13.707 18.635 13.707 18.5117V12.707" stroke="black"/><path d="M25.1489 13.2652H27.6606C27.7839 13.2652 27.8838 13.3651 27.8838 13.4884V18.5117C27.8838 18.635 27.7839 18.7349 27.6606 18.7349H22.6931C22.5584 18.7377 22.441 18.6437 22.4141 18.5117V12.707" stroke="black"/><path d="M7.73488 21.9722H10.1907C10.3254 21.9695 10.4428 22.0634 10.4698 22.1955V27.2187C10.4428 27.3508 10.3254 27.4447 10.1907 27.442H5.22326C5.09995 27.442 5 27.342 5 27.2187V21.4141" stroke="black"/><path d="M16.4419 21.9722H18.9535C19.0768 21.9722 19.1768 22.0722 19.1768 22.1955V27.2187C19.1768 27.342 19.0768 27.442 18.9535 27.442H13.9303C13.807 27.442 13.707 27.342 13.707 27.2187V21.4141" stroke="black"/><path d="M25.1489 21.9722H27.6606C27.7839 21.9722 27.8838 22.0722 27.8838 22.1955V27.2187C27.8838 27.342 27.7839 27.442 27.6606 27.442H22.6931C22.5584 27.4447 22.441 27.3508 22.4141 27.2187V21.4141" stroke="black"/></svg>