<svg width="38" height="38" viewBox="0 0 38 38" fill="none" xmlns="http://www.w3.org/2000/svg">
      <path d="M28.1881 0.000466161C28.1749 -0.000127277 28.1616 -0.000154154 28.1484 0.000385751C27.6846 0.0193526 27.2761 0.291986 27.064 0.699775L24.4715 5.38731L19.3705 6.52626C18.9277 6.62203 18.5752 6.94668 18.4251 7.36997C18.4211 7.3815 18.4174 7.39317 18.4143 7.40498C18.2969 7.84386 18.3903 8.3174 18.6711 8.67521C18.676 8.68145 18.6811 8.68756 18.6863 8.69354L20.8897 11.2219C21.0093 11.2098 21.1303 11.2037 21.2523 11.2037C21.5816 11.2037 21.9029 11.2485 22.2127 11.3336L19.392 8.09691C19.3019 7.97719 19.2669 7.81616 19.3024 7.66188C19.3533 7.53508 19.456 7.45294 19.5664 7.42927L19.5701 7.42844L24.8758 6.2438C25.0049 6.21498 25.1154 6.13223 25.1794 6.0165L27.8758 1.14124L27.8827 1.1283C27.9451 1.00636 28.0549 0.936289 28.167 0.924985C28.2989 0.937609 28.4264 1.01468 28.5055 1.14698L31.1987 6.0165C31.2625 6.13198 31.3728 6.21464 31.5015 6.24362L36.7637 7.42827C36.7757 7.43096 36.7877 7.43317 36.7999 7.43491C36.8972 7.4488 36.9939 7.52455 37.0296 7.65042C37.0344 7.66731 37.0401 7.68391 37.0468 7.70014C37.1017 7.83343 37.0771 7.98641 36.9917 8.09056L33.3422 12.2783L34.0388 12.8853L37.6919 8.69353L37.6977 8.68666C38.0035 8.32162 38.0824 7.81424 37.911 7.3728C37.7765 6.93405 37.4109 6.59713 36.9509 6.52327L31.9069 5.38774L29.3109 0.694038L29.3053 0.6842C29.0707 0.283457 28.6544 0.021433 28.1881 0.000466161Z" fill="black"/>
      <path d="M28.2268 16.3155C28.4036 16.6785 28.5291 17.0711 28.5939 17.4838L32.9285 19.5154C33.3576 19.7172 33.8571 19.6606 34.2325 19.3729C34.2378 19.3688 34.2431 19.3645 34.2483 19.3602C34.5913 19.0725 34.7627 18.6282 34.7155 18.1854L34.3679 14.4526L33.4479 14.5383L33.7958 18.2745L33.7966 18.282C33.8123 18.4257 33.7572 18.5613 33.6622 18.6456C33.5593 18.72 33.4318 18.731 33.3217 18.6793L28.3634 16.3553C28.3197 16.3348 28.2736 16.3215 28.2268 16.3155Z" fill="black"/>
      <path fill-rule="evenodd" clip-rule="evenodd" d="M2.70145 38H1.86975V28.8726C0.517404 28.0243 -0.207865 26.4305 0.0524086 24.8273C0.334282 23.0949 1.75318 21.7412 3.50268 21.5349C3.51644 21.5333 3.53015 21.5326 3.54391 21.532C3.55581 21.5316 3.56771 21.531 3.57961 21.5299C3.78766 15.2913 8.92449 10.2796 15.2134 10.2796H18.0512C24.34 10.2796 29.4768 15.2913 29.6849 21.5298L29.7014 21.5311L29.7205 21.532C29.7342 21.5326 29.7481 21.5332 29.7618 21.5349C31.5113 21.7412 32.9302 23.0949 33.212 24.8272C33.4724 26.4305 32.7471 28.0243 31.3947 28.8726V38H30.5631V28.6341C30.5631 28.575 30.5756 28.5179 30.5988 28.4656C30.6236 28.4099 30.6605 28.3599 30.707 28.3197C30.7294 28.3003 30.7541 28.2831 30.7807 28.2687C31.98 27.6187 32.6119 26.32 32.3909 24.9605C32.1688 23.5929 31.0476 22.5238 29.6644 22.3607C29.5353 22.3455 29.4071 22.3381 29.279 22.3381L29.278 22.3378L29.2745 22.3376C28.5001 22.3376 27.7687 22.6137 27.1835 23.1341C26.5098 23.7329 26.1236 24.5927 26.1236 25.4932V38H25.2919V35.0201H7.97256V38H7.14087V25.4932C7.14087 24.5927 6.75472 23.7329 6.081 23.1341C5.39831 22.527 4.51625 22.2536 3.60014 22.3607C2.21694 22.5238 1.0957 23.5929 0.873553 24.9608C0.652645 26.32 1.28452 27.6187 2.48375 28.2687C2.61775 28.3414 2.70145 28.4818 2.70145 28.6341V38ZM25.2919 34.1885V28.9658C16.1071 25.7583 8.96059 28.5312 7.97256 28.9511V34.1885H25.2919ZM18.0512 11.1113H15.2134C9.38176 11.1113 4.61692 15.752 4.41119 21.5336C5.23171 21.6227 6.01089 21.9591 6.63369 22.5127C7.48444 23.269 7.97256 24.3553 7.97256 25.4932V27.9142L7.90111 28.1593C9.28724 27.6049 12.5586 26.704 16.218 26.704C18.4983 26.704 20.897 27 22.6998 27.3405C23.5414 27.5415 24.4064 27.7887 25.2919 28.0886V25.4932C25.2919 24.3553 25.7801 23.269 26.6308 22.5127C27.2533 21.9591 28.0335 21.6222 28.8533 21.533C28.6474 15.7518 23.8826 11.1113 18.0512 11.1113Z" fill="black"/>
      </svg>