<svg width="32" height="32" viewBox="0 0 34 34" fill="none" xmlns="http://www.w3.org/2000/svg">
      <mask id="path-1-outside-1" maskUnits="userSpaceOnUse" x="0" y="0" width="34" height="34" fill="black">
      <rect fill="white" width="34" height="34"/>
      <path d="M24.7373 1.00039C24.7262 0.999893 24.7151 0.99987 24.704 1.00032C24.3133 1.0163 23.9693 1.24588 23.7908 1.58928L21.6076 5.53668L17.312 6.4958C16.9391 6.57644 16.6422 6.84983 16.5159 7.20629C16.5125 7.216 16.5094 7.22583 16.5068 7.23577C16.408 7.60536 16.4866 8.00413 16.723 8.30544C16.7272 8.31069 16.7314 8.31584 16.7358 8.32088L18.5913 10.45C18.6921 10.4398 18.7939 10.4347 18.8967 10.4347C19.174 10.4347 19.4445 10.4724 19.7054 10.5441L17.3301 7.81845C17.2542 7.71763 17.2248 7.58203 17.2547 7.45211C17.2975 7.34533 17.384 7.27616 17.4769 7.25623L17.4801 7.25553L21.9481 6.25794C22.0568 6.23367 22.1498 6.16398 22.2037 6.06652L24.4743 1.96104L24.4801 1.95014C24.5328 1.84746 24.6252 1.78845 24.7196 1.77893C24.8307 1.78957 24.938 1.85447 25.0046 1.96588L27.2726 6.06652C27.3264 6.16377 27.4192 6.23338 27.5276 6.25779L31.9589 7.25538C31.969 7.25765 31.9791 7.25951 31.9894 7.26097C32.0713 7.27267 32.1527 7.33647 32.1828 7.44246C32.1868 7.45668 32.1917 7.47066 32.1973 7.48433C32.2435 7.59658 32.2228 7.7254 32.1509 7.8131L29.0776 11.3396L29.6642 11.8508L32.7405 8.32086L32.7455 8.31508C33.003 8.00768 33.0694 7.58041 32.925 7.20867C32.8118 6.8392 32.5039 6.55548 32.1166 6.49328L27.8689 5.53704L25.6829 1.58445L25.6782 1.57617C25.4806 1.2387 25.1301 1.01805 24.7373 1.00039Z"/>
      <path d="M24.7699 14.7393C24.9188 15.045 25.0245 15.3756 25.0791 15.7232L28.7293 17.4341C29.0906 17.604 29.5112 17.5563 29.8273 17.314C29.8319 17.3105 29.8363 17.307 29.8407 17.3033C30.1295 17.061 30.2739 16.6869 30.2341 16.314L29.9414 13.1706L29.1666 13.2428L29.4596 16.389L29.4603 16.3954C29.4735 16.5164 29.4271 16.6306 29.3471 16.7016C29.2605 16.7642 29.1531 16.7735 29.0604 16.7299L24.885 14.7729C24.8482 14.7556 24.8094 14.7445 24.7699 14.7393Z"/>
      <path fill-rule="evenodd" clip-rule="evenodd" d="M3.2749 33H2.57453V25.3138C1.43571 24.5994 0.824956 23.2572 1.04413 21.9072C1.2815 20.4483 2.47636 19.3083 3.94963 19.1346C3.96121 19.1333 3.97276 19.1327 3.98434 19.1322C3.99436 19.1319 4.00439 19.1314 4.01441 19.1304C4.18961 13.8769 8.51536 9.65654 13.8112 9.65654H16.201C21.4969 9.65654 25.8226 13.8769 25.9978 19.1303L26.0117 19.1315L26.0278 19.1322C26.0394 19.1327 26.051 19.1332 26.0626 19.1346C27.5358 19.3083 28.7307 20.4483 28.968 21.9071C29.1873 23.2572 28.5765 24.5994 27.4377 25.3138V33H26.7373V25.113C26.7373 25.0632 26.7479 25.015 26.7674 24.9711C26.7883 24.9241 26.8193 24.8821 26.8586 24.8481C26.8774 24.8318 26.8982 24.8174 26.9206 24.8052C27.9305 24.2578 28.4626 23.1642 28.2766 22.0194C28.0895 20.8677 27.1453 19.9674 25.9805 19.8301C25.8718 19.8173 25.7639 19.811 25.656 19.811L25.6551 19.8108L25.6523 19.8106C25.0001 19.8106 24.3842 20.0431 23.8914 20.4813C23.324 20.9856 22.9988 21.7097 22.9988 22.4679V33H22.2984V30.4906H7.71374V33H7.01336V22.4679C7.01336 21.7097 6.68818 20.9856 6.12084 20.4813C5.54594 19.9701 4.80316 19.7399 4.03169 19.8301C2.86689 19.9674 1.9227 20.8677 1.73562 22.0196C1.5496 23.1642 2.0817 24.2578 3.09158 24.8052C3.20442 24.8665 3.2749 24.9846 3.2749 25.113V33ZM22.2984 29.7903V25.3922C14.5639 22.6912 8.54576 25.0262 7.71374 25.3799V29.7903H22.2984ZM16.201 10.3569H13.8112C8.90043 10.3569 4.88793 14.2648 4.71468 19.1336C5.40565 19.2086 6.06181 19.4918 6.58626 19.958C7.30269 20.5949 7.71374 21.5097 7.71374 22.4679V24.5067L7.65356 24.7131C8.82083 24.2462 11.5756 23.4876 14.6573 23.4876C16.5775 23.4876 18.5975 23.7368 20.1156 24.0236C20.8243 24.1928 21.5528 24.401 22.2984 24.6535V22.4679C22.2984 21.5097 22.7095 20.5949 23.4259 19.958C23.9501 19.4918 24.6072 19.2081 25.2975 19.1331C25.1241 14.2646 21.1116 10.3569 16.201 10.3569Z"/>
      </mask>
      <path d="M24.7373 1.00039C24.7262 0.999893 24.7151 0.99987 24.704 1.00032C24.3133 1.0163 23.9693 1.24588 23.7908 1.58928L21.6076 5.53668L17.312 6.4958C16.9391 6.57644 16.6422 6.84983 16.5159 7.20629C16.5125 7.216 16.5094 7.22583 16.5068 7.23577C16.408 7.60536 16.4866 8.00413 16.723 8.30544C16.7272 8.31069 16.7314 8.31584 16.7358 8.32088L18.5913 10.45C18.6921 10.4398 18.7939 10.4347 18.8967 10.4347C19.174 10.4347 19.4445 10.4724 19.7054 10.5441L17.3301 7.81845C17.2542 7.71763 17.2248 7.58203 17.2547 7.45211C17.2975 7.34533 17.384 7.27616 17.4769 7.25623L17.4801 7.25553L21.9481 6.25794C22.0568 6.23367 22.1498 6.16398 22.2037 6.06652L24.4743 1.96104L24.4801 1.95014C24.5328 1.84746 24.6252 1.78845 24.7196 1.77893C24.8307 1.78957 24.938 1.85447 25.0046 1.96588L27.2726 6.06652C27.3264 6.16377 27.4192 6.23338 27.5276 6.25779L31.9589 7.25538C31.969 7.25765 31.9791 7.25951 31.9894 7.26097C32.0713 7.27267 32.1527 7.33647 32.1828 7.44246C32.1868 7.45668 32.1917 7.47066 32.1973 7.48433C32.2435 7.59658 32.2228 7.7254 32.1509 7.8131L29.0776 11.3396L29.6642 11.8508L32.7405 8.32086L32.7455 8.31508C33.003 8.00768 33.0694 7.58041 32.925 7.20867C32.8118 6.8392 32.5039 6.55548 32.1166 6.49328L27.8689 5.53704L25.6829 1.58445L25.6782 1.57617C25.4806 1.2387 25.1301 1.01805 24.7373 1.00039Z" fill="white"/>
      <path d="M24.7699 14.7393C24.9188 15.045 25.0245 15.3756 25.0791 15.7232L28.7293 17.4341C29.0906 17.604 29.5112 17.5563 29.8273 17.314C29.8319 17.3105 29.8363 17.307 29.8407 17.3033C30.1295 17.061 30.2739 16.6869 30.2341 16.314L29.9414 13.1706L29.1666 13.2428L29.4596 16.389L29.4603 16.3954C29.4735 16.5164 29.4271 16.6306 29.3471 16.7016C29.2605 16.7642 29.1531 16.7735 29.0604 16.7299L24.885 14.7729C24.8482 14.7556 24.8094 14.7445 24.7699 14.7393Z" fill="white"/>
      <path fill-rule="evenodd" clip-rule="evenodd" d="M3.2749 33H2.57453V25.3138C1.43571 24.5994 0.824956 23.2572 1.04413 21.9072C1.2815 20.4483 2.47636 19.3083 3.94963 19.1346C3.96121 19.1333 3.97276 19.1327 3.98434 19.1322C3.99436 19.1319 4.00439 19.1314 4.01441 19.1304C4.18961 13.8769 8.51536 9.65654 13.8112 9.65654H16.201C21.4969 9.65654 25.8226 13.8769 25.9978 19.1303L26.0117 19.1315L26.0278 19.1322C26.0394 19.1327 26.051 19.1332 26.0626 19.1346C27.5358 19.3083 28.7307 20.4483 28.968 21.9071C29.1873 23.2572 28.5765 24.5994 27.4377 25.3138V33H26.7373V25.113C26.7373 25.0632 26.7479 25.015 26.7674 24.9711C26.7883 24.9241 26.8193 24.8821 26.8586 24.8481C26.8774 24.8318 26.8982 24.8174 26.9206 24.8052C27.9305 24.2578 28.4626 23.1642 28.2766 22.0194C28.0895 20.8677 27.1453 19.9674 25.9805 19.8301C25.8718 19.8173 25.7639 19.811 25.656 19.811L25.6551 19.8108L25.6523 19.8106C25.0001 19.8106 24.3842 20.0431 23.8914 20.4813C23.324 20.9856 22.9988 21.7097 22.9988 22.4679V33H22.2984V30.4906H7.71374V33H7.01336V22.4679C7.01336 21.7097 6.68818 20.9856 6.12084 20.4813C5.54594 19.9701 4.80316 19.7399 4.03169 19.8301C2.86689 19.9674 1.9227 20.8677 1.73562 22.0196C1.5496 23.1642 2.0817 24.2578 3.09158 24.8052C3.20442 24.8665 3.2749 24.9846 3.2749 25.113V33ZM22.2984 29.7903V25.3922C14.5639 22.6912 8.54576 25.0262 7.71374 25.3799V29.7903H22.2984ZM16.201 10.3569H13.8112C8.90043 10.3569 4.88793 14.2648 4.71468 19.1336C5.40565 19.2086 6.06181 19.4918 6.58626 19.958C7.30269 20.5949 7.71374 21.5097 7.71374 22.4679V24.5067L7.65356 24.7131C8.82083 24.2462 11.5756 23.4876 14.6573 23.4876C16.5775 23.4876 18.5975 23.7368 20.1156 24.0236C20.8243 24.1928 21.5528 24.401 22.2984 24.6535V22.4679C22.2984 21.5097 22.7095 20.5949 23.4259 19.958C23.9501 19.4918 24.6072 19.2081 25.2975 19.1331C25.1241 14.2646 21.1116 10.3569 16.201 10.3569Z" fill="white"/>
      <path d="M24.704 1.00032L24.7121 1.20016L24.7121 1.20016L24.704 1.00032ZM24.7373 1.00039L24.7463 0.800594V0.800594L24.7373 1.00039ZM23.7908 1.58928L23.9658 1.68611L23.9682 1.68155L23.7908 1.58928ZM21.6076 5.53668L21.6512 5.73187C21.707 5.7194 21.7549 5.68358 21.7826 5.63348L21.6076 5.53668ZM17.312 6.4958L17.3542 6.69128L17.3555 6.69099L17.312 6.4958ZM16.5159 7.20629L16.3274 7.13949V7.13949L16.5159 7.20629ZM16.5068 7.23577L16.3135 7.18412V7.18412L16.5068 7.23577ZM16.723 8.30544L16.5657 8.4289V8.4289L16.723 8.30544ZM16.7358 8.32088L16.585 8.45227L16.585 8.45228L16.7358 8.32088ZM18.5913 10.45L18.4405 10.5814C18.4831 10.6303 18.5468 10.6555 18.6114 10.649L18.5913 10.45ZM19.7054 10.5441L19.6524 10.7369C19.7375 10.7603 19.8278 10.7252 19.8748 10.6505C19.9217 10.5758 19.9142 10.4792 19.8562 10.4127L19.7054 10.5441ZM17.3301 7.81845L17.1703 7.93868C17.1731 7.94251 17.1762 7.94624 17.1793 7.94985L17.3301 7.81845ZM17.2547 7.45211L17.069 7.37762C17.0652 7.38725 17.0621 7.39716 17.0597 7.40727L17.2547 7.45211ZM17.4769 7.25623L17.5189 7.45178L17.5197 7.4516L17.4769 7.25623ZM17.4801 7.25553L17.5229 7.45091L17.5237 7.45073L17.4801 7.25553ZM21.9481 6.25794L21.9916 6.45313V6.45313L21.9481 6.25794ZM22.2037 6.06652L22.3788 6.16332L22.2037 6.06652ZM24.4743 1.96104L24.6494 2.05785L24.6509 2.05504L24.4743 1.96104ZM24.4801 1.95014L24.6567 2.04415L24.6581 2.04134L24.4801 1.95014ZM24.7196 1.77893L24.7387 1.57984C24.7256 1.5786 24.7125 1.57863 24.6995 1.57994L24.7196 1.77893ZM25.0046 1.96588L25.1798 1.86903L25.1763 1.86323L25.0046 1.96588ZM27.2726 6.06652L27.4476 5.96973L27.2726 6.06652ZM27.5276 6.25779L27.5715 6.06267V6.06267L27.5276 6.25779ZM31.9589 7.25538L32.0028 7.06027L32.0028 7.06026L31.9589 7.25538ZM31.9894 7.26097L31.9611 7.45897L31.9611 7.45897L31.9894 7.26097ZM32.1828 7.44246L31.9904 7.49705L32.1828 7.44246ZM32.1973 7.48433L32.3822 7.40821V7.40821L32.1973 7.48433ZM32.1509 7.8131L32.3017 7.94456L32.3055 7.93995L32.1509 7.8131ZM29.0776 11.3396L28.9268 11.2082C28.8543 11.2915 28.8629 11.4178 28.9462 11.4904L29.0776 11.3396ZM29.6642 11.8508L29.5328 12.0016C29.5728 12.0364 29.625 12.054 29.6779 12.0503C29.7308 12.0467 29.7801 12.0222 29.815 11.9822L29.6642 11.8508ZM32.7405 8.32086L32.8913 8.45227L32.8926 8.45078L32.7405 8.32086ZM32.7455 8.31508L32.8975 8.44501L32.8988 8.44351L32.7455 8.31508ZM32.925 7.20867L32.7338 7.2673C32.7353 7.27194 32.7369 7.27654 32.7386 7.28107L32.925 7.20867ZM32.1166 6.49328L32.0725 6.68877L32.0848 6.69075L32.1166 6.49328ZM27.8689 5.53704L27.6939 5.63384C27.7216 5.68383 27.7693 5.71961 27.825 5.73216L27.8689 5.53704ZM25.6829 1.58445L25.8579 1.48765L25.8567 1.48552L25.6829 1.58445ZM25.6782 1.57617L25.852 1.47723L25.8508 1.47511L25.6782 1.57617ZM24.7699 14.7393L24.7957 14.541C24.7227 14.5315 24.6505 14.5629 24.6076 14.6226C24.5646 14.6823 24.5579 14.7608 24.5901 14.8269L24.7699 14.7393ZM25.0791 15.7232L24.8815 15.7542C24.8918 15.8199 24.934 15.8761 24.9942 15.9043L25.0791 15.7232ZM28.7293 17.4341L28.8144 17.2531L28.8141 17.253L28.7293 17.4341ZM29.8273 17.314L29.949 17.4727L29.949 17.4727L29.8273 17.314ZM29.8407 17.3033L29.7122 17.1501L29.7121 17.1501L29.8407 17.3033ZM30.2341 16.314L30.035 16.3325L30.0352 16.3352L30.2341 16.314ZM29.9414 13.1706L30.1405 13.1521C30.1356 13.0993 30.1099 13.0506 30.0691 13.0167C30.0283 12.9828 29.9757 12.9666 29.9229 12.9715L29.9414 13.1706ZM29.1666 13.2428L29.1481 13.0436C29.0381 13.0539 28.9573 13.1513 28.9675 13.2613L29.1666 13.2428ZM29.4596 16.389L29.2605 16.4076L29.2606 16.4092L29.4596 16.389ZM29.4603 16.3954L29.2613 16.4156L29.2615 16.4172L29.4603 16.3954ZM29.3471 16.7016L29.4643 16.8636C29.4697 16.8597 29.4748 16.8556 29.4798 16.8512L29.3471 16.7016ZM29.0604 16.7299L29.1455 16.5489L29.1453 16.5488L29.0604 16.7299ZM24.885 14.7729L24.9698 14.5918L24.9698 14.5918L24.885 14.7729ZM2.57453 33H2.37453V33.2H2.57453V33ZM3.2749 33V33.2H3.4749V33H3.2749ZM2.57453 25.3138H2.77453V25.2031L2.68081 25.1443L2.57453 25.3138ZM1.04413 21.9072L0.846729 21.8751L0.846718 21.8752L1.04413 21.9072ZM3.94963 19.1346L3.92683 18.9359L3.9262 18.936L3.94963 19.1346ZM3.98434 19.1322L3.97677 18.9324L3.97615 18.9324L3.98434 19.1322ZM4.01441 19.1304L4.03328 19.3295L4.20843 19.3129L4.2143 19.1371L4.01441 19.1304ZM25.9978 19.1303L25.7979 19.137L25.8039 19.3151L25.9814 19.3297L25.9978 19.1303ZM26.0117 19.1315L25.9953 19.3309L26.0022 19.3313L26.0117 19.1315ZM26.0278 19.1322L26.0183 19.332L26.0196 19.3321L26.0278 19.1322ZM26.0626 19.1346L26.0382 19.3331L26.0392 19.3332L26.0626 19.1346ZM28.968 21.9071L29.1654 21.8751L29.1654 21.875L28.968 21.9071ZM27.4377 25.3138L27.3314 25.1443L27.2377 25.2031V25.3138H27.4377ZM27.4377 33V33.2H27.6377V33H27.4377ZM26.7373 33H26.5373V33.2H26.7373V33ZM26.7674 24.9711L26.5847 24.8898L26.5846 24.8899L26.7674 24.9711ZM26.8586 24.8481L26.9893 24.9994L26.9895 24.9993L26.8586 24.8481ZM26.9206 24.8052L27.0158 24.9811L27.0159 24.981L26.9206 24.8052ZM28.2766 22.0194L28.0792 22.0515L28.0792 22.0515L28.2766 22.0194ZM25.9805 19.8301L25.9571 20.0287H25.9571L25.9805 19.8301ZM25.656 19.811L25.6126 20.0062L25.634 20.011H25.656V19.811ZM25.6551 19.8108L25.6985 19.6156L25.6836 19.6122L25.6682 19.6112L25.6551 19.8108ZM25.6523 19.8106L25.6654 19.6106H25.6523V19.8106ZM23.8914 20.4813L24.0242 20.6308L24.0243 20.6308L23.8914 20.4813ZM22.9988 33V33.2H23.1988V33H22.9988ZM22.2984 33H22.0984V33.2H22.2984V33ZM22.2984 30.4906H22.4984V30.2906H22.2984V30.4906ZM7.71374 30.4906V30.2906H7.51374V30.4906H7.71374ZM7.71374 33V33.2H7.91374V33H7.71374ZM7.01336 33H6.81336V33.2H7.01336V33ZM6.12084 20.4813L5.98794 20.6308L5.98797 20.6308L6.12084 20.4813ZM4.03169 19.8301L4.00846 19.6314L4.00827 19.6315L4.03169 19.8301ZM1.73562 22.0196L1.93303 22.0517L1.93304 22.0516L1.73562 22.0196ZM3.09158 24.8052L3.18701 24.6294L3.18689 24.6294L3.09158 24.8052ZM22.2984 25.3922H22.4984V25.2502L22.3644 25.2034L22.2984 25.3922ZM22.2984 29.7903V29.9903H22.4984V29.7903H22.2984ZM7.71374 25.3799L7.6355 25.1958L7.51374 25.2476V25.3799H7.71374ZM7.71374 29.7903H7.51374V29.9903H7.71374V29.7903ZM4.71468 19.1336L4.51481 19.1265L4.50819 19.3123L4.69309 19.3324L4.71468 19.1336ZM6.58626 19.958L6.71914 19.8086L6.71914 19.8086L6.58626 19.958ZM7.71374 24.5067L7.90574 24.5626L7.91374 24.5352V24.5067H7.71374ZM7.65356 24.7131L7.46156 24.6571L7.34666 25.0512L7.72783 24.8988L7.65356 24.7131ZM20.1156 24.0236L20.1621 23.8288L20.1527 23.8271L20.1156 24.0236ZM22.2984 24.6535L22.2343 24.843L22.4984 24.9324V24.6535H22.2984ZM23.4259 19.958L23.5588 20.1075L23.5589 20.1075L23.4259 19.958ZM25.2975 19.1331L25.3191 19.3319L25.504 19.3118L25.4974 19.126L25.2975 19.1331ZM24.7121 1.20016C24.7175 1.19994 24.7229 1.19995 24.7283 1.20019L24.7463 0.800594C24.7295 0.799838 24.7126 0.799803 24.6958 0.800492L24.7121 1.20016ZM23.9682 1.68155C24.1153 1.3987 24.3965 1.21306 24.7121 1.20016L24.6958 0.800492C24.2302 0.81953 23.8234 1.09307 23.6133 1.49702L23.9682 1.68155ZM21.7826 5.63348L23.9658 1.68608L23.6157 1.49249L21.4326 5.43989L21.7826 5.63348ZM17.3555 6.69099L21.6512 5.73187L21.564 5.34149L17.2684 6.3006L17.3555 6.69099ZM16.7044 7.2731C16.8088 6.97868 17.0525 6.75654 17.3542 6.69128L17.2697 6.30032C16.8258 6.39634 16.4757 6.72098 16.3274 7.13949L16.7044 7.2731ZM16.7 7.28743C16.7013 7.28261 16.7027 7.27783 16.7044 7.2731L16.3274 7.13949C16.3222 7.15416 16.3176 7.16905 16.3135 7.18412L16.7 7.28743ZM16.8804 8.18197C16.6835 7.93105 16.6171 7.59736 16.7 7.28743L16.3135 7.18412C16.1988 7.61336 16.2897 8.07721 16.5657 8.4289L16.8804 8.18197ZM16.8866 8.18948C16.8844 8.18703 16.8824 8.18453 16.8804 8.18197L16.5657 8.4289C16.5719 8.43686 16.5784 8.44465 16.585 8.45227L16.8866 8.18948ZM18.7421 10.3186L16.8866 8.18947L16.585 8.45228L18.4405 10.5814L18.7421 10.3186ZM18.6114 10.649C18.7055 10.6395 18.8006 10.6347 18.8967 10.6347V10.2347C18.7872 10.2347 18.6786 10.2402 18.5712 10.251L18.6114 10.649ZM18.8967 10.6347C19.1557 10.6347 19.4084 10.6699 19.6524 10.7369L19.7584 10.3512C19.4806 10.2749 19.1923 10.2347 18.8967 10.2347V10.6347ZM17.1793 7.94985L19.5547 10.6755L19.8562 10.4127L17.4809 7.68705L17.1793 7.94985ZM17.0597 7.40727C17.0169 7.59371 17.0583 7.78991 17.1703 7.93868L17.4899 7.69822C17.4501 7.64535 17.4327 7.57034 17.4496 7.49694L17.0597 7.40727ZM17.435 7.06068C17.2744 7.09513 17.1356 7.21167 17.069 7.37762L17.4403 7.52659C17.4594 7.47899 17.4937 7.45719 17.5189 7.45178L17.435 7.06068ZM17.4373 7.06016L17.4342 7.06085L17.5197 7.4516L17.5229 7.45091L17.4373 7.06016ZM21.9045 6.06274L17.4365 7.06034L17.5237 7.45073L21.9916 6.45313L21.9045 6.06274ZM22.0287 5.96973C22.0025 6.01709 21.9573 6.05095 21.9045 6.06274L21.9916 6.45313C22.1562 6.41638 22.2971 6.31088 22.3788 6.16332L22.0287 5.96973ZM24.2993 1.86425L22.0287 5.96973L22.3788 6.16332L24.6494 2.05784L24.2993 1.86425ZM24.3036 1.85615L24.2978 1.86705L24.6509 2.05504L24.6567 2.04414L24.3036 1.85615ZM24.6995 1.57994C24.5353 1.5965 24.3846 1.69792 24.3021 1.85895L24.6581 2.04134C24.6809 1.997 24.715 1.98041 24.7397 1.97793L24.6995 1.57994ZM25.1763 1.86323C25.0781 1.69905 24.9151 1.59673 24.7387 1.57984L24.7006 1.97803C24.7463 1.9824 24.7979 2.00988 24.833 2.06854L25.1763 1.86323ZM27.4476 5.96973L25.1797 1.86909L24.8296 2.06268L27.0976 6.16332L27.4476 5.96973ZM27.5715 6.06267C27.5188 6.05081 27.4737 6.01698 27.4476 5.96973L27.0976 6.16332C27.179 6.31056 27.3195 6.41595 27.4837 6.4529L27.5715 6.06267ZM32.0028 7.06026L27.5715 6.06267L27.4837 6.4529L31.915 7.4505L32.0028 7.06026ZM32.0176 7.06298C32.0127 7.06227 32.0077 7.06137 32.0028 7.06027L31.915 7.4505C31.9302 7.45393 31.9456 7.45676 31.9611 7.45897L32.0176 7.06298ZM32.3752 7.38786C32.3245 7.20909 32.1811 7.08632 32.0176 7.06298L31.9611 7.45897C31.961 7.45896 31.9623 7.45914 31.9644 7.46016C31.9665 7.46117 31.9693 7.46287 31.9724 7.46558C31.9781 7.47066 31.9856 7.48015 31.9904 7.49705L32.3752 7.38786ZM32.3822 7.40821C32.3795 7.40158 32.3772 7.39478 32.3752 7.38786L31.9904 7.49705C31.9965 7.51857 32.0038 7.53974 32.0123 7.56045L32.3822 7.40821ZM32.3055 7.93995C32.4247 7.79467 32.4561 7.58774 32.3822 7.40821L32.0123 7.56045C32.0309 7.60541 32.021 7.65613 31.9963 7.68625L32.3055 7.93995ZM29.2284 11.471L32.3017 7.9445L32.0001 7.6817L28.9268 11.2082L29.2284 11.471ZM29.7956 11.7L29.209 11.1888L28.9462 11.4904L29.5328 12.0016L29.7956 11.7ZM32.5897 8.18946L29.5134 11.7194L29.815 11.9822L32.8913 8.45226L32.5897 8.18946ZM32.5934 8.18516L32.5885 8.19094L32.8926 8.45078L32.8975 8.445L32.5934 8.18516ZM32.7386 7.28107C32.8571 7.5861 32.8019 7.93618 32.5921 8.18665L32.8988 8.44351C33.204 8.07917 33.2817 7.57472 33.1115 7.13627L32.7386 7.28107ZM32.0848 6.69075C32.3927 6.74018 32.6416 6.96655 32.7338 7.2673L33.1163 7.15005C32.9819 6.71184 32.6151 6.37078 32.1483 6.29581L32.0848 6.69075ZM27.825 5.73216L32.0726 6.6884L32.1605 6.29816L27.9129 5.34192L27.825 5.73216ZM25.5079 1.68125L27.6939 5.63384L28.0439 5.44025L25.8579 1.48766L25.5079 1.68125ZM25.5044 1.6751L25.5091 1.68338L25.8567 1.48552L25.852 1.47724L25.5044 1.6751ZM24.7283 1.20019C25.0504 1.21467 25.3408 1.39574 25.5056 1.67722L25.8508 1.47511C25.6204 1.08166 25.2097 0.821426 24.7463 0.800594L24.7283 1.20019ZM24.5901 14.8269C24.7305 15.115 24.8301 15.4266 24.8815 15.7542L25.2766 15.6922C25.219 15.3247 25.1072 14.975 24.9497 14.6518L24.5901 14.8269ZM28.8141 17.253L25.1639 15.5421L24.9942 15.9043L28.6444 17.6152L28.8141 17.253ZM29.7057 17.1553C29.4482 17.3526 29.1072 17.3908 28.8144 17.2531L28.6442 17.615C29.0739 17.8171 29.5743 17.76 29.949 17.4727L29.7057 17.1553ZM29.7121 17.1501C29.71 17.1519 29.7079 17.1536 29.7057 17.1553L29.949 17.4727C29.9559 17.4675 29.9626 17.4621 29.9693 17.4565L29.7121 17.1501ZM30.0352 16.3352C30.0682 16.6442 29.9482 16.9521 29.7122 17.1501L29.9692 17.4565C30.3108 17.17 30.4796 16.7296 30.433 16.2928L30.0352 16.3352ZM29.7423 13.1892L30.035 16.3325L30.4333 16.2955L30.1405 13.1521L29.7423 13.1892ZM29.1852 13.4419L29.9599 13.3698L29.9229 12.9715L29.1481 13.0436L29.1852 13.4419ZM29.6588 16.3705L29.3658 13.2242L28.9675 13.2613L29.2605 16.4076L29.6588 16.3705ZM29.6592 16.3752L29.6586 16.3688L29.2606 16.4092L29.2613 16.4156L29.6592 16.3752ZM29.4798 16.8512C29.6095 16.7362 29.6792 16.5575 29.6591 16.3736L29.2615 16.4172C29.2678 16.4753 29.2447 16.525 29.2144 16.5519L29.4798 16.8512ZM28.9753 16.9109C29.1343 16.9857 29.3192 16.9686 29.4643 16.8636L29.2298 16.5396C29.2018 16.5598 29.1719 16.5613 29.1455 16.5489L28.9753 16.9109ZM24.8001 14.954L28.9755 16.911L29.1453 16.5488L24.9698 14.5918L24.8001 14.954ZM24.7442 14.9377C24.7633 14.9402 24.7822 14.9456 24.8001 14.954L24.9698 14.5918C24.9141 14.5657 24.8554 14.5488 24.7957 14.541L24.7442 14.9377ZM2.57453 33.2H3.2749V32.8H2.57453V33.2ZM2.37453 25.3138V33H2.77453V25.3138H2.37453ZM0.846718 21.8752C0.614716 23.3042 1.26098 24.7259 2.46825 25.4832L2.68081 25.1443C1.61043 24.4729 1.0352 23.2103 1.24155 21.9393L0.846718 21.8752ZM3.9262 18.936C2.36477 19.1201 1.09851 20.3276 0.846729 21.8751L1.24154 21.9393C1.46449 20.5691 2.58795 19.4966 3.97305 19.3332L3.9262 18.936ZM3.97615 18.9324C3.96414 18.9329 3.94628 18.9337 3.92683 18.9359L3.97243 19.3333C3.97615 19.3329 3.98137 19.3325 3.99253 19.3321L3.97615 18.9324ZM3.99553 18.9313C3.99135 18.9317 3.98593 18.932 3.97677 18.9324L3.99192 19.3321C4.0028 19.3317 4.01742 19.331 4.03328 19.3295L3.99553 18.9313ZM13.8112 9.45654C8.40703 9.45654 3.9933 13.7629 3.81452 19.1238L4.2143 19.1371C4.38592 13.9909 8.62369 9.85654 13.8112 9.85654V9.45654ZM16.201 9.45654H13.8112V9.85654H16.201V9.45654ZM26.1977 19.1237C26.0189 13.7629 21.6052 9.45654 16.201 9.45654V9.85654C21.3885 9.85654 25.6262 13.9909 25.7979 19.137L26.1977 19.1237ZM26.0281 18.9321L26.0142 18.931L25.9814 19.3297L25.9953 19.3308L26.0281 18.9321ZM26.0372 18.9325L26.0211 18.9317L26.0022 19.3313L26.0183 19.332L26.0372 18.9325ZM26.087 18.9361C26.066 18.9335 26.0462 18.9328 26.036 18.9324L26.0196 19.3321C26.0325 19.3326 26.036 19.3328 26.0382 19.3331L26.087 18.9361ZM29.1654 21.875C28.9137 20.3276 27.6474 19.1201 26.086 18.936L26.0392 19.3332C27.4243 19.4966 28.5477 20.5691 28.7706 21.9392L29.1654 21.875ZM27.544 25.4832C28.7512 24.7259 29.3975 23.3042 29.1654 21.8751L28.7706 21.9392C28.977 23.2103 28.4018 24.4729 27.3314 25.1443L27.544 25.4832ZM27.6377 33V25.3138H27.2377V33H27.6377ZM26.7373 33.2H27.4377V32.8H26.7373V33.2ZM26.5846 24.8899C26.554 24.9589 26.5373 25.0347 26.5373 25.113H26.9373C26.9373 25.0917 26.9418 25.0711 26.9502 25.0522L26.5846 24.8899ZM26.7278 24.6968C26.6661 24.7501 26.6174 24.8162 26.5847 24.8898L26.9502 25.0523C26.9591 25.0321 26.9725 25.014 26.9893 24.9994L26.7278 24.6968ZM26.8254 24.6293C26.79 24.6485 26.7573 24.6713 26.7276 24.697L26.9895 24.9993C26.9975 24.9923 27.0063 24.9862 27.0158 24.9811L26.8254 24.6293ZM28.0792 22.0515C28.2517 23.1135 27.7594 24.1231 26.8253 24.6294L27.0159 24.981C28.1016 24.3926 28.6735 23.215 28.474 21.9873L28.0792 22.0515ZM25.9571 20.0287C27.0339 20.1557 27.9065 20.9886 28.0792 22.0515L28.474 21.9873C28.2725 20.7469 27.2568 19.7792 26.0039 19.6315L25.9571 20.0287ZM25.656 20.011C25.7561 20.011 25.8562 20.0168 25.9571 20.0287L26.0039 19.6315C25.8874 19.6177 25.7717 19.611 25.656 19.611V20.011ZM25.6118 20.006L25.6126 20.0062L25.6994 19.6158L25.6985 19.6156L25.6118 20.006ZM25.6392 20.0102L25.6421 20.0104L25.6682 19.6112L25.6653 19.611L25.6392 20.0102ZM24.0243 20.6308C24.4804 20.2252 25.049 20.0106 25.6523 20.0106V19.6106C24.9512 19.6106 24.2879 19.8611 23.7585 20.3318L24.0243 20.6308ZM23.1988 22.4679C23.1988 21.7668 23.4996 21.0971 24.0242 20.6308L23.7585 20.3318C23.1485 20.874 22.7988 21.6525 22.7988 22.4679H23.1988ZM22.2984 33.2H22.9988V32.8H22.2984V33.2ZM22.0984 30.4906V33H22.4984V30.4906H22.0984ZM7.71374 30.6906H22.2984V30.2906H7.71374V30.6906ZM7.91374 33V30.4906H7.51374V33H7.91374ZM7.01336 33.2H7.71374V32.8H7.01336V33.2ZM5.98797 20.6308C6.51264 21.0971 6.81336 21.7668 6.81336 22.4679H7.21336C7.21336 21.6525 6.86373 20.874 6.25371 20.3318L5.98797 20.6308ZM4.05493 20.0287C4.77072 19.945 5.45644 20.1581 5.98794 20.6308L6.25374 20.3318C5.63545 19.7821 4.8356 19.5347 4.00846 19.6314L4.05493 20.0287ZM1.93304 22.0516C2.10569 20.9885 2.97834 20.1557 4.05511 20.0287L4.00827 19.6315C2.75545 19.7792 1.7397 20.7469 1.53821 21.9875L1.93304 22.0516ZM3.18689 24.6294C2.25281 24.1231 1.76047 23.1135 1.93303 22.0517L1.53821 21.9875C1.33873 23.215 1.9106 24.3926 2.99627 24.981L3.18689 24.6294ZM3.4749 25.113C3.4749 24.9111 3.3641 24.7256 3.18701 24.6294L2.99615 24.981C3.04474 25.0074 3.0749 25.0582 3.0749 25.113H3.4749ZM22.0984 25.3922V29.7903H22.4984V25.3922H22.0984ZM7.79197 25.5639C8.60118 25.22 14.5641 22.9031 22.2325 25.581L22.3644 25.2034C14.5636 22.4793 8.49033 24.8325 7.6355 25.1958L7.79197 25.5639ZM7.91374 29.7903V25.3799H7.51374V29.7903H7.91374ZM22.2984 29.5903H7.71374V29.9903H22.2984V29.5903ZM13.8112 10.5569H16.201V10.1569H13.8112V10.5569ZM4.91456 19.1407C5.084 14.3791 9.00861 10.5569 13.8112 10.5569V10.1569C8.79225 10.1569 4.69187 14.1506 4.51481 19.1265L4.91456 19.1407ZM6.71914 19.8086C6.1627 19.3139 5.46733 19.0141 4.73628 18.9347L4.69309 19.3324C5.34397 19.4031 5.96091 19.6698 6.45339 20.1075L6.71914 19.8086ZM7.91374 22.4679C7.91374 21.4525 7.47822 20.4834 6.71914 19.8086L6.45339 20.1075C7.12715 20.7065 7.51374 21.5669 7.51374 22.4679H7.91374ZM7.91374 24.5067V22.4679H7.51374V24.5067H7.91374ZM7.84557 24.769L7.90574 24.5626L7.52173 24.4507L7.46156 24.6571L7.84557 24.769ZM14.6573 23.2876C11.5475 23.2876 8.7675 24.0521 7.57929 24.5274L7.72783 24.8988C8.87416 24.4403 11.6038 23.6876 14.6573 23.6876V23.2876ZM20.1527 23.8271C18.6255 23.5386 16.5928 23.2876 14.6573 23.2876V23.6876C16.5622 23.6876 18.5695 23.9351 20.0785 24.2201L20.1527 23.8271ZM22.3626 24.4641C21.611 24.2096 20.8767 23.9997 20.162 23.829L20.0691 24.2181C20.7719 24.386 21.4945 24.5925 22.2343 24.843L22.3626 24.4641ZM22.0984 22.4679V24.6535H22.4984V22.4679H22.0984ZM23.2931 19.8086C22.534 20.4833 22.0984 21.4525 22.0984 22.4679H22.4984C22.4984 21.5669 22.8851 20.7065 23.5588 20.1075L23.2931 19.8086ZM25.2759 18.9343C24.5455 19.0137 23.8492 19.314 23.293 19.8086L23.5589 20.1075C24.0511 19.6697 24.6689 19.4026 25.3191 19.3319L25.2759 18.9343ZM16.201 10.5569C21.0035 10.5569 24.928 14.3789 25.0977 19.1402L25.4974 19.126C25.3201 14.1504 21.2198 10.1569 16.201 10.1569V10.5569ZM26.9373 33V25.113H26.5373V33H26.9373ZM23.1988 33V22.4679H22.7988V33H23.1988ZM7.21336 33V22.4679H6.81336V33H7.21336ZM3.4749 33V25.113H3.0749V33H3.4749Z" fill="white" mask="url(#path-1-outside-1)"/>
      </svg>
      