<svg width="24" height="24" viewBox="0 0 32 32" fill="none" xmlns="http://www.w3.org/2000/svg"><g clip-path="url(#clip0)"><g clip-path="url(#clip1)"><path fill-rule="evenodd" clip-rule="evenodd" d="M24.988 14.7147L24.1068 14.8911L22.6967 14.9793L21.0223 14.8911L20.6698 14.8029V16.2139H22.1679L23.0052 16.0816L25.0321 14.8029L24.988 14.7147ZM21.8477 10.1443L22.5527 9.92388L23.1696 8.82154L22.2443 9.04201H21.5833C21.1954 9.03797 20.8154 8.9315 20.4817 8.73336L19.9529 8.24833C19.8493 8.12629 19.8013 7.96639 19.8208 7.80739C19.8208 7.63102 20.1292 7.49874 20.1292 7.49874H21.319L22.2443 7.67511L22.3324 7.54283L21.9359 7.14599L21.319 6.74915C21.1969 6.67909 21.0621 6.63412 20.9224 6.61687C20.7452 6.58636 20.5633 6.60154 20.3936 6.66096L19.8208 7.10189C19.6222 7.27112 19.4447 7.46357 19.292 7.67511C19.1267 7.84962 19.0058 8.06134 18.9395 8.29242C18.8964 8.45122 18.8964 8.61865 18.9395 8.77745C19.0651 9.0091 19.229 9.21781 19.4242 9.39476L19.9089 9.74751L20.2614 9.92388L19.7326 10.4089C19.902 10.5486 20.0504 10.712 20.1733 10.8939C20.3552 10.7752 20.5469 10.6719 20.7461 10.5853L21.8477 10.1443ZM26.3998 4.00039H14.15C12.6958 4.00039 11.8586 4.97045 11.8586 6.38144V9.82074H5.68962C4.27956 9.82074 3.0017 10.7908 3.0017 12.2459V22.4315C2.97671 23.0937 3.22865 23.7364 3.69694 24.205C4.16524 24.6736 4.80751 24.9257 5.46931 24.9007H7.4522V27.8109C7.4522 28.3841 7.93691 28.2959 8.0691 28.0314L10.8892 24.9007H18.4683C19.9224 24.9007 20.6715 23.8425 20.6715 22.3874V19.0363H21.1562L24.1085 21.9465C24.5051 22.3433 25.0779 22.1228 25.0779 21.6819V19.0363H26.3998C27.8539 19.0363 28.9996 18.0662 28.9996 16.6111V6.60191C29.0117 5.90831 28.7416 5.23956 28.2514 4.74904C27.7612 4.25852 27.0929 3.98832 26.3998 4.00039ZM5.47095 10.7464H18.2055C18.9299 10.7381 19.5499 11.2645 19.6596 11.9811C19.6952 12.0488 19.7105 12.1253 19.7037 12.2015V22.4312C19.6922 22.8172 19.5278 23.1828 19.2468 23.4474C18.9658 23.7121 18.5912 23.8541 18.2055 23.8422H10.7587C10.6201 23.8221 10.4791 23.8535 10.3621 23.9304L8.24699 26.1351V24.3713C8.24699 24.0186 7.93854 23.8422 7.45384 23.8422H5.69127C4.89812 23.8422 4.01684 23.2249 4.01684 22.4312V12.2015C4.00613 12.0821 4.02117 11.9619 4.0609 11.8488C4.23595 11.21 4.80918 10.7618 5.47095 10.7464ZM28.0285 16.6108C28.0286 16.993 27.874 17.3587 27.5999 17.6245C27.3258 17.8904 26.9557 18.0337 26.5742 18.0218H24.5913C24.4589 18.0077 24.3273 18.0542 24.2332 18.1484C24.139 18.2426 24.0925 18.3743 24.1066 18.5068V20.4469L21.7712 18.1099C21.7021 18.0401 21.6039 18.0074 21.5068 18.0218H20.6696L20.6698 16.2139H22.1679L23.0052 16.0816L25.0321 14.8029L25.0319 14.6706L24.1506 14.847L22.7406 14.9352L21.0661 14.847L20.7136 14.7588V12.3778C20.7208 11.8177 20.5339 11.2724 20.1848 10.8345C20.3668 10.7157 20.5584 10.6125 20.7577 10.5258L21.8593 10.0849L22.5643 9.86445L23.1812 8.76211L22.2559 8.98257H21.5949C21.2069 8.97854 20.8269 8.87207 20.4933 8.67392L19.9645 8.18889C19.8608 8.06686 19.8129 7.90696 19.8323 7.74796C19.8323 7.57158 20.1408 7.43931 20.1408 7.43931H21.3305L22.2559 7.61568L22.344 7.4834L21.9474 7.08656L21.3305 6.68971C21.2084 6.61965 21.0736 6.57468 20.9339 6.55743C20.7568 6.52693 20.5748 6.5421 20.4052 6.60153L19.8323 7.04246C19.6338 7.21169 19.4563 7.40413 19.3036 7.61568C19.1383 7.79019 19.0174 8.00191 18.9511 8.23299C18.908 8.39179 18.908 8.55921 18.9511 8.71801C19.0767 8.94966 19.2406 9.15838 19.4358 9.33532L19.9205 9.68807L20.273 9.86445L19.7442 10.3495C19.2591 9.95258 18.6523 9.73463 18.0257 9.73217H12.8263V5.80785C12.8679 5.29031 13.2786 4.87939 13.7957 4.83779H26.5744C27.3775 4.8378 28.0285 5.48926 28.0285 6.29288V16.6108Z" fill="black"/><path fill-rule="evenodd" clip-rule="evenodd" d="M24.988 14.7148L24.1068 14.8912L22.6967 14.9794L21.0223 14.8912L20.6698 14.803L20.2291 14.6707V15.8612H19.7444L19.9647 15.9935L20.6698 16.1699H22.1679L23.0052 16.0376L25.0321 14.7589L24.988 14.7148ZM22.2443 9.04204H21.5833C21.1954 9.03801 20.8154 8.93153 20.4817 8.73339L19.953 8.24836C19.8493 8.12632 19.8013 7.96643 19.8208 7.80742C19.8208 7.63105 20.1292 7.49877 20.1292 7.49877H21.319L22.2443 7.67515L22.3325 7.54286L21.9359 7.14602L21.319 6.74918C21.1969 6.67912 21.0621 6.63415 20.9224 6.6169C20.7453 6.58639 20.5633 6.60156 20.3936 6.66099L19.8208 7.10192C19.6223 7.27115 19.4447 7.4636 19.292 7.67514C19.1268 7.84965 19.0059 8.06137 18.9395 8.29245C18.8965 8.45125 18.8965 8.61868 18.9395 8.77748C19.0651 9.00913 19.229 9.21784 19.4242 9.39479L19.9089 9.74754L20.2614 9.92391L19.7327 10.4089C19.5785 10.5173 19.4444 10.6516 19.3361 10.8058L19.1598 10.9821H20.0411L20.1733 10.894C20.3553 10.7752 20.5469 10.672 20.7461 10.5853L21.8477 10.1444L22.5528 9.92391L23.1697 8.82157L22.2443 9.04204Z" fill="black"/><path fill-rule="evenodd" clip-rule="evenodd" d="M9.60938 21.1517H14.4564V20.0934H10.5788V17.6242H13.7955V16.6541H10.5788V14.1849H14.4564V13.2148H9.60938V21.1517Z" fill="black"/></g></g><defs><clipPath id="clip0"><rect width="26" height="24.9167" fill="white" transform="translate(3 4)"/></clipPath><clipPath id="clip1"><rect width="26" height="24.2373" fill="white" transform="translate(3 4)"/></clipPath></defs></svg>