<svg width="24" height="24" viewBox="0 0 32 32" fill="none" xmlns="http://www.w3.org/2000/svg"><mask id="path-1-inside-1" fill="white"> <path fill-rule="evenodd" clip-rule="evenodd" d="M6.04108 4.61133H0V3.61133H6.04108C6.76198 3.61133 7.4478 3.92253 7.92252 4.46507L16.7953 14.6054L16.0521 15.2746L7.16994 5.12357C6.88511 4.79805 6.47362 4.61133 6.04108 4.61133ZM17.2724 16.6692L18.0156 16L19.698 17.9228C19.9829 18.2483 20.3944 18.435 20.8269 18.435H26.1241L22.8085 15.1194L23.5156 14.4123L27.6848 18.5815L28.0383 18.935L27.6848 19.2886L23.5156 23.4578L22.8085 22.7507L26.1241 19.435H20.8269C20.106 19.435 19.4202 19.1238 18.9455 18.5813L17.2724 16.6692Z"/> </mask> <path d="M0 4.61133H-1V5.61133H0V4.61133ZM0 3.61133V2.61133H-1V3.61133H0ZM7.92252 4.46507L8.6751 3.80656V3.80656L7.92252 4.46507ZM16.7953 14.6054L17.4644 15.3485L18.1971 14.6888L17.5479 13.9469L16.7953 14.6054ZM16.0521 15.2746L15.2995 15.9331L15.9674 16.6964L16.7212 16.0177L16.0521 15.2746ZM7.16994 5.12357L6.41737 5.78208L7.16994 5.12357ZM18.0156 16L18.7682 15.3415L18.1002 14.5782L17.3465 15.2569L18.0156 16ZM17.2724 16.6692L16.6032 15.9261L15.8706 16.5858L16.5198 17.3277L17.2724 16.6692ZM19.698 17.9228L20.4506 17.2643L19.698 17.9228ZM26.1241 18.435V19.435H28.5383L26.8312 17.7279L26.1241 18.435ZM22.8085 15.1194L22.1014 14.4123L21.3943 15.1194L22.1014 15.8265L22.8085 15.1194ZM23.5156 14.4123L24.2227 13.7052L23.5156 12.9981L22.8085 13.7052L23.5156 14.4123ZM27.6848 18.5815L26.9777 19.2886L27.6848 18.5815ZM28.0383 18.935L28.7454 19.6421L29.4525 18.935L28.7454 18.2279L28.0383 18.935ZM27.6848 19.2886L26.9777 18.5815L26.9777 18.5815L27.6848 19.2886ZM23.5156 23.4578L22.8085 24.1649L23.5156 24.872L24.2227 24.1649L23.5156 23.4578ZM22.8085 22.7507L22.1014 22.0435L21.3943 22.7507L22.1014 23.4578L22.8085 22.7507ZM26.1241 19.435L26.8312 20.1421L28.5383 18.435H26.1241V19.435ZM18.9455 18.5813L19.698 17.9228L18.9455 18.5813ZM0 5.61133H6.04108V3.61133H0V5.61133ZM-1 3.61133V4.61133H1V3.61133H-1ZM6.04108 2.61133H0V4.61133H6.04108V2.61133ZM8.6751 3.80656C8.01049 3.04701 7.05034 2.61133 6.04108 2.61133V4.61133C6.47362 4.61133 6.88511 4.79805 7.16994 5.12357L8.6751 3.80656ZM17.5479 13.9469L8.6751 3.80656L7.16994 5.12357L16.0427 15.2639L17.5479 13.9469ZM16.7212 16.0177L17.4644 15.3485L16.1262 13.8622L15.3829 14.5314L16.7212 16.0177ZM6.41737 5.78208L15.2995 15.9331L16.8047 14.6161L7.92252 4.46507L6.41737 5.78208ZM6.04108 5.61133C6.18526 5.61133 6.32242 5.67357 6.41737 5.78208L7.92252 4.46507C7.4478 3.92253 6.76198 3.61133 6.04108 3.61133V5.61133ZM17.3465 15.2569L16.6032 15.9261L17.9415 17.4124L18.6847 16.7432L17.3465 15.2569ZM20.4506 17.2643L18.7682 15.3415L17.263 16.6585L18.9455 18.5813L20.4506 17.2643ZM20.8269 17.435C20.6827 17.435 20.5456 17.3728 20.4506 17.2643L18.9455 18.5813C19.4202 19.1238 20.106 19.435 20.8269 19.435V17.435ZM26.1241 17.435H20.8269V19.435H26.1241V17.435ZM26.8312 17.7279L23.5156 14.4123L22.1014 15.8265L25.417 19.1421L26.8312 17.7279ZM23.5156 15.8265L24.2227 15.1194L22.8085 13.7052L22.1014 14.4123L23.5156 15.8265ZM22.8085 15.1194L26.9777 19.2886L28.3919 17.8744L24.2227 13.7052L22.8085 15.1194ZM26.9777 19.2886L27.3312 19.6421L28.7454 18.2279L28.3919 17.8744L26.9777 19.2886ZM27.3312 18.2279L26.9777 18.5815L28.3919 19.9957L28.7454 19.6421L27.3312 18.2279ZM26.9777 18.5815L22.8085 22.7507L24.2227 24.1649L28.3919 19.9957L26.9777 18.5815ZM24.2227 22.7506L23.5156 22.0435L22.1014 23.4578L22.8085 24.1649L24.2227 22.7506ZM23.5156 23.4578L26.8312 20.1421L25.417 18.7279L22.1014 22.0435L23.5156 23.4578ZM20.8269 20.435H26.1241V18.435H20.8269V20.435ZM18.1929 19.2398C18.8575 19.9994 19.8176 20.435 20.8269 20.435V18.435C20.3944 18.435 19.9829 18.2483 19.698 17.9228L18.1929 19.2398ZM16.5198 17.3277L18.1929 19.2398L19.698 17.9228L18.025 16.0107L16.5198 17.3277Z" fill="white" mask="url(#path-1-inside-1)"/> <mask id="path-3-inside-2" fill="white"> <path fill-rule="evenodd" clip-rule="evenodd" d="M0 19.6895H6.04108C6.47362 19.6895 6.88511 19.5027 7.16994 19.1772L18.9455 5.71948C19.4202 5.17695 20.106 4.86574 20.8269 4.86574H26.1241L22.8085 1.55013L23.5156 0.843023L27.6848 5.01219L28.0531 5.3805L27.67 5.73345L23.5009 9.57509L22.8232 8.83969L26.0507 5.86574H20.8269C20.3944 5.86574 19.9829 6.05247 19.698 6.37799L7.92252 19.8357C7.4478 20.3783 6.76198 20.6895 6.04108 20.6895H0V19.6895Z"/> </mask> <path d="M0 19.6895H-1V18.6895H0V19.6895ZM7.16994 19.1772L6.41737 18.5187L7.16994 19.1772ZM18.9455 5.71948L19.698 6.37799L18.9455 5.71948ZM26.1241 4.86574L26.8312 4.15864L28.5383 5.86574H26.1241V4.86574ZM22.8085 1.55013L22.1014 2.25724L21.3943 1.55013L22.1014 0.843023L22.8085 1.55013ZM23.5156 0.843023L22.8085 0.135916L23.5156 -0.57119L24.2227 0.135916L23.5156 0.843023ZM27.6848 5.01219L26.9777 5.7193L26.9777 5.7193L27.6848 5.01219ZM28.0531 5.3805L28.7602 4.67339L29.4968 5.40999L28.7307 6.1159L28.0531 5.3805ZM27.67 5.73345L28.3477 6.46885L28.3477 6.46885L27.67 5.73345ZM23.5009 9.57509L24.1785 10.3105L23.4431 10.9881L22.7655 10.2527L23.5009 9.57509ZM22.8232 8.83969L22.0878 9.51732L21.4102 8.78191L22.1456 8.10428L22.8232 8.83969ZM26.0507 5.86574V4.86574H28.6117L26.7283 6.60115L26.0507 5.86574ZM19.698 6.37799L20.4506 7.03649L19.698 6.37799ZM7.92252 19.8357L8.6751 20.4942V20.4942L7.92252 19.8357ZM0 20.6895V21.6895H-1V20.6895H0ZM6.04108 20.6895H0V18.6895H6.04108V20.6895ZM7.92252 19.8357C7.4478 20.3783 6.76198 20.6895 6.04108 20.6895V18.6895C6.18526 18.6895 6.32242 18.6272 6.41737 18.5187L7.92252 19.8357ZM19.698 6.37799L7.92252 19.8357L6.41737 18.5187L18.1929 5.06098L19.698 6.37799ZM20.8269 5.86574C20.3944 5.86574 19.9829 6.05246 19.698 6.37799L18.1929 5.06098C18.8575 4.30143 19.8176 3.86574 20.8269 3.86574V5.86574ZM26.1241 5.86574H20.8269V3.86574H26.1241V5.86574ZM23.5156 0.843023L26.8312 4.15864L25.417 5.57285L22.1014 2.25724L23.5156 0.843023ZM24.2227 1.55013L23.5156 2.25724L22.1014 0.843023L22.8085 0.135916L24.2227 1.55013ZM26.9777 5.7193L22.8085 1.55013L24.2227 0.135916L28.3919 4.30508L26.9777 5.7193ZM27.346 6.0876L26.9777 5.7193L28.3919 4.30508L28.7602 4.67339L27.346 6.0876ZM26.9924 4.99804L27.3754 4.64509L28.7307 6.1159L28.3477 6.46885L26.9924 4.99804ZM22.8232 8.83969L26.9924 4.99804L28.3477 6.46885L24.1785 10.3105L22.8232 8.83969ZM23.5586 8.16206L24.2363 8.89746L22.7655 10.2527L22.0878 9.51732L23.5586 8.16206ZM26.7283 6.60115L23.5009 9.57509L22.1456 8.10428L25.3731 5.13034L26.7283 6.60115ZM20.8269 4.86574H26.0507V6.86574H20.8269V4.86574ZM18.9455 5.71948C19.4202 5.17695 20.106 4.86574 20.8269 4.86574V6.86574C20.6827 6.86574 20.5456 6.92798 20.4506 7.03649L18.9455 5.71948ZM7.16994 19.1772L18.9455 5.71948L20.4506 7.03649L8.6751 20.4942L7.16994 19.1772ZM6.04108 19.6895C6.47362 19.6895 6.88511 19.5027 7.16994 19.1772L8.6751 20.4942C8.01049 21.2538 7.05034 21.6895 6.04108 21.6895V19.6895ZM0 19.6895H6.04108V21.6895H0V19.6895ZM1 19.6895V20.6895H-1V19.6895H1Z" fill="white" mask="url(#path-3-inside-2)"/> </svg>