<svg width="32" height="32" viewBox="0 0 32 32" fill="none" xmlns="http://www.w3.org/2000/svg">
     <path d="M7 24.5V20V19.5H5L4 18.5V6.5L5 5.5H22.5H25L25.5 6.5V17C25.9 19 24.6667 19.5 24 19.5H12.5L7 24.5Z" fill="#D1D1D1"/>
     <path d="M4.08337 10.8305V6.86536C4.08337 6.40588 4.2403 5.9607 4.55233 5.64396C4.86436 5.32721 5.30901 5.16602 5.78223 5.16602C11.7479 5.16602 17.9377 5.16605 23.9033 5.16602C24.3766 5.16589 24.83 5.32717 25.1421 5.64396C25.4541 5.96074 25.6022 6.40588 25.6022 6.86536V18.1943C25.6022 18.6538 25.4453 19.0901 25.1332 19.4069C24.8212 19.7236 24.3765 19.8936 23.9033 19.8936H12.5157L10.1931 22.0798L7.8704 24.2659C7.71128 24.4165 7.46075 24.4615 7.25919 24.3756C7.05763 24.2898 6.91647 24.0779 6.9148 23.8587V19.8936H5.78223C5.77928 19.8937 5.77633 19.8937 5.77338 19.8936C5.30728 19.883 4.86421 19.7202 4.55233 19.4069C4.24044 19.0936 4.08337 18.6539 4.08337 18.1943V13.0963M5.79107 18.7608C5.79107 18.7608 5.78645 18.7609 5.78223 18.7608M13.1439 23.2923H20.2844L24.9297 27.6646C25.0888 27.8152 25.3394 27.8602 25.5409 27.7743C25.7425 27.6885 25.8836 27.4766 25.8853 27.2574V23.2923H27.301C27.3069 23.2924 27.3128 23.2924 27.3187 23.2923C27.7821 23.2753 28.2194 23.1175 28.5309 22.8055C28.8425 22.4936 28.9999 22.0513 28.9999 21.593V11.1137" stroke="black"/>
     </svg>