<svg width="24" height="24" viewBox="0 0 32 32" fill="none" xmlns="http://www.w3.org/2000/svg"><?xml version="1.0" encoding="utf-8"?>
    <svg version="1.1" id="Layer_1" x="0px" y="0px"
         viewBox="0 0 10 8" style="enable-background:new 0 0 10 8;" xml:space="preserve">
    <style type="text/css">
        .st0{stroke:#000000;stroke-width:0.5;}
    </style>
    <path class="st0" d="M1.4,3.6L1.2,3.4L1,3.6L0.7,3.9L0.5,4.1l0.2,0.2l2,1.9l0.2,0.2L3,6.1l0.3-0.3l0.2-0.2L3.3,5.5L1.4,3.6z"/>
    <path class="st0" d="M9.2,1.5l0.2-0.2L9.2,1.2L8.9,0.9L8.7,0.7L8.5,0.9l-5.1,5l0,0l0,0L3.1,6.2L2.9,6.4l0.2,0.2l0.3,0.3L3.6,7
        l0.2-0.2L9.2,1.5z"/>
    </svg>
    </svg>