<svg width="10" height="8" viewBox="0 0 10 8" fill="none">
    <path d="M1.37051 3.56823L1.19379 3.39753L1.02005 3.57127L0.709698 3.88162L0.529829 4.06149L0.712789 4.23821L2.66358 6.1225L2.8403 6.2932L3.01404 6.11946L3.32439 5.80911L3.50426 5.62924L3.3213 5.45252L1.37051 3.56823Z" fill="white" stroke="white" stroke-width="0.5"/>
    <path d="M9.17597 1.53083L9.3542 1.35406L9.1767 1.17655L8.86636 0.866196L8.69036 0.690185L8.51358 0.865418L3.43709 5.89757L3.43695 5.89744L3.43032 5.90454L3.11997 6.23706L2.94896 6.4203L3.13262 6.59084L3.44297 6.87902L3.61878 7.04228L3.78913 6.87333L9.17597 1.53083Z" fill="white" stroke="white" stroke-width="0.5"/>
    </svg>
    