<svg width="24" height="24" viewBox="0 0 32 32" fill="none" xmlns="http://www.w3.org/2000/svg"><path fill-rule="evenodd" clip-rule="evenodd" d="M26.2515 9.32242V11.3127C26.9587 11.5435 27.4333 12.2078 27.4222 12.9517V27.0005C27.4387 27.4711 27.259 27.9274 26.9261 28.2604C26.5931 28.5934 26.1367 28.7731 25.6661 28.7566H7.51977V27.5858H25.6661C25.8265 27.6049 25.9867 27.5494 26.1009 27.4352C26.215 27.321 26.2705 27.1608 26.2515 27.0005V22.9029H19.8125C19.3418 22.9194 18.8855 22.7397 18.5525 22.4067C18.2195 22.0738 18.0398 21.6174 18.0564 21.1468V18.8053C18.0398 18.3347 18.2195 17.8784 18.5525 17.5454C18.8855 17.2124 19.3418 17.0327 19.8125 17.0492H26.2515V12.9517C26.2705 12.7913 26.215 12.6311 26.1009 12.5169C25.9867 12.4028 25.8265 12.3472 25.6661 12.3663H5.99782C5.71489 12.3704 5.43471 12.3104 5.17831 12.1907V28.7566H4.00758V10.0249C3.95923 9.45603 4.14374 8.89192 4.51889 8.46161C4.89403 8.0313 5.42771 7.7716 5.99782 7.74193H10.0368L12.6125 4.05413C12.8165 3.79994 13.1094 3.63259 13.432 3.58583C13.7442 3.54247 14.0608 3.62689 14.31 3.81998L15.2466 4.46388L16.3588 3.35169C16.6584 3.11556 17.0311 2.99135 17.4125 3.00047C17.8031 3.02966 18.1638 3.22063 18.4076 3.5273L21.8027 7.68339H24.613C25.5182 7.68371 26.2518 8.41778 26.2515 9.32242ZM14.361 5.28291L13.6 4.81462L11.0244 8.38535L14.361 5.28291ZM5.99024 11.1951H7.57073L9.20976 8.91218H5.99024C5.52195 8.91218 5.17073 9.38047 5.17073 10.0244C5.17073 10.6683 5.58049 11.1951 5.99024 11.1951ZM17.2878 6.16099L11.7268 11.1951H21.5024L17.2878 6.16099ZM17.4634 5.75122L22.0293 11.1951H23.1415L17.4634 4.17073H17.3463C17.2293 4.17073 17.1707 4.17073 17.1707 4.22927L9.73658 11.1951H11.2L17.1707 5.75122H17.4634ZM24.6634 11.1951H25.0732L25.0732 9.32195C25.0732 9.06332 24.8635 8.85366 24.6049 8.85366H22.7902L24.6634 11.1951ZM19.374 18.3731C19.4882 18.2589 19.6484 18.2034 19.8088 18.2224H26.2478V21.7346H19.8088C19.4855 21.7346 19.2234 21.4726 19.2234 21.1493V18.8078C19.2043 18.6475 19.2599 18.4872 19.374 18.3731ZM20.3905 19.9785C20.3905 20.3018 20.6525 20.5639 20.9758 20.5639C21.2871 20.5367 21.534 20.2899 21.5612 19.9785C21.5803 19.8182 21.5247 19.658 21.4106 19.5438C21.2964 19.4296 21.1362 19.3741 20.9758 19.3932C20.6525 19.3932 20.3905 19.6553 20.3905 19.9785Z" fill="black"/></svg>