<svg width="24" height="24" viewBox="0 0 32 32" fill="none" xmlns="http://www.w3.org/2000/svg"><path fill-rule="evenodd" clip-rule="evenodd" d="M27.6821 7.09091C27.6821 9.35026 25.8505 11.1818 23.5912 11.1818C21.3318 11.1818 19.5003 9.35026 19.5003 7.09091C19.5003 4.83156 21.3318 3 23.5912 3C25.8505 3 27.6821 4.83156 27.6821 7.09091ZM28.6821 7.09091C28.6821 9.90254 26.4028 12.1818 23.5912 12.1818C20.9482 12.1818 18.7756 10.1678 18.5245 7.59076H11.6838C10.3194 7.59076 9.51501 8.14802 9.03498 8.81473C8.53659 9.50693 8.36557 10.3526 8.36557 10.9089V16.0655L10.694 13.737C10.8893 13.5418 11.2058 13.5418 11.4011 13.737C11.5964 13.9323 11.5964 14.2489 11.4011 14.4441L8.21913 17.6261C8.02387 17.8214 7.70728 17.8214 7.51202 17.6261L4.33004 14.4441C4.13478 14.2489 4.13478 13.9323 4.33004 13.737C4.5253 13.5418 4.84189 13.5418 5.03715 13.737L7.36557 16.0655V10.9089C7.36557 10.1926 7.57637 9.12913 8.22344 8.23042C8.88887 7.30622 9.99352 6.59076 11.6838 6.59076H18.5245C18.7758 4.01387 20.9483 2 23.5912 2C26.4028 2 28.6821 4.27928 28.6821 7.09091Z" fill="black"/> <path fill-rule="evenodd" clip-rule="evenodd" d="M9.13779 20.8178C6.87844 20.8178 5.04688 22.6494 5.04688 24.9087C5.04688 27.1681 6.87844 28.9996 9.13779 28.9996C11.3971 28.9996 13.2287 27.1681 13.2287 24.9087C13.2287 22.6494 11.3971 20.8178 9.13779 20.8178ZM9.13778 19.8178C6.32615 19.8178 4.04688 22.0971 4.04688 24.9087C4.04688 27.7204 6.32615 29.9996 9.13779 29.9996C11.5588 29.9996 13.5851 28.3097 14.1014 26.0451H17V25.0451H14.2269C14.2281 24.9998 14.2287 24.9543 14.2287 24.9087C14.2287 22.0971 11.9494 19.8178 9.13778 19.8178ZM19 25.0451V26.0451H20.9975C22.6877 26.0451 23.7924 25.3296 24.4578 24.4054C25.1049 23.5067 25.3157 22.4433 25.3157 21.7269L25.3157 16.5704L27.6441 18.8988C27.8394 19.0941 28.156 19.0941 28.3512 18.8988C28.5465 18.7036 28.5465 18.387 28.3512 18.1917L25.1692 15.0097C24.974 14.8145 24.6574 14.8145 24.4621 15.0097L21.2802 18.1917C21.0849 18.387 21.0849 18.7036 21.2802 18.8988C21.4754 19.0941 21.792 19.0941 21.9873 18.8988L24.3157 16.5704L24.3157 21.7269C24.3157 22.2833 24.1447 23.1289 23.6463 23.8211C23.1663 24.4878 22.3618 25.0451 20.9975 25.0451H19Z" fill="black"/></svg>