<svg width="32" height="32" viewBox="0 0 40 40" fill="none" xmlns="http://www.w3.org/2000/svg">
      <rect width="32" height="32" fill="white"/>
      <path fill-rule="evenodd" clip-rule="evenodd" d="M19.4967 22.3221C24.6516 22.3221 28.8433 18.211 28.8433 13.1628C28.8433 8.11453 24.6516 4 19.4967 4C14.3417 4 10.15 8.11111 10.15 13.1594C10.15 18.2076 14.3417 22.3221 19.4967 22.3221ZM19.4967 5.03291C24.0688 5.03291 27.7893 8.67886 27.7893 13.1594C27.7893 17.6398 24.0688 21.2892 19.4967 21.2892C14.9246 21.2892 11.2041 17.6433 11.2041 13.1628C11.2041 8.68228 14.9246 5.03291 19.4967 5.03291ZM24.0808 24.2141H14.9157C10.5495 24.2141 7 27.6925 7 31.9712V35.0289C7 35.2991 7.22337 35.5214 7.50258 35.5214C7.57213 35.5214 7.63822 35.5078 7.69825 35.4832C7.75542 35.5053 7.81762 35.5175 7.88254 35.5175H27.8846C28.1604 35.5175 28.3837 35.2986 28.3872 35.0249C28.3872 34.7513 28.1604 34.5324 27.8846 34.5324H8.00517V31.9712C8.00517 28.2363 11.1044 25.1992 14.9157 25.1992H15.6975C15.6975 25.1992 15.6975 25.2026 15.701 25.2026L18.9761 29.9804V31.1448C18.9761 31.4321 19.2169 31.6681 19.5101 31.6681C19.8032 31.6681 20.0441 31.4321 20.0441 31.1448V29.9607L23.3235 25.206C23.3235 25.206 23.3235 25.2056 23.3236 25.2051C23.3237 25.2047 23.3239 25.2043 23.3241 25.2039C23.3246 25.2032 23.3255 25.2026 23.327 25.2026H24.0843C27.8956 25.2026 30.9948 28.2397 30.9948 31.9746V35.0323C30.9948 35.3025 31.2182 35.5248 31.4974 35.5248C31.7731 35.5248 32 35.3059 32 35.0323V31.9746C31.9965 27.6925 28.447 24.2141 24.0808 24.2141ZM19.5017 28.9854L16.9051 25.1957H22.1159L19.5017 28.9854ZM26.5839 29.3511C26.8038 29.2313 27.083 29.3305 27.1703 29.5631L27.7671 31.1193C27.8683 31.3827 27.6694 31.6665 27.3797 31.6665H23.3032C22.8774 31.6665 22.7308 31.109 23.1042 30.9073L26.5839 29.3511Z" fill="black"/>
      </svg>
      