<svg width="32" height="32" viewBox="0 0 40 40" fill="none" xmlns="http://www.w3.org/2000/svg">
      <rect width="32" height="32" fill="white"/>
      <path d="M32.6797 19.925H26.8778C26.748 16.1955 24.2752 13.8 20.4922 13.8C16.7092 13.8 14.2357 16.1955 14.1065 19.925H11.6611C11.7099 16.7327 12.5155 13.8803 13.7446 12.602C13.8616 12.4801 13.8585 12.2865 13.7373 12.1689C13.616 12.052 13.424 12.0544 13.3064 12.1763C11.9743 13.5618 11.1023 16.5808 11.0517 19.925H8.30469C8.1365 19.925 8 20.0622 8 20.2313C8 20.4003 8.1365 20.5375 8.30469 20.5375H12.875V36.1563C12.875 36.3253 13.0115 36.4625 13.1797 36.4625H27.8047C27.9729 36.4625 28.1094 36.3253 28.1094 36.1563V20.5375H32.6797C32.8479 20.5375 32.9844 20.4003 32.9844 20.2313C32.9844 20.0622 32.8479 19.925 32.6797 19.925ZM20.4922 14.4125C23.9053 14.4125 26.1399 16.5673 26.2685 19.925H14.7159C14.8451 16.5673 17.0791 14.4125 20.4922 14.4125ZM27.5 35.85H13.4844V20.5375H27.5V35.85Z" fill="black"/>
      <path d="M20.4922 23.5996C18.3082 23.5996 16.5312 25.3857 16.5312 27.5809C16.5312 29.7761 18.3082 31.5621 20.4922 31.5621C22.6762 31.5621 24.4531 29.7761 24.4531 27.5809C24.4531 25.3857 22.6762 23.5996 20.4922 23.5996ZM23.8285 27.2746H22.0114C21.9803 26.1458 21.7804 25.0439 21.4178 24.3456C22.7219 24.7235 23.7024 25.8763 23.8285 27.2746ZM20.4922 30.9496C20.1972 30.9496 19.6433 29.8649 19.5891 27.8871H21.3959C21.341 29.8649 20.7871 30.9496 20.4922 30.9496ZM19.5891 27.2746C19.6439 25.2968 20.1979 24.2121 20.4922 24.2121C20.7865 24.2121 21.341 25.2968 21.3953 27.2746H19.5891ZM19.5665 24.3456C19.2046 25.0439 19.0041 26.1458 18.9736 27.2746H17.1559C17.282 25.8763 18.2619 24.7235 19.5665 24.3456ZM17.1559 27.8871H18.9736C19.0041 29.0159 19.2046 30.1184 19.5665 30.8161C18.2619 30.4382 17.282 29.2854 17.1559 27.8871ZM21.4178 30.8161C21.7804 30.1172 21.9803 29.0159 22.0114 27.8871H23.8285C23.7024 29.2854 22.7219 30.4382 21.4178 30.8161Z" fill="black"/>
      <path d="M20.4922 11.9625C22.6762 11.9625 24.4531 10.1765 24.4531 7.98125C24.4531 5.78605 22.6762 4 20.4922 4C18.3082 4 16.5312 5.78605 16.5312 7.98125C16.5312 10.1765 18.3082 11.9625 20.4922 11.9625ZM20.4922 4.6125C22.3398 4.6125 23.8438 6.12354 23.8438 7.98125C23.8438 9.83896 22.3398 11.35 20.4922 11.35C18.644 11.35 17.1406 9.83896 17.1406 7.98125C17.1406 6.12354 18.644 4.6125 20.4922 4.6125Z" fill="black"/>
      </svg>
      