<svg width="24" height="24" viewBox="0 0 32 32" fill="none" xmlns="http://www.w3.org/2000/svg"><path fill-rule="evenodd" clip-rule="evenodd" d="M5.2 24.34H28V5.74C27.9721 5.4209 27.7191 5.1679 27.4 5.14H25.6V4H18.4V5.14H13.6V4H6.4V5.14H4.6C4.44685 5.16287 4.3022 5.22485 4.17999 5.31999C4.07192 5.43408 4.00809 5.58302 4 5.74V27.34C4 27.6714 4.26862 27.94 4.6 27.94H28V26.74H5.2V24.34ZM5.2 6.34001H26.8V9.94001H5.2V6.34001ZM5.2 11.14H26.8V23.14H5.2V11.14Z" fill="black"/><path fill-rule="evenodd" clip-rule="evenodd" d="M8.20352 21.9399H23.8035C24.1349 21.9399 24.4035 21.6712 24.4035 21.3399V12.9399C24.4035 12.6085 24.1349 12.3399 23.8035 12.3399H8.20352C8.04927 12.3389 7.90198 12.404 7.79878 12.5186C7.69558 12.6333 7.64636 12.7866 7.6635 12.9399V21.3399C7.64636 21.4931 7.69558 21.6464 7.79878 21.7611C7.90198 21.8757 8.04927 21.9408 8.20352 21.9399ZM23.2002 20.7398H8.80019V13.5398H23.2002V20.7398Z" fill="black"/><path fill-rule="evenodd" clip-rule="evenodd" d="M22.8406 7.72175C23.0002 7.26805 23.4405 6.97452 23.9206 7.00175C24.2332 6.98525 24.5388 7.09804 24.7658 7.31365C24.9927 7.52925 25.121 7.82869 25.1206 8.14172C25.1106 8.64307 24.8043 9.09078 24.3406 9.2817C23.8991 9.45316 23.3975 9.33374 23.0806 8.9817C22.7136 8.67086 22.6135 8.14581 22.8406 7.72175ZM24.3406 7.96336C24.2466 7.74797 24.0356 7.60726 23.8006 7.60336C23.6473 7.5862 23.494 7.63544 23.3793 7.73862C23.2647 7.84182 23.1996 7.98911 23.2006 8.14334C23.187 8.3834 23.3337 8.60355 23.5606 8.68333C23.7818 8.8014 24.0551 8.75169 24.2206 8.56332C24.3672 8.40031 24.4132 8.17027 24.3406 7.96336Z" fill="black"/><path fill-rule="evenodd" clip-rule="evenodd" d="M23.8571 7.53906C23.6071 7.55269 23.3919 7.72012 23.3171 7.95907C23.2079 8.16195 23.2583 8.41378 23.4371 8.55907C23.6026 8.74743 23.8759 8.79714 24.0971 8.67908C24.3125 8.58513 24.4532 8.37406 24.4571 8.1391C24.4292 7.82 24.1762 7.567 23.8571 7.5391L23.8571 7.53906Z" fill="#D1D1D1"/><path fill-rule="evenodd" clip-rule="evenodd" d="M19.9577 7.53906C19.7077 7.55269 19.4924 7.72012 19.4177 7.95907C19.3085 8.16195 19.3589 8.41378 19.5377 8.55907C19.7032 8.74743 19.9765 8.79714 20.1977 8.67908C20.4131 8.58513 20.5538 8.37406 20.5577 8.1391C20.5298 7.82 20.2768 7.567 19.9577 7.5391L19.9577 7.53906Z" fill="#D1D1D1"/><path fill-rule="evenodd" clip-rule="evenodd" d="M16.0202 7.59972C15.7679 7.59509 15.5349 7.73483 15.4202 7.95971C15.3628 8.17764 15.4323 8.40938 15.6002 8.55971C15.7455 8.73853 15.9973 8.7889 16.2002 8.67971C16.4271 8.59994 16.5738 8.37979 16.5602 8.13972C16.5602 7.99651 16.5033 7.85916 16.402 7.75789C16.3008 7.65663 16.1634 7.59974 16.0202 7.59974L16.0202 7.59972Z" fill="#D1D1D1"/><path fill-rule="evenodd" clip-rule="evenodd" d="M12.0609 7.60296C11.8259 7.60684 11.6148 7.74755 11.5209 7.96294C11.4697 8.17084 11.5137 8.39073 11.6409 8.56294C11.8064 8.7513 12.0797 8.80101 12.3009 8.68295C12.5277 8.60317 12.6745 8.38302 12.6609 8.14295C12.6618 7.98872 12.5968 7.84143 12.4821 7.73823C12.3675 7.63505 12.2142 7.58582 12.0609 7.60296Z" fill="#D1D1D1"/><path fill-rule="evenodd" clip-rule="evenodd" d="M8.16049 7.60296C7.9255 7.60684 7.71445 7.74755 7.62048 7.96294C7.56932 8.17084 7.6133 8.39073 7.74052 8.56294C7.90598 8.7513 8.17932 8.80101 8.40051 8.68295C8.62734 8.60317 8.77412 8.38302 8.76049 8.14295C8.76145 7.98872 8.69641 7.84143 8.58175 7.73823C8.46712 7.63505 8.31379 7.58582 8.16049 7.60296Z" fill="#D1D1D1"/><path fill-rule="evenodd" clip-rule="evenodd" d="M18.8092 7.72159C19.0056 7.2706 19.4575 6.98523 19.9492 7.00159C20.2618 6.98509 20.5674 7.09788 20.7943 7.31349C21.0213 7.52909 21.1496 7.82853 21.1492 8.14156C21.1392 8.64291 20.8329 9.09062 20.3692 9.28154C19.9284 9.40876 19.4533 9.28632 19.1288 8.9619C18.8044 8.63747 18.682 8.16233 18.8092 7.72152L18.8092 7.72159ZM20.4406 7.96335C20.3466 7.74796 20.1356 7.60724 19.9006 7.60334C19.7473 7.58619 19.594 7.63542 19.4793 7.7386C19.3647 7.8418 19.2996 7.98909 19.3006 8.14332C19.287 8.38339 19.4337 8.60354 19.6606 8.68332C19.8818 8.80138 20.1551 8.75167 20.3206 8.56331C20.4478 8.39112 20.4918 8.17123 20.4406 7.96335Z" fill="black"/><path fill-rule="evenodd" clip-rule="evenodd" d="M14.9097 7.72178C15.1062 7.27079 15.5581 6.98542 16.0497 7.00177C16.3571 6.98414 16.6575 7.09858 16.8752 7.31631C17.0929 7.53404 17.2074 7.83435 17.1898 8.14175C17.2061 8.63341 16.9208 9.08524 16.4698 9.28175C16.029 9.40899 15.5539 9.28655 15.2294 8.96212C14.905 8.63769 14.7826 8.16255 14.9098 7.72174L14.9097 7.72178ZM16.5412 7.96335C16.4472 7.74797 16.2362 7.60725 16.0012 7.60335C15.8479 7.58619 15.6946 7.63543 15.5799 7.73861C15.4653 7.84181 15.4002 7.9891 15.4012 8.14333C15.3876 8.3834 15.5343 8.60354 15.7612 8.68332C15.9824 8.80139 16.2557 8.75168 16.4211 8.56332C16.5484 8.39112 16.5924 8.17123 16.5412 7.96335Z" fill="black"/><path fill-rule="evenodd" clip-rule="evenodd" d="M11.0436 7.72175C11.2032 7.26805 11.6435 6.97452 12.1237 7.00175C12.4362 6.98525 12.7419 7.09804 12.9688 7.31365C13.1958 7.52925 13.3241 7.82869 13.3237 8.14172C13.3243 8.62897 13.0439 9.07289 12.6036 9.2817C12.1427 9.44662 11.628 9.32964 11.2836 8.9817C10.9671 8.64329 10.8737 8.15284 11.0436 7.72175ZM12.6409 7.96012C12.5262 7.73525 12.2932 7.5955 12.0409 7.60012C11.8977 7.60012 11.7603 7.65701 11.659 7.75826C11.5577 7.85954 11.5008 7.99689 11.5008 8.14011C11.4872 8.3802 11.634 8.60035 11.8608 8.68013C12.0637 8.78931 12.3155 8.73894 12.4608 8.56012C12.6288 8.40981 12.6983 8.17807 12.6409 7.96012Z" fill="black"/><path fill-rule="evenodd" clip-rule="evenodd" d="M7.14649 7.72175C7.30605 7.26805 7.74635 6.97452 8.22652 7.00175C8.53912 6.98525 8.84472 7.09804 9.07167 7.31365C9.29864 7.52925 9.42693 7.82869 9.42652 8.14172C9.42715 8.62897 9.14678 9.07289 8.70652 9.2817C8.26076 9.4601 7.75155 9.35564 7.41203 9.01614C7.07256 8.67663 6.96808 8.16743 7.14653 7.72168L7.14649 7.72175ZM8.68055 7.96089C8.60075 7.73404 8.38063 7.58726 8.14054 7.60089C7.83127 7.59933 7.57148 7.83314 7.54054 8.14086C7.55416 8.39084 7.72159 8.6061 7.96054 8.68084C8.16705 8.77946 8.41329 8.73722 8.57512 8.57539C8.73691 8.41358 8.77917 8.16732 8.68055 7.96083V7.96089Z" fill="black"/></svg>