<svg width="24" height="24" viewBox="0 0 32 32" fill="none" xmlns="http://www.w3.org/2000/svg"><g clip-path="url(#clip0)"><path d="M28.4226 25.4892V7.87178C28.3942 7.7004 28.2477 7.57574 28.0775 7.57816H3.92359C3.75338 7.57574 3.60691 7.7004 3.57855 7.87178V12.0413C5.83364 12.0413 7.6617 13.908 7.6617 16.2107C7.6617 17.3116 7.22957 18.3661 6.46205 19.1387C5.69454 19.9112 4.65572 20.3373 3.57812 20.3214V24.4909C3.57812 24.5834 3.62077 24.6704 3.69319 24.7259L3.92324 24.8433H25.2596" stroke="black"/><path d="M11.1123 7.87109V8.45834" stroke="black"/><path d="M11.1123 9.69336V23.3762" stroke="black" stroke-dasharray="2.03 2.03"/><path d="M11.1123 23.9629V24.5501" stroke="black"/><path d="M21.8125 12.5523L21.8125 12.5523L22.7318 14.4486L22.8477 14.6877L23.1108 14.7254L25.1664 15.0199C25.5378 15.0941 25.6006 15.2291 25.6063 15.2471C25.6116 15.2641 25.6415 15.4196 25.3508 15.7194L25.7098 16.0675L25.3508 15.7194L23.8569 17.2602L23.6813 17.4413L23.7227 17.6902L24.067 19.7621C24.0671 19.7624 24.0671 19.7628 24.0672 19.7631C24.1154 20.0626 24.0767 20.2364 24.0379 20.3111C24.0215 20.3426 24.0085 20.3511 24.0042 20.3537C24.0027 20.3546 23.9997 20.3563 23.9946 20.3582L23.5027 20.1738L21.7504 19.2409L21.5191 19.1178L21.2863 19.2379L19.4737 20.1726L18.9788 20.3582C18.9737 20.3563 18.9707 20.3546 18.9692 20.3537C18.9649 20.3511 18.9519 20.3426 18.9355 20.3111C18.8967 20.2364 18.858 20.0626 18.9062 19.7631C18.9063 19.7628 18.9063 19.7624 18.9064 19.7621L19.2508 17.6902L19.2921 17.4413L19.1165 17.2602L17.6226 15.7194L17.2637 16.0675L17.6226 15.7194C17.3299 15.4176 17.3672 15.2684 17.3707 15.2584C17.3767 15.2407 17.4495 15.0969 17.8625 15.0201L19.8647 14.7251L20.1263 14.6866L20.2417 14.4486L21.1609 12.5523C21.1609 12.5523 21.161 12.5523 21.161 12.5523C21.2564 12.3554 21.349 12.2396 21.4196 12.1783C21.4536 12.1488 21.4789 12.135 21.4936 12.1288C21.5074 12.1231 21.5139 12.123 21.5154 12.123C21.5155 12.123 21.5155 12.123 21.5154 12.123C21.5153 12.1229 21.5139 12.1226 21.5151 12.1231C21.5183 12.1246 21.5343 12.1325 21.5622 12.1596C21.6234 12.219 21.708 12.3368 21.8125 12.5523Z" stroke="black"/></g><defs><clipPath id="clip0"><rect width="26" height="18.4889" fill="white" transform="translate(3 7)"/></clipPath></defs></svg>