<svg width="24" height="24" viewBox="0 0 32 32" fill="none" xmlns="http://www.w3.org/2000/svg"><path d="M5.66158 22.6458C4.3845 20.6182 3.70222 18.2728 3.69238 15.8765C3.7213 10.1913 7.65907 5.27371 13.2003 4.0026C18.7417 2.73149 24.429 5.44119 26.9329 10.5453C29.4368 15.6495 28.0986 21.8056 23.7018 25.4097C19.305 29.0138 13.0059 29.1179 8.49234 25.6611" stroke="black" stroke-linejoin="round"/><path d="M9.35389 5.16602L10.0308 6.45831L9.23081 7.19678C9.23081 7.2583 9.16928 7.31986 9.16928 7.38138L9.35389 8.30446C9.35389 8.36599 9.29237 8.36598 9.29237 8.42755L7.69238 10.2737L8.86163 12.0583V12.1814L8.49241 13.6584C8.49241 13.7199 8.55394 13.7814 8.55394 13.843L13.2308 17.3507V16.1199L11.3232 13.2891C11.2001 13.1661 11.2616 13.043 11.3847 12.9814L12.4924 12.7353H12.6155L13.2308 12.9814L13.9078 12.1199L14.5231 11.6891C14.5847 11.6891 14.5847 11.6891 14.5847 11.6276L15.8154 10.0276C15.8154 9.96608 15.877 9.96608 15.9385 9.96608H18.0308C18.0924 9.96608 18.1539 9.96608 18.1539 9.90456L19.6309 8.24301C19.6649 8.24301 19.6924 8.21548 19.6924 8.18149L20.1232 7.01224C20.1232 6.95072 20.1847 6.95072 20.1847 6.88916L20.9232 6.70455L22.8924 6.95072H23.0155L25.0462 10.4584V12.92L25.5385 14.8276C25.6001 14.8892 25.6001 14.9507 25.6616 14.9507L27.3847 15.5661H28.3693" stroke="black" stroke-linejoin="round"/><path fill-rule="evenodd" clip-rule="evenodd" d="M15.0793 21.4381L14.7101 19.7766C14.7008 19.6898 14.7227 19.6026 14.7716 19.5304L15.2024 19.0996C15.2024 19.0381 15.2639 18.9766 15.387 18.9766H16.3101C16.3716 18.915 16.4332 18.9766 16.4947 18.9766L18.3408 20.3304H19.2639C19.387 20.3304 19.4485 20.3919 19.5101 20.515L19.8793 21.2535C19.9446 21.3763 19.9194 21.5277 19.8178 21.6227L18.9562 22.2996C18.9523 22.3471 18.9303 22.3911 18.8947 22.4227L18.587 23.2843C18.587 23.3458 18.5255 23.3458 18.5255 23.4074C17.9525 23.9691 17.3352 24.4836 16.6793 24.9458C16.4947 25.0689 16.2485 24.8843 16.2485 24.6381C16.2485 24.392 16.3101 22.4843 16.0024 22.2381L15.2024 21.4997C15.1527 21.5062 15.104 21.4818 15.0793 21.4381H15.0793Z" stroke="black" stroke-linejoin="round"/></svg>