<svg width="24" height="24" viewBox="0 0 32 32" fill="none" xmlns="http://www.w3.org/2000/svg"><path d="M11.291 10.9025L22.5451 6.68064C23.3138 6.40184 24.1622 6.80106 24.4405 7.57257L25.5067 10.5457" stroke="black" stroke-linejoin="round"/><path d="M6.27024 21.3972L3.66404 15.1537C3.41927 14.3838 3.80648 13.5545 4.55252 13.2509L6.15179 12.6562" stroke="black" stroke-linejoin="round"/><path fill-rule="evenodd" clip-rule="evenodd" d="M6 14H28.3517V18H6V14Z" fill="#D1D1D1"/><path d="M6.1377 25.5017L6.25617 12.301C6.25553 11.5026 6.88316 10.8464 7.67775 10.8145H26.9281C27.7459 10.8145 28.4089 11.48 28.4089 12.301V23.4799C28.4089 24.3009 27.7459 24.9665 26.9281 24.9665H9.09929" stroke="black" stroke-linejoin="round"/><path d="M6.19727 13.668H28.35" stroke="black" stroke-linejoin="round"/><path d="M6.19727 17.7109H28.35" stroke="black" stroke-linejoin="round"/><path fill-rule="evenodd" clip-rule="evenodd" d="M24.0259 20.625H26.3952V22.6467H24.0259V20.625Z" stroke="black" stroke-linejoin="round"/></svg>