<svg width="24" height="24" viewBox="0 0 32 32" fill="none" xmlns="http://www.w3.org/2000/svg"><path fill-rule="evenodd" clip-rule="evenodd" d="M6.29824 19.8799L6.911 20.033L6.45143 19.0118L5.17483 18.2969L4.81738 19.7267L5.27696 20.7479L5.53228 20.2373C7.00988 22.9465 9.511 24.9511 12.477 25.8033L12.6812 24.9862C9.96282 24.1936 7.66826 22.358 6.29824 19.8799H6.29824Z" fill="black"/><path fill-rule="evenodd" clip-rule="evenodd" d="M25.7021 9.56509L25.3957 10.0757C23.9389 7.36964 21.4544 5.36364 18.5021 4.50977L18.2979 5.37785C21.0126 6.14812 23.3092 7.96705 24.6808 10.4332L24.017 10.28L24.4766 11.3523L25.8042 12.0162L26.1617 10.5864L25.7021 9.56509Z" fill="black"/><path fill-rule="evenodd" clip-rule="evenodd" d="M23.5058 17.7871H22.2803V21.9744H23.5058C24.8335 21.9744 25.4462 21.2595 25.4462 19.8297C25.4462 18.3999 24.8335 17.7871 23.5058 17.7871ZM23.4548 21.5148L22.893 21.5148V18.3489H23.4547C24.5271 18.3489 24.8335 19.0127 24.8335 19.9829C24.8335 20.9531 24.476 21.5148 23.4547 21.5148L23.4548 21.5148Z" fill="black"/><path fill-rule="evenodd" clip-rule="evenodd" d="M19.6255 18.3485V19.6251H21.2595V20.1358H19.6255V21.4634H21.5148V22.0251H19.0127V17.8379H21.5148V18.3485H19.6255Z" fill="black"/><path fill-rule="evenodd" clip-rule="evenodd" d="M17.0724 17.8379H16.3065C15.7632 19.2047 15.3028 20.603 14.9277 22.0252L15.5916 22.0252C15.6698 21.6446 15.7722 21.2694 15.8979 20.9018H17.532L17.8384 22.0252H18.4512C18.0761 20.603 17.6157 19.2047 17.0724 17.8379L17.0724 17.8379ZM16.0511 20.3911C16.2554 19.6251 16.4597 18.9102 16.6639 18.3485H16.715C16.9192 18.9102 17.1235 19.6251 17.3788 20.3911H16.0511Z" fill="black"/><path fill-rule="evenodd" clip-rule="evenodd" d="M14.4679 12.5785C14.4679 13.4976 13.3956 14.2636 12.0169 14.2636H11.6084V15.0806H10.6382V14.2636H8.28922L9.05517 13.3955H12.0169C12.7318 13.3955 13.4467 13.0891 13.4467 12.5785C13.4467 12.0678 12.7318 11.8636 12.0169 11.8636H10.3318C8.95305 11.8636 8.08496 10.9955 8.08496 10.0763C8.08496 9.1572 8.95305 8.34018 10.3318 8.34018H10.6382V7.57422H11.6084V8.34018H14.1616L13.2935 9.25933H10.3318C9.61688 9.25933 9.05517 9.56571 9.05517 10.0763C9.05517 10.587 9.61688 10.9955 10.3318 10.9955H12.0169C13.3956 10.9955 14.4679 11.6593 14.4679 12.5785Z" fill="black"/><path d="M13.498 17.6332C12.7865 17.8551 12.0473 17.9754 11.3022 17.9906C8.56681 18.0113 6.09017 16.3766 5.0338 13.8533C3.97744 11.33 4.55087 8.41849 6.48516 6.48419C8.41946 4.54989 11.331 3.97646 13.8543 5.03282C16.3776 6.08919 18.0122 8.56583 17.9916 11.3013C17.9765 12.0297 17.8561 12.752 17.6342 13.446" stroke="black"/><path d="M20.2384 27.4885C24.243 27.4885 27.4894 24.2421 27.4894 20.2374C27.4894 16.2327 24.243 12.9863 20.2384 12.9863C16.2337 12.9863 12.9873 16.2327 12.9873 20.2374C12.9873 24.2421 16.2337 27.4885 20.2384 27.4885Z" stroke="black"/></svg>