<svg width="24" height="24" viewBox="0 0 32 32" fill="none" xmlns="http://www.w3.org/2000/svg"><g clip-path="url(#clip0)"><path fill-rule="evenodd" clip-rule="evenodd" d="M12.6277 25.4097L11.4823 26.4915L4.92773 20.0006L5.88228 18.9824C7.98021 21.2774 10.234 23.4249 12.6276 25.4096L12.6277 25.4097Z" fill="#D1D1D1"/><path fill-rule="evenodd" clip-rule="evenodd" d="M15.0541 26.1035L14.4234 26.9999C10.2613 24.2468 4.83784 17.8444 4.58559 17.5883C4.49337 17.4832 4.44775 17.3443 4.45946 17.2041V14.7072L2 11.9541V10.3535L5.4054 14.131C5.48263 14.2197 5.52721 14.3328 5.53154 14.4511V17.0121C6.41441 18.0364 11.3333 23.6706 15.0541 26.1035Z" fill="black"/><path d="M13.0996 22.1348L16.1897 25.1439" stroke="black" stroke-linejoin="round"/><path d="M14.9277 20.3418L17.8917 23.415" stroke="black" stroke-linejoin="round"/><path d="M16.8203 18.5488L19.7212 21.622" stroke="black" stroke-linejoin="round"/><path fill-rule="evenodd" clip-rule="evenodd" d="M13.5407 10.9303L12.9101 11.8266L12.3425 11.3784L11.4596 10.6742L9.31549 10.5461L9.00017 10.4181L5.15332 6.64062H6.7299L9.6308 9.52172L11.6488 9.64978H11.9011L13.3515 10.6742L13.5407 10.9303Z" fill="black"/><path fill-rule="evenodd" clip-rule="evenodd" d="M9.69368 15.4115C10.1348 15.4819 10.5854 15.4601 11.018 15.3475C11.9019 14.8378 12.9023 14.5728 13.9189 14.5792C14.6558 14.366 15.3572 14.0424 15.9999 13.6188C16.1988 13.4867 16.4614 13.5133 16.6306 13.6828C17.7666 14.7722 18.8404 15.9265 19.8468 17.1402L20.5405 18.0365L21.6756 19.5731L20.7927 20.2134C19.4357 18.252 17.8939 16.4294 16.1891 14.7713C15.5124 15.2917 14.7023 15.6029 13.8558 15.6677C13.0653 15.6788 12.2882 15.8761 11.5855 16.2439L11.2702 16.372C10.7027 16.5 9.56751 16.6921 8.87383 16.2439C8.69704 16.1186 8.56444 15.9391 8.49545 15.7317C8.48986 15.4833 8.55561 15.2386 8.68463 15.0275C9.65288 13.5763 10.8963 12.3357 12.3423 11.3781L13.3513 10.7378C14.2816 10.257 15.2826 9.93271 16.3153 9.77746L19.8468 6.12806L20.2252 6H26.4054L25.3333 7.08842H20.4144L16.9459 10.6738C16.8489 10.7849 16.7133 10.8537 16.5675 10.8658C16.5045 10.8658 12.9099 11.0578 9.69368 15.4115Z" fill="black"/><path fill-rule="evenodd" clip-rule="evenodd" d="M29.9999 6L22.0539 14.0031C21.9909 14.1311 21.9278 14.1951 21.9278 14.3232L21.8017 15.8598C21.7929 16.1656 21.6816 16.4592 21.4863 16.6921L20.5404 18.0366L20.2882 18.3567L19.4053 17.7165L19.8467 17.1403L20.6665 16.0518C20.7167 15.9767 20.739 15.886 20.7296 15.7957L20.8557 14.2591C20.9096 13.8836 21.0621 13.5297 21.2972 13.2348L28.4864 6H29.9999Z" fill="black"/><path d="M6.2257 18.6133L4.90137 20.0859L11.3969 26.6163L12.9104 25.1438" stroke="black" stroke-linejoin="round"/></g><defs><clipPath id="clip0"><rect width="28" height="21.6364" fill="white" transform="translate(2 6)"/></clipPath></defs></svg>