<svg width="32" height="32" viewBox="0 0 32 32" fill="none" xmlns="http://www.w3.org/2000/svg">
      <path fill-rule="evenodd" clip-rule="evenodd" d="M21.1277 26.9694C22.2575 26.9916 23.2885 26.3281 23.7363 25.2905C24.1841 24.253 23.9598 23.0476 23.1686 22.2407C22.3775 21.4337 21.1769 21.1856 20.1306 21.6127C19.0844 22.0399 18.4006 23.0576 18.4004 24.1876C18.3997 25.7021 19.6118 26.9393 21.1268 26.9694L21.1277 26.9694Z" stroke="black" stroke-linejoin="round"/>
      <path fill-rule="evenodd" clip-rule="evenodd" d="M9.72822 26.7903C10.8049 26.9422 11.8713 26.4529 12.4583 25.5377C13.0454 24.6225 13.0454 23.4491 12.4583 22.5339C11.8713 21.6187 10.8049 21.1294 9.72822 21.2813C8.35557 21.4749 7.33496 22.6496 7.33496 24.0358C7.33496 25.422 8.35557 26.5967 9.72822 26.7903Z" stroke="black" stroke-linejoin="round"/>
      <path d="M24.0182 24.5827H26.0364L27.4546 22.9464V18.3646L23.5273 12.8555H19.3818V18.4191H27.4546" stroke="black" stroke-linejoin="round"/>
      <path d="M12.4551 24.582H18.5096" stroke="black" stroke-linejoin="round"/>
      <path d="M19.4913 8.60156H4.5459V24.5834H7.00044" stroke="black" stroke-linejoin="round"/>
      <path fill-rule="evenodd" clip-rule="evenodd" d="M21.1278 24.9644C21.6098 24.9644 22.0005 24.5736 22.0005 24.0916C21.9717 23.631 21.5892 23.2725 21.1278 23.2734C20.6759 23.2734 20.3096 23.6398 20.3096 24.0916C20.3087 24.5531 20.6672 24.9355 21.1278 24.9644H21.1278Z" fill="black"/>
      <path fill-rule="evenodd" clip-rule="evenodd" d="M10.0282 24.855C10.5102 24.855 10.9009 24.4642 10.9009 23.9822C10.872 23.5217 10.4896 23.1632 10.0281 23.1641C9.57627 23.1641 9.20996 23.5304 9.20996 23.9822C9.20908 24.4438 9.56762 24.8262 10.0282 24.855H10.0282Z" fill="black"/>
      <path d="M21.7823 19.7305H20.6914" stroke="black" stroke-width="0.97674" stroke-linejoin="round"/>
      <path d="M18.4552 11.4375L7 11.4375" stroke="black" stroke-linejoin="round"/>
      <path d="M19.7745 21.8008H11.8545" stroke="black" stroke-linejoin="round"/>
      <path d="M8.6459 21.8008H4.5459" stroke="black" stroke-linejoin="round"/>
      </svg>
      