<svg width="24" height="24" viewBox="0 0 32 32" fill="none" xmlns="http://www.w3.org/2000/svg"><path fill-rule="evenodd" clip-rule="evenodd" d="M21.1277 26.9694C22.2575 26.9916 23.2885 26.3281 23.7363 25.2905C24.1841 24.253 23.9598 23.0476 23.1686 22.2407C22.3775 21.4337 21.1769 21.1856 20.1306 21.6127C19.0844 22.0399 18.4006 23.0576 18.4004 24.1876C18.3997 25.7021 19.6118 26.9393 21.1268 26.9694L21.1277 26.9694Z" stroke="black" stroke-linejoin="round"/><path fill-rule="evenodd" clip-rule="evenodd" d="M9.72822 26.7903C10.8049 26.9422 11.8713 26.4529 12.4583 25.5377C13.0454 24.6225 13.0454 23.4491 12.4583 22.5339C11.8713 21.6187 10.8049 21.1294 9.72822 21.2813C8.35557 21.4749 7.33496 22.6496 7.33496 24.0358C7.33496 25.422 8.35557 26.5967 9.72822 26.7903Z" stroke="black" stroke-linejoin="round"/><path d="M24.0182 24.5808H26.0364L27.4546 22.9444V18.3626L23.5273 12.8535H19.3818V18.4172H27.4546" stroke="black" stroke-linejoin="round"/><path d="M12.4551 24.5801H18.5096" stroke="black" stroke-linejoin="round"/><path d="M19.4913 8.59961H4.5459V24.5814H7.00044" stroke="black" stroke-linejoin="round"/><path fill-rule="evenodd" clip-rule="evenodd" d="M21.1278 24.9624C21.6098 24.9624 22.0005 24.5717 22.0005 24.0897C21.9717 23.6291 21.5892 23.2706 21.1278 23.2715C20.6759 23.2715 20.3096 23.6378 20.3096 24.0897C20.3087 24.5512 20.6672 24.9336 21.1278 24.9624H21.1278Z" fill="black"/><path fill-rule="evenodd" clip-rule="evenodd" d="M10.0282 24.853C10.5102 24.853 10.9009 24.4623 10.9009 23.9803C10.872 23.5197 10.4896 23.1612 10.0281 23.1621C9.57627 23.1621 9.20996 23.5284 9.20996 23.9803C9.20908 24.4418 9.56762 24.8242 10.0282 24.853H10.0282Z" fill="black"/><path d="M21.7823 19.7266H20.6914" stroke="black" stroke-width="0.97674" stroke-linejoin="round"/><path d="M18.4552 11.4355L7 11.4355" stroke="black" stroke-linejoin="round"/><path d="M19.7745 21.7988H11.8545" stroke="black" stroke-linejoin="round"/><path d="M8.6459 21.7988H4.5459" stroke="black" stroke-linejoin="round"/><path fill-rule="evenodd" clip-rule="evenodd" d="M19.3999 16.6455C22.3909 16.3554 24.6727 13.8415 24.6727 10.8365C24.6727 7.8314 22.3909 5.31753 19.3999 5.02736C17.1901 4.81298 15.0501 5.87094 13.8786 7.75688C12.7071 9.64281 12.7071 12.0301 13.8786 13.916C15.0501 15.802 17.1901 16.8599 19.3999 16.6455V16.6455Z" fill="white" stroke="black"/><path fill-rule="evenodd" clip-rule="evenodd" d="M21.5 12.3625L20.5833 13.2973L18.75 11.49L16.9167 13.2973L16 12.3625L17.8333 10.6798L16 8.93482L16.9167 8L18.75 9.74498L20.5833 8L21.5 8.81017L19.6667 10.5551L21.5 12.3625Z" fill="black"/></svg>