<svg width="24" height="24" viewBox="0 0 32 32" fill="none" xmlns="http://www.w3.org/2000/svg"><g clip-path="url(#clip0)"><path d="M26.2429 23.4094H5.05538C4.40292 23.4097 3.77812 23.1462 3.32283 22.6788C2.86753 22.2115 2.62039 21.5799 2.63756 20.9276V7.11854C2.62039 6.46626 2.86753 5.83471 3.32283 5.36735C3.77812 4.89999 4.40292 4.6365 5.05534 4.63672H27.0063C27.6534 4.63577 28.2723 4.90124 28.7176 5.37072C29.163 5.84021 29.3955 6.47233 29.3605 7.11854V24.1731" stroke="black"/><path d="M2.63672 18.2539H29.3597" stroke="black"/><path d="M14.7256 20.8008H17.2706" stroke="black" stroke-width="2"/><path fill-rule="evenodd" clip-rule="evenodd" d="M12.4355 23.791V27.2274V23.791Z" fill="#D1D1D1"/><path d="M12.4355 23.791V27.2274" stroke="black"/><path fill-rule="evenodd" clip-rule="evenodd" d="M19.5615 23.791V27.2274V23.791Z" fill="#D1D1D1"/><path d="M19.5615 23.791V27.2274" stroke="black"/><path fill-rule="evenodd" clip-rule="evenodd" d="M23.1243 27.5469H8.87207H23.1243Z" fill="#D1D1D1"/><path d="M23.1243 27.5469H8.87207" stroke="black"/><path d="M20.3252 6.92773L26.4333 13.1641" stroke="black" stroke-linejoin="round"/><path d="M23.5693 7.11914L26.3689 9.98278" stroke="black" stroke-linejoin="round"/></g><defs><clipPath id="clip0"><rect width="28" height="24.1818" fill="white" transform="translate(2 4)"/></clipPath></defs></svg>