<svg width="24" height="24" viewBox="0 0 32 32" fill="none" xmlns="http://www.w3.org/2000/svg"><path d="M13.291 26.4453L2.90752 16.505C2.62853 16.2065 2.46799 15.8163 2.45605 15.4077C2.48307 15.0216 2.64255 14.6568 2.90752 14.375L14.9033 2.88558C15.5217 2.31158 16.4777 2.31158 17.0961 2.88558L29.0919 14.375C29.385 14.6373 29.5498 15.0142 29.5433 15.4077C29.5601 15.8219 29.3952 16.2227 29.0919 16.505L15.4837 29.5435" stroke="black"/><path d="M19.0958 14.5279H13.5494C13.3161 14.5099 13.0859 14.5902 12.9144 14.7496C12.7429 14.909 12.6458 15.1328 12.6465 15.367V19.6271" stroke="black" stroke-linecap="round"/><path d="M16.5802 11.5566L19.2245 14.2031C19.3111 14.2881 19.36 14.4044 19.36 14.5258C19.36 14.6473 19.3111 14.7636 19.2245 14.8485L16.3223 17.7532" stroke="black" stroke-linecap="round"/></svg>