<svg width="24" height="25" viewBox="0 0 24 25" fill="none" xmlns="http://www.w3.org/2000/svg">
    <g clip-path="url(#clip0_3048_61514)">
    <path d="M18.75 10.4375L21.438 10.4375C21.6103 10.4375 21.75 10.6402 21.75 10.8902L21.75 23.1875H2.25V10.8902C2.25 10.6402 2.38969 10.4375 2.562 10.4375L5.625 10.4375" stroke="#8B8B8B"/>
    <path d="M18 21.3125V12.6875H13.8161L12.023 14.5686L10.2299 12.6875H6V22.8125" stroke="#8B8B8B"/>
    <path d="M18.252 10.4825C18.2769 10.7575 18.52 10.9603 18.795 10.9355C19.07 10.9106 19.2728 10.6675 19.248 10.3925L18.252 10.4825ZM5.74797 10.4825C6.03023 7.35718 8.73326 4.9375 12 4.9375V3.9375C8.24079 3.9375 5.08304 6.7274 4.75203 10.3925L5.74797 10.4825ZM12 4.9375C15.2667 4.9375 17.9698 7.35718 18.252 10.4825L19.248 10.3925C18.9169 6.7274 15.7592 3.9375 12 3.9375V4.9375Z" fill="#8B8B8B"/>
    <path d="M2.25 11.1875C2.69292 5.67028 6.9257 1.4375 12 1.4375C17.0743 1.4375 21.3071 5.67028 21.75 11.1875" stroke="#8B8B8B"/>
    </g>
    <defs>
    <clipPath id="clip0_3048_61514">
    <rect width="24" height="24" fill="white" transform="translate(0 0.6875)"/>
    </clipPath>
    </defs>
    </svg>
    