<svg width="24" height="24" viewBox="0 0 32 32" fill="none" xmlns="http://www.w3.org/2000/svg"><g clip-path="url(#clip0)"><path d="M28.4226 25.4892V7.87178C28.3942 7.7004 28.2477 7.57574 28.0775 7.57816H3.92359C3.75338 7.57574 3.60691 7.7004 3.57855 7.87178V12.0413C5.83364 12.0413 7.6617 13.908 7.6617 16.2107C7.6617 17.3116 7.22957 18.3661 6.46205 19.1387C5.69454 19.9112 4.65572 20.3373 3.57812 20.3214V24.4909C3.57812 24.5834 3.62077 24.6704 3.69319 24.7259L3.92324 24.8433H25.2596" stroke="black"/><path fill-rule="evenodd" clip-rule="evenodd" d="M20.5187 18.9215C20.5095 19.4162 20.8082 19.8628 21.2634 20.0348C21.719 20.2567 22.2623 20.1617 22.6194 19.7977C22.9764 19.4337 23.0696 18.8799 22.852 18.4154C22.654 17.9529 22.2052 17.6545 21.7102 17.6563C21.3959 17.6656 21.0958 17.7916 20.8662 18.0105C20.6303 18.2512 20.5043 18.5816 20.5187 18.9214V18.9215Z" stroke="black"/><path fill-rule="evenodd" clip-rule="evenodd" d="M16.25 14.2146C16.2483 14.7193 16.5409 15.1767 16.9947 15.3786C17.4503 15.6004 17.9937 15.5054 18.3507 15.1414C18.7078 14.7775 18.801 14.2236 18.5834 13.7591C18.3853 13.2966 17.9366 12.9983 17.4415 13C16.7835 13 16.25 13.5438 16.25 14.2146Z" stroke="black"/><path d="M16 20.1357L23 13" stroke="black"/><path d="M11.1123 7.87109V8.45834" stroke="black"/><path d="M11.1123 9.69336V23.3762" stroke="black" stroke-dasharray="2.03 2.03"/><path d="M11.1123 23.9629V24.5501" stroke="black"/></g><defs><clipPath id="clip0"><rect width="26" height="18.4889" fill="white" transform="translate(3 7)"/></clipPath></defs></svg>