<svg width="24" height="24" viewBox="0 0 32 32" fill="none" xmlns="http://www.w3.org/2000/svg"><path d="M18 28.5H4C3.44772 28.5 3 28.0523 3 27.5V10.5M3 10.5H20.5C21.0523 10.5 21.5 10.9477 21.5 11.5V28L25.8714 26.2514C26.251 26.0996 26.5 25.7319 26.5 25.323V9C26.5 8.44772 26.0523 8 25.5 8H7.75913C7.58918 8 7.42204 8.04331 7.27348 8.12584L3 10.5Z" stroke="black"/><path d="M26 8.5L21.5 11" stroke="black"/><path d="M14.5 8L10 10.5V15L11 14.5L12 15L13 14.5L14 15V11L19.5 8" stroke="black"/><path d="M5 24H7" stroke="black"/><path d="M5 26H9" stroke="black"/><circle cx="23.5" cy="10.5" r="6" fill="white" stroke="black"/><path d="M26.5 8C26.5 7.72386 26.2761 7.5 26 7.5L21.5 7.5C21.2239 7.5 21 7.72386 21 8C21 8.27614 21.2239 8.5 21.5 8.5L25.5 8.5L25.5 12.5C25.5 12.7761 25.7239 13 26 13C26.2761 13 26.5 12.7761 26.5 12.5L26.5 8ZM21.3536 13.3536L26.3536 8.35355L25.6464 7.64645L20.6464 12.6464L21.3536 13.3536Z" fill="black"/></svg>