<svg viewBox="0 0 22 18" xmlns="http://www.w3.org/2000/svg">
      <path d="M13.544 17.4896H2.24121C1.68893 17.4896 1.24121 17.0419 1.24121 16.4896V2.72625M1.24121 2.72625H15.4147C15.967 2.72625 16.4147 3.17396 16.4147 3.72625V17.0795L19.887 15.6906C20.2667 15.5387 20.5156 15.171 20.5156 14.7621V1.67578C20.5156 1.1235 20.0679 0.675781 19.5156 0.675781H5.19118C5.02123 0.675781 4.85409 0.719092 4.70554 0.801624L1.24121 2.72625Z"/>
      <path d="M20.1049 1.08594L16.4141 3.1364"/>
      <path d="M6.98242 2.72625L10.6733 0.675781H14.7742L10.2632 3.13634V6.41709L9.44298 6.007L8.6228 6.41709L7.80261 6.007L6.98242 6.41709V2.72625Z"/>
      <path d="M2.88184 13.8008H4.52221"/>
      <path d="M2.88184 15.4414H6.16258"/>
      </svg>