<svg viewBox="0 0 72 72" fill="none" xmlns="http://www.w3.org/2000/svg">
      <path d="M52.2147 46.7461H40.084C39.5317 46.7461 39.084 46.2984 39.084 45.7461V30.9892M39.084 30.9892H54.2785C54.8308 30.9892 55.2785 31.4369 55.2785 31.9892V46.3084L59.0268 44.8091C59.4065 44.6572 59.6554 44.2895 59.6554 43.8806V29.8008C59.6554 29.2485 59.2077 28.8008 58.6554 28.8008H43.2823C43.1124 28.8008 42.9452 28.8441 42.7967 28.9266L39.084 30.9892Z" stroke="black"/>
      <path d="M59.2166 29.2383L55.2773 31.4267" stroke="black"/>
      <path d="M45.2109 30.9892L49.1501 28.8008H53.527L48.7125 31.4269V34.9284L47.8371 34.4907L46.9617 34.9284L46.0863 34.4907L45.2109 34.9284V30.9892Z" fill="#D1D1D1" stroke="black"/>
      <path d="M40.8359 42.8086H42.5867" stroke="black"/>
      <path d="M40.8359 44.5586H44.3375" stroke="black"/>
      <path d="M24.4217 13.3711V21.2642H15.4277M24.4217 13.3711H47.5646C48.334 13.3711 48.9577 13.9932 48.9577 14.7606V25.5152M24.4217 13.3711L15.4277 21.2642M15.4277 21.2642L15.4277 57.7791C15.4278 58.5039 16.0168 59.0914 16.7435 59.0914H47.5646C48.3047 59.0925 48.9166 58.5162 48.9577 57.7791V49.8854" stroke="black" stroke-linejoin="round"/>
      <path d="M25.7801 25.7148L22.0315 29.4817L20.0566 27.2577" stroke="black" stroke-linecap="round"/>
      <path d="M25.7801 36L22.0315 39.7669L20.0566 37.5429" stroke="black" stroke-linecap="round"/>
      <path d="M25.7801 46.2852L22.0315 50.052L20.0566 47.828" stroke="black" stroke-linecap="round"/>
      <path d="M28.2852 28.8008H37.5423" stroke="black" stroke-linecap="round"/>
      <path d="M28.2852 39.0859H37.5423" stroke="black" stroke-linecap="round"/>
      <path d="M28.2852 49.3711H37.5423" stroke="black" stroke-linecap="round"/>
      </svg>
      