<svg viewBox="0 0 72 72" fill="none" xmlns="http://www.w3.org/2000/svg">
      <path d="M22.3651 17.3086V25.2017H13.3711M22.3651 17.3086H45.5079C46.2773 17.3086 46.901 17.9307 46.9011 18.6981V61.7166C46.8599 62.4537 46.2481 63.03 45.5079 63.0289H14.6868C13.9602 63.0289 13.3711 62.4414 13.3711 61.7166L13.3711 25.2017M22.3651 17.3086L13.3711 25.2017" stroke="black" stroke-linejoin="round"/>
      <path fill-rule="evenodd" clip-rule="evenodd" d="M18.7756 58.3037V53.5948C18.7685 53.5103 18.7964 53.4266 18.853 53.3633L24.8899 45.2578L31.7781 53.5177L36.4992 47.9596L40.6012 53.0545C40.6012 53.1316 40.6786 53.286 40.6786 53.3633V58.3038C40.6786 58.5596 40.4707 58.7669 40.2142 58.7669H19.24C19.1099 58.797 18.9734 58.7581 18.879 58.6638C18.7845 58.5696 18.7455 58.4335 18.7756 58.3037H18.7756Z" fill="#D1D1D1" stroke="black" stroke-linejoin="round"/>
      <circle cx="31.6234" cy="43.7133" r="3.6" fill="#D1D1D1" stroke="black" stroke-linejoin="round"/>
      <path d="M18.7656 28.8008H40.3656" stroke="black" stroke-linecap="round"/>
      <path d="M18.7656 34.9727H40.3656" stroke="black" stroke-linecap="round"/>
      <path d="M24.9355 16.9721V11.2578C24.9355 10.1532 25.831 9.25781 26.9355 9.25781H55.8498C56.9544 9.25781 57.8498 10.1532 57.8498 11.2578V53.5435C57.8498 54.6481 56.9544 55.5435 55.8498 55.5435H51.1641" stroke="black" stroke-linecap="round"/>
      </svg>
      