<svg width="32" height="32" viewBox="0 0 64 64" fill="none" xmlns="http://www.w3.org/2000/svg">
      <g opacity="0.2">
      <path fill-rule="evenodd" clip-rule="evenodd" d="M58.6425 24.5892C58.6334 28.2732 57.172 31.8024 54.5793 34.4023L52.0063 36.9918L31.9635 57.1623L9.34817 34.4019C3.96585 28.9444 3.9975 20.1296 9.41875 14.7113C14.8401 9.29304 23.5991 9.32223 28.9846 14.7765L31.964 17.6385L34.9433 14.7765C40.3802 9.35451 49.1429 9.35451 54.5798 14.7765C57.1723 17.3765 58.6335 20.9058 58.6425 24.5892Z" fill="#D1D1D1"/>
      <path d="M37.9226 51.1653L31.964 57.1619L12.3275 37.4002L9.34817 34.4019C3.96585 28.9444 3.9975 20.1296 9.41876 14.7113C14.8401 9.29304 23.5991 9.32223 28.9846 14.7765L31.964 17.6385L34.9433 14.7765C40.3802 9.35451 49.1429 9.35451 54.5798 14.7765C57.1934 17.3641 58.6654 20.8994 58.6654 24.5892C58.6654 28.279 57.1934 31.8143 54.5798 34.4019L52.0067 36.9914" stroke="black" stroke-linejoin="round"/>
      <path d="M33.3672 42.0817H52.3265" stroke="black" stroke-linejoin="round"/>
      <path d="M42.8438 32.5363V51.6165" stroke="black" stroke-linejoin="round"/>
      </g>
      </svg>
      