<svg width="32" height="32" viewBox="0 0 24 24" fill="none" xmlns="http://www.w3.org/2000/svg">
      <path fill-rule="evenodd" clip-rule="evenodd" d="M4.25361 18.1609C2.76432 16.3826 1.95406 14.1337 1.96695 11.8142C1.9886 7.22602 5.16212 3.25476 9.6326 2.22167C14.1031 1.18857 18.6972 3.36479 20.7298 7.47832C22.7624 11.5918 21.6999 16.5631 18.1634 19.4864C14.6269 22.4097 9.54457 22.5178 5.88695 19.7476" fill="white"/>
      <path d="M15.8711 7.875L7.99609 16.125" stroke="#C1000A" stroke-width="1.5" stroke-linecap="round"/>
      <path fill-rule="evenodd" clip-rule="evenodd" d="M15.5947 16.586C15.8876 16.8789 16.3624 16.8789 16.6553 16.586C16.9482 16.2931 16.9482 15.8182 16.6553 15.5253L15.6204 14.4904L14.5597 15.551L15.5947 16.586ZM13.8695 14.8608L14.9302 13.8002L8.47378 7.34393C8.18088 7.05104 7.70601 7.05105 7.41312 7.34394C7.12023 7.63684 7.12023 8.11171 7.41313 8.4046L13.8695 14.8608Z" fill="#C1000A"/>
      </svg>
      