<svg width="24" height="24" viewBox="0 0 32 32" fill="none" xmlns="http://www.w3.org/2000/svg"><path fill-rule="evenodd" clip-rule="evenodd" d="M22.6545 12.2532V8.98047H7.92725V24.1986H9.83634C9.83634 22.2896 10.8727 21.2532 12.7272 21.2532C14.5818 21.2532 15.7272 22.2896 15.7272 24.1986H20.9636C20.971 23.2756 21.3436 22.3931 22 21.7441H21.9454V12.9077C21.939 12.7462 21.998 12.5888 22.1091 12.4714C22.221 12.3451 22.3773 12.267 22.5454 12.2532L22.6545 12.2532Z" fill="#D1D1D1"/><path fill-rule="evenodd" clip-rule="evenodd" d="M24.1272 26.9694C25.257 26.9916 26.288 26.3281 26.7358 25.2905C27.1836 24.253 26.9593 23.0476 26.1682 22.2407C25.377 21.4337 24.1764 21.1856 23.1301 21.6127C22.084 22.0399 21.4001 23.0576 21.3999 24.1876C21.3992 25.7021 22.6114 26.9393 24.1264 26.9694L24.1272 26.9694Z" stroke="black" stroke-linejoin="round"/><path fill-rule="evenodd" clip-rule="evenodd" d="M12.7272 26.7903C13.8039 26.9422 14.8703 26.4529 15.4574 25.5377C16.0444 24.6225 16.0444 23.4491 15.4574 22.5339C14.8703 21.6187 13.8039 21.1294 12.7272 21.2813C11.3546 21.4749 10.334 22.6496 10.334 24.0358C10.334 25.422 11.3546 26.5967 12.7272 26.7903Z" stroke="black" stroke-linejoin="round"/><path d="M27.0182 24.5808H29.0364L30.4546 22.9444V18.3626L26.5273 12.8535H22.3818V18.4172H30.4546" stroke="black" stroke-linejoin="round"/><path d="M15.4546 24.582H21.5091" stroke="black" stroke-linejoin="round"/><path d="M22.4909 8.59961H7.54541V24.5814H9.99996" stroke="black" stroke-linejoin="round"/><path fill-rule="evenodd" clip-rule="evenodd" d="M24.1273 24.9624C24.6093 24.9624 25 24.5717 25 24.0897C24.9712 23.6291 24.5887 23.2706 24.1273 23.2715C23.6754 23.2715 23.3091 23.6378 23.3091 24.0897C23.3082 24.5512 23.6667 24.9336 24.1273 24.9624H24.1273Z" fill="black"/><path fill-rule="evenodd" clip-rule="evenodd" d="M13.0272 24.853C13.5092 24.853 13.8999 24.4623 13.8999 23.9803C13.8711 23.5197 13.4886 23.1612 13.0272 23.1621C12.5753 23.1621 12.209 23.5284 12.209 23.9803C12.2081 24.4418 12.5666 24.8242 13.0272 24.853H13.0272Z" fill="black"/><path d="M24.7818 19.7266H23.6909" stroke="black" stroke-width="0.97674" stroke-linejoin="round"/><path d="M21.4547 11.4355L9.99951 11.4355" stroke="black" stroke-linejoin="round"/><path d="M22.7745 21.7988H14.8545" stroke="black" stroke-linejoin="round"/><path d="M11.6454 21.7988H7.54541" stroke="black" stroke-linejoin="round"/><path d="M6 12H0" stroke="black" stroke-linejoin="round"/><path d="M6 15H2" stroke="black" stroke-linejoin="round"/><path d="M6 18H3" stroke="black" stroke-linejoin="round"/></svg>