<svg width="24" height="24" viewBox="0 0 32 32" fill="none" xmlns="http://www.w3.org/2000/svg"><path fill-rule="evenodd" clip-rule="evenodd" d="M24.1277 26.9694C25.2575 26.9916 26.2885 26.3281 26.7363 25.2905C27.1841 24.253 26.9598 23.0476 26.1686 22.2407C25.3775 21.4337 24.1769 21.1856 23.1306 21.6127C22.0844 22.0399 21.4006 23.0576 21.4004 24.1876C21.3997 25.7021 22.6118 26.9393 24.1268 26.9694L24.1277 26.9694Z" stroke="black" stroke-linejoin="round"/><path fill-rule="evenodd" clip-rule="evenodd" d="M12.7282 26.7903C13.8049 26.9422 14.8713 26.4529 15.4583 25.5377C16.0454 24.6225 16.0454 23.4491 15.4583 22.5339C14.8713 21.6187 13.8049 21.1294 12.7282 21.2813C11.3556 21.4749 10.335 22.6496 10.335 24.0358C10.335 25.422 11.3556 26.5967 12.7282 26.7903Z" stroke="black" stroke-linejoin="round"/><path d="M27.0182 24.5808H29.0364L30.4546 22.9444V18.3626L26.5273 12.8535H22.3818V18.4172H30.4546" stroke="black" stroke-linejoin="round"/><path d="M15.4551 24.582H21.5096" stroke="black" stroke-linejoin="round"/><path d="M22.4913 8.59961H7.5459V24.5814H10.0004" stroke="black" stroke-linejoin="round"/><path fill-rule="evenodd" clip-rule="evenodd" d="M24.1278 24.9624C24.6098 24.9624 25.0005 24.5717 25.0005 24.0897C24.9717 23.6291 24.5892 23.2706 24.1278 23.2715C23.6759 23.2715 23.3096 23.6378 23.3096 24.0897C23.3087 24.5512 23.6672 24.9336 24.1278 24.9624H24.1278Z" fill="black"/><path fill-rule="evenodd" clip-rule="evenodd" d="M13.0282 24.853C13.5102 24.853 13.9009 24.4623 13.9009 23.9803C13.872 23.5197 13.4896 23.1612 13.0281 23.1621C12.5763 23.1621 12.21 23.5284 12.21 23.9803C12.2091 24.4418 12.5676 24.8242 13.0282 24.853H13.0282Z" fill="black"/><path d="M24.7823 19.7266H23.6914" stroke="black" stroke-width="0.97674" stroke-linejoin="round"/><path d="M21.4552 11.4355L10 11.4355" stroke="black" stroke-linejoin="round"/><path d="M22.7745 21.7988H14.8545" stroke="black" stroke-linejoin="round"/><path d="M11.6459 21.7988H7.5459" stroke="black" stroke-linejoin="round"/><path d="M6 12H0" stroke="black" stroke-linejoin="round"/><path d="M6 15H2" stroke="black" stroke-linejoin="round"/><path d="M6 18H3" stroke="black" stroke-linejoin="round"/></svg>