<svg width="32" height="32" viewBox="0 0 32 32" fill="none" xmlns="http://www.w3.org/2000/svg">
      <path d="M25.4751 27.6282C19.2826 32.674 10.2221 31.9818 4.86812 26.0537C-0.485891 20.1257 -0.254953 11.0417 5.39338 5.39338C11.0417 -0.254953 20.1257 -0.485891 26.0537 4.86812C31.9818 10.2221 32.674 19.2826 27.6282 25.4751" stroke="#F7F7F7" stroke-linejoin="bevel"/>
      <path fill-rule="evenodd" clip-rule="evenodd" d="M17.1147 12.2923V11.18C17.0904 11.005 17.1456 10.8283 17.2652 10.6983C17.3848 10.5683 17.5563 10.4986 17.7327 10.5083H19.2963V8.12256H17.147C14.7558 8.12256 14.2131 9.90651 14.2131 11.0457V12.3084H12.8214V15.0972H14.2131V22.8832L17.0019 22.6468V15.0811H19.0706L19.1727 14.0064L19.3286 12.3138L17.1147 12.2923Z" fill="#F7F7F7"/>
      </svg>