<svg width="24" height="24" viewBox="0 0 32 32" fill="none" xmlns="http://www.w3.org/2000/svg"><path d="M25.4751 27.6282C19.2826 32.674 10.2221 31.9818 4.86812 26.0537C-0.485891 20.1257 -0.254953 11.0417 5.39338 5.39338C11.0417 -0.254953 20.1257 -0.485891 26.0537 4.86812C31.9818 10.2221 32.674 19.2826 27.6282 25.4751" stroke="black" stroke-linejoin="bevel"/> <path fill-rule="evenodd" clip-rule="evenodd" d="M17.1146 12.2928V11.1805C17.0903 11.0055 17.1454 10.8288 17.265 10.6988C17.3847 10.5688 17.5561 10.4991 17.7325 10.5088H19.2962V8.12305H17.1468C14.7557 8.12305 14.213 9.907 14.213 11.0462V12.3089H12.8213V15.0977H14.213V22.8837L17.0018 22.6472V15.0816H19.0705L19.1726 14.0069L19.3284 12.3143L17.1146 12.2928Z" fill="black"/></svg>