<svg width="24" height="24" viewBox="0 0 32 32" fill="none" xmlns="http://www.w3.org/2000/svg"><g clip-path="url(#clip0)"><path d="M9.33398 9.20754C13.1433 7.4753 17.5057 7.45095 21.334 9.14055" stroke="black"/><path d="M7.06738 14.8504C8.81356 12.1352 11.7255 10.3995 14.934 10.1614C18.2418 9.96626 21.4574 11.2981 23.6674 13.7786C23.9475 14.0613 24.1936 14.376 24.4007 14.7164" stroke="black"/><path d="M9.48912 24.6857C9.48912 24.6857 7.15579 19.6618 10.6891 15.6426C13.6913 12.5493 18.5429 12.2591 21.8891 14.9728C22.8134 15.6712 23.5472 16.5928 24.0224 17.6522C24.8225 19.2598 25.2224 21.4034 23.6891 22.7431C22.8839 23.3533 21.8144 23.4812 20.8891 23.078C20.3394 22.8719 19.8872 22.4654 19.6224 21.9393C19.0891 20.8005 19.3557 19.4608 18.1557 18.657C16.9459 17.9348 15.388 18.2537 14.5557 19.3938C13.6224 20.7335 14.0891 22.6091 14.7557 23.9488C15.7036 25.7749 17.3341 27.1482 19.2891 27.767L19.6224 27.901" stroke="black"/><path d="M16.4004 20.8789C16.4004 20.8789 16.467 26.1708 22.4004 25.5009" stroke="black"/><path d="M21.7374 20.3207C21.712 18.8998 21.0808 17.5581 20.0041 16.6365C17.776 15.033 14.7448 15.1714 12.6707 16.9714C11.3447 18.2193 10.7851 20.085 11.2041 21.8614C11.5374 23.7369 12.8041 25.4786 14.0708 26.8853" stroke="black"/><path d="M24.8672 2.66602H29.3339V7.15405" stroke="black" stroke-linejoin="round"/><path d="M2.66699 7.15405V2.66602H7.13367" stroke="black" stroke-linejoin="round"/><path d="M24.8672 30.6658H29.3339V26.1777" stroke="black" stroke-linejoin="round"/><path d="M2.66699 26.1777V30.6658H7.13367" stroke="black" stroke-linejoin="round"/></g><defs><clipPath id="clip0"><rect width="28" height="29.3333" fill="white" transform="translate(2 2)"/></clipPath></defs></svg>