<svg width="24" height="24" viewBox="0 0 32 32" fill="none" xmlns="http://www.w3.org/2000/svg"><g clip-path="url(#clip0)"><path d="M7.0498 5.60528C7.0498 5.60528 14.8938 1.01493 23.5601 5.47951" stroke="black"/><path d="M3.63379 12.5236C6.12708 8.8264 10.2317 6.51819 14.7039 6.29835C19.132 6.10971 23.9395 7.68176 26.976 11.0774C27.3475 11.4683 27.6859 11.8889 27.9881 12.335" stroke="black"/><path d="M6.16297 25.5052C6.16297 25.5052 2.87355 18.6511 7.80765 13.3062C9.20625 11.822 11.0082 10.7735 12.9948 10.2879C16.5894 9.33777 20.424 10.1048 23.3691 12.363C24.5896 13.3334 25.5826 14.5565 26.279 15.9472C27.4176 18.0852 27.9237 21.1035 25.7729 22.8642C24.6488 23.654 23.2053 23.8422 21.9142 23.3673C21.1413 23.1164 20.5173 22.5421 20.2063 21.7952C19.4472 20.2861 19.7635 18.3996 18.1188 17.3306C16.4601 16.3459 14.3195 16.7824 13.1847 18.3368C11.8563 20.1603 12.4889 22.6756 13.4378 24.562C14.7807 27.0421 17.0539 28.8951 19.7636 29.7183L20.2064 29.907" stroke="black"/><path d="M14.957 19.8867C14.957 19.8867 15.1468 27.3696 23.7499 26.4264" stroke="black"/><path d="M23.2743 20.256C23.2155 18.2515 22.322 16.3613 20.8072 15.0369C17.7293 12.7147 13.4244 12.8996 10.5594 15.477C8.77978 17.3105 8.02268 19.8977 8.53519 22.394C9.04124 25.0979 10.7492 27.4874 12.5837 29.4996" stroke="black"/></g><defs><clipPath id="clip0"><rect width="26" height="28.5402" fill="white" transform="translate(3 2)"/></clipPath></defs></svg>