<svg width="24" height="24" viewBox="0 0 32 32" fill="none" xmlns="http://www.w3.org/2000/svg"><path d="M16.6172 6.96094C21.6593 6.96094 25.7468 11.0697 25.7468 16.138C25.7468 21.2064 21.6593 25.3151 16.6172 25.3151" stroke="black"/><path d="M26.8454 8.47976C24.4183 5.21769 20.6013 3.29926 16.5488 3.3047V28.9729C23.6003 28.9729 29.3166 23.2269 29.3166 16.1388C29.3279 14.5374 29.0487 12.9474 28.4928 11.4467" stroke="black"/><path fill-rule="evenodd" clip-rule="evenodd" d="M13.7349 18.0708H9.54758V6.54769C9.52911 5.63911 9.87533 4.76129 10.5081 4.11222C11.1409 3.46315 12.007 3.09747 12.9111 3.09766H13.7349V18.0708Z" stroke="black"/><path d="M13.7276 18.0703V23.0384C13.7276 23.0384 15.2378 29.2484 12.9039 29.2484C10.57 29.2484 12.0802 23.0384 12.0802 23.0384V18.0703" stroke="black"/><path d="M2.68262 2.68359V10.3427C2.68219 11.6121 3.68599 12.6515 4.94808 12.6887C6.23705 12.6887 7.28197 11.6384 7.28197 10.3427V2.68359" stroke="black"/><path d="M2.68262 8.48047H7.28176" stroke="black"/><path d="M5.0166 8.47965V2.68359" stroke="black"/><path fill-rule="evenodd" clip-rule="evenodd" d="M5.06402 12.6895L4.10301 13.3105H4.03437V23.1085C3.89708 23.6606 2.66149 29.2496 4.92674 29.2496H5.26996C7.46656 29.2496 6.29962 23.6605 6.16233 23.1085C6.02505 22.5565 6.09368 23.0395 6.09368 22.9705V13.3105L5.06402 12.6895Z" stroke="black"/></svg>