<svg width="24" height="24" viewBox="0 0 32 32" fill="none" xmlns="http://www.w3.org/2000/svg"><path d="M10.1377 4.82812V8.96606" stroke="black"/><path d="M10.1377 13.1035V17.2414" stroke="black"/><path d="M25.3796 24V2.69027C25.3703 2.50985 25.297 2.33866 25.1727 2.20751C25.0242 2.06702 24.8253 1.99242 24.621 2.00061H6.68997C6.50636 1.99474 6.32958 2.0705 6.20721 2.20751C6.08297 2.33866 6.0096 2.50985 6.00032 2.69027V27.5868C5.99445 27.7704 6.0702 27.9472 6.20722 28.0696C6.35574 28.2101 6.55467 28.2847 6.75895 28.2765H10.1383M10.1383 28.2765V29.6558M10.1383 28.2765H22.552M22.552 28.2765V29.6558M22.552 28.2765H25.3796" stroke="black"/><path d="M6.5 11H25" stroke="black"/></svg>