<svg width="24" height="24" viewBox="0 0 32 32" fill="none" xmlns="http://www.w3.org/2000/svg">
    <svg width="17" height="17" viewBox="0 0 17 17" fill="none" xmlns="http://www.w3.org/2000/svg">
    <path fill-rule="evenodd" clip-rule="evenodd" d="M14.4834 9.72393C13.9364 12.5021 11.4872 14.5975 8.54873 14.5975C5.20811 14.5975 2.5 11.8894 2.5 8.54873C2.5 5.20811 5.20811 2.5 8.54873 2.5C11.4875 2.5 13.9368 4.59582 14.4835 7.37435H15.5001C14.9409 4.04044 12.0415 1.5 8.54873 1.5C4.65582 1.5 1.5 4.65582 1.5 8.54873C1.5 12.4416 4.65582 15.5975 8.54873 15.5975C12.0412 15.5975 14.9405 13.0574 15.4999 9.72393H14.4834Z" fill="black"/>
    <path d="M11.5731 8.54873C11.5731 10.3497 10.7544 12.0112 9.89956 13.2488C9.47543 13.8628 9.05077 14.3603 8.73265 14.7038C8.66629 14.7754 8.60467 14.8402 8.54878 14.8979C8.4929 14.8402 8.43127 14.7754 8.3649 14.7038C8.04679 14.3603 7.62213 13.8628 7.19799 13.2488C6.34315 12.0112 5.52441 10.3497 5.52441 8.54873C5.52441 6.74779 6.34315 5.08626 7.19799 3.84869C7.62213 3.23467 8.04679 2.73712 8.3649 2.39371C8.43127 2.32206 8.49289 2.25724 8.54878 2.19959C8.60466 2.25724 8.66629 2.32206 8.73265 2.39371C9.05077 2.73712 9.47543 3.23467 9.89956 3.84869C10.7544 5.08626 11.5731 6.74779 11.5731 8.54873Z" stroke="black"/>
    <line x1="2.16113" y1="5.69971" x2="14.937" y2="5.69971" stroke="black"/>
    <line x1="2.16113" y1="10.9858" x2="14.937" y2="10.9858" stroke="black"/>
    </svg></svg>