<svg width="24" height="24" viewBox="0 0 32 32" fill="none" xmlns="http://www.w3.org/2000/svg"><path d="M26.3311 23.8443C22.3203 29.1784 14.8352 30.4382 9.29935 26.711C3.76345 22.9838 2.11513 15.5746 5.54872 9.85186C8.98228 4.12918 16.2955 2.09684 22.1894 5.22739C28.0833 8.35797 30.4941 15.5553 27.6751 21.6044" stroke="black"/><path fill-rule="evenodd" clip-rule="evenodd" d="M25.52 8.18164L21.168 12.5336L25.52 8.18164Z" fill="#D1D1D1"/><path d="M25.52 8.18164L21.168 12.5336" stroke="black"/><path fill-rule="evenodd" clip-rule="evenodd" d="M10.9919 21.3008L7.08789 25.2048L10.9919 21.3008Z" fill="#D1D1D1"/><path d="M10.9919 21.3008L7.08789 25.2048" stroke="black"/><path fill-rule="evenodd" clip-rule="evenodd" d="M16.3672 8.56641V25.0784V8.56641Z" fill="#D1D1D1"/><path d="M16.3672 8.56641V25.0784" stroke="black"/><path d="M13.2314 9.90971L16.3034 13.0457L19.5034 9.8457" stroke="black"/><path d="M13.2314 14.5191L16.3034 17.6551L19.5034 14.4551" stroke="black"/><path d="M13.2314 18.9331L16.3034 22.0691L19.5034 18.8691" stroke="black"/></svg>