<svg width="22" height="22" viewBox="0 0 22 22" fill="none" xmlns="http://www.w3.org/2000/svg">
      <path fill-rule="evenodd" clip-rule="evenodd" d="M20.4842 12.7958C19.6568 17.2409 15.758 20.6061 11.0731 20.6061C5.78602 20.6061 1.5 16.3201 1.5 11.0331C1.5 5.74598 5.78602 1.45996 11.0731 1.45996C15.7584 1.45996 19.6576 4.82584 20.4845 9.27148H21.5001C20.6614 4.27062 16.3123 0.459961 11.0731 0.459961C5.23374 0.459961 0.5 5.1937 0.5 11.0331C0.5 16.8724 5.23374 21.6061 11.0731 21.6061C16.3118 21.6061 20.6607 17.7961 21.4999 12.7958H20.4842Z" fill="#ACACAC"/>
      <path d="M15.8597 11.0331C15.8597 13.8072 14.6004 16.3498 13.305 18.2252C12.6606 19.1581 12.0156 19.9137 11.5323 20.4355C11.3542 20.6277 11.1984 20.7879 11.0731 20.913C10.9478 20.7879 10.792 20.6277 10.6139 20.4355C10.1306 19.9137 9.48564 19.1581 8.84123 18.2252C7.54584 16.3498 6.28656 13.8072 6.28656 11.0331C6.28656 8.25889 7.54584 5.71627 8.84123 3.84092C9.48564 2.908 10.1306 2.15238 10.6139 1.63063C10.792 1.43838 10.9478 1.27824 11.0731 1.15306C11.1984 1.27824 11.3542 1.43838 11.5323 1.63063C12.0156 2.15238 12.6606 2.908 13.305 3.84092C14.6004 5.71627 15.8597 8.25889 15.8597 11.0331Z" stroke="#ACACAC"/>
      <line x1="1.49121" y1="7.00928" x2="20.6549" y2="7.00928" stroke="#ACACAC"/>
      <line x1="1.49121" y1="14.939" x2="20.6549" y2="14.939" stroke="#ACACAC"/>
      </svg>
      