<svg width="24" height="24" viewBox="0 0 32 32" fill="none" xmlns="http://www.w3.org/2000/svg"><path fill-rule="evenodd" clip-rule="evenodd" d="M9.77821 21.2746V19.7191H8.16044V21.2746H7.35156V17.6035H8.16044V19.0968H9.77821V17.6035H10.5871V21.2746H9.77821Z" fill="black"/><path fill-rule="evenodd" clip-rule="evenodd" d="M12.0177 20.4035H13.3244L13.5733 21.2746H14.3822L13.1377 17.6035H12.2044L10.96 21.2746H11.7066L12.0177 20.4035ZM13.1377 19.8435H12.1422L12.64 18.2879L13.1377 19.8435Z" fill="black"/><path fill-rule="evenodd" clip-rule="evenodd" d="M17.1203 21.2746H14.7559V17.6035H15.5647V20.6524H17.1203V21.2746Z" fill="black"/><path fill-rule="evenodd" clip-rule="evenodd" d="M18.4269 20.4035H19.7335L19.9824 21.2746H20.8536L19.5469 17.6035H18.6136L17.3691 21.2746H18.178L18.4269 20.4035ZM19.5469 19.8435H18.6135L19.0491 18.2879H19.1113L19.5469 19.8435Z" fill="black"/><path fill-rule="evenodd" clip-rule="evenodd" d="M23.5907 21.2746H21.1641V17.6035H21.9729V20.6524H23.5907L23.5907 21.2746Z" fill="black"/><path fill-rule="evenodd" clip-rule="evenodd" d="M11.9142 10.5715C11.852 10.0737 11.7898 9.82479 11.7898 9.76258H11.9142C12.0224 9.58819 12.1062 9.39977 12.1631 9.20259C12.2254 9.01593 12.2254 8.76702 12.2876 8.58037L11.7276 8.26925C11.5993 8.21179 11.5066 8.09594 11.4787 7.95814C11.4729 7.89003 11.4954 7.82253 11.5409 7.77148H11.292C11.0548 8.21554 10.9068 8.7017 10.8564 9.20259L11.1053 9.38925L11.4786 11.7537C11.5672 12.0589 11.6296 12.3712 11.6652 12.687C11.6652 12.8737 11.7274 12.9981 11.7274 13.1226V13.3715C11.7054 13.7396 11.4932 14.0697 11.1674 14.2426C10.7314 14.4903 10.2378 14.619 9.73635 14.6159C9.41115 14.5999 9.09301 14.5151 8.80301 14.3671C8.54762 14.2126 8.42172 13.9105 8.4919 13.6204C8.50314 13.347 8.54488 13.0757 8.61635 12.8115L9.17637 11.816L8.86526 11.5671C8.55415 12.0649 8.30524 12.5626 8.05638 13.0604C7.92365 13.461 7.88115 13.8859 7.93193 14.3049C7.8865 14.7451 8.0473 15.1815 8.36749 15.4871C8.72474 15.8056 9.19726 15.9631 9.67414 15.9226C10.3204 15.9361 10.9536 15.7396 11.4786 15.3626C11.9693 15.0794 12.2762 14.5602 12.2875 13.9937V12.8737C12.2768 12.5593 12.2351 12.2466 12.163 11.9404C12.1009 11.567 12.0387 11.1315 11.9142 10.5715Z" fill="black"/><path fill-rule="evenodd" clip-rule="evenodd" d="M12.7645 10.0754L13.3867 10.6354C13.5466 10.7688 13.7405 10.855 13.9467 10.8843H14.0712C14.1215 10.7887 14.1431 10.6807 14.1334 10.5731C14.4553 10.7312 14.7331 10.9663 14.9423 11.2576C15.2269 11.5703 15.4581 11.9277 15.6267 12.3154C15.6889 12.1909 15.7512 12.1287 15.7512 12.0043C15.8015 11.9087 15.8231 11.8007 15.8134 11.6932C15.7096 10.9275 15.3069 10.234 14.6934 9.76427L13.5734 8.95539C12.5778 8.58203 13.0165 8.64103 12.7023 8.58203C12.5778 8.665 12.5156 8.78944 12.5156 8.95537C12.5156 9.14203 12.5778 9.32871 12.5778 9.57759L12.7645 10.1376V10.0754Z" fill="black"/><path fill-rule="evenodd" clip-rule="evenodd" d="M22.4707 12.5632L21.9107 12.0654C21.6532 11.7439 21.3611 11.4517 21.0395 11.1943C20.8404 10.9747 20.6097 10.7859 20.3551 10.6343L19.7329 10.5098C19.4574 10.5319 19.1959 10.6409 18.9862 10.8209C18.7442 11.085 18.5353 11.3775 18.364 11.692H18.924C19.2293 11.7091 19.5269 11.7941 19.7951 11.9409C20.2219 12.1816 20.6014 12.4979 20.9151 12.8743H17.3684C17.1817 12.8743 17.0573 12.5632 16.9951 12.0032C16.9329 11.4432 16.9329 10.7587 16.9329 10.0743C16.9258 9.33778 16.8212 8.60549 16.6218 7.89648C16.3154 8.30102 16.1029 8.7686 15.9995 9.26538L16.1862 10.1365C16.2404 10.4235 16.2612 10.7158 16.2484 11.0076C16.2411 11.4606 16.1349 11.9066 15.9373 12.3143C15.6727 12.6508 15.358 12.9447 15.004 13.1854L13.6351 13.932L13.1373 14.1187L12.3906 14.3676V14.6787H12.9506C13.7621 14.7215 14.5722 14.5723 15.3151 14.2431C15.8869 13.779 16.3001 13.1483 16.4973 12.4387C16.5056 12.8717 16.6119 13.2972 16.8084 13.6831C16.9951 13.9942 17.1817 14.1809 17.3684 14.1809H23.0306V12.8742L22.4706 12.6253L22.4707 12.5632Z" fill="black"/><path d="M26.3308 23.3644C22.2633 29.2583 14.1961 30.7545 8.28548 26.7113C2.37482 22.6681 0.845358 14.6072 4.86417 8.67992C8.51612 2.90343 16.0162 0.939244 22.0308 4.18417C28.0454 7.42911 30.5221 14.7759 27.6997 20.9999" stroke="black"/></svg>