<svg width="32" height="32" viewBox="0 0 40 40" fill="none" xmlns="http://www.w3.org/2000/svg">
      <rect width="32" height="32" fill="white"/>
      <path d="M34.5238 34.8898H8.32377C7.59267 34.8898 7 34.2971 7 33.566V33.566C7 32.9238 7.46088 32.3743 8.09322 32.2625L32.1755 28.0032C33.4004 27.7866 34.5238 28.7287 34.5238 29.9727V32" stroke="black" stroke-linecap="round" stroke-linejoin="round"/>
      <path fill-rule="evenodd" clip-rule="evenodd" d="M6.2162 6.48996C6.16751 6.21815 6.34838 5.95833 6.6202 5.90963L10.8131 5.15852C11.0616 5.114 11.3043 5.26171 11.3789 5.50288L12.5335 9.2341L22.5221 7.44474C22.5333 7.44273 22.5446 7.44111 22.5559 7.43987C23.3268 7.3556 24.5074 7.43975 25.5857 7.97298C26.6875 8.51784 27.6707 9.5292 27.9776 11.2423L27.9808 11.2603L27.9841 11.2784L27.9873 11.2965L27.9906 11.3146L27.9938 11.3328L27.9971 11.351L28.0003 11.3691L28.0036 11.3873L28.0069 11.4056L28.0101 11.4238L28.0134 11.4421L28.0167 11.4603L28.0199 11.4786L28.0232 11.4969L28.0265 11.5153L28.0298 11.5336L28.0331 11.552L28.0364 11.5704L28.0397 11.5888L28.043 11.6072L28.0463 11.6257L28.0496 11.6441L28.0529 11.6626L28.0562 11.6811L28.0595 11.6996L28.0629 11.7181L28.0662 11.7367L28.0695 11.7553L28.0728 11.7738L28.0762 11.7924L28.0795 11.811L28.0828 11.8297L28.0862 11.8483L28.0895 11.867L28.0929 11.8856L28.0962 11.9043L28.0996 11.923L28.1029 11.9418L28.1063 11.9605L28.1096 11.9792L28.113 11.998L28.1164 12.0168L28.1197 12.0356L28.1231 12.0544L28.1265 12.0732L28.1298 12.092L28.1332 12.1109L28.1366 12.1298L28.14 12.1486L28.1434 12.1675L28.1467 12.1864L28.1501 12.2053L28.1535 12.2243L28.1569 12.2432L28.1603 12.2622L28.1637 12.2811L28.1671 12.3001L28.1705 12.3191L28.1739 12.3381L28.1773 12.3571L28.1807 12.3762L28.1841 12.3952L28.1876 12.4143L28.191 12.4333L28.1944 12.4524L28.1978 12.4715L28.2012 12.4906L28.2046 12.5097L28.2081 12.5288L28.2115 12.5479L28.2149 12.5671L28.2184 12.5862L28.2218 12.6054L28.2252 12.6245L28.2287 12.6437L28.2321 12.6629L28.2355 12.6821L28.239 12.7013L28.2424 12.7205L28.2459 12.7397L28.2493 12.759L28.2528 12.7782L28.2562 12.7975L28.2597 12.8167L28.2631 12.836L28.2666 12.8553L28.27 12.8746L28.2735 12.8938L28.2769 12.9131L28.2804 12.9324L28.2838 12.9518L28.2873 12.9711L28.2908 12.9904L28.2942 13.0097L28.2977 13.0291L28.3012 13.0484L28.3046 13.0678L28.3081 13.0872L28.3116 13.1065L28.315 13.1259L28.3185 13.1453L28.322 13.1647L28.3255 13.184L28.3289 13.2034L28.3324 13.2228L28.3359 13.2423L28.3394 13.2617L28.3428 13.2811L28.3463 13.3005L28.3498 13.3199L28.3533 13.3394L28.3568 13.3588L28.3602 13.3782L28.3637 13.3977L28.3672 13.4171L28.3707 13.4366L28.3742 13.456L28.3777 13.4755L28.3812 13.495L28.3846 13.5144L28.3881 13.5339L28.3916 13.5534L28.3951 13.5728L28.3986 13.5923L28.4021 13.6118L28.4056 13.6313L28.4091 13.6507L28.4126 13.6702L28.416 13.6897L28.4195 13.7092L28.423 13.7287L28.4265 13.7482L28.43 13.7677L28.4335 13.7872L28.437 13.8067L28.4405 13.8262L28.444 13.8457L28.4475 13.8652L28.451 13.8847L28.4545 13.9041L28.4579 13.9236L28.4614 13.9431L28.4649 13.9626L28.4684 13.9821L28.4719 14.0016L28.4754 14.0211L28.4789 14.0406L28.4824 14.0601L28.4859 14.0796L28.4894 14.0991L28.4929 14.1186L28.4964 14.1381L28.4999 14.1576L28.5033 14.177L28.5068 14.1965L28.5103 14.216L28.5138 14.2355L28.5173 14.255L28.5208 14.2744L28.5243 14.2939L28.5278 14.3134L28.5313 14.3328L28.5347 14.3523L28.5382 14.3718L28.5417 14.3912L28.5452 14.4107L28.5487 14.4301L28.5522 14.4496L28.5556 14.469L28.5591 14.4884L28.5626 14.5079L28.5661 14.5273L28.5696 14.5467L28.573 14.5661L28.5765 14.5855L28.58 14.605L28.5835 14.6244L28.5869 14.6438L28.5904 14.6631L28.5939 14.6825L28.5974 14.7019L28.6008 14.7213L28.6043 14.7407L28.6078 14.76L28.6112 14.7794L28.6147 14.7987L28.6182 14.8181L28.6216 14.8374L28.6251 14.8567L28.6286 14.8761L28.632 14.8954L28.6355 14.9147L28.6389 14.934L28.6424 14.9533L28.6458 14.9725L28.6493 14.9918L28.6528 15.0111L28.6562 15.0304L28.6597 15.0496L28.6631 15.0688L28.6665 15.0881L28.67 15.1073L28.6734 15.1265L28.6769 15.1457L28.6803 15.1649L28.6837 15.1841L28.6872 15.2033L28.6906 15.2225L28.694 15.2416L28.6975 15.2608L28.7009 15.2799L28.7043 15.299L28.7078 15.3182L28.7112 15.3373L28.7146 15.3564L28.718 15.3754L28.7214 15.3945L28.7249 15.4136L28.7283 15.4326L28.7317 15.4517L28.7351 15.4707L28.7385 15.4897L28.7419 15.5087L28.7453 15.5277L28.7487 15.5467L28.7521 15.5657L28.7555 15.5846L28.7589 15.6036L28.7623 15.6225L28.7657 15.6414L28.7691 15.6603L28.7724 15.6792L28.7758 15.6981L28.7792 15.717L28.7826 15.7358L28.786 15.7547L28.7893 15.7735L28.7927 15.7923L28.7961 15.8111L28.7994 15.8299L28.8028 15.8486L28.8061 15.8674L28.8095 15.8861L28.8129 15.9048L28.8162 15.9235L28.8196 15.9422L28.8229 15.9609L28.8262 15.9796L28.8296 15.9982L28.8329 16.0168L28.8363 16.0355L28.8396 16.0541L28.8429 16.0726L28.8462 16.0912L28.8496 16.1097L28.8529 16.1283L28.8562 16.1468L28.8595 16.1653L28.8628 16.1838L28.8661 16.2022L28.8694 16.2207L28.8727 16.2391L28.876 16.2575L28.8793 16.2759L28.8826 16.2943L28.8859 16.3126L28.8892 16.331L28.8925 16.3493L28.8958 16.3676L28.899 16.3859L28.9023 16.4041L28.9056 16.4224L28.9088 16.4406L28.9121 16.4588L28.9153 16.477L28.9186 16.4951L28.9219 16.5133L28.9251 16.5314L28.9283 16.5495L28.9316 16.5676L28.9348 16.5857L28.9381 16.6037L28.9413 16.6217L28.9445 16.6397L28.9477 16.6577L28.9509 16.6757L28.9542 16.6936L28.9574 16.7115L28.9606 16.7294L28.9638 16.7473L28.967 16.7651L28.9702 16.783L28.9734 16.8008L28.9765 16.8186L28.9797 16.8363L28.9829 16.8541L28.9861 16.8718L28.9892 16.8895L28.9924 16.9072L28.9956 16.9248L28.9987 16.9424L29.0019 16.96L29.005 16.9776L29.0082 16.9952L29.0113 17.0127L29.0145 17.0302L29.0176 17.0477L29.0207 17.0651L29.0238 17.0826L29.027 17.1L29.0301 17.1174L29.0332 17.1347L29.0363 17.1521L29.0394 17.1694L29.0425 17.1867L29.0456 17.2039L29.0487 17.2211L29.0517 17.2383L29.0548 17.2555L29.0579 17.2727L29.061 17.2898L29.064 17.3069L29.0671 17.324L29.0701 17.341L29.0732 17.3581L29.0762 17.375L29.0793 17.392L29.0823 17.409L29.0853 17.4259L29.0884 17.4428L29.0914 17.4596L29.0944 17.4764L29.0974 17.4932L29.1004 17.51L29.1034 17.5268L29.1064 17.5435L29.1094 17.5602L29.1124 17.5768L29.1154 17.5935L29.1183 17.6101L29.1213 17.6266L29.1243 17.6432L29.1272 17.6597L29.1302 17.6762L29.1331 17.6926L29.1361 17.709L29.139 17.7254L29.1419 17.7418L29.1449 17.7581L29.1478 17.7744L29.1507 17.7907L29.1536 17.8069L29.1565 17.8232L29.1594 17.8393L29.1623 17.8555L29.1652 17.8716L29.1681 17.8877L29.1709 17.9037L29.1738 17.9198L29.1767 17.9357L29.1795 17.9517L29.1824 17.9676L29.1852 17.9835L29.1881 17.9994L29.1909 18.0152L29.1937 18.031L29.1966 18.0468L29.1994 18.0625L29.2022 18.0782L29.205 18.0939L29.2078 18.1095L29.2106 18.1251L29.2134 18.1406L29.2162 18.1562L29.2189 18.1717L29.2217 18.1871L29.2245 18.2025L29.2272 18.2179L29.23 18.2333L29.2327 18.2486L29.2355 18.2639L29.2382 18.2791L29.2409 18.2943L29.2436 18.3095L29.2463 18.3247L29.249 18.3398L29.2517 18.3548L29.2544 18.3699L29.2571 18.3849L29.2598 18.3998L29.2625 18.4148L29.2652 18.4297L29.2678 18.4445L29.2705 18.4593L29.2731 18.4741L29.2758 18.4888L29.2784 18.5035L29.281 18.5182L29.2836 18.5328L29.2863 18.5474L29.2889 18.562L29.2915 18.5765L29.2941 18.591L29.2966 18.6054L29.2992 18.6198L29.3018 18.6342L29.3044 18.6485L29.3069 18.6628L29.3095 18.677L29.312 18.6912L29.3145 18.7054L29.3171 18.7195L29.3196 18.7336L29.3221 18.7477L29.3246 18.7617L29.3271 18.7756L29.3296 18.7896L29.3321 18.8034L29.3346 18.8173L29.3371 18.8311L29.3395 18.8448L29.342 18.8586L29.3444 18.8723L29.3469 18.8859L29.3493 18.8995L29.3517 18.913L29.3542 18.9266L29.3566 18.94L29.359 18.9535L29.3614 18.9669L29.3638 18.9802L29.3662 18.9935L29.3685 19.0068L29.3709 19.02L29.3733 19.0332L29.3756 19.0463L29.378 19.0594L29.3803 19.0724L29.3826 19.0854L29.3849 19.0984L29.3873 19.1113L29.3896 19.1242L29.3919 19.137L29.3942 19.1498L29.3964 19.1625L29.3987 19.1752L29.401 19.1879L29.4032 19.2005L29.4055 19.213L29.4077 19.2255L29.41 19.238L29.4122 19.2504L29.4144 19.2628L29.4166 19.2751L29.4188 19.2874L29.421 19.2996L29.4232 19.3118L29.4254 19.324L29.4275 19.3361L29.4297 19.3481L29.4318 19.3602L29.434 19.3721L29.4361 19.384L29.4382 19.3959L29.4404 19.4077L29.4425 19.4195L29.4446 19.4312L29.4467 19.4429L29.4487 19.4545L29.4508 19.4661L29.4529 19.4776L29.4549 19.4891L29.457 19.5005L29.459 19.5119L29.4611 19.5233L29.4631 19.5345L29.4651 19.5458L29.4671 19.557L29.4691 19.5681L29.4711 19.5792L29.4731 19.5903L29.475 19.6012L29.477 19.6122L29.4789 19.6231L29.4809 19.6339L29.4828 19.6447L29.4847 19.6555L29.4867 19.6661L29.4886 19.6768L29.4905 19.6874L29.4923 19.6979L29.4942 19.7084L29.4961 19.7188L29.4966 19.7214C31.029 19.6328 32.4315 20.6681 32.7065 22.2031C33.004 23.864 31.8605 25.4344 30.1866 25.7343C28.5127 26.0341 26.8951 24.9583 26.5976 23.2974C26.3371 21.8433 27.1813 20.4584 28.5189 19.935L28.5173 19.9261L28.5155 19.9159L28.5136 19.9055L28.5118 19.8952L28.5099 19.8847L28.508 19.8742L28.5061 19.8637L28.5042 19.8531L28.5023 19.8425L28.5004 19.8318L28.4985 19.821L28.4966 19.8103L28.4946 19.7994L28.4927 19.7885L28.4907 19.7776L28.4887 19.7666L28.4868 19.7555L28.4848 19.7445L28.4828 19.7333L28.4808 19.7221L28.4788 19.7109L28.4767 19.6996L28.4747 19.6883L28.4727 19.6769L28.4706 19.6654L28.4686 19.654L28.4665 19.6424L28.4644 19.6308L28.4623 19.6192L28.4602 19.6075L28.4581 19.5958L28.456 19.584L28.4539 19.5722L28.4518 19.5604L28.4497 19.5484L28.4475 19.5365L28.4454 19.5245L28.4432 19.5124L28.441 19.5003L28.4389 19.4882L28.4367 19.476L28.4345 19.4637L28.4323 19.4515L28.4301 19.4391L28.4279 19.4267L28.4256 19.4143L28.4234 19.4019L28.4212 19.3893L28.4189 19.3768L28.4166 19.3642L28.4144 19.3515L28.4121 19.3388L28.4098 19.3261L28.4075 19.3133L28.4052 19.3005L28.4029 19.2876L28.4006 19.2747L28.3983 19.2618L28.396 19.2488L28.3936 19.2357L28.3913 19.2226L28.3889 19.2095L28.3866 19.1963L28.3842 19.1831L28.3818 19.1698L28.3794 19.1565L28.3771 19.1432L28.3747 19.1298L28.3722 19.1164L28.3698 19.1029L28.3674 19.0894L28.365 19.0758L28.3625 19.0622L28.3601 19.0486L28.3577 19.0349L28.3552 19.0212L28.3527 19.0074L28.3503 18.9936L28.3478 18.9798L28.3453 18.9659L28.3428 18.952L28.3403 18.938L28.3378 18.924L28.3353 18.9099L28.3327 18.8959L28.3302 18.8817L28.3277 18.8676L28.3251 18.8534L28.3226 18.8391L28.32 18.8248L28.3175 18.8105L28.3149 18.7962L28.3123 18.7818L28.3097 18.7673L28.3071 18.7528L28.3045 18.7383L28.3019 18.7238L28.2993 18.7092L28.2967 18.6945L28.2941 18.6799L28.2914 18.6652L28.2888 18.6504L28.2861 18.6357L28.2835 18.6208L28.2808 18.606L28.2782 18.5911L28.2755 18.5762L28.2728 18.5612L28.2701 18.5462L28.2674 18.5312L28.2647 18.5161L28.262 18.501L28.2593 18.4859L28.2566 18.4707L28.2539 18.4555L28.2511 18.4402L28.2484 18.4249L28.2456 18.4096L28.2429 18.3943L28.2401 18.3789L28.2374 18.3634L28.2346 18.348L28.2318 18.3325L28.229 18.317L28.2263 18.3014L28.2235 18.2858L28.2207 18.2702L28.2179 18.2545L28.215 18.2388L28.2122 18.2231L28.2094 18.2073L28.2066 18.1915L28.2037 18.1757L28.2009 18.1599L28.1981 18.144L28.1952 18.128L28.1923 18.1121L28.1895 18.0961L28.1866 18.0801L28.1837 18.064L28.1809 18.0479L28.178 18.0318L28.1751 18.0157L28.1722 17.9995L28.1693 17.9833L28.1664 17.967L28.1634 17.9508L28.1605 17.9345L28.1576 17.9181L28.1547 17.9018L28.1517 17.8854L28.1488 17.8689L28.1458 17.8525L28.1429 17.836L28.1399 17.8195L28.137 17.803L28.134 17.7864L28.131 17.7698L28.128 17.7532L28.1251 17.7365L28.1221 17.7198L28.1191 17.7031L28.1161 17.6863L28.1131 17.6696L28.1101 17.6528L28.107 17.6359L28.104 17.6191L28.101 17.6022L28.098 17.5853L28.0949 17.5683L28.0919 17.5514L28.0889 17.5344L28.0858 17.5174L28.0858 17.5171L23.3494 18.3656C23.3868 18.5196 23.4197 18.6757 23.448 18.8338C24.2274 23.1845 21.2323 27.3371 16.7926 28.1324C12.3528 28.9278 8.10248 26.0731 7.3231 21.7224C6.64003 17.9093 8.85626 14.2483 12.4033 12.8663L12.1667 12.1619C12.0788 11.9001 12.2197 11.6166 12.4814 11.5287C12.7432 11.4408 13.0267 11.5817 13.1146 11.8434L13.3552 12.5596C13.5595 12.5069 13.7674 12.4615 13.9785 12.4237C17.9107 11.7193 21.6942 13.878 23.0494 17.4034L27.9094 16.5328L27.9081 16.5256L27.9049 16.5073L27.9016 16.489L27.8983 16.4706L27.895 16.4522L27.8917 16.4338L27.8884 16.4154L27.8851 16.397L27.8818 16.3786L27.8785 16.3601L27.8752 16.3416L27.8719 16.3231L27.8686 16.3046L27.8652 16.2861L27.8619 16.2675L27.8586 16.249L27.8553 16.2304L27.8519 16.2118L27.8486 16.1932L27.8453 16.1746L27.8419 16.1559L27.8386 16.1372L27.8352 16.1186L27.8319 16.0999L27.8285 16.0812L27.8252 16.0625L27.8218 16.0437L27.8185 16.025L27.8151 16.0062L27.8117 15.9874L27.8084 15.9686L27.805 15.9498L27.8016 15.931L27.7982 15.9122L27.7949 15.8933L27.7915 15.8744L27.7881 15.8556L27.7847 15.8367L27.7813 15.8178L27.7779 15.7988L27.7746 15.7799L27.7712 15.761L27.7678 15.742L27.7644 15.723L27.761 15.7041L27.7576 15.6851L27.7542 15.6661L27.7508 15.647L27.7473 15.628L27.7439 15.609L27.7405 15.5899L27.7371 15.5709L27.7337 15.5518L27.7303 15.5327L27.7269 15.5136L27.7234 15.4945L27.72 15.4754L27.7166 15.4562L27.7131 15.4371L27.7097 15.418L27.7063 15.3988L27.7029 15.3796L27.6994 15.3604L27.696 15.3413L27.6925 15.3221L27.6891 15.3029L27.6857 15.2836L27.6822 15.2644L27.6788 15.2452L27.6753 15.2259L27.6719 15.2067L27.6684 15.1874L27.665 15.1682L27.6615 15.1489L27.6581 15.1296L27.6546 15.1103L27.6511 15.091L27.6477 15.0717L27.6442 15.0524L27.6408 15.0331L27.6373 15.0137L27.6338 14.9944L27.6304 14.9751L27.6269 14.9557L27.6234 14.9364L27.62 14.917L27.6165 14.8976L27.613 14.8782L27.6096 14.8589L27.6061 14.8395L27.6026 14.8201L27.5991 14.8007L27.5957 14.7813L27.5922 14.7619L27.5887 14.7425L27.5852 14.7231L27.5818 14.7036L27.5783 14.6842L27.5748 14.6648L27.5713 14.6453L27.5678 14.6259L27.5643 14.6065L27.5609 14.587L27.5574 14.5676L27.5539 14.5481L27.5504 14.5286L27.5469 14.5092L27.5434 14.4897L27.5399 14.4702L27.5365 14.4508L27.533 14.4313L27.5295 14.4118L27.526 14.3923L27.5225 14.3729L27.519 14.3534L27.5155 14.3339L27.512 14.3144L27.5085 14.2949L27.505 14.2754L27.5016 14.2559L27.4981 14.2364L27.4946 14.217L27.4911 14.1975L27.4876 14.178L27.4841 14.1585L27.4806 14.139L27.4771 14.1195L27.4736 14.1L27.4701 14.0805L27.4666 14.061L27.4631 14.0415L27.4596 14.022L27.4562 14.0025L27.4527 13.983L27.4492 13.9635L27.4457 13.944L27.4422 13.9245L27.4387 13.905L27.4352 13.8855L27.4317 13.8661L27.4282 13.8466L27.4247 13.8271L27.4212 13.8076L27.4177 13.7881L27.4143 13.7686L27.4108 13.7492L27.4073 13.7297L27.4038 13.7102L27.4003 13.6908L27.3968 13.6713L27.3933 13.6518L27.3898 13.6324L27.3864 13.6129L27.3829 13.5935L27.3794 13.574L27.3759 13.5546L27.3724 13.5351L27.3689 13.5157L27.3655 13.4963L27.362 13.4768L27.3585 13.4574L27.355 13.438L27.3516 13.4186L27.3481 13.3992L27.3446 13.3798L27.3411 13.3604L27.3377 13.341L27.3342 13.3216L27.3307 13.3022L27.3272 13.2829L27.3238 13.2635L27.3203 13.2441L27.3168 13.2248L27.3134 13.2054L27.3099 13.1861L27.3064 13.1667L27.303 13.1474L27.2995 13.1281L27.2961 13.1088L27.2926 13.0895L27.2891 13.0702L27.2857 13.0509L27.2822 13.0316L27.2788 13.0123L27.2753 12.9931L27.2719 12.9738L27.2684 12.9545L27.265 12.9353L27.2615 12.9161L27.2581 12.8968L27.2546 12.8776L27.2512 12.8584L27.2478 12.8392L27.2443 12.82L27.2409 12.8009L27.2375 12.7817L27.234 12.7625L27.2306 12.7434L27.2272 12.7243L27.2237 12.7051L27.2203 12.686L27.2169 12.6669L27.2135 12.6478L27.2101 12.6287L27.2066 12.6096L27.2032 12.5906L27.1998 12.5715L27.1964 12.5525L27.193 12.5335L27.1896 12.5144L27.1862 12.4954L27.1828 12.4765L27.1794 12.4575L27.176 12.4385L27.1726 12.4195L27.1692 12.4006L27.1658 12.3817L27.1624 12.3628L27.159 12.3439L27.1556 12.325L27.1523 12.3061L27.1489 12.2872L27.1455 12.2684L27.1421 12.2495L27.1388 12.2307L27.1354 12.2119L27.132 12.1931L27.1287 12.1743L27.1253 12.1556L27.1219 12.1368L27.1186 12.1181L27.1152 12.0994L27.1119 12.0807L27.1085 12.062L27.1052 12.0433L27.1018 12.0246L27.0985 12.006L27.0952 11.9874L27.0918 11.9688L27.0885 11.9502L27.0852 11.9316L27.0818 11.913L27.0785 11.8945L27.0752 11.8759L27.0719 11.8574L27.0686 11.8389L27.0653 11.8205L27.062 11.802L27.0587 11.7836L27.0554 11.7651L27.0521 11.7467L27.0488 11.7283L27.0455 11.71L27.0422 11.6916L27.0389 11.6733L27.0356 11.655L27.0323 11.6367L27.0291 11.6184L27.0258 11.6001L27.0225 11.5819L27.0193 11.5637L27.016 11.5455L27.0127 11.5273L27.0095 11.5091L27.0062 11.491L27.003 11.4729L26.9998 11.4548L26.9965 11.4367L26.9933 11.4186C26.7483 10.0509 25.9914 9.2892 25.1424 8.86937C24.2775 8.44168 23.3059 8.367 22.681 8.4322L12.2746 10.2964C12.0261 10.3409 11.7834 10.1932 11.7088 9.95202L10.5543 6.2208L6.79653 6.89396C6.52471 6.94266 6.26489 6.76178 6.2162 6.48996ZM12.7221 13.8152L14.8707 20.2112C14.9587 20.473 15.2422 20.6139 15.5039 20.526C15.7657 20.438 15.9066 20.1545 15.8187 19.8928L13.6746 13.5103C13.8323 13.4713 13.9925 13.4371 14.1549 13.408C18.077 12.7054 21.7863 15.2287 22.4637 19.0101C23.141 22.7915 20.5384 26.4455 16.6162 27.1481C12.6941 27.8507 8.98483 25.3274 8.30744 21.546C7.71647 18.2471 9.62196 15.0451 12.7221 13.8152ZM29.2938 20.7506C28.1375 20.9577 27.3864 22.0296 27.582 23.1211C27.7775 24.2127 28.854 24.9571 30.0103 24.75C31.1666 24.5428 31.9177 23.471 31.7222 22.3794C31.5266 21.2879 30.4501 20.5434 29.2938 20.7506Z" fill="black"/>
      </svg>
      