<svg width="24" height="24" viewBox="0 0 32 32" fill="none" xmlns="http://www.w3.org/2000/svg"><path d="M26.749 23.9612C22.5147 29.6801 14.5442 31.0826 8.61216 27.1526C2.68011 23.2226 0.863267 15.3359 4.47792 9.20647C8.09259 3.07701 15.8732 0.85063 22.1829 4.14032C25.7775 6.01447 28.1778 9.30511 29.0314 12.9869C29.6761 15.7678 29.4385 18.7718 28.1667 21.5572" stroke="black"/><path fill-rule="evenodd" clip-rule="evenodd" d="M19.2986 17.6367H19.052C16.7796 18.3133 14.3592 18.3133 12.0868 17.6367H11.9019C11.5694 17.664 11.2602 17.8185 11.0389 18.0682C10.8288 18.3273 10.7391 18.6636 10.7924 18.9928C10.7924 21.6482 12.9449 23.8009 15.6002 23.8009C18.2555 23.8009 20.4081 21.6482 20.4081 18.9928C20.4367 18.6554 20.3253 18.321 20.0999 18.0682C19.9124 17.8098 19.6175 17.651 19.2986 17.6367Z" stroke="black" stroke-linecap="round" stroke-linejoin="round"/><path fill-rule="evenodd" clip-rule="evenodd" d="M21.2574 12.8585C21.9859 12.858 22.6412 12.4155 22.9139 11.7399C23.1866 11.0644 23.022 10.2909 22.4979 9.78485C21.9738 9.27881 21.1951 9.14146 20.5295 9.43768C19.8639 9.73389 19.4447 10.4044 19.4698 11.1325C19.5031 12.0956 20.2937 12.859 21.2574 12.8585Z" stroke="black"/><path fill-rule="evenodd" clip-rule="evenodd" d="M10.2128 12.7359C11.0577 12.5769 11.6698 11.8389 11.6698 10.9791C11.6698 10.1193 11.0577 9.38128 10.2128 9.2223C9.50667 9.08945 8.78966 9.39229 8.39256 9.9911C7.99545 10.5899 7.99545 11.3683 8.39256 11.9671C8.78966 12.5659 9.50667 12.8687 10.2128 12.7359Z" stroke="black"/></svg>