<svg width="24" height="24" viewBox="0 0 32 32" fill="none" xmlns="http://www.w3.org/2000/svg"><path fill-rule="evenodd" clip-rule="evenodd" d="M14.9337 9.73242H5.66699L7.00033 27.1991C6.99951 27.4057 7.08586 27.6031 7.23816 27.7427C7.39046 27.8823 7.5946 27.9512 7.80037 27.9324H12.8003C13.2054 27.9324 13.5337 27.6041 13.5337 27.1991L14.9337 9.73242Z" stroke="black" stroke-linejoin="round"/><path fill-rule="evenodd" clip-rule="evenodd" d="M8 27.9316H12.6667V30.265H8V27.9316Z" stroke="black" stroke-linejoin="round"/><path d="M12.667 8.06563V6.99896C12.667 6.59395 12.9953 6.26564 13.4003 6.26562H23.1336C23.5387 6.26564 23.8669 6.59396 23.8669 6.99896V17.1323" stroke="black" stroke-linejoin="round"/><path fill-rule="evenodd" clip-rule="evenodd" d="M16.7334 2.66602H19.8667V6.13268H16.7334V2.66602Z" stroke="black" stroke-linejoin="round"/><path d="M20.4004 3.47338H22.4004C22.4004 3.47338 23.1337 3.34005 23.1337 4.27338V4.74004" stroke="black" stroke-linejoin="round"/><path fill-rule="evenodd" clip-rule="evenodd" d="M21.8672 25.1328H25.8005V30.2662H21.8672V25.1328Z" stroke="black" stroke-linejoin="round"/><path fill-rule="evenodd" clip-rule="evenodd" d="M22.2666 22.5332H25.3999V25.1332H22.2666V22.5332Z" stroke="black" stroke-linejoin="round"/><path fill-rule="evenodd" clip-rule="evenodd" d="M22.7334 18.7324H23.8667C24.4559 18.7324 24.9334 19.21 24.9334 19.7991V22.5324H22.7334V18.7324Z" stroke="black" stroke-linejoin="round"/><path d="M8.40039 30.2656H25.6671" stroke="black" stroke-linejoin="round"/></svg>