<svg width="24" height="24" viewBox="0 0 32 32" fill="none" xmlns="http://www.w3.org/2000/svg"><path d="M14.7167 28.2062H14.4834C8.0629 27.4034 3.37262 21.7353 3.77393 15.2639C4.17525 8.79261 9.52973 3.75 16 3.75C22.4703 3.75 27.8248 8.79261 28.2261 15.2639C28.6274 21.7353 23.9371 27.4034 17.5167 28.2062H17.3417" stroke="black"/><path d="M15.9763 19.7903C16.0299 18.2919 16.844 16.9249 18.1345 16.1662C20.3511 14.5879 20.1761 12.7174 20.1761 12.7174C20.1761 8.50874 15.9763 8.74257 15.9763 8.74257C14.8496 8.70859 13.7566 9.12985 12.943 9.91165C12.5845 10.3339 12.2897 10.8065 12.068 11.3145C11.888 11.761 11.7893 12.2361 11.7764 12.7174" stroke="black"/><path fill-rule="evenodd" clip-rule="evenodd" d="M16.0571 20.8415C15.5903 20.815 15.1622 21.101 15.0072 21.543C14.8419 21.963 14.9327 22.4408 15.2405 22.7705C15.5144 23.1365 15.9761 23.3088 16.4222 23.2114C16.8682 23.114 17.2166 22.7649 17.3137 22.3179C17.4109 21.871 17.239 21.4083 16.8738 21.1338C16.6393 20.9523 16.3533 20.8499 16.0571 20.8416V20.8415Z" fill="black"/></svg>