<svg width="24" height="24" viewBox="0 0 32 32" fill="none" xmlns="http://www.w3.org/2000/svg"><g clip-path="url(#clip0)"><path d="M28.1497 25.9641L21.8358 19.6949C21.3447 19.2424 20.5803 19.2424 20.0893 19.6949L16.8652 22.8625C16.5965 23.0605 14.7157 22.4666 12.5663 20.2889C10.4169 18.1112 9.74517 16.3294 9.94669 16.0654L13.1708 12.8978C13.3893 12.6639 13.5093 12.3574 13.5067 12.0399C13.4991 11.7441 13.3793 11.4617 13.1708 11.248L7.93159 6.10071C7.46314 5.65653 6.7208 5.65653 6.25235 6.10071L3.63273 8.67438C2.3565 9.92822 2.3565 12.1719 3.56555 15.0096C5.03352 18.1089 7.08461 20.9077 9.61084 23.2585C13.7754 27.3499 18.5444 29.9896 21.7686 29.9896C22.756 30.0621 23.7295 29.7274 24.4554 29.0657L25.9331 27.3499" stroke="black"/><path d="M13.9512 2.66602C18.0317 2.66348 21.946 4.25397 24.8327 7.08744C27.732 9.88636 29.3553 13.7187 29.3331 17.7121H26.6463C26.4979 17.7121 26.3776 17.5939 26.3776 17.4481C26.1609 10.8498 20.6708 5.60172 13.9512 5.56965V8.47327C16.4439 8.48028 18.8332 9.45244 20.601 11.1789C22.3838 12.899 23.3779 15.2573 23.355 17.7121" stroke="black"/></g><defs><clipPath id="clip0"><rect width="28" height="28.6667" fill="white" transform="translate(2 2)"/></clipPath></defs></svg>