<svg width="24" height="24" viewBox="0 0 32 32" fill="none" xmlns="http://www.w3.org/2000/svg"><path d="M28.3333 15.6501C26.3361 19.9382 21.4019 22.8752 16.1739 22.8752C10.9459 22.8752 5.71795 19.7032 3.83823 15.1801C3.60601 14.5954 3.60601 13.9439 3.83823 13.3592C5.71795 8.83609 10.7697 5.66406 16.1739 5.66406C21.5781 5.66406 26.2186 8.60113 28.2746 12.8305" stroke="black"/><path fill-rule="evenodd" clip-rule="evenodd" d="M11.0068 14.5923C11.0059 16.5619 12.1929 18.3403 14.0144 19.0958C15.8359 19.8513 17.9332 19.4352 19.3282 18.0415C20.7233 16.6478 21.1415 14.551 20.3877 12.7287C19.634 10.9065 17.8567 9.71776 15.8848 9.7168C14.5913 9.71616 13.3505 10.2296 12.4357 11.144C11.5208 12.0584 11.0068 13.2988 11.0068 14.5923Z" stroke="black"/><path d="M6.30762 5.95703L24.8698 24.5193" stroke="white"/><path d="M6.13086 7.36719L24.6344 25.9294" stroke="black"/></svg>