<svg width="32" height="32" viewBox="0 0 40 40" fill="none" xmlns="http://www.w3.org/2000/svg">
      <rect width="32" height="32" fill="white"/>
      <rect x="6.5" y="15.5" width="26" height="7" rx="3.5" stroke="black"/>
      <path d="M31.9943 24.5756C32.036 24.3026 31.8486 24.0475 31.5756 24.0057C31.3026 23.964 31.0475 24.1514 31.0057 24.4244L31.9943 24.5756ZM30.001 34.3023L30.4952 34.3779L30.001 34.3023ZM8.98606 34.3204L9.47961 34.2403L8.98606 34.3204ZM31.0057 24.4244L29.5067 34.2268L30.4952 34.3779L31.9943 24.5756L31.0057 24.4244ZM28.024 35.5H10.9602V36.5H28.024V35.5ZM9.47961 34.2403L6.99354 18.9199L6.00646 19.0801L8.49252 34.4004L9.47961 34.2403ZM10.9602 35.5C10.2246 35.5 9.59745 34.9665 9.47961 34.2403L8.49252 34.4004C8.68892 35.6108 9.73409 36.5 10.9602 36.5V35.5ZM29.5067 34.2268C29.3947 34.9591 28.7648 35.5 28.024 35.5V36.5C29.2588 36.5 30.3086 35.5985 30.4952 34.3779L29.5067 34.2268Z" fill="black"/>
      <path d="M18.5 8.5C18.5 6.567 20.067 5 22 5C23.933 5 25.5 6.567 25.5 8.5V12H18.5V8.5Z" stroke="black"/>
      <path d="M28.5 16V6.25C28.5 4.45507 27.0449 3 25.25 3H24.5C23.1193 3 22 4.11929 22 5.5V5.5" stroke="black"/>
      </svg>
      