<svg viewBox="0 0 80 80" fill="none" xmlns="http://www.w3.org/2000/svg">
      <path fill-rule="evenodd" clip-rule="evenodd" d="M36.9492 74.0215H36.3055C18.5933 71.8116 5.65424 56.2076 6.76134 38.3924C7.86844 20.5773 22.6399 6.69531 40.4894 6.69531C58.3389 6.69531 73.1103 20.5773 74.2174 38.3924C75.3245 56.2076 62.3855 71.8116 44.6733 74.0215H44.1905C41.7875 74.3443 39.3521 74.3443 36.9492 74.0215Z" fill="#D1D1D1"/>
      <path d="M36.9491 74.0215H36.3055C18.5933 71.8116 5.65424 56.2076 6.76134 38.3924C7.86844 20.5773 22.6399 6.69531 40.4894 6.69531C58.3389 6.69531 73.1103 20.5773 74.2174 38.3924C75.3245 56.2076 62.3855 71.8116 44.6733 74.0215H44.1905" stroke="black" stroke-width="2" stroke-linecap="round"/>
      <path d="M40.4238 26.7129V31.8623" stroke="black" stroke-width="2" stroke-linecap="round"/>
      <path d="M40.4238 39.1875V57.9289" stroke="black" stroke-width="2" stroke-linecap="round"/>
      </svg>
      