<svg width="32" height="32" viewBox="0 0 32 32" fill="none" xmlns="http://www.w3.org/2000/svg">
      <path d="M25.4751 27.6282C19.2826 32.674 10.2221 31.9818 4.86812 26.0537C-0.485891 20.1257 -0.254953 11.0417 5.39338 5.39338C11.0417 -0.254953 20.1257 -0.485891 26.0537 4.86812C31.9818 10.2221 32.674 19.2826 27.6282 25.4751" stroke="#F7F7F7" stroke-linejoin="bevel"/>
      <path d="M16 19C17.6569 19 19 17.6569 19 16C19 14.3431 17.6569 13 16 13C14.3431 13 13 14.3431 13 16C13 17.6569 14.3431 19 16 19Z" stroke="white" stroke-linejoin="round"/>
      <path d="M21.2603 9.03894H10.9746C9.87004 9.03894 8.97461 9.93437 8.97461 11.0389V21.3246C8.97461 22.4292 9.87004 23.3246 10.9746 23.3246H21.2603C22.3649 23.3246 23.2603 22.4292 23.2603 21.3246V11.0389C23.2603 9.93437 22.3649 9.03894 21.2603 9.03894Z" stroke="#F7F7F7" stroke-linejoin="round"/>
      <path d="M20.5438 12.8756C20.9748 12.8756 21.3241 12.5262 21.3241 12.0952C21.3241 11.6642 20.9748 11.3148 20.5438 11.3148C20.1128 11.3148 19.7634 11.6642 19.7634 12.0952C19.7634 12.5262 20.1128 12.8756 20.5438 12.8756Z" fill="#F7F7F7" stroke="black" stroke-width="0.5" stroke-linejoin="round"/>
      </svg>