<svg width="24" height="24" viewBox="0 0 32 32" fill="none" xmlns="http://www.w3.org/2000/svg"><path d="M25.4751 27.6282C19.2826 32.674 10.2221 31.9818 4.86812 26.0537C-0.485891 20.1257 -0.254953 11.0417 5.39338 5.39338C11.0417 -0.254953 20.1257 -0.485891 26.0537 4.86812C31.9818 10.2221 32.674 19.2826 27.6282 25.4751" stroke="black" stroke-linejoin="bevel"/> <path d="M16 19C17.6569 19 19 17.6569 19 16C19 14.3431 17.6569 13 16 13C14.3431 13 13 14.3431 13 16C13 17.6569 14.3431 19 16 19Z" fill="black"/> <path d="M23.2603 9.03906H8.97461V23.3248H23.2603V9.03906Z" stroke="black" stroke-linejoin="round"/> <path d="M20.5435 12.8752C20.9745 12.8752 21.3239 12.5258 21.3239 12.0948C21.3239 11.6638 20.9745 11.3145 20.5435 11.3145C20.1126 11.3145 19.7632 11.6638 19.7632 12.0948C19.7632 12.5258 20.1126 12.8752 20.5435 12.8752Z" fill="black"/></svg>