<svg viewBox="0 0 19 22" fill="none" xmlns="http://www.w3.org/2000/svg">
      <path fill-rule="evenodd" clip-rule="evenodd" d="M2.46806 20.5H2.46784C2.07317 20.5001 1.69509 20.3412 1.41896 20.0592C1.14283 19.7772 0.991937 19.3958 1.00033 19.0013L1.00056 18.9906V18.98L1.00056 3.0725L1.00056 3.07158C0.999794 2.23384 1.65596 1.54357 2.49078 1.5H16.3691C17.2208 1.52214 17.9007 2.21918 17.9006 3.07227V3.07248V8.75H18.9006V3.07248C18.9008 1.67199 17.7808 0.528567 16.3806 0.5H2.46785C1.08827 0.556477 -0.000700601 1.69197 0.000559113 3.0725V18.98C-0.013558 19.6434 0.240164 20.2846 0.70445 20.7588C1.16874 21.233 1.80444 21.5001 2.46806 21.5H12.6006L14.9006 21.5C17.1097 21.5 18.9006 19.7091 18.9006 17.5V11.75H17.9006V17.5C17.9006 19.1568 16.5574 20.5 14.9006 20.5L12.6006 20.5H2.46806Z" fill="black"/>
      <path fill-rule="evenodd" clip-rule="evenodd" d="M14.6001 13.0372C14.0874 13.0372 13.2765 12.8457 12.404 12.43C12.6912 12.4065 12.9655 12.3947 13.226 12.3947C14.5336 12.3947 14.911 12.6894 14.9955 12.7799C15.0536 12.8415 15.0594 12.8911 15.0571 12.9394C15.0437 12.9601 14.9281 13.0372 14.6001 13.0372V13.0372ZM10.3742 12.0308C9.90037 12.1328 9.4222 12.257 8.9449 12.4017C8.24753 12.6126 7.54435 12.8652 6.86992 13.1451L6.8914 13.1057L6.86411 13.1187C7.13876 12.5767 7.41806 11.9928 7.6991 11.3728C7.97723 10.7596 8.23708 10.1348 8.46586 9.5296L8.47515 9.55066L8.48966 9.50766C8.70451 9.92339 8.94054 10.3207 9.19574 10.6949C9.51075 11.1572 9.92476 11.5996 10.4137 12.0002L10.3446 12.0112L10.3742 12.0308ZM8.18582 4.72555C8.25463 4.61821 8.33766 4.57225 8.46367 4.57225C8.57922 4.57225 8.63032 4.61139 8.67096 4.6698C8.87361 4.96069 8.88726 5.85856 8.40676 7.52888C7.96227 6.16843 7.93991 5.11014 8.18582 4.72555V4.72555ZM3.49868 16.5671C3.46558 16.5671 3.42754 16.56 3.3747 16.5058C3.31809 16.4479 3.31257 16.4052 3.32186 16.3501C3.37906 16.0198 3.97162 15.4321 5.16255 14.7521C4.09588 16.4675 3.59913 16.5671 3.49868 16.5671V16.5671ZM13.2276 11.6904C12.6646 11.6904 12.0427 11.7422 11.3767 11.8445C10.7029 11.3903 10.1466 10.8556 9.76221 10.2917C9.40104 9.76236 9.0808 9.18355 8.80847 8.56885C9.54562 6.36272 9.68933 4.91391 9.23497 4.26127C9.05525 4.00359 8.78873 3.86719 8.46443 3.86719C8.10239 3.86719 7.80626 4.03057 7.60825 4.34014C7.02062 5.25877 7.47731 7.17698 8.06668 8.59851C7.79203 9.39052 7.44944 10.2439 7.07172 11.0763C6.6461 12.015 6.22483 12.8687 5.81982 13.6157C4.66257 14.1749 2.81723 15.2148 2.64216 16.2269C2.59165 16.5201 2.67613 16.7888 2.88691 17.004C3.05879 17.1796 3.27044 17.2724 3.49922 17.2724C3.97013 17.2724 4.7726 16.9465 6.31396 14.1586C7.20208 13.7426 8.17672 13.3699 9.14032 13.0781C9.84088 12.8664 10.5417 12.6997 11.2266 12.5832C12.3557 13.2913 13.6677 13.7444 14.6017 13.7444C15.6347 13.7444 15.7412 13.1475 15.7494 12.9648C15.7607 12.7142 15.6733 12.4827 15.4968 12.2938C15.1223 11.8935 14.3587 11.6904 13.2276 11.6904V11.6904Z" fill="black"/>
      </svg>
      