<svg viewBox="0 0 60 60" fill="none" xmlns="http://www.w3.org/2000/svg">
      <path d="M46.6753 50.4945C35.6939 59.4426 19.6265 58.215 10.132 47.7025C0.637457 37.1899 1.04699 21.0809 11.0635 11.0644C21.0799 1.04797 37.1889 0.638434 47.7014 10.133C58.214 19.6275 59.4416 35.6949 50.4935 46.6763" stroke="black" stroke-linejoin="bevel"/>
      <path fill-rule="evenodd" clip-rule="evenodd" d="M21.2907 43H21.2905C20.6746 43.0001 20.0847 42.7522 19.6538 42.3121C19.2229 41.8721 18.9874 41.277 19.0005 40.6613L19.0007 40.6506V40.64L19.0007 19.43L19.0007 19.4291C18.9996 18.1314 20.0183 17.0628 21.3127 17H39.8297C41.148 17.0319 42.201 18.11 42.2007 19.4298V19.43V27H43.2007V19.43C43.2011 17.5627 41.7077 16.0381 39.8407 16H21.2905C19.451 16.0753 17.9991 17.5893 18.0007 19.43V40.64C17.9819 41.5246 18.3202 42.3795 18.9393 43.0117C19.5583 43.644 20.4059 44.0002 21.2907 44H34.8007L39.2007 44C41.4099 44 43.2007 42.2091 43.2007 40V31H42.2007V40C42.2007 41.6568 40.8576 43 39.2007 43L34.8007 43H21.2907Z" fill="black"/>
      <path fill-rule="evenodd" clip-rule="evenodd" d="M37.4668 32.7189C36.7831 32.7189 35.702 32.4635 34.5387 31.9092C34.9216 31.878 35.2874 31.8622 35.6346 31.8622C37.3781 31.8622 37.8814 32.2552 37.994 32.3758C38.0714 32.458 38.0792 32.524 38.0761 32.5885C38.0583 32.6161 37.9042 32.7189 37.4668 32.7189ZM31.8323 31.377C31.2005 31.513 30.5629 31.6786 29.9265 31.8716C28.9967 32.1527 28.0591 32.4895 27.1599 32.8628L27.1885 32.8102L27.1521 32.8276C27.5183 32.1048 27.8907 31.3264 28.2655 30.4997C28.6363 29.682 28.9828 28.849 29.2878 28.0421L29.3002 28.0701L29.3196 28.0128C29.606 28.5671 29.9207 29.0969 30.261 29.5959C30.681 30.2122 31.233 30.8021 31.8849 31.3363L31.7928 31.3509L31.8323 31.377ZM28.9144 21.6367C29.0062 21.4935 29.1169 21.4323 29.2849 21.4323C29.439 21.4323 29.5071 21.4845 29.5613 21.5623C29.8315 21.9502 29.8497 23.1474 29.209 25.3744C28.6164 23.5605 28.5865 22.1495 28.9144 21.6367ZM22.6649 37.4255C22.6208 37.4255 22.5701 37.416 22.4996 37.3436C22.4241 37.2665 22.4168 37.2096 22.4292 37.1361C22.5054 36.6956 23.2955 35.912 24.8834 35.0054C23.4612 37.2926 22.7988 37.4255 22.6649 37.4255ZM35.6368 30.9231C34.8862 30.9231 34.057 30.9923 33.169 31.1287C32.2705 30.523 31.5288 29.8101 31.0163 29.0581C30.5347 28.3524 30.1077 27.5807 29.7446 26.7611C30.7275 23.8196 30.9191 21.8878 30.3133 21.0176C30.0737 20.6741 29.7183 20.4922 29.2859 20.4922C28.8032 20.4922 28.4083 20.71 28.1443 21.1228C27.3608 22.3476 27.9697 24.9052 28.7556 26.8006C28.3894 27.8566 27.9326 28.9945 27.429 30.1043C26.8615 31.356 26.2998 32.4942 25.7598 33.4902C24.2168 34.2358 21.7563 35.6224 21.5229 36.9717C21.4555 37.3628 21.5682 37.721 21.8492 38.008C22.0784 38.242 22.3606 38.3658 22.6656 38.3658C23.2935 38.3658 24.3635 37.9313 26.4186 34.2141C27.6028 33.6594 28.9023 33.1624 30.1871 32.7734C31.1212 32.4911 32.0557 32.2689 32.9688 32.1135C34.4743 33.0576 36.2236 33.6618 37.4689 33.6618C38.8463 33.6618 38.9883 32.8659 38.9992 32.6223C39.0143 32.2883 38.8978 31.9795 38.6624 31.7276C38.163 31.1939 37.1449 30.9231 35.6368 30.9231Z" fill="black"/>
      </svg>
      