<svg viewBox="0 0 20 22" fill="none" xmlns="http://www.w3.org/2000/svg">
      <path fill-rule="evenodd" clip-rule="evenodd" d="M2.96806 20.5H2.96784C2.57317 20.5001 2.19509 20.3412 1.91896 20.0592C1.64283 19.7772 1.49194 19.3958 1.50033 19.0013L1.50056 18.9906V18.98L1.50056 3.0725L1.50056 3.07158C1.49979 2.23384 2.15596 1.54357 2.99078 1.5H16.8691C17.7208 1.52214 18.4007 2.21918 18.4006 3.07227V3.07248V8.75H19.4006V3.07248C19.4008 1.67199 18.2808 0.528567 16.8806 0.5H2.96785C1.58827 0.556477 0.499299 1.69197 0.500559 3.0725V18.98C0.486442 19.6434 0.740164 20.2846 1.20445 20.7588C1.66874 21.233 2.30444 21.5001 2.96806 21.5H13.1006L15.4006 21.5C17.6097 21.5 19.4006 19.7091 19.4006 17.5V11.75H18.4006V17.5C18.4006 19.1568 17.0574 20.5 15.4006 20.5L13.1006 20.5H2.96806Z" fill="white"/>
      <path fill-rule="evenodd" clip-rule="evenodd" d="M15.1001 13.0372C14.5874 13.0372 13.7765 12.8457 12.904 12.43C13.1912 12.4065 13.4655 12.3947 13.726 12.3947C15.0336 12.3947 15.411 12.6894 15.4955 12.7799C15.5536 12.8415 15.5594 12.8911 15.5571 12.9394C15.5437 12.9601 15.4281 13.0372 15.1001 13.0372V13.0372ZM10.8742 12.0308C10.4004 12.1328 9.9222 12.257 9.4449 12.4017C8.74753 12.6126 8.04435 12.8652 7.36992 13.1451L7.3914 13.1057L7.36411 13.1187C7.63876 12.5767 7.91806 11.9928 8.1991 11.3728C8.47723 10.7596 8.73708 10.1348 8.96586 9.5296L8.97515 9.55066L8.98966 9.50766C9.20451 9.92339 9.44054 10.3207 9.69574 10.6949C10.0108 11.1572 10.4248 11.5996 10.9137 12.0002L10.8446 12.0112L10.8742 12.0308ZM8.68582 4.72555C8.75463 4.61821 8.83766 4.57225 8.96367 4.57225C9.07922 4.57225 9.13032 4.61139 9.17096 4.6698C9.37361 4.96069 9.38726 5.85856 8.90676 7.52888C8.46227 6.16843 8.43991 5.11014 8.68582 4.72555V4.72555ZM3.99868 16.5671C3.96558 16.5671 3.92754 16.56 3.8747 16.5058C3.81809 16.4479 3.81257 16.4052 3.82186 16.3501C3.87906 16.0198 4.47162 15.4321 5.66255 14.7521C4.59588 16.4675 4.09913 16.5671 3.99868 16.5671V16.5671ZM13.7276 11.6904C13.1646 11.6904 12.5427 11.7422 11.8767 11.8445C11.2029 11.3903 10.6466 10.8556 10.2622 10.2917C9.90104 9.76236 9.5808 9.18355 9.30847 8.56885C10.0456 6.36272 10.1893 4.91391 9.73497 4.26127C9.55525 4.00359 9.28873 3.86719 8.96443 3.86719C8.60239 3.86719 8.30626 4.03057 8.10825 4.34014C7.52062 5.25877 7.97731 7.17698 8.56668 8.59851C8.29203 9.39052 7.94944 10.2439 7.57172 11.0763C7.1461 12.015 6.72483 12.8687 6.31982 13.6157C5.16257 14.1749 3.31723 15.2148 3.14216 16.2269C3.09165 16.5201 3.17613 16.7888 3.38691 17.004C3.55879 17.1796 3.77044 17.2724 3.99922 17.2724C4.47013 17.2724 5.2726 16.9465 6.81396 14.1586C7.70208 13.7426 8.67672 13.3699 9.64032 13.0781C10.3409 12.8664 11.0417 12.6997 11.7266 12.5832C12.8557 13.2913 14.1677 13.7444 15.1017 13.7444C16.1347 13.7444 16.2412 13.1475 16.2494 12.9648C16.2607 12.7142 16.1733 12.4827 15.9968 12.2938C15.6223 11.8935 14.8587 11.6904 13.7276 11.6904V11.6904Z" fill="white"/>
      </svg>
      