<svg width="32" height="32" viewBox="0 0 32 32" fill="none" xmlns="http://www.w3.org/2000/svg"><circle cx="16" cy="16" r="15" fill="#389868"/><g clip-path="url(#clip0)">
      <path d="M6.66205 10.8872C6.80097 10.5141 6.80838 10.1929 6.65279 10.3113C6.52129 10.4154 6.4435 10.3113 6.54351 10.1911C6.67687 10.0332 6.85653 9.98121 6.88617 10.2665C6.9084 10.4836 6.74726 10.7527 6.66205 10.8872Z" fill="white"/>
      <path d="M7.81271 12.9036C7.85531 13.3683 7.98312 14.242 7.99052 14.5398C7.99793 14.8394 8.04239 14.7569 8.12388 14.5901C8.20538 14.4232 8.18501 14.2384 8.16834 13.9944C8.15167 13.7379 8.13314 13.3055 8.08313 12.7314C8.17945 12.6471 8.28132 12.5251 8.32392 12.4407C8.42394 12.2452 8.44802 12.2649 8.49247 12.421C8.57952 12.7296 8.89625 12.9323 9.32225 12.6363C9.71492 12.3636 9.55193 11.7931 9.37041 11.1759C9.52414 11.2046 9.56859 11.0862 9.48525 10.9337C9.43709 10.844 9.36485 10.7579 9.29817 10.6825C9.23335 10.6072 9.15741 10.5426 9.09628 10.6215C9.03331 10.7005 8.97404 10.7651 8.93514 10.8117C8.89625 10.8583 8.8981 10.914 8.95181 11.0413C9.10369 11.4038 9.21668 11.7931 9.24446 12.0102C9.2741 12.2272 9.19445 12.2667 9.04998 12.2703C8.90551 12.2739 8.69992 12.2362 8.62212 11.9276C8.54248 11.619 8.51284 11.4683 8.52396 11.2656C8.53322 11.0647 8.55544 10.9229 8.40542 10.7166C8.25724 10.5103 8.24057 10.5372 8.20353 10.6502C8.16648 10.7669 8.12018 10.9283 8.16834 11.1203C8.23872 11.4055 8.28132 11.6585 8.31836 11.8218C8.34429 11.9384 8.23131 12.1842 8.04609 12.3116C8.01275 11.9294 7.94422 11.4109 7.91088 10.9911C8.14981 10.9247 8.01831 10.6251 7.84235 10.3022C7.70899 10.0528 7.64787 10.1515 7.55526 10.3076C7.46265 10.4636 7.53118 10.5354 7.60527 10.6574C7.55155 10.7686 7.6349 10.9211 7.6738 11.1992C7.69973 11.3858 7.73492 11.9043 7.77011 12.3546C7.58489 12.3546 7.48117 12.238 7.41079 12.0819C7.26817 11.759 7.30336 11.454 7.37189 11.2674C7.44042 11.079 7.50155 10.774 7.38856 10.6987C7.27373 10.6251 7.13296 10.7148 7.04035 10.8566C6.88476 11.0916 6.72918 11.4199 6.71436 11.7769C6.70881 11.9097 6.6625 12.1896 6.59953 12.2918C6.5384 12.3941 6.45135 12.4084 6.35318 12.2542C6.19575 12.0084 6.1513 11.384 6.16056 11.0647C6.16426 10.9068 6.11796 10.8727 6.06609 11.0593C5.89384 11.6818 6.09388 12.3474 6.2365 12.6309C6.37912 12.9144 6.5773 12.848 6.70881 12.6219C6.90884 12.2757 6.82735 11.9617 7.00886 11.454C7.12555 11.1293 7.15333 11.3733 7.11814 11.567C7.02553 12.0801 7.05702 12.9162 7.81271 12.9036Z" fill="white"/>
      <path d="M8.38341 10.1932C8.34452 10.2972 8.3686 10.43 8.43528 10.5107C8.50195 10.5914 8.63161 10.5968 8.70199 10.5269C8.77608 10.4533 8.77608 10.4372 8.83535 10.5376C8.88165 10.6166 9.01131 10.6004 9.0502 10.5215C9.0854 10.4461 9.12429 10.3851 9.0854 10.2972C9.0465 10.2093 9.03724 10.2398 9.01501 10.3421C8.97982 10.5053 8.82238 10.4605 8.81868 10.2631C8.81498 10.0658 8.77793 10.1645 8.71496 10.3026C8.6279 10.4928 8.5001 10.4479 8.5001 10.2811C8.5001 10.1465 8.44824 10.0209 8.38341 10.1932Z" fill="white"/>
      <path d="M6.21259 14.0784C6.59414 13.6335 7.09608 13.3985 7.34057 13.3249C7.50727 13.2747 7.58692 13.2119 7.59062 13.359C7.59432 13.5061 7.58877 13.5115 7.44985 13.5492C7.13868 13.6335 6.50523 13.9421 6.29223 14.1018C6.18666 14.1807 6.057 14.2596 6.21259 14.0784Z" fill="white"/>
      <path d="M6.48677 14.9018C6.509 15.0256 6.49974 15.1117 6.50159 15.1727C6.50344 15.2588 6.45343 15.3539 6.42009 15.4687C6.26451 16.0159 6.50159 16.2904 6.63495 16.0859C6.76645 15.8814 6.82387 15.9101 6.81831 16.0662C6.79794 16.6259 6.25525 16.66 6.21265 16.2025C6.14411 15.4669 6.31637 15.3539 6.37193 15.0973C6.40713 14.9359 6.46825 14.8013 6.48677 14.9018Z" fill="white"/>
      <path d="M9.30787 13.7845C9.2523 13.8024 9.20044 13.8203 9.15413 13.8347C8.92631 13.9082 8.8763 13.8114 8.88927 13.6714C8.90224 13.5315 8.92631 13.4848 9.07819 13.5512C9.14117 13.5799 9.23007 13.6678 9.30787 13.7845L9.66534 13.6499C9.60422 13.51 9.5079 13.3951 9.35417 13.2498C9.11339 13.0273 8.92631 13.0166 8.72442 13.2947C8.52809 13.5674 8.53921 13.6302 8.55587 13.8777C8.57254 14.1253 8.52068 14.2097 8.71331 14.2778C8.90779 14.346 8.98929 14.3191 9.10783 14.2796C9.19859 14.2509 9.32639 14.2079 9.46715 14.1594C9.49308 14.2958 9.47827 14.4285 9.39307 14.5308C8.90964 15.1067 8.13913 15.5193 7.80388 15.1372C7.62237 14.9309 7.54458 14.6079 7.60014 14.2186C7.6446 13.9011 7.54087 14.041 7.50198 14.1576C7.38158 14.5326 7.34639 15.0762 7.50753 15.3471C7.7335 15.7275 8.09653 15.8943 8.66701 15.6431C9.23748 15.3938 9.79499 14.9578 9.77091 14.3478C9.76721 14.2366 9.76165 14.1397 9.75239 14.0536C9.81537 14.0285 9.90612 13.9603 9.96725 13.9352C9.97836 14.1415 9.96169 14.3998 9.9691 14.6133C9.99503 15.2646 9.73572 15.4637 9.49309 15.6503C9.15784 15.9087 8.7059 16.0773 8.31139 16.1329C7.40196 16.2621 7.1834 15.6952 7.19822 14.9399C7.20007 14.8143 7.24823 14.7479 7.24267 14.5667C7.23526 14.2455 7.19451 14.3012 7.09449 14.6241C6.99818 14.9381 6.87593 15.6629 7.1871 16.2567C7.50012 16.8506 8.58181 16.6819 9.41715 16.2926C10.2525 15.9033 10.3432 15.1659 10.3062 14.4321C10.2969 14.2384 10.284 14.032 10.271 13.8114C10.2969 13.7934 10.3192 13.7755 10.334 13.7593C10.4488 14.1289 11.0063 14.0338 11.1823 13.8185C11.2712 13.7109 11.273 13.6948 11.3619 13.8132C11.4842 13.9764 11.8898 14.0374 11.9917 13.797C12.0936 13.5566 12.0769 13.3252 12.051 13.1404C12.025 12.9538 11.9843 12.9699 11.8583 13.065C11.7324 13.1601 11.8324 13.1834 11.8491 13.3144C11.9065 13.797 11.4675 13.7629 11.4157 13.257C11.3842 12.9502 11.3323 13.0668 11.2879 13.2086C11.0989 13.8096 10.5581 13.9262 10.6137 13.2265C10.6285 13.0309 10.4988 13.0883 10.4192 13.1691C10.3636 13.2265 10.3025 13.2785 10.2395 13.327C10.2006 12.7618 10.1506 12.1088 10.0932 11.3373C10.2488 11.5275 10.4044 11.3068 10.2969 11.0933C10.2136 10.9283 10.0932 10.5461 10.0154 10.338C9.93946 10.1299 9.90057 10.1927 9.73572 10.3667C9.57273 10.5371 9.60607 10.5838 9.67275 10.7614C9.65608 10.9893 9.69312 11.2063 9.74684 11.6602C9.78388 11.9832 9.88945 12.6542 9.94687 13.4992C9.86352 13.544 9.74684 13.6158 9.66719 13.6517L9.30787 13.7845Z" fill="white"/>
      <path d="M11.2114 14.6896C11.2411 14.7865 11.2281 14.9893 11.1874 15.0825C11.1373 15.1992 11.1874 15.2512 11.267 15.1023C11.3485 14.9498 11.3929 14.774 11.3633 14.5928C11.3392 14.4546 11.3429 14.4223 11.2188 14.3685C11.0947 14.3147 11.054 14.3972 11.0077 14.5031C10.9558 14.6268 11.0318 14.7758 11.2114 14.6896Z" fill="white"/>
      <path d="M11.5707 11.8478C11.4169 12.0469 11.291 12.3214 11.5132 12.5008C11.6355 12.5995 11.8892 12.4775 11.9818 12.282C12.0744 12.0864 12.0356 12.0505 11.8763 12.2299C11.6577 12.4757 11.428 12.255 11.6614 11.916C11.8225 11.6809 11.7355 11.6343 11.5707 11.8478Z" fill="white"/>
      <path d="M11.9214 10.699C11.9491 10.6416 11.9732 10.5841 11.9917 10.5267C12.0158 10.4514 11.9399 10.3796 11.8862 10.498C11.851 10.5788 11.8362 10.6433 11.9214 10.699L11.7713 10.943C11.6028 10.8066 11.5972 10.5949 11.6676 10.4101C11.8195 10.019 12.3566 10.0657 12.2159 10.577C12.1918 10.6631 12.1603 10.7582 12.1103 10.8622C12.1788 10.9699 12.1436 11.0973 11.9917 11.0685C11.8065 11.3413 11.4824 11.6391 10.8989 11.8938C10.6378 12.0087 10.5952 11.9154 10.7934 11.7952C11.1823 11.5583 11.5398 11.2623 11.7713 10.9448L11.9214 10.699Z" fill="white"/>
      <path d="M12.5358 10.7518C12.3228 11.3277 12.3321 11.8875 12.7673 12.3593C13.0229 12.6356 13.2137 12.5047 13.3267 12.2158C13.4397 11.927 13.5138 11.6381 13.599 11.4497C13.6823 11.2614 13.7471 11.3008 13.7286 11.4784C13.6879 11.8355 13.673 12.4203 14.0453 12.6374C14.4195 12.8545 14.9918 12.4778 15.1844 12.0938C15.7938 12.8742 16.3235 12.5065 16.3847 11.7637C16.4032 11.5305 16.2902 11.0227 16.2235 10.8774C16.1568 10.7321 16.205 10.7231 16.2939 10.8057C16.3847 10.89 16.5532 10.9474 16.468 10.6926C16.3828 10.4379 16.2661 10.3015 16.1291 10.1867C15.9901 10.0737 15.9605 10.1365 15.9049 10.2226C15.8512 10.3087 15.8642 10.3356 15.7845 10.4074C15.7068 10.4791 15.7234 10.5168 15.7827 10.6639C16.0105 11.2255 16.2365 12.0543 15.8642 12.1333C15.5364 12.2015 15.3233 11.5089 15.3104 11.1914C15.2937 10.7805 15.2456 10.4325 15.1604 10.2082C15.0752 9.98576 15.04 9.94808 14.9733 10.0719C14.927 10.158 14.9122 10.2208 14.8584 10.3141C14.8047 10.4074 14.851 10.4343 14.8899 10.6065C15.0937 11.5179 15.0733 11.9234 14.6473 12.1656C14.2194 12.4078 13.9935 12.1728 13.9879 11.8857C13.9824 11.5986 13.9768 11.256 14.0101 10.9994C14.0453 10.7429 14.1009 10.6944 14.0101 10.5652C13.9194 10.4361 13.8453 10.4773 13.7175 10.6478C13.4508 11.0048 13.1859 11.6112 13.097 11.9018C13.0081 12.1925 12.8081 12.0902 12.684 11.8444C12.5395 11.5574 12.5543 11.0245 12.6025 10.8164C12.6506 10.6083 12.6228 10.515 12.5358 10.7518Z" fill="white"/>
      <path d="M14.3394 10.246C14.2542 10.3428 14.245 10.3536 14.332 10.4595C14.4061 10.551 14.5284 10.8452 14.495 11.1322C14.4784 11.2722 14.5098 11.3978 14.5691 11.1645C14.6284 10.9313 14.6136 10.6048 14.545 10.4128C14.4765 10.2208 14.4024 10.176 14.3394 10.246Z" fill="white"/>
      <path d="M16.279 13.5945C16.3753 13.5694 16.4717 13.5461 16.5698 13.5263C16.8551 13.4653 16.6958 13.4402 16.5013 13.32C16.3068 13.1998 16.2309 13.2016 16.2457 13.3362C16.2549 13.4133 16.2512 13.4923 16.279 13.5945L15.929 13.6914C15.703 13.3703 15.8512 13.1352 16.0216 12.8948C16.2401 12.5898 16.5828 12.6867 16.9847 12.9576C17.3866 13.2285 17.2236 13.6555 16.8439 13.8708C16.7421 13.9282 16.6198 13.9785 16.4846 14.0269C16.5143 14.1238 16.4661 14.1507 16.342 14.0753C16.0012 14.1866 15.5381 14.3588 15.227 14.5185C15.6122 14.5526 17.2107 14.5167 17.5311 14.4898C17.8515 14.4629 17.7997 14.5149 17.7089 14.775C17.6182 15.0352 17.5126 15.0101 17.2348 15.0567C16.8087 15.1285 16.1938 15.3043 15.7382 15.4909C15.2825 15.6757 15.44 15.9914 15.903 16.1583C16.2679 16.2534 16.2216 16.291 16.1623 16.4938C16.1031 16.6965 16.1068 16.7432 15.6697 16.675C14.5954 16.5081 14.2009 15.9322 14.0323 15.4819C13.3544 16.4005 12.7117 16.8992 12.0986 16.7485C11.7912 16.6732 11.6393 16.4095 11.6115 16.0668C11.1892 16.2659 10.6928 16.431 10.0612 16.6212C9.91303 16.666 9.79079 16.6014 9.98341 16.5081C10.4113 16.3036 11.0836 15.9502 11.63 15.5878C11.6819 15.3438 11.7967 15.0298 11.9227 14.7912C11.9949 14.6548 12.0282 14.7069 12.0301 14.8199C12.0319 14.9132 12.0023 15.1446 12.0097 15.3151C12.1153 15.2379 12.2449 15.15 12.3098 15.0908C12.6821 14.7625 13.0988 14.5633 12.8136 14.0377C12.6913 13.8134 12.6024 13.6483 12.5561 13.5353C12.319 13.4474 12.3913 13.3218 12.4931 13.1011C12.595 12.8823 12.6376 12.8284 12.8562 13.0724C13.1636 13.4187 13.1988 13.573 12.984 13.5461C13.3229 14.3767 13.2414 14.7984 12.7228 15.3007C12.4765 15.5393 12.2246 15.7295 11.9412 15.8928C11.9134 16.1152 12.0005 16.3323 12.4339 16.2695C12.984 16.1906 13.6156 15.4783 13.8841 14.9329C13.7656 14.479 13.4989 13.6735 13.3359 13.2608C13.2507 13.0455 13.334 12.9612 13.4063 12.7944C13.4767 12.6275 13.5285 12.5235 13.6193 12.7477C13.71 12.9738 13.999 13.5263 14.1416 14.1848C14.2842 14.8432 14.2546 15.4137 14.6028 15.7277C14.7584 15.8676 14.9621 15.9484 15.1714 16.004C15.0177 15.5609 15.3455 15.2325 15.7956 15.0711C15.5252 14.8307 15.1029 14.8647 14.6454 14.845C14.2898 14.8307 14.3398 14.7948 14.4287 14.4934C14.5176 14.192 14.6324 14.1525 14.8862 14.0538C15.2251 13.9228 15.5733 13.7955 15.9327 13.6878L16.279 13.5945Z" fill="white"/><path d="M14.7291 13.069C14.7013 13.2448 14.7458 13.3632 14.8125 13.4493C14.8791 13.5354 15.0144 13.5247 15.0514 13.4278C15.0977 13.3076 15.1218 13.2932 15.2051 13.383C15.2977 13.4798 15.6052 13.4009 15.4515 12.9488C15.3885 12.764 15.357 12.8017 15.3589 13.0152C15.3626 13.3363 15.2551 13.3327 15.1384 13.0259C15.094 12.9075 15.0384 12.9057 15.0329 13.06C15.0199 13.3596 14.8921 13.3973 14.8199 13.1049C14.7865 12.9721 14.7587 12.877 14.7291 13.069Z" fill="white"/>
      <path d="M18.6838 10.2482C18.6263 10.345 18.5912 10.4276 18.7004 10.5065C18.806 10.5819 18.9653 10.7828 18.8986 11.025C18.8486 11.2062 18.8949 11.3426 19.0153 11.0788C19.1375 10.8133 19.0394 10.4868 18.9171 10.2822C18.8097 10.101 18.7449 10.1441 18.6838 10.2482Z" fill="white"/>
      <path d="M19.6797 14.9641C19.5667 14.3846 19.0203 13.4535 18.2072 12.2371C18.1794 11.9195 18.1627 11.6145 18.1627 11.3472C18.2776 11.4692 18.3646 11.3974 18.3202 11.236C18.2387 10.931 18.1164 10.6852 17.9794 10.3497C17.9201 10.2044 17.7775 10.1703 17.6997 10.3784C17.6089 10.6206 17.6015 10.6762 17.7182 10.8359C17.7126 11.0279 17.7719 11.3346 17.7941 11.6145C17.6552 11.4118 17.4644 11.1481 17.3144 10.9346C17.5404 11.0225 17.6775 10.9579 17.4811 10.7444C17.2848 10.5309 17.0014 10.3102 16.8273 10.1577C16.6532 10.0052 16.5698 10.1003 16.5939 10.2456C16.618 10.3892 16.6198 10.4932 16.6124 10.608C16.605 10.7229 16.6347 10.7964 16.8125 10.8628C17.1551 11.3077 17.5089 11.7652 17.8275 12.2209C17.8719 12.6138 17.9479 13.039 17.9905 13.3871C18.0886 14.207 18.2516 15.2852 18.1183 15.7535C18.0183 16.0998 18.1257 16.2523 18.2905 15.7212C18.4554 15.1902 18.435 14.6932 18.3387 13.902C18.2998 13.5862 18.2813 13.2023 18.2405 12.8399C18.7999 13.6867 19.3037 14.4833 19.5315 15.0341C19.6537 15.3319 19.763 15.3965 19.6797 14.9641Z" fill="white"/><path d="M18.7909 11.7057C18.8353 11.8564 18.915 11.9371 18.9465 11.7488C18.9743 11.5819 19.028 11.5299 19.0576 11.7111C19.0891 11.8923 19.1947 11.8636 19.228 11.6967C19.2613 11.5299 19.3243 11.4312 19.3484 11.6214C19.3743 11.8116 19.3539 11.8743 19.3336 11.9318C19.3132 11.9892 19.2187 12.0591 19.1317 11.9766C19.0446 11.8959 19.0113 11.8977 18.9446 11.9605C18.8039 12.0932 18.7446 11.9981 18.7224 11.8205C18.7038 11.6662 18.7612 11.6088 18.7909 11.7057Z" fill="white"/><path d="M16.64 16.0965C16.7789 16.0175 16.8456 15.9601 16.9493 15.9117C17.053 15.8632 17.1327 15.8758 17.0568 16.1036C16.9734 16.353 17.0086 16.4355 17.1827 16.3727C17.342 16.3153 17.4365 16.2597 17.5791 16.2023C17.6958 16.1557 17.8291 16.1467 17.6458 16.2938C17.4957 16.414 17.2846 16.5611 17.1642 16.5916C16.8938 16.6598 16.7623 16.5539 16.8141 16.3512C16.866 16.1485 16.9086 16.0803 16.7456 16.1431C16.5548 16.2149 16.5696 16.1377 16.64 16.0965Z" fill="white"/>
      <path d="M19.9908 11.1602C20.0889 11.2517 20.2167 11.2589 20.1482 11.0633C20.0797 10.8678 20.0315 10.631 19.963 10.4157C19.8945 10.2004 19.85 10.1483 19.7667 10.2542C19.6852 10.36 19.6111 10.4031 19.5481 10.4767C19.4851 10.5502 19.4722 10.692 19.55 10.814C19.837 12.7713 19.8556 13.6343 19.8945 14.3555C19.9352 15.0767 20.0371 15.4158 19.5759 15.9002C19.0665 16.4384 18.7535 16.5622 18.535 16.6178C18.2497 16.6896 18.1515 16.808 18.5701 16.7865C19.2073 16.7524 19.2888 16.7309 19.8074 16.1568C20.0945 15.8392 20.2408 15.4337 20.2186 14.4721C20.1816 12.7964 19.9519 12.0662 19.9908 11.1602Z" fill="white"/><path d="M20.9115 11.223C21.0948 11.3234 21.2893 11.3701 21.1448 11.1566C21.0004 10.9431 20.8874 10.5932 20.7948 10.3367C20.704 10.0801 20.6855 10.0945 20.5373 10.3116C20.3095 10.6471 20.5058 10.9664 20.5595 11.3593C20.7503 12.7426 20.9337 14.1509 20.9837 14.5205C21.0411 14.9385 21.1078 15.2076 20.9967 15.6669C20.9633 15.8033 21.0189 15.8481 21.1097 15.6795C21.4782 14.9888 21.2245 14.3931 21.1856 14.002C21.1245 13.4136 20.9133 11.8347 20.867 11.1996" fill="white"/>
      <path d="M21.8353 12.2771C21.8057 12.3973 21.6372 12.3955 21.6501 12.2664C21.6631 12.1372 21.6538 12.1551 21.6501 12.0511C21.6483 11.947 21.7742 11.8878 21.8465 11.9793C21.9187 12.0708 22.0558 12.3489 22.1021 12.4565C22.1465 12.5642 22.1724 12.5391 22.1706 12.3884C22.1669 12.2179 22.1373 12.0654 22.1521 11.9578C22.1613 11.8896 22.1965 11.8125 22.2854 11.7479C22.3743 11.6833 22.4225 11.6671 22.4632 11.7802C22.504 11.8932 22.5818 11.9039 22.5429 11.9954C22.4892 12.1246 22.3577 11.8609 22.2873 12.0403C22.2373 12.1713 22.2762 12.5391 22.2743 12.6575C22.2725 12.7759 22.2187 12.9517 22.1206 12.749C22.0576 12.6234 21.9539 12.3991 21.8353 12.2771Z" fill="white"/>
      <path d="M21.7893 13.8594C21.7856 13.7804 21.8245 13.7481 21.9912 13.619C22.119 13.5203 22.4894 13.2565 22.6135 13.1399C22.7395 13.0233 22.8339 12.9175 22.8525 13.0628C22.871 13.2081 22.8969 13.2619 22.7487 13.3337C22.6006 13.4037 22.2153 13.6297 22.0894 13.7266C21.9634 13.8199 21.7949 13.9598 21.7893 13.8594Z" fill="white"/>
      <path d="M25.4357 14.8905C25.4209 14.6985 25.3635 14.5281 25.1208 14.1782C24.8875 13.8409 24.6652 13.527 24.4522 13.2345C24.3818 12.4541 24.2929 11.6252 24.2874 11.1893C24.4022 11.2879 24.48 11.1928 24.4281 11.0242C24.3763 10.8538 24.2707 10.3981 24.1947 10.2133C24.1188 10.0285 24.0392 10.0697 23.9391 10.2348C23.8391 10.3999 23.7761 10.4788 23.8354 10.6098C23.8651 11.3543 23.9799 12.0809 24.0966 12.7483C23.8836 12.4595 23.6835 12.1922 23.4983 11.9428C23.4798 11.6557 23.4631 11.3687 23.4465 11.0852C23.5687 11.1749 23.6169 11.1588 23.5557 10.9811C23.4965 10.8035 23.352 10.4339 23.2835 10.2653C23.2149 10.0967 23.1705 10.0913 23.0797 10.2276C22.9352 10.4447 22.8964 10.5936 23.0167 10.7981C23.0334 10.9901 23.0501 11.1731 23.0649 11.3507C22.9519 11.1928 22.8482 11.0421 22.7519 10.8968C22.8704 10.956 22.9649 10.8502 22.8334 10.7389C22.7019 10.6277 22.4518 10.4268 22.3425 10.2832C22.2333 10.1415 22.1147 10.1433 22.1184 10.2779C22.1203 10.4017 22.1351 10.5254 22.1147 10.6295C22.0962 10.7336 22.0981 10.8394 22.2518 11.0206C22.563 11.3848 22.8575 11.758 23.1316 12.115C23.2446 13.3978 23.3094 14.2267 23.2853 14.7505C23.2705 15.0555 23.1575 15.2349 22.9871 15.2888C22.8167 15.3444 22.6445 15.2331 22.4778 14.9999C22.1888 14.5909 22.0814 14.6662 21.8591 15.0232C21.6424 15.3695 21.4887 15.6512 21.3757 15.8916C21.2627 16.132 21.0756 16.3329 20.9089 16.0261C20.7422 15.7193 20.7237 15.3677 20.7293 15.1201C20.7348 14.8725 20.6978 14.6752 20.5996 15.0717C20.3644 16.0279 20.5015 16.2289 20.7682 16.4442C21.1053 16.7169 21.2109 16.7438 21.3887 16.5034C21.7313 16.0405 21.8295 15.6243 22.0258 15.3928C22.1796 15.2116 22.1925 15.3534 22.261 15.4395C22.4592 15.6835 22.6426 15.7732 22.9204 15.8198C23.1983 15.8665 23.7076 15.6386 23.665 14.738C23.6409 14.1926 23.5909 13.4552 23.5391 12.6622C23.8095 13.0264 24.0466 13.3529 24.2392 13.6041C24.3244 14.1262 24.3837 14.5873 24.3596 14.9622C24.3318 15.3982 24.4226 15.3964 24.5133 14.9479C24.5485 14.7721 24.5374 14.3989 24.5059 13.9486C24.8634 14.4097 25.0764 14.7129 25.2227 14.9443C25.3931 15.2026 25.4783 15.4359 25.4357 14.8905Z" fill="white"/>
      <path d="M24.6679 10.6153C24.5901 10.7337 24.5993 10.7642 24.6901 10.9095C24.7809 11.0549 24.8679 11.3401 24.8642 11.5662C24.8605 11.7904 24.9401 11.7581 24.9846 11.5554C25.0291 11.3527 25.0124 10.9723 24.8938 10.696C24.7772 10.418 24.7309 10.5202 24.6679 10.6153Z" fill="white"/>
      <path d="M25.7511 11.0192C25.8993 11.1555 25.9771 11.1071 25.8771 10.8918C25.777 10.6765 25.6752 10.4451 25.5733 10.2316C25.4733 10.0163 25.4418 10.0629 25.3158 10.2208C25.1917 10.3787 25.1769 10.4881 25.2269 10.5796C25.4807 12.6393 25.5937 13.7085 25.6307 14.3275C25.6826 15.2263 25.4603 15.7394 24.5527 16.3207C24.2527 16.5127 23.9211 16.737 24.6231 16.5683C25.3251 16.3979 26.0715 15.9494 25.9937 14.0727C25.9252 12.3971 25.7011 11.6579 25.7511 11.0192Z" fill="white"/>
      <path d="M23.8802 15.941C23.8265 16.0738 23.5524 15.9715 23.6616 15.8208C23.745 15.706 23.9395 15.6916 24.021 15.7903C24.2266 16.0379 23.921 16.3662 23.7802 16.4631C23.6376 16.56 23.5283 16.5546 23.7376 16.3788C23.8709 16.2675 23.9636 16.0558 23.8802 15.941Z" fill="white"/>
      <path d="M8.53125 21.7969C12.9636 21.8471 18.2516 21.9045 22.7524 21.8112C23.2414 21.8005 23.4507 21.8704 23.4914 22.2813C23.5266 22.6311 23.4192 22.9146 23.1691 22.9307C22.9617 22.9433 22.7283 22.6975 22.8617 22.2831C17.1866 22.4481 12.9765 22.4643 11.6541 22.4428C10.3316 22.423 8.96096 22.475 8.53125 21.7969Z" fill="white"/>
      <path d="M22.2019 22.6377C22.2 22.566 22.0963 22.5211 22.05 22.5229C22.0037 22.5247 21.9018 22.5731 21.9037 22.6449L21.2924 22.6575C21.2739 22.6198 21.2387 22.5749 21.1813 22.5121L21.1628 21.6707C21.3258 21.4734 21.3054 21.4536 21.1832 21.2832C21.1239 21.2007 21.0813 21.111 20.9664 21.2868C20.8535 21.4626 20.8312 21.4823 21.0035 21.6725L21.022 22.5139C20.859 22.7113 20.8812 22.731 21.0016 22.9015C21.1239 23.0719 21.1628 22.9804 21.2183 22.8979C21.2406 22.8638 21.2591 22.8351 21.2739 22.81L21.9074 22.7974C21.9092 22.8692 22.0129 22.9158 22.0592 22.914C22.1055 22.9122 22.2074 22.862 22.2056 22.7902L23.1205 22.7705L23.1168 22.6162L22.2019 22.6377Z" fill="white"/>
      </g><defs><clipPath id="clip0"><rect width="20" height="13" fill="white" transform="translate(6 10)"/></clipPath></defs></svg>
      