<svg width="32" height="32" viewBox="0 0 40 40" fill="none" xmlns="http://www.w3.org/2000/svg">
      <rect width="32" height="32" fill="white"/>
      <path d="M32.6096 16.9166C32.3696 16.8901 32.1538 17.0613 32.1279 17.2968L31.7531 20.6924C31.4193 20.6662 31.1556 20.6133 30.9228 20.5465C30.7172 20.4876 30.5358 20.4179 30.3515 20.3463C29.8125 20.1373 29.2553 19.9209 28.1534 19.9209C27.1159 19.9209 26.5617 20.1128 26.0507 20.3097V12.8L27.5287 13.8757C27.8391 14.1015 28.2753 14.05 28.523 13.7595L30.5411 11.3863C30.6667 11.2382 30.7253 11.0512 30.7063 10.8594C30.6869 10.6678 30.5924 10.4956 30.4397 10.3742L26.3958 7.15994C26.2665 7.0568 26.1034 7 25.9362 7H23.5269C23.1815 7 22.8823 7.23669 22.8154 7.56243C22.5836 8.68896 21.3997 9.50665 20 9.50665C18.6006 9.50665 17.4164 8.68896 17.1846 7.56271C17.1179 7.23669 16.8185 7 16.473 7H14.0636C13.8966 7 13.7335 7.0568 13.6047 7.15952L9.56027 10.3742C9.40766 10.4954 9.31299 10.6677 9.29377 10.8594C9.27469 11.0512 9.33335 11.2383 9.45934 11.3867L11.477 13.7596C11.7243 14.05 12.161 14.101 12.4713 13.8757L13.9492 12.8001V20.3076C13.4393 20.1114 12.8851 19.9209 11.8506 19.9209C10.7479 19.9209 10.1902 20.1373 9.65096 20.3463C9.25711 20.499 8.87667 20.6432 8.24691 20.6924L7.87214 17.2968C7.84623 17.0612 7.62884 16.8915 7.39038 16.9166C7.15022 16.942 6.97653 17.1536 7.00259 17.3889L8.65513 32.3625C8.69542 32.7259 9.00691 33 9.37976 33H30.6203C30.9935 33 31.305 32.7256 31.3449 32.3622L32.9974 17.3889C33.0233 17.1536 32.8499 16.942 32.6096 16.9166ZM13.6605 11.9423L12.0606 13.1068L10.2258 10.9489L14.1155 7.85746H16.356C16.7267 9.3174 18.236 10.3641 20 10.3641C21.7642 10.3641 23.2732 9.31768 23.6439 7.85746H25.8847L29.7743 10.949L27.9393 13.1068L26.3394 11.9423C26.1168 11.7802 25.8249 11.7559 25.5772 11.8778C25.3298 11.9999 25.176 12.2444 25.176 12.516V20.6015C24.8863 20.6681 24.5412 20.7117 24.0787 20.7117C23.1434 20.7117 22.6861 20.5342 22.2018 20.3463C21.6628 20.1373 21.1053 19.9209 20.0029 19.9209C18.9007 19.9209 18.3435 20.1373 17.8045 20.3463C17.3206 20.5342 16.8633 20.7117 15.9282 20.7117C15.4622 20.7117 15.115 20.6676 14.8238 20.6003V12.516C14.8238 12.2444 14.6701 11.9998 14.4225 11.8778C14.1751 11.7558 13.8831 11.7805 13.6605 11.9423ZM30.4893 32.1425H9.51059L8.34101 21.5452C9.08181 21.4852 9.53589 21.3131 9.9727 21.1438C10.457 20.9559 10.9146 20.7784 11.8506 20.7784C12.7866 20.7784 13.2442 20.9559 13.7285 21.1438C14.2678 21.3528 14.8254 21.5691 15.9282 21.5691C17.0303 21.5691 17.5875 21.3528 18.1265 21.1438C18.366 21.0508 18.5993 20.9605 18.887 20.8929C19.1804 20.8238 19.5305 20.7784 20.0029 20.7784C20.4754 20.7784 20.8255 20.8238 21.1191 20.8929C21.4069 20.9605 21.6403 21.0508 21.8801 21.1438C22.419 21.3528 22.9765 21.5691 24.0787 21.5691C25.1809 21.5691 25.7384 21.3528 26.2771 21.1438C26.7611 20.9559 27.2184 20.7784 28.1534 20.7784C29.0884 20.7784 29.5454 20.9559 30.0295 21.1438C30.254 21.2309 30.4832 21.3188 30.7536 21.3917C31.0085 21.4605 31.3 21.516 31.659 21.5452L30.4893 32.1425Z" fill="black"/>
      </svg>
      