<svg width="32" height="32" viewBox="0 0 32 32" fill="none" xmlns="http://www.w3.org/2000/svg"> <mask id="mask0" mask-type="alpha" maskUnits="userSpaceOnUse" x="1" y="1" width="30" height="30"> <circle cx="16" cy="16" r="15" fill="white"/> </mask> <g mask="url(#mask0)"> <rect x="1" y="8.5" width="30" height="13.9286" fill="white"/> <path d="M1 8.5V-2.21429V-6.5H31V8.5H1Z" fill="#D42C3F"/> <path d="M1 22.4277L1 33.142L1 37.4277L31 37.4277L31 22.4277L1 22.4277Z" fill="#D42C3F"/> </g> <g clip-path="url(#clip0)"> <path d="M21.5051 18.6799C21.5051 18.6799 20.5876 18.0518 19.9891 17.777L19.6301 17.5414C19.6301 17.5414 19.271 16.9526 20.029 16.9918C20.029 16.9918 20.2684 16.9918 20.5876 17.2666C20.5876 17.2666 21.1461 17.5414 21.186 17.2274C21.186 17.2274 21.2658 17.0703 20.9067 16.9526C20.9067 16.9526 20.5876 16.8348 20.3881 16.4815C20.3881 16.4815 19.9492 15.8141 19.1514 15.8926C19.1514 15.8926 18.912 15.8926 19.1115 15.5786C19.1115 15.5786 19.206 15.5166 19.3951 15.5303C19.4565 15.5346 19.5176 15.5389 19.579 15.5381L20.4308 15.5283C20.4308 15.5283 20.7244 15.5075 20.653 15.3262C20.6291 15.2649 20.5728 15.2217 20.5082 15.206L19.3105 14.9116C19.3105 14.9116 18.9116 14.9116 19.0313 14.5975C19.0313 14.5975 19.1111 14.4013 19.4302 14.519C19.4302 14.519 19.9887 14.7938 20.2281 14.6368C20.2281 14.6368 20.3478 14.4798 20.1084 14.362C20.1084 14.362 19.4701 14.0872 19.0712 13.7339C19.0712 13.7339 18.3132 12.988 17.9541 12.8702C17.9541 12.8702 17.4754 12.7525 17.7147 12.4384C17.7147 12.4384 17.8743 12.2421 18.1536 12.4777C18.1536 12.4777 18.7919 12.8702 19.0313 12.6347C19.0313 12.6347 19.0712 12.5562 18.9515 12.5169C18.9515 12.5169 18.3531 12.2814 18.1536 12.0458C18.1536 12.0458 17.8743 11.8888 18.1536 11.771C18.1536 11.771 18.3132 11.7318 18.393 11.8103C18.393 11.8103 18.5481 11.8613 18.5254 11.6965C18.5126 11.605 18.456 11.5249 18.3766 11.4754L17.5955 10.9855C17.5955 10.9855 17.3162 10.7892 16.8375 10.7892C16.8375 10.7892 15.8401 10.6715 15.6406 9.57227C15.6406 9.57227 15.1619 10.3511 14.4637 10.7861C14.4637 10.7861 14.1246 11.0248 14.3241 11.1033C14.3241 11.1033 14.6033 10.9855 14.6033 11.1818C14.6033 11.1818 14.5635 11.4173 14.1246 11.5351C14.1246 11.5351 13.4863 11.8099 13.5262 11.9669C13.5262 11.9669 13.4863 12.124 13.7257 12.0847C13.7257 12.0847 14.0448 12.0455 13.9251 12.3595C13.9251 12.3595 13.8852 12.5165 13.5661 12.4773C13.5661 12.4773 13.3267 12.4773 13.0873 12.9484C13.0873 12.9484 12.9278 13.2232 12.4091 13.3802C12.4091 13.3802 11.6511 13.655 11.7309 13.9298C11.7309 13.9298 11.7708 14.2438 12.1299 14.0476C12.1299 14.0476 12.6884 13.7728 12.848 14.0868C12.848 14.0868 12.9677 14.4794 12.5687 14.8327C12.5687 14.8327 12.2496 15.186 11.9304 15.186C11.9304 15.186 11.691 15.2253 11.3719 15.5786L10.8931 16.0104C10.8931 16.0104 10.6937 16.2067 10.933 16.3245C10.933 16.3245 11.1724 16.403 11.4118 16.2459L11.8506 15.9711C11.8506 15.9711 11.9878 15.8899 12.1486 15.9971C12.2288 16.0504 12.2883 16.1313 12.3106 16.224C12.3381 16.337 12.3226 16.5011 12.09 16.6385C12.09 16.6385 11.691 16.7563 11.2921 17.0703C11.2921 17.0703 10.8133 17.5022 10.4543 17.8162C10.4543 17.8162 10.4144 17.9732 10.1351 17.9732C10.1351 17.9732 9.89576 18.0125 10.0553 18.2088C10.0553 18.2088 10.2947 18.3266 10.6139 18.2088C10.6139 18.2088 11.2921 18.0518 12.0102 17.6199C12.0102 17.6199 12.449 17.3059 12.6884 17.5414C12.6884 17.5414 12.9338 17.8865 12.4714 18.0914C12.398 18.124 12.3254 18.1566 12.2543 18.1935C12.0178 18.3164 11.4417 18.5809 10.7734 18.641C10.7734 18.641 10.4144 18.6803 10.574 18.9943C10.574 18.9943 10.8133 19.2691 11.8107 18.9551C11.8107 18.9551 12.4905 18.7545 13.2541 18.3529C13.4663 18.2414 13.7209 18.2253 13.9403 18.3219C14.1749 18.4247 14.3839 18.6602 14.2842 19.1902C14.2842 19.1902 13.965 20.0539 13.2469 20.4857C13.2469 20.4857 12.8879 20.682 12.5687 20.7997C12.5687 20.7997 11.9703 20.996 12.1698 21.2316C12.1698 21.2316 12.3293 21.3493 12.4091 21.1531C12.4091 21.1531 12.5288 20.8783 13.0475 20.9175C13.0475 20.9175 13.7656 20.9568 14.1246 20.4464C14.1246 20.4464 14.6033 19.8576 15.0422 20.2109C15.0422 20.2109 15.2018 20.4072 15.4012 20.1716C15.4012 20.1716 15.7603 20.0389 15.8002 20.3997C15.8002 20.3997 15.8002 20.6427 16.239 20.7605C16.239 20.7605 16.4385 21.1138 16.5981 21.0353C16.5981 21.0353 16.7178 20.996 16.638 20.7997C16.638 20.7997 16.638 20.4857 17.0768 20.6427C17.0768 20.6427 17.1965 20.7605 17.4359 20.7212C17.4359 20.7212 17.7151 20.682 17.9545 21.0353C17.9545 21.0353 18.1939 21.5064 18.4332 21.3101C18.4332 21.3101 18.6327 21.1138 18.2737 20.9175C18.2737 20.9175 17.3561 20.4072 17.1965 19.9361C17.1965 19.9361 16.9172 19.3472 17.0369 18.4836C17.0369 18.4836 17.1167 17.8162 17.755 18.1303C17.755 18.1303 18.1759 18.579 18.9515 18.4408C19.1302 18.409 19.3113 18.3917 19.4929 18.3996C19.7821 18.4117 20.1898 18.4647 20.5477 18.6406L21.2658 19.1117C21.2658 19.1117 21.7445 19.4258 21.7844 18.9939C21.7844 18.9939 21.8243 18.8762 21.5051 18.6799ZM13.3503 16.0383C13.306 16.0489 13.2617 16.0591 13.2182 16.0732C13.0722 16.1215 12.7323 16.2192 12.6082 16.1278C12.6082 16.1278 12.2093 15.696 12.4486 15.6174L13.2637 15.5676C13.2637 15.5676 13.6056 15.4997 13.6056 15.7745C13.606 15.7749 13.606 15.9778 13.3503 16.0383ZM13.4065 14.2438C13.4065 14.2438 13.1671 14.2438 13.0076 13.9298C13.0076 13.9298 12.8919 13.6165 13.1783 13.5965C13.3112 13.5871 13.4428 13.6401 13.5318 13.737C13.5753 13.7845 13.6179 13.8477 13.6459 13.9302C13.6459 13.9298 13.7656 14.2438 13.4065 14.2438ZM16.2789 12.0062C16.3671 12.0062 16.4385 12.0765 16.4385 12.1632C16.4385 12.25 16.3671 12.3203 16.2789 12.3203C16.1908 12.3203 16.1193 12.25 16.1193 12.1632C16.1193 12.0765 16.1908 12.0062 16.2789 12.0062ZM14.6464 12.4918C14.6736 12.4804 14.7019 12.471 14.7314 12.4671C14.8467 12.4514 14.8826 12.5185 14.891 12.5864C14.9002 12.661 14.8714 12.7348 14.8212 12.7909C14.6604 12.9688 14.4438 13.0406 14.4438 13.0406C14.1645 13.1329 14.2044 12.9091 14.2044 12.9091C14.2371 12.683 14.5399 12.5366 14.6464 12.4918ZM14.1645 11.8884C14.1645 11.8884 14.2443 11.7707 14.364 11.8099C14.364 11.8099 14.4837 11.8307 14.4637 11.9972C14.4637 11.9972 14.4438 12.2417 14.2044 12.124C14.2044 12.124 14.0847 12.0455 14.1645 11.8884ZM14.3241 17.3451C14.3241 17.3451 14.2443 17.5807 14.0448 17.4629C14.0448 17.4629 13.8852 17.3844 13.8852 17.0311C13.8852 17.0311 13.8453 16.6778 14.1246 16.8741C14.1246 16.8741 14.364 17.0703 14.3241 17.3451ZM14.0648 13.969C13.8996 13.969 13.7656 13.8548 13.7656 13.7139C13.7656 13.5729 13.8996 13.4587 14.0648 13.4587C14.2299 13.4587 14.364 13.5729 14.364 13.7139C14.364 13.8548 14.2299 13.969 14.0648 13.969ZM14.4837 15.1711C14.4737 15.1621 14.4641 15.1526 14.4557 15.1428C14.4174 15.0989 14.3943 15.0427 14.3979 14.985C14.4063 14.8531 14.5236 14.9108 14.5236 14.9108C14.5846 14.9367 14.6265 14.9642 14.6548 14.9917C14.7673 15.1012 14.601 15.2755 14.4837 15.1711ZM15.0422 17.4237C15.0422 17.4237 14.8826 17.6199 14.6831 17.2274C14.6831 17.2274 14.6432 16.9526 14.9225 17.1096C14.9225 17.1096 15.1619 17.3059 15.0422 17.4237ZM15.1619 12.3595C15.2417 12.124 15.6406 12.0455 15.6406 12.0455C15.7204 12.0258 15.7703 12.0651 15.8002 12.109C15.8381 12.1652 15.8365 12.2347 15.8245 12.301C15.8002 12.438 15.4411 12.5165 15.4411 12.5165C15.0821 12.595 15.1619 12.3595 15.1619 12.3595ZM15.8401 13.4194C15.8401 13.5062 15.7599 13.5765 15.6606 13.5765C15.5612 13.5765 15.481 13.5062 15.481 13.4194C15.481 13.3327 15.5612 13.2624 15.6606 13.2624C15.7599 13.2624 15.8401 13.3327 15.8401 13.4194ZM15.3414 15.0682C15.2644 15.0682 15.2018 15.0066 15.2018 14.9308C15.2018 14.8551 15.2644 14.7934 15.3414 14.7934C15.4184 14.7934 15.481 14.8551 15.481 14.9308C15.481 15.0066 15.4184 15.0682 15.3414 15.0682ZM15.8353 17.2081C15.8233 17.3004 15.7571 17.3809 15.6653 17.4028C15.6007 17.4182 15.5245 17.4079 15.4667 17.3161C15.4495 17.289 15.4272 17.2658 15.4052 17.2423C15.3777 17.2128 15.3522 17.1516 15.4008 17.0315C15.4008 17.0315 15.4806 16.7567 15.72 16.953C15.7204 16.9526 15.8604 17.0181 15.8353 17.2081ZM15.9486 15.5676C15.8788 15.5644 15.8074 15.5295 15.7603 15.4215C15.7603 15.4215 15.7204 15.3823 15.7603 15.1468C15.7603 15.1468 15.8209 14.8374 16.03 15.051C16.03 15.051 16.1249 15.1322 16.1692 15.25C16.2271 15.4039 16.1154 15.575 15.9486 15.5676ZM16.4385 15.5393C16.4385 15.5393 16.2789 15.5393 16.3587 15.343C16.3587 15.343 16.4624 15.1468 16.5502 15.343C16.5498 15.343 16.5738 15.5578 16.4385 15.5393ZM16.5518 13.4461C16.5199 13.5612 16.4166 13.6338 16.3212 13.6083C16.2255 13.5828 16.1736 13.4685 16.2055 13.3535C16.2374 13.2385 16.3408 13.1658 16.4361 13.1914C16.5315 13.2169 16.5833 13.3311 16.5518 13.4461ZM18.154 14.3616C18.286 14.3616 18.3934 14.4672 18.3934 14.5972C18.3934 14.7271 18.286 14.8327 18.154 14.8327C18.0219 14.8327 17.9545 14.7271 17.9545 14.5972C17.9545 14.4672 18.0215 14.3616 18.154 14.3616ZM16.6779 12.2417C16.6779 12.1334 16.776 12.0455 16.8973 12.0455C17.0186 12.0455 17.1167 12.1334 17.1167 12.2417C17.1167 12.3501 17.0186 12.438 16.8973 12.438C16.776 12.438 16.6779 12.3501 16.6779 12.2417ZM17.0768 13.9298C16.6779 13.812 16.8973 13.5765 16.8973 13.5765C17.1566 13.3017 17.4758 13.498 17.4758 13.498C17.6752 13.6157 17.5556 13.7728 17.5556 13.7728C17.396 14.0083 17.0768 13.9298 17.0768 13.9298ZM18.3136 16.6778C17.9944 16.9526 17.7151 16.9133 17.5955 16.6385C17.5432 16.5188 17.7151 16.2067 18.3136 16.2067C18.4456 16.2067 18.5529 16.3123 18.5529 16.4422C18.5529 16.5722 18.4129 16.5922 18.3136 16.6778ZM19.3508 17.0703C19.3508 17.0703 18.8322 17.3059 18.7524 16.9526C18.7524 16.9526 18.6726 16.6778 19.0265 16.5361C19.0265 16.5361 19.3508 16.3637 19.5503 16.6385C19.5503 16.6385 19.7099 16.9133 19.3508 17.0703Z" fill="#389868"/> </g> <defs> <clipPath id="clip0"> <rect width="11.7857" height="11.7857" fill="white" transform="translate(10 9.57227)"/> </clipPath> </defs> </svg>