<svg width="64" height="64" viewBox="0 0 32 32" fill="none" xmlns="http://www.w3.org/2000/svg">
      <path d="M8.51606 1.5L1.53125 5.3099L8.51606 9.11979L15.5009 5.3099L8.51606 1.5Z" stroke="white"/>
      <path d="M1.53125 5.3099L1.29182 4.87095L0.487086 5.3099L1.29182 5.74884L1.53125 5.3099ZM8.51606 1.5L8.75548 1.06105L8.51606 0.930456L8.27663 1.06105L8.51606 1.5ZM15.5009 5.3099L15.7403 5.74884L16.545 5.3099L15.7403 4.87095L15.5009 5.3099ZM8.51606 9.11979L8.27663 9.55874L8.51606 9.68933L8.75548 9.55874L8.51606 9.11979ZM1.77068 5.74884L8.75548 1.93895L8.27663 1.06105L1.29182 4.87095L1.77068 5.74884ZM8.27663 1.93895L15.2614 5.74884L15.7403 4.87095L8.75548 1.06105L8.27663 1.93895ZM15.2614 4.87095L8.27663 8.68084L8.75548 9.55874L15.7403 5.74884L15.2614 4.87095ZM8.75548 8.68084L1.77068 4.87095L1.29182 5.74884L8.27663 9.55874L8.75548 8.68084Z" fill="white"/>
      <path d="M5.23183 8.92381C5.47425 8.79158 5.56358 8.48786 5.43135 8.24544C5.29912 8.00301 4.9954 7.91368 4.75298 8.04592L5.23183 8.92381ZM1.5 10.3898L1.26057 9.95086L0.455836 10.3898L1.26057 10.8288L1.5 10.3898ZM8.48481 14.1997L8.24538 14.6387L8.48481 14.7692L8.72423 14.6387L8.48481 14.1997ZM15.4696 10.3898L15.709 10.8288L16.5138 10.3898L15.709 9.95086L15.4696 10.3898ZM12.2166 8.04592C11.9742 7.91368 11.6705 8.00301 11.5383 8.24544C11.406 8.48786 11.4954 8.79158 11.7378 8.92381L12.2166 8.04592ZM4.75298 8.04592L1.26057 9.95086L1.73943 10.8288L5.23183 8.92381L4.75298 8.04592ZM1.26057 10.8288L8.24538 14.6387L8.72423 13.7608L1.73943 9.95086L1.26057 10.8288ZM8.72423 14.6387L15.709 10.8288L15.2302 9.95086L8.24538 13.7608L8.72423 14.6387ZM15.709 9.95086L12.2166 8.04592L11.7378 8.92381L15.2302 10.8288L15.709 9.95086Z" fill="white"/>
      </svg>
      