<svg width="32" height="32" viewBox="0 0 16 16" fill="none">
      <path d="M8.0152 1.50024L1.0304 5.31014L8.0152 9.12003L15 5.31014L8.0152 1.50024Z" stroke="black"/>
      <path d="M1.0304 5.31014L0.790969 4.87119L-0.0137682 5.31014L0.790969 5.74909L1.0304 5.31014ZM8.0152 1.50024L8.25463 1.0613L8.0152 0.9307L7.77578 1.0613L8.0152 1.50024ZM15 5.31014L15.2394 5.74909L16.0442 5.31014L15.2394 4.87119L15 5.31014ZM8.0152 9.12003L7.77578 9.55898L8.0152 9.68958L8.25463 9.55898L8.0152 9.12003ZM1.26982 5.74909L8.25463 1.93919L7.77578 1.0613L0.790969 4.87119L1.26982 5.74909ZM7.77578 1.93919L14.7606 5.74909L15.2394 4.87119L8.25463 1.0613L7.77578 1.93919ZM14.7606 4.87119L7.77578 8.68109L8.25463 9.55898L15.2394 5.74909L14.7606 4.87119ZM8.25463 8.68109L1.26982 4.87119L0.790969 5.74909L7.77578 9.55898L8.25463 8.68109Z" fill="black"/>
      <path d="M4.4924 8.48511L1 10.3901L7.98481 14.1999L14.9696 10.3901L11.4772 8.48511" stroke="black" stroke-linecap="round"/>
      </svg>
      