<svg width="24" height="24" viewBox="0 0 32 32" fill="none" xmlns="http://www.w3.org/2000/svg"><path d="M24.8829 26.9014C19.0775 31.6319 10.5833 30.9829 5.56386 25.4254C0.544477 19.8678 0.760982 11.3516 6.0563 6.0563C11.3516 0.760982 19.8678 0.544477 25.4254 5.56386C30.9829 10.5833 31.6319 19.0775 26.9014 24.8829" stroke="#333333" stroke-linejoin="bevel"/><path d="M18.0596 13.0664C18.5073 13.0664 20.9961 13.1427 21.4097 13.2911C21.8233 13.4394 22.1991 13.6568 22.5157 13.9308C22.8322 14.2049 23.0833 14.5303 23.2547 14.8883C23.426 15.2464 23.5142 15.6302 23.5142 16.0178C23.5142 16.4054 23.426 16.7892 23.2547 17.1472C23.0833 17.5053 22.8322 17.8307 22.5157 18.1047C22.1991 18.3788 21.8233 18.5962 21.4097 18.7445C20.9961 18.8928 20.5528 18.9692 20.1051 18.9692H18.0596M13.9687 18.9692H11.9233C11.4756 18.9692 11.0323 18.8928 10.6186 18.7445C10.205 18.5962 9.82922 18.3788 9.51266 18.1047C8.87333 17.5512 8.51416 16.8006 8.51416 16.0178C8.51416 15.235 8.87333 14.4843 9.51266 13.9308C10.152 13.3774 11.0191 13.0664 11.9233 13.0664H13.9687" stroke="#333333" stroke-linecap="square" stroke-linejoin="round"/><path d="M13.2871 16.0195H18.7417" stroke="#333333" stroke-linecap="square" stroke-linejoin="round"/></svg>