<svg width="16" height="24" viewBox="0 0 16 24" fill="none" xmlns="http://www.w3.org/2000/svg">
      <path d="M12.2698 14.3322C12.1614 14.5767 12.0206 14.8055 11.8512 15.0125C11.1186 16.3206 10.2814 17.5241 9.54887 18.7799L9.39189 19.0939L8.71166 20.245L8.3977 20.7683L8.29305 20.9253L8.03142 21.3962C6.82793 19.2508 5.51979 17.2101 4.36863 15.0648C3.21747 12.9194 2.06631 11.4543 1.54305 9.51827C1.46541 9.20906 1.41292 8.89408 1.38607 8.5764C0.86281 4.80896 4.5256 1.35547 8.18839 1.35547C10.057 1.3682 11.8444 2.12079 13.1593 3.44849C14.7814 5.12291 15.5663 7.47756 14.7291 9.72756C14.3105 10.6694 13.8919 11.559 13.4209 12.4485" stroke="black" stroke-linejoin="round"/>
      <path d="M11.2793 19.1969C13.3723 19.5631 14.7851 20.2434 14.7851 20.9759C14.7851 21.7085 11.6979 23.0166 7.87809 23.0166C4.05832 23.0166 1.02344 22.0748 1.02344 20.9759C1.02344 19.8771 2.5932 19.4585 4.89553 19.1445" stroke="black" stroke-linecap="round"/>
      <path fill-rule="evenodd" clip-rule="evenodd" d="M10.5474 8.05542C10.5474 9.36356 8.14039 11.8752 8.14039 11.8752C8.14039 11.8752 5.78574 9.36356 5.78574 8.05542C5.77165 7.42192 6.01351 6.80947 6.45662 6.3565C6.89973 5.90353 7.50672 5.64829 8.14038 5.64844C9.46973 5.64844 10.5474 6.72608 10.5474 8.05542H10.5474Z" stroke="black" stroke-linejoin="round"/>
      </svg>
      