<svg xmlns="http://www.w3.org/2000/svg" width="40" height="40" viewBox="0 0 40 40" fill="none">
    <path d="M6 18.75H10.875C11.4273 18.75 11.875 19.1977 11.875 19.75V32.75C11.875 33.3023 11.4273 33.75 10.875 33.75H6C5.44772 33.75 5 33.3023 5 32.75V19.75C5 19.1977 5.44772 18.75 6 18.75Z" stroke="black"/>
    <path d="M14.375 29.375L22.6629 32.335C22.9544 32.4391 23.2776 32.4023 23.5383 32.2355L35.0885 24.8433C35.9825 24.2712 35.4868 22.8839 34.4326 23.0079L28.125 23.75" stroke="black"/>
    <path d="M18.75 26.2497L26.25 26.25C26.6667 26.25 28.125 25.8747 28.125 24.3747C28.125 23.0337 27.25 22.5 26.25 22.5L21.612 22.4997C21.3781 22.4997 21.1541 22.4155 20.9635 22.2798C19.5045 21.2411 16.07 19.8513 11.875 21.2497" stroke="black"/>
    <path fill-rule="evenodd" clip-rule="evenodd" d="M29.3506 14.3613L29.6131 16.8113C29.6408 17.0234 29.5369 17.2311 29.3506 17.3363C29.2156 17.4808 29.0003 17.5167 28.8257 17.4238L25.3257 15.9363L21.8257 17.4238C21.651 17.5167 21.4358 17.4808 21.3007 17.3363C21.1144 17.2311 21.0105 17.0235 21.0382 16.8113L21.4757 13.1363L18.9381 10.4238C18.7849 10.2595 18.7198 10.0317 18.7632 9.8113C18.8667 9.64985 19.0204 9.52689 19.2007 9.46133L22.9632 8.67384L24.8007 5.52383C24.8013 5.23432 25.0362 5 25.3257 5C25.6151 5 25.85 5.23434 25.8507 5.52383L27.6882 8.67384L31.4507 9.46133C31.6309 9.52689 31.7846 9.64985 31.8882 9.81133C31.9315 10.0317 31.8664 10.2596 31.7132 10.4238L29.7498 12.6733" fill="#E3E3E3"/>
    <path d="M29.3506 14.3613L29.6131 16.8113C29.6408 17.0234 29.5369 17.2311 29.3506 17.3363C29.2156 17.4808 29.0003 17.5167 28.8257 17.4238L25.3257 15.9363L21.8257 17.4238C21.651 17.5167 21.4358 17.4808 21.3007 17.3363C21.1144 17.2311 21.0105 17.0235 21.0382 16.8113L21.4757 13.1363L18.9381 10.4238C18.7849 10.2595 18.7198 10.0317 18.7632 9.8113C18.8667 9.64985 19.0204 9.52689 19.2007 9.46133L22.9632 8.67384L24.8007 5.52383C24.8013 5.23432 25.0362 5 25.3257 5C25.6151 5 25.85 5.23434 25.8507 5.52383L27.6882 8.67384L31.4507 9.46133C31.6309 9.52689 31.7846 9.64985 31.8882 9.81133C31.9315 10.0317 31.8664 10.2596 31.7132 10.4238L29.7498 12.6733" stroke="black" stroke-linejoin="round"/>
    </svg>