<svg width="24" height="24" viewBox="0 0 32 32" fill="none" xmlns="http://www.w3.org/2000/svg"><path fill-rule="evenodd" clip-rule="evenodd" d="M15.9305 25.9103C15.8448 26.2057 15.4573 27.5544 15.4573 27.5544H16.656C16.656 27.5544 16.275 26.2049 16.1845 25.9103C16.1058 25.6629 16.0046 25.6629 15.9325 25.9103H15.9305ZM17.0415 28.8923L16.901 28.4035H15.2127L15.0722 28.8923C14.9374 29.3602 14.5805 29.6136 13.7292 29.6136C13.038 29.6136 12.3244 29.2509 12.3211 28.4498V27.4654H10.4984L10.4898 29.5898C10.4898 29.5898 9.407 29.5536 9.407 28.478C9.37505 27.6572 9.40249 25.8519 9.39348 25.5468C9.39348 24.9976 8.84205 24.836 8.38647 24.8002C8.73143 24.4306 10.4828 24.1586 10.4927 25.3885C10.5001 26.3753 10.4992 26.5632 10.4992 26.5632H12.3178C12.3178 26.5632 12.3154 25.7265 12.3088 25.4799C12.3035 25.2704 12.1015 24.7901 11.4149 24.6865C11.4149 24.6865 13.4223 23.8668 13.4223 25.4864C13.4223 27.1978 13.4277 28.6514 13.4269 28.7484C13.424 28.9697 13.476 29.1563 13.6595 29.1563C13.8234 29.1563 13.9226 28.9177 13.9599 28.7827C13.9972 28.6477 14.8927 25.8547 15.0086 25.5146C15.2524 24.7973 15.6531 24.4963 16.0538 24.4963C16.4544 24.4963 16.8555 24.7973 17.0997 25.515C17.2152 25.8547 18.1108 28.6477 18.1481 28.7827C18.1853 28.9177 18.2849 29.1567 18.4484 29.1567C18.6344 29.1567 18.6831 28.9286 18.688 28.7162C18.693 28.5038 18.688 26.1276 18.688 25.843C18.688 24.9359 18.8081 24.4774 20.4976 24.4766C21.5383 24.4766 22.6321 24.9355 22.6227 25.9772C22.6116 27.2667 21.5128 27.6008 21.5128 27.6008C21.5128 27.6008 22.1229 28.5131 22.3343 28.8166C22.7194 29.3698 23.5224 29.1349 23.5224 29.1349C22.9869 29.8602 21.6718 29.7333 21.1667 28.9447C21.0634 28.7835 20.4825 27.8103 20.394 27.8083C19.7954 27.7954 19.8114 28.1117 19.8114 28.4511C19.8114 28.9347 19.4447 29.6124 18.366 29.6124C17.5184 29.614 17.1759 29.3605 17.0415 28.8931V28.8923ZM21.5481 26.0292C21.2085 25.6202 20.7156 25.9917 20.7156 25.9917C20.7156 25.9917 21.0683 25.5444 20.6886 25.2305C20.3317 24.9355 19.8 25.2095 19.8 25.6081V27.083C19.8 27.083 20.1277 26.9456 20.8016 26.9508C21.5665 26.9564 21.8173 26.3532 21.5485 26.0296L21.5481 26.0292ZM8.38852 24.8018C8.38852 24.8018 7.94278 24.4794 6.83744 24.4794C5.53874 24.4794 5.01762 25.3191 5.03114 25.9704C5.0676 27.7217 7.52736 27.2792 7.51712 28.1895C7.50893 28.9358 6.00742 28.8806 5 28.3193C5 28.3193 5.23229 29.6177 6.8227 29.6177C7.87846 29.6177 8.6454 29.0185 8.6454 28.1484C8.6454 26.1864 6.10124 26.8101 6.1713 25.8306C6.23849 24.8852 8.0452 25.3997 8.3877 25.6222V24.8042L8.38852 24.8018ZM26.4696 26.6123C26.3611 27.284 25.9027 27.4618 25.5471 27.4618H24.5163V28.6965H26.7544V29.5737C26.7544 29.5737 25.4962 29.5681 24.4077 29.5681C23.5363 29.5681 23.4195 29.0616 23.4195 28.4825C23.4195 28.15 23.4166 25.5521 23.4166 25.5521C23.4166 24.801 23.8157 24.5728 24.252 24.5559C24.5367 24.5443 26.7941 24.5559 26.7941 24.5559C26.6856 25.2273 26.2271 25.4131 25.8715 25.4131H24.5163V26.6127H26.4696V26.6123Z" fill="#9B1F42"/> <path fill-rule="evenodd" clip-rule="evenodd" d="M15.8175 2.45401C15.3702 2.6015 14.9269 2.78404 14.289 3.17493C11.626 4.80132 10.4334 7.7946 10.315 10.6908C10.3068 10.8552 10.3027 11.0195 10.3027 11.1836V11.3101V21.5956H13.7662V11.3097C13.7658 11.0016 13.8344 10.6972 13.9673 10.4182C14.1002 10.1392 14.2939 9.89236 14.5348 9.69545L15.897 11.3097L17.2625 9.69784C17.5033 9.89432 17.6971 10.1406 17.8301 10.4193C17.963 10.6979 18.0317 11.002 18.0315 11.3097V21.596H21.4938V11.3097C21.4941 10.4107 21.2707 9.5252 20.8429 8.73067C20.4151 7.93618 19.796 7.2568 19.0397 6.75193C18.2834 6.24706 17.4129 5.93205 16.5043 5.83445C15.5957 5.73683 14.6765 5.85959 13.8273 6.19198C14.5385 5.37072 15.6102 4.96775 16.7807 4.94196H16.7844C17.1597 4.93392 17.5349 4.96267 17.9045 5.02779C20.9685 5.52224 23.3046 8.05008 23.3161 11.0969C23.3222 11.2134 23.3247 11.3311 23.3247 11.4495V21.596H26.7832L26.7893 11.3645C26.7893 6.93184 24.083 3.37883 19.4682 2.32063C19.2451 2.27093 19.0202 2.23063 18.7935 2.19974C18.4447 2.14995 18.093 2.12303 17.7406 2.11914C16.9917 2.11914 16.4468 2.25091 15.8196 2.45603" fill="#9B1F42"/> <path fill-rule="evenodd" clip-rule="evenodd" d="M15.1562 2C9.18258 2 5.01074 5.9592 5.01074 11.2107V21.5965H8.4767C8.4767 21.5965 8.47383 15.8828 8.47383 11.2035C8.47383 6.31986 12.2429 2.83617 16.0194 2.07858C16.1739 2.04715 16.3538 2 16.1743 2H15.1562Z" fill="#9B1F42"/></svg>