<svg width="32" height="32" viewBox="0 0 40 40" fill="none" xmlns="http://www.w3.org/2000/svg">
      <rect width="32" height="32" fill="white"/>
      <path fill-rule="evenodd" clip-rule="evenodd" d="M29.3307 19.0943L28.3668 19.2872L26.8245 19.3836L24.9931 19.2872L24.6075 19.1907V20.734H26.2462L27.1619 20.5893L29.3789 19.1907L29.3307 19.0943ZM25.8959 14.0954L26.6671 13.8542L27.3418 12.6486L26.3297 12.8897H25.6068C25.1824 12.8853 24.7668 12.7688 24.4019 12.5521L23.8235 12.0216C23.7101 11.8881 23.6577 11.7132 23.679 11.5393C23.679 11.3464 24.0163 11.2017 24.0163 11.2017H25.3176L26.3297 11.3947L26.4261 11.25L25.9924 10.8159L25.3176 10.3819C25.1841 10.3053 25.0366 10.2561 24.8839 10.2372C24.6901 10.2038 24.4911 10.2204 24.3055 10.2854L23.679 10.7677C23.4618 10.9528 23.2676 11.1633 23.1006 11.3947C22.9199 11.5855 22.7876 11.8171 22.7151 12.0698C22.668 12.2435 22.668 12.4266 22.7151 12.6003C22.8525 12.8537 23.0317 13.082 23.2452 13.2755L23.7754 13.6613L24.1609 13.8542L23.5826 14.3847C23.7678 14.5376 23.9301 14.7162 24.0645 14.9153C24.2635 14.7854 24.4731 14.6724 24.6911 14.5777L25.8959 14.0954ZM30.8748 7.37543H17.4765C15.8861 7.37543 14.9704 8.43643 14.9704 9.9797V13.7414H8.22302C6.68076 13.7414 5.28311 14.8024 5.28311 16.3939V27.5344C5.25578 28.2587 5.53133 28.9617 6.04352 29.4742C6.55573 29.9868 7.25822 30.2625 7.98206 30.2352H10.1508V33.4182C10.1508 34.0451 10.681 33.9487 10.8256 33.6593L13.9101 30.2352H22.1997C23.7901 30.2352 24.6094 29.0777 24.6094 27.4862V23.8209H25.1396L28.3687 27.0039C28.8024 27.438 29.429 27.1968 29.429 26.7146V23.8209H30.8748C32.4652 23.8209 33.7183 22.7599 33.7183 21.1684V10.2208C33.7315 9.46221 33.4362 8.73077 32.9 8.19427C32.3639 7.65776 31.6329 7.36222 30.8748 7.37543ZM7.98385 14.7539H21.9123C22.7045 14.7448 23.3827 15.3206 23.5027 16.1043C23.5417 16.1783 23.5584 16.2621 23.5509 16.3454V27.5341C23.5383 27.9563 23.3585 28.3561 23.0512 28.6456C22.7439 28.9351 22.3341 29.0904 21.9123 29.0774H13.7673C13.6158 29.0555 13.4615 29.0898 13.3335 29.1739L11.0201 31.5853V29.6562C11.0201 29.2703 10.6828 29.0774 10.1526 29.0774H8.22483C7.35732 29.0774 6.39341 28.4023 6.39341 27.5342V16.3454C6.38171 16.2148 6.39815 16.0833 6.44161 15.9596C6.63307 15.2609 7.26004 14.7707 7.98385 14.7539ZM32.6562 21.168C32.6563 21.586 32.4872 21.986 32.1874 22.2768C31.8876 22.5676 31.4828 22.7244 31.0655 22.7113H28.8967C28.7519 22.6959 28.608 22.7468 28.505 22.8499C28.4021 22.9529 28.3512 23.0969 28.3666 23.2418V25.3638L25.8122 22.8077C25.7367 22.7314 25.6293 22.6955 25.523 22.7113H24.6073L24.6075 20.734H26.2462L27.1619 20.5893L29.3789 19.1907L29.3787 19.046L28.4147 19.2389L26.8725 19.3354L25.0411 19.2389L24.6555 19.1425V16.5382C24.6633 15.9256 24.459 15.3292 24.0772 14.8502C24.2762 14.7203 24.4858 14.6074 24.7037 14.5126L25.9086 14.0304L26.6797 13.7892L27.3544 12.5836L26.3423 12.8247H25.6194C25.1951 12.8203 24.7794 12.7038 24.4145 12.4871L23.8362 11.9566C23.7228 11.8231 23.6703 11.6482 23.6916 11.4743C23.6916 11.2814 24.029 11.1367 24.029 11.1367H25.3303L26.3424 11.3297L26.4388 11.185L26.005 10.7509L25.3303 10.3169C25.1967 10.2402 25.0493 10.1911 24.8965 10.1722C24.7028 10.1388 24.5037 10.1554 24.3182 10.2204L23.6916 10.7027C23.4745 10.8878 23.2803 11.0983 23.1133 11.3297C22.9325 11.5205 22.8003 11.7521 22.7277 12.0048C22.6806 12.1785 22.6806 12.3616 22.7277 12.5353C22.8651 12.7887 23.0444 13.017 23.2579 13.2105L23.788 13.5963L24.1736 13.7892L23.5952 14.3197C23.0646 13.8856 22.401 13.6473 21.7156 13.6446H16.0288V9.35233C16.0743 8.78627 16.5234 8.33683 17.0891 8.29133H31.0657C31.9441 8.29134 32.6562 9.00388 32.6562 9.88284V21.168Z" fill="black"/>
      <path fill-rule="evenodd" clip-rule="evenodd" d="M29.3308 19.0936L28.3669 19.2865L26.8247 19.3829L24.9933 19.2865L24.6077 19.19L24.1258 19.0453V20.3475H23.5956L23.8366 20.4922L24.6077 20.6851H26.2463L27.162 20.5404L29.379 19.1418L29.3308 19.0936ZM26.3299 12.889H25.6069C25.1826 12.8846 24.767 12.7681 24.4021 12.5514L23.8237 12.0209C23.7103 11.8874 23.6579 11.7125 23.6791 11.5386C23.6791 11.3457 24.0165 11.201 24.0165 11.201H25.3178L26.3299 11.394L26.4263 11.2493L25.9925 10.8152L25.3178 10.3812C25.1843 10.3046 25.0368 10.2554 24.884 10.2365C24.6903 10.2031 24.4912 10.2197 24.3057 10.2847L23.6792 10.767C23.462 10.9521 23.2678 11.1626 23.1008 11.394C22.92 11.5848 22.7878 11.8164 22.7153 12.0691C22.6682 12.2428 22.6682 12.4259 22.7153 12.5996C22.8527 12.853 23.0319 13.0813 23.2454 13.2748L23.7756 13.6606L24.1611 13.8535L23.5828 14.384C23.4142 14.5026 23.2674 14.6494 23.149 14.8181L22.9562 15.011H23.9201L24.0647 14.9145C24.2637 14.7846 24.4733 14.6717 24.6912 14.577L25.8961 14.0947L26.6672 13.8535L27.342 12.6479L26.3299 12.889Z" fill="black"/>
      <path fill-rule="evenodd" clip-rule="evenodd" d="M12.5103 26.135H17.8117V24.9776H13.5706V22.2768H17.0888V21.2158H13.5706V18.5151H17.8117V17.4541H12.5103V26.135Z" fill="black"/>
      </svg>
      