<svg xmlns="http://www.w3.org/2000/svg" width="32" height="32" viewBox="0 0 32 32" fill="none">
      <mask id="path-1-inside-1_1469_2086" fill="white">
      <path d="M10 12V7.55556C10 6.08213 10.6321 4.66905 11.7574 3.62718C12.8826 2.58532 14.4087 2 16 2C17.5913 2 19.1174 2.58532 20.2426 3.62718C21.3679 4.66905 22 6.08213 22 7.55556V12"/>
      </mask>
      <path d="M8.5 12V13.5H11.5V12H8.5ZM10 7.55556H8.5H10ZM20.5 12V13.5H23.5V12H20.5ZM11.5 12V7.55556H8.5V12H11.5ZM11.5 7.55556C11.5 6.51884 11.9437 5.49888 12.7765 4.72783L10.7382 2.52654C9.32055 3.83923 8.5 5.64543 8.5 7.55556H11.5ZM12.7765 4.72783C13.6131 3.95317 14.7709 3.5 16 3.5L16 0.5C14.0465 0.5 12.1521 1.21746 10.7382 2.52654L12.7765 4.72783ZM16 3.5C17.2291 3.5 18.3869 3.95317 19.2235 4.72783L21.2618 2.52654C19.8479 1.21746 17.9535 0.5 16 0.5V3.5ZM19.2235 4.72783C20.0563 5.49888 20.5 6.51884 20.5 7.55556H23.5C23.5 5.64543 22.6795 3.83923 21.2618 2.52654L19.2235 4.72783ZM20.5 7.55556V12H23.5V7.55556H20.5Z" fill="black" mask="url(#path-1-inside-1_1469_2086)"/>
      <path fill-rule="evenodd" clip-rule="evenodd" d="M4 9.25H3.25V10V27.5V28.25H4H28H28.75V27.5V26.75H27.25H21H4.75V10.75H27.25V22.75H28.75V10V9.25H28H4Z" fill="black"/>
      <circle cx="22.5" cy="9.5" r="7.5" fill="#E31E26"/>
      </svg>