<svg width="24" height="24" viewBox="0 0 32 32" fill="none" xmlns="http://www.w3.org/2000/svg"><path d="M4.88086 22.3494V13.4108C4.92141 7.72799 9.54023 3.14248 15.2238 3.14258H16.923C19.6398 3.14249 22.2443 4.22666 24.1584 6.15448C26.0726 8.0823 27.138 10.6943 27.1183 13.4108V20.2071" stroke="black"/><path fill-rule="evenodd" clip-rule="evenodd" d="M3.18206 22.3496H28.8179C29.4708 22.3496 30 22.8788 30 23.5316V24.1225C30 24.7753 29.4708 25.3045 28.8179 25.3045H3.18206C2.52923 25.3045 2 24.7753 2 24.1225V23.5316C2 22.8788 2.52923 22.3496 3.18207 22.3496H3.18206Z" stroke="black"/><path d="M20.3221 25.4512C20.2818 27.8294 18.3421 29.7361 15.9633 29.7358C14.8141 29.7556 13.7052 29.3129 12.8855 28.5073C12.0659 27.7016 11.6043 26.6004 11.6045 25.4512" stroke="black"/><path d="M16.0371 3.21617V1" stroke="black"/></svg>