<svg viewBox="0 0 72 72" fill="none" xmlns="http://www.w3.org/2000/svg">
      <path d="M35.4376 32.632L15.2402 23.6553L34.3156 15.8008L55.635 24.7774L35.4376 32.632Z" fill="#D1D1D1" stroke="black" stroke-linecap="round"/>
      <path d="M7.14019 27.2567L15.2413 23.6562L35.4387 32.6329L24.6216 36.9597C24.3641 37.0627 24.0754 37.0541 23.8245 36.936L7.12053 29.0754C6.34575 28.7108 6.35771 27.6045 7.14019 27.2567Z" stroke="black" stroke-linecap="round"/>
      <path d="M8.39871 20.1159L16.3624 23.6554L34.3156 15.8008L25.7461 11.516C25.4875 11.3867 25.1855 11.3757 24.9181 11.4858L8.42409 18.2775C7.6107 18.6124 7.59487 19.7587 8.39871 20.1159Z" stroke="black" stroke-linecap="round"/>
      <path d="M45.1541 11.465L34.3145 15.8008L55.6339 24.7774L64.5928 21.1939C65.4229 20.8619 65.4334 19.6907 64.6095 19.3438L45.9136 11.4718C45.6712 11.3697 45.3983 11.3673 45.1541 11.465Z" stroke="black" stroke-linecap="round"/>
      <path d="M46.2637 38.044L35.4395 32.6319L55.6369 24.7773L64.84 29.3789C65.6158 29.7668 65.5636 30.891 64.7552 31.2053L47.0734 38.0816C46.8103 38.1839 46.5162 38.1703 46.2637 38.044Z" stroke="black" stroke-linecap="round"/>
      <path d="M15.2402 33.7539V49.967C15.2402 50.3458 15.4542 50.6921 15.793 50.8615L35.0593 60.4946C35.3012 60.6155 35.5817 60.6334 35.8369 60.544L57.2095 53.0636C57.6106 52.9232 57.8792 52.5447 57.8792 52.1198V34.876" stroke="black" stroke-linecap="round"/>
      <path d="M42.1719 51.711L52.2706 47.2227" stroke="black" stroke-linecap="round"/>
      <path d="M35.4395 60.6837V42.7305" stroke="black" stroke-linecap="round"/>
      </svg>
      