<svg width="17" height="16" viewBox="0 0 17 16" fill="none" xmlns="http://www.w3.org/2000/svg">
      <path fill-rule="evenodd" clip-rule="evenodd" d="M16.2546 0.285156L16.2205 7.53959C16.2195 7.74669 16.0509 7.9138 15.8438 7.91282C15.6367 7.91185 15.4696 7.74317 15.4705 7.53607L15.4985 1.57152L7.24173 9.82832C7.12382 9.94623 6.90952 9.9231 6.76307 9.77665C6.61662 9.6302 6.59349 9.4159 6.7114 9.29799L14.968 1.04138L9.19746 1.06926C8.99035 1.07026 8.82165 0.90318 8.82065 0.696076C8.81965 0.488971 8.98673 0.320269 9.19383 0.319268L16.2546 0.285156ZM9.71056 3.6141H0.745117V15.9141H12.9082V6.7744C12.9082 6.5673 12.7403 6.3994 12.5332 6.3994C12.3261 6.3994 12.1582 6.5673 12.1582 6.7744V15.1641H1.49512V4.3641H9.71056C9.91767 4.3641 10.0856 4.19621 10.0856 3.9891C10.0856 3.782 9.91767 3.6141 9.71056 3.6141Z" fill="white"/>
      </svg>
      