<svg width="72" height="72" viewBox="0 0 72 72" fill="none" xmlns="http://www.w3.org/2000/svg">
      <g opacity="0.2">
      <path d="M43.633 61.4737H7.72461C7.17232 61.4737 6.72461 61.026 6.72461 60.4737V17.1836M6.72461 17.1836H51.245C51.7973 17.1836 52.245 17.6313 52.245 18.1836V60.2435L63.9192 55.5738C64.2988 55.4219 64.5478 55.0542 64.5478 54.6453V12.0322C64.5478 11.4799 64.1001 11.0322 63.5478 11.0322H18.0563C17.8863 11.0322 17.7192 11.0755 17.5706 11.1581L6.72461 17.1836Z" stroke="black"/>
      <path d="M63.3167 12.2617L52.2441 18.4131" stroke="black"/>
      <path d="M23.9492 17.1836L35.0217 11.0322H47.3245L33.7915 18.4139V28.2562L31.3309 27.0259L28.8703 28.2562L26.4098 27.0259L23.9492 28.2562V17.1836Z" fill="#D1D1D1" stroke="black"/>
      <path d="M11.6455 50.4014H16.5666" stroke="black"/>
      <path d="M11.6455 55.3232H21.4878" stroke="black"/>
      </g>
      </svg>
      