<svg width="32" height="32" viewBox="0 0 64 64" fill="none" xmlns="http://www.w3.org/2000/svg">
    <path d="M48.6763 52.4945C37.6949 61.4426 21.6275 60.215 12.133 49.7025C2.63843 39.1899 3.04797 23.0809 13.0644 13.0644C23.0809 3.04797 39.1899 2.63843 49.7024 12.133C60.215 21.6275 61.4426 37.6949 52.4945 48.6763" stroke="black" stroke-linejoin="bevel"/>
    <path d="M33.5144 44.8204H18.0938C17.5415 44.8204 17.0938 44.3727 17.0938 43.8204V25.1157M17.0938 25.1157H36.3458C36.8981 25.1157 37.3458 25.5634 37.3458 26.1157V44.2731L42.1908 42.3351C42.5704 42.1832 42.8194 41.8155 42.8194 41.4066V23.3789C42.8194 22.8266 42.3717 22.3789 41.8194 22.3789H22.2791C22.1091 22.3789 21.942 22.4222 21.7934 22.5047L17.0938 25.1157Z" stroke="black"/>
    <path d="M42.2719 22.9258L37.3457 25.6626" stroke="black"/>
    <path d="M29.682 22.3789L24.7559 25.1157V30.0419L25.8506 29.4945L26.9453 30.0419L28.04 29.4945L29.1347 30.0419V25.663L35.1556 22.3789" stroke="black"/>
    <path d="M19.2832 39.8945H21.4726" stroke="black"/>
    <path d="M19.2832 42.084H23.662" stroke="black"/>
    <circle cx="39" cy="26" r="7.5" fill="white" stroke="black"/>
    <path d="M36 29L42 23" stroke="black"/>
    <path d="M42 29L36 23" stroke="black"/>
    <defs>
    <clipPath id="clip0">
    <rect width="31" height="27.3677" fill="white" transform="translate(16 18)"/>
    </clipPath>
    </defs>
    </svg>
    
      