<svg width="24" height="24" viewBox="0 0 24 24" fill="none" xmlns="http://www.w3.org/2000/svg">
      <path d="M7.625 9.5V5.20313C7.625 2.74373 9.61873 0.75 12.0781 0.75V0.75C14.5375 0.75 16.5313 2.74373 16.5313 5.20313V9.5" stroke="black" stroke-width="0.772095" stroke-linecap="round"/>
      <path d="M3.53125 20.25H20.0312" stroke="black" stroke-width="0.772095" stroke-linecap="round" stroke-linejoin="round"/>
      <path fill-rule="evenodd" clip-rule="evenodd" d="M13.8971 5.20898H2.60268C1.39713 5.20899 0.486565 6.30183 0.704135 7.48758L3.26246 21.4304C3.4306 22.3468 4.22932 23.0123 5.16101 23.0123L18.2494 23.0123H18.8377C19.7694 23.0123 20.5681 22.3468 20.7363 21.4304L23.2946 7.48758C23.5122 6.30182 22.6016 5.20898 21.3961 5.20898H15.4413V5.98108L21.3961 5.98108C22.1194 5.98108 22.6657 6.63678 22.5352 7.34824L19.9769 21.2911C19.876 21.8409 19.3967 22.2402 18.8377 22.2402H18.2494L5.16101 22.2402C4.602 22.2402 4.12276 21.8409 4.02188 21.2911L1.46355 7.34824C1.33301 6.63679 1.87935 5.98108 2.60268 5.98108L13.8971 5.98108V5.20898Z" fill="black"/>
      </svg>
      