<svg width="32" height="32" viewBox="0 0 16 16" fill="none">
      <path fill-rule="evenodd" clip-rule="evenodd" d="M5.74131 4.56543H7.58262C8.45427 4.56543 9.16088 5.27204 9.16088 6.14369C9.16088 7.01534 8.45427 7.72195 7.58262 7.72195H6.00436V9.56326C6.00436 9.70853 5.88659 9.8263 5.74131 9.8263C5.59604 9.8263 5.47827 9.70853 5.47827 9.56326V4.82847C5.47827 4.6832 5.59604 4.56543 5.74131 4.56543ZM6.00433 7.19585H7.58259C8.16369 7.19585 8.63476 6.72477 8.63476 6.14367C8.63476 5.56257 8.16369 5.0915 7.58259 5.0915H6.00433V7.19585Z" fill="black"/>
      <path fill-rule="evenodd" clip-rule="evenodd" d="M1 7.00024C1 3.68654 3.68629 1.00024 7 1.00024C8.5913 1.00024 10.1174 1.63239 11.2426 2.7576C12.3679 3.88282 13 5.40895 13 7.00024C13 8.53695 12.4223 9.93873 11.4722 11.0002H12.7453C13.5362 9.86641 14 8.48749 14 7.00024C14 5.14373 13.2625 3.36325 11.9497 2.0505C10.637 0.737742 8.85651 0.000244141 7 0.000244141C3.13401 0.000244141 0 3.13425 0 7.00024C0 10.8662 3.13401 14.0002 7 14.0002C8.63503 14.0002 10.1391 13.4397 11.3306 12.5002H10V12.1975C9.11748 12.7081 8.09286 13.0002 7 13.0002C3.68629 13.0002 1 10.314 1 7.00024Z" fill="black"/>
      </svg>
      