<svg width="38" height="38" viewBox="0 0 38 38" fill="none" xmlns="http://www.w3.org/2000/svg">
      <path fill-rule="evenodd" clip-rule="evenodd" d="M2 35.5683C2 35.8061 2.16382 36 2.36471 36L4.84004 35.9996C5.04129 35.9996 5.20476 35.8057 5.20476 35.5679C5.20476 35.3297 5.04129 35.1362 4.84004 35.1362H2.72943V2.86333H35.2706V34.7188H33.16C32.9591 34.7188 32.7952 34.9123 32.7952 35.1505C32.7952 35.3882 32.9591 35.5821 33.16 35.5821L35.6353 35.5825C35.8365 35.5825 36 35.3886 36 35.1509V2.43167C36 2.19389 35.8365 2 35.6353 2H2.36471C2.16382 2 2 2.19389 2 2.43167V35.5683ZM28.9232 16.506L31.3985 16.5064C31.5708 16.5064 31.7103 16.3405 31.7103 16.137V13.5048C31.7103 13.3013 31.5708 13.1363 31.3985 13.1363H14.3689C14.1966 13.1363 14.0571 13.3013 14.0571 13.5048V16.1366C14.0571 16.3405 14.1966 16.506 14.3689 16.506L27.4361 16.5056C27.6084 16.5056 27.7478 16.3405 27.7478 16.1362C27.7478 15.9327 27.608 15.7672 27.4361 15.7672H14.6806V13.8738H31.0868V15.7676H28.9232C28.7512 15.7676 28.6114 15.9331 28.6114 16.1366C28.6114 16.3405 28.7512 16.506 28.9232 16.506ZM25.4434 31.2806V25.5369C25.4434 25.0651 24.8203 25.0676 24.8203 25.5369V31.2806C24.8203 31.7498 25.4434 31.7523 25.4434 31.2806ZM23.9012 31.2685V25.5248C23.9012 25.053 23.2781 25.0555 23.2781 25.5248V31.2685C23.2781 31.7378 23.9012 31.7403 23.9012 31.2685ZM22.4692 31.2685V25.5248C22.4692 25.053 21.8461 25.0555 21.8461 25.5248V31.2685C21.8461 31.7378 22.4692 31.7403 22.4692 31.2685ZM20.932 31.2806V25.5369C20.932 25.0651 20.3092 25.0676 20.3092 25.5369V31.2806C20.3092 31.7498 20.932 31.7523 20.932 31.2806ZM28.9232 25.2703L31.3985 25.2707C31.5708 25.2707 31.7103 25.1052 31.7103 24.9013V20.1802C31.7103 19.9767 31.5708 19.8112 31.3985 19.8112H14.3689C14.1966 19.8112 14.0571 19.9767 14.0571 20.1802V24.9009C14.0571 25.1052 14.1966 25.2703 14.3689 25.2703L16.8442 25.2699C17.0165 25.2699 17.1559 25.1048 17.1559 24.9005C17.1559 24.697 17.0161 24.5319 16.8442 24.5319H14.6806V20.5487H31.0868V24.5323H28.9232C28.7512 24.5323 28.6114 24.6974 28.6114 24.9009C28.6114 25.1052 28.7512 25.2703 28.9232 25.2703ZM27.3973 22.9101V32.3374C26.3399 32.5033 25.5077 33.4886 25.3675 34.7398H20.2771C20.1376 33.4886 19.3047 32.5033 18.2477 32.3374V22.9101H27.3973ZM17.6238 22.9101V32.3466C17.6238 32.7122 17.8537 33.0198 18.1601 33.0653C18.9383 33.1836 19.5621 33.9215 19.662 34.8425C19.7009 35.2052 19.9607 35.4777 20.2697 35.4777H25.3753C25.6842 35.4777 25.9437 35.2057 25.9829 34.8425C26.0829 33.9215 26.7064 33.1836 27.4845 33.0653C27.7899 33.0198 28.0208 32.7114 28.0208 32.3466V22.9101H29.509C29.6809 22.9101 29.8207 22.745 29.8207 22.5411C29.8207 22.3372 29.6809 22.1721 29.509 22.1721H16.1356C15.963 22.1721 15.8235 22.3372 15.8235 22.5411C15.8235 22.745 15.9633 22.9101 16.1356 22.9101H17.6238ZM9.12287 7.69848H6.99531V11.0561H9.12287C9.90632 11.0561 10.5411 10.3044 10.5411 9.3775C10.5411 8.45024 9.90632 7.69848 9.12287 7.69848ZM6.99521 11.8951V14.8328C6.99521 15.0647 6.83633 15.2528 6.64074 15.2528C6.44478 15.2528 6.28591 15.0647 6.28591 14.8328V7.27887C6.28591 7.04695 6.44478 6.85891 6.64074 6.85891H9.12277C10.2978 6.85891 11.2503 7.98634 11.2503 9.37744C11.2503 10.7681 10.2978 11.8951 9.12277 11.8951H6.99521Z" fill="black"/>
      </svg>