<svg width="64" height="64" viewBox="0 0 32 32" fill="none" xmlns="http://www.w3.org/2000/svg">
      <path fill-rule="evenodd" clip-rule="evenodd" d="M6.74156 5.56543H8.58286C9.45451 5.56543 10.1611 6.27204 10.1611 7.14369C10.1611 8.01534 9.45451 8.72195 8.58286 8.72195H7.0046V10.5633C7.0046 10.7085 6.88683 10.8263 6.74156 10.8263C6.59628 10.8263 6.47852 10.7085 6.47852 10.5633V5.82847C6.47852 5.6832 6.59628 5.56543 6.74156 5.56543ZM7.00457 8.19585H8.58283C9.16393 8.19585 9.635 7.72477 9.635 7.14367C9.635 6.56257 9.16393 6.0915 8.58283 6.0915H7.00457V8.19585Z" fill="white"/>
      <path d="M7.0046 8.72195V8.59695H6.8796V8.72195H7.0046ZM7.00457 8.19585H6.87957V8.32085H7.00457V8.19585ZM7.00457 6.0915V5.9665H6.87957V6.0915H7.00457ZM8.58286 5.44043H6.74156V5.69043H8.58286V5.44043ZM10.2861 7.14369C10.2861 6.20301 9.52355 5.44043 8.58286 5.44043V5.69043C9.38548 5.69043 10.0361 6.34108 10.0361 7.14369H10.2861ZM8.58286 8.84695C9.52355 8.84695 10.2861 8.08438 10.2861 7.14369H10.0361C10.0361 7.9463 9.38548 8.59695 8.58286 8.59695V8.84695ZM7.0046 8.84695H8.58286V8.59695H7.0046V8.84695ZM7.1296 10.5633V8.72195H6.8796V10.5633H7.1296ZM6.74156 10.9513C6.95587 10.9513 7.1296 10.7776 7.1296 10.5633H6.8796C6.8796 10.6395 6.8178 10.7013 6.74156 10.7013V10.9513ZM6.35352 10.5633C6.35352 10.7776 6.52725 10.9513 6.74156 10.9513V10.7013C6.66532 10.7013 6.60352 10.6395 6.60352 10.5633H6.35352ZM6.35352 5.82847V10.5633H6.60352V5.82847H6.35352ZM6.74156 5.44043C6.52725 5.44043 6.35352 5.61416 6.35352 5.82847H6.60352C6.60352 5.75223 6.66532 5.69043 6.74156 5.69043V5.44043ZM8.58283 8.07085H7.00457V8.32085H8.58283V8.07085ZM9.51 7.14367C9.51 7.65574 9.09489 8.07085 8.58283 8.07085V8.32085C9.23297 8.32085 9.76 7.79381 9.76 7.14367H9.51ZM8.58283 6.2165C9.09489 6.2165 9.51 6.63161 9.51 7.14367H9.76C9.76 6.49354 9.23297 5.9665 8.58283 5.9665V6.2165ZM7.00457 6.2165H8.58283V5.9665H7.00457V6.2165ZM7.12957 8.19585V6.0915H6.87957V8.19585H7.12957Z" fill="white"/>
      <path fill-rule="evenodd" clip-rule="evenodd" d="M1 8C1 4.13401 4.13401 1 8 1H8.00014C9.8566 1.00004 11.637 1.73753 12.9497 3.05025C14.2625 4.36301 15 6.14348 15 8V8.00012C15 9.48732 14.5362 10.8662 13.7453 12H13.08C13.9645 10.8813 14.5009 9.48366 14.5009 8.00012V8C14.5009 6.25095 13.7552 4.62133 12.5726 3.42738C11.385 2.22836 9.75663 1.4687 8.00014 1.4687H8C4.49451 1.46878 1.46879 4.49451 1.46872 8V8.00012C1.46872 11.5057 4.49447 14.5315 8 14.5315H8.00014C9.24556 14.5315 10.4266 14.1496 11.4317 13.5H12.3306C11.1392 14.4394 9.63511 15 8.00014 15H8C4.13405 15 1.00007 11.8661 1 8.00012V8Z" fill="white"/>
      <path d="M8.00014 1L8.00014 0.875H8.00014V1ZM12.9497 3.05025L13.0381 2.96186L12.9497 3.05025ZM15 8.00012L15.125 8.00013V8.00012H15ZM13.7453 12V12.125H13.8105L13.8478 12.0715L13.7453 12ZM13.08 12L12.9819 11.9225L12.8218 12.125H13.08V12ZM14.5009 8H14.6259V8L14.5009 8ZM12.5726 3.42738L12.4838 3.51535L12.5726 3.42738ZM8 1.4687V1.3437H8L8 1.4687ZM1.46872 8L1.34372 8V8H1.46872ZM8 14.5315L8 14.6565H8V14.5315ZM11.4317 13.5V13.375H11.3948L11.3639 13.395L11.4317 13.5ZM12.3306 13.5L12.408 13.5982L12.691 13.375H12.3306V13.5ZM8.00014 15V15.125H8.00014L8.00014 15ZM1 8.00012H0.875V8.00013L1 8.00012ZM8 0.875C4.06497 0.875 0.875 4.06497 0.875 8H1.125C1.125 4.20304 4.20304 1.125 8 1.125V0.875ZM8.00014 0.875H8V1.125H8.00014V0.875ZM13.0381 2.96186C11.702 1.6257 9.88976 0.875037 8.00014 0.875L8.00013 1.125C9.82345 1.12504 11.5721 1.84936 12.8614 3.13864L13.0381 2.96186ZM15.125 8C15.125 6.11033 14.3743 4.29806 13.0381 2.96186L12.8614 3.13864C14.1507 4.42795 14.875 6.17664 14.875 8H15.125ZM15.125 8.00012V8H14.875V8.00012H15.125ZM13.8478 12.0715C14.6528 10.9174 15.125 9.51372 15.125 8.00013L14.875 8.00012C14.875 9.46093 14.4195 10.815 13.6428 11.9285L13.8478 12.0715ZM13.08 12.125H13.7453V11.875H13.08V12.125ZM14.3759 8.00012C14.3759 9.45321 13.8505 10.8239 12.9819 11.9225L13.178 12.0775C14.0785 10.9386 14.6259 9.51411 14.6259 8.00012H14.3759ZM14.3759 8V8.00012H14.6259V8H14.3759ZM12.4838 3.51535C13.6454 4.68808 14.3759 6.28685 14.3759 8L14.6259 8C14.6259 6.21505 13.8651 4.55459 12.6614 3.33942L12.4838 3.51535ZM8.00014 1.5937C9.72008 1.5937 11.3173 2.33765 12.4838 3.51535L12.6614 3.33942C11.4527 2.11906 9.79318 1.3437 8.00014 1.3437V1.5937ZM8 1.5937H8.00014V1.3437H8V1.5937ZM1.59372 8C1.59379 4.56354 4.56354 1.59378 8 1.5937L8 1.3437C4.42547 1.34379 1.34379 4.42547 1.34372 8L1.59372 8ZM1.59372 8.00012V8H1.34372V8.00012H1.59372ZM8 14.4065C4.5635 14.4065 1.59372 11.4366 1.59372 8.00012H1.34372C1.34372 11.5747 4.42543 14.6565 8 14.6565L8 14.4065ZM8.00014 14.4065H8V14.6565H8.00014V14.4065ZM11.3639 13.395C10.3774 14.0326 9.2197 14.4065 8.00014 14.4065V14.6565C9.27141 14.6565 10.4757 14.2667 11.4996 13.605L11.3639 13.395ZM12.3306 13.375H11.4317V13.625H12.3306V13.375ZM8.00014 15.125C9.66418 15.125 11.1953 14.5543 12.408 13.5982L12.2532 13.4018C11.083 14.3245 9.60604 14.875 8.00013 14.875L8.00014 15.125ZM8 15.125H8.00014V14.875H8V15.125ZM0.875 8.00013C0.875068 11.9351 4.06501 15.125 8 15.125V14.875C4.20308 14.875 1.12507 11.797 1.125 8.00012L0.875 8.00013ZM0.875 8V8.00012H1.125V8H0.875Z" fill="white"/>
      </svg>
      