<svg width="32" height="32" viewBox="0 0 32 32" fill="none" xmlns="http://www.w3.org/2000/svg">
    <path fill-rule="evenodd" clip-rule="evenodd" d="M7.29074 29H7.29053C6.67465 29.0001 6.08467 28.7522 5.65378 28.3121C5.22289 27.8721 4.98742 27.277 5.00052 26.6613L5.00075 26.6506V26.64L5.00075 5.43L5.00075 5.42908C4.99956 4.13141 6.01832 3.0628 7.31266 3H25.8297C27.148 3.03186 28.201 4.10997 28.2007 5.42977V5.42997V13H29.2007V5.42997C29.2011 3.56265 27.7077 2.03809 25.8407 2H7.29047C5.45103 2.0753 3.99907 3.58929 4.00075 5.43V26.64C3.98192 27.5246 4.32022 28.3795 4.93927 29.0117C5.55831 29.644 6.40592 30.0002 7.29074 30H20.8007L25.2007 30C27.4099 30 29.2007 28.2091 29.2007 26V17H28.2007V26C28.2007 27.6568 26.8576 29 25.2007 29L20.8007 29H7.29074Z" fill="black"/>
    <path fill-rule="evenodd" clip-rule="evenodd" d="M23.4668 18.7189C22.7831 18.7189 21.702 18.4635 20.5387 17.9092C20.9216 17.878 21.2874 17.8622 21.6346 17.8622C23.3781 17.8622 23.8814 18.2552 23.994 18.3758C24.0714 18.458 24.0792 18.524 24.0761 18.5885C24.0583 18.6161 23.9042 18.7189 23.4668 18.7189ZM17.8323 17.377C17.2005 17.513 16.5629 17.6786 15.9265 17.8716C14.9967 18.1527 14.0591 18.4895 13.1599 18.8628L13.1885 18.8102L13.1521 18.8276C13.5183 18.1048 13.8907 17.3264 14.2655 16.4997C14.6363 15.682 14.9828 14.849 15.2878 14.0421L15.3002 14.0701L15.3196 14.0128C15.606 14.5671 15.9207 15.0969 16.261 15.5959C16.681 16.2122 17.233 16.8021 17.8849 17.3363L17.7928 17.3509L17.8323 17.377ZM14.9144 7.63667C15.0062 7.49355 15.1169 7.43227 15.2849 7.43227C15.439 7.43227 15.5071 7.48445 15.5613 7.56234C15.8315 7.95019 15.8497 9.14736 15.209 11.3744C14.6164 9.56051 14.5865 8.14946 14.9144 7.63667ZM8.6649 23.4255C8.62077 23.4255 8.57006 23.416 8.49961 23.3436C8.42412 23.2665 8.41677 23.2096 8.42915 23.1361C8.50541 22.6956 9.2955 21.912 10.8834 21.0054C9.46118 23.2926 8.79884 23.4255 8.6649 23.4255ZM21.6368 16.9231C20.8862 16.9231 20.057 16.9923 19.169 17.1287C18.2705 16.523 17.5288 15.8101 17.0163 15.0581C16.5347 14.3524 16.1077 13.5807 15.7446 12.7611C16.7275 9.81957 16.9191 7.88782 16.3133 7.01763C16.0737 6.67405 15.7183 6.49219 15.2859 6.49219C14.8032 6.49219 14.4083 6.71003 14.1443 7.12279C13.3608 8.34763 13.9697 10.9052 14.7556 12.8006C14.3894 13.8566 13.9326 14.9945 13.429 16.1043C12.8615 17.356 12.2998 18.4942 11.7598 19.4902C10.2168 20.2358 7.75631 21.6224 7.52289 22.9717C7.45553 23.3628 7.56818 23.721 7.84922 24.008C8.07838 24.242 8.36058 24.3658 8.66562 24.3658C9.29351 24.3658 10.3635 23.9313 12.4186 20.2141C13.6028 19.6594 14.9023 19.1624 16.1871 18.7734C17.1212 18.4911 18.0557 18.2689 18.9688 18.1135C20.4743 19.0576 22.2236 19.6618 23.4689 19.6618C24.8463 19.6618 24.9883 18.8659 24.9992 18.6223C25.0143 18.2883 24.8978 17.9795 24.6624 17.7276C24.163 17.1939 23.1449 16.9231 21.6368 16.9231Z" fill="black"/>
    </svg>
    