<svg width="32" height="32" viewBox="0 0 64 64" fill="none" xmlns="http://www.w3.org/2000/svg">
    <path d="M48.6753 52.4945C37.6939 61.4426 21.6265 60.215 12.132 49.7025C2.63746 39.1899 3.04699 23.0809 13.0635 13.0644C23.0799 3.04797 39.1889 2.63843 49.7014 12.133C60.214 21.6275 61.4416 37.6949 52.4935 48.6763" stroke="black" stroke-linejoin="bevel"/>
    <path fill-rule="evenodd" clip-rule="evenodd" d="M23.2907 45H23.2905C22.6746 45.0001 22.0847 44.7522 21.6538 44.3121C21.2229 43.8721 20.9874 43.277 21.0005 42.6613L21.0007 42.6506V42.64L21.0007 21.43L21.0007 21.4291C20.9996 20.1314 22.0183 19.0628 23.3127 19H41.8297C43.148 19.0319 44.201 20.11 44.2007 21.4298V21.43V29H45.2007V21.43C45.2011 19.5627 43.7077 18.0381 41.8407 18H23.2905C21.451 18.0753 19.9991 19.5893 20.0007 21.43V42.64C19.9819 43.5246 20.3202 44.3795 20.9393 45.0117C21.5583 45.644 22.4059 46.0002 23.2907 46H36.8007L41.2007 46C43.4099 46 45.2007 44.2091 45.2007 42V33H44.2007V42C44.2007 43.6568 42.8576 45 41.2007 45L36.8007 45H23.2907Z" fill="black"/>
    <path fill-rule="evenodd" clip-rule="evenodd" d="M39.4668 34.7189C38.7831 34.7189 37.702 34.4635 36.5387 33.9092C36.9216 33.878 37.2874 33.8622 37.6346 33.8622C39.3781 33.8622 39.8814 34.2552 39.994 34.3758C40.0714 34.458 40.0792 34.524 40.0761 34.5885C40.0583 34.6161 39.9042 34.7189 39.4668 34.7189ZM33.8323 33.377C33.2005 33.513 32.5629 33.6786 31.9265 33.8716C30.9967 34.1527 30.0591 34.4895 29.1599 34.8628L29.1885 34.8102L29.1521 34.8276C29.5183 34.1048 29.8907 33.3264 30.2655 32.4997C30.6363 31.682 30.9828 30.849 31.2878 30.0421L31.3002 30.0701L31.3196 30.0128C31.606 30.5671 31.9207 31.0969 32.261 31.5959C32.681 32.2122 33.233 32.8021 33.8849 33.3363L33.7928 33.3509L33.8323 33.377ZM30.9144 23.6367C31.0062 23.4935 31.1169 23.4323 31.2849 23.4323C31.439 23.4323 31.5071 23.4845 31.5613 23.5623C31.8315 23.9502 31.8497 25.1474 31.209 27.3744C30.6164 25.5605 30.5865 24.1495 30.9144 23.6367ZM24.6649 39.4255C24.6208 39.4255 24.5701 39.416 24.4996 39.3436C24.4241 39.2665 24.4168 39.2096 24.4292 39.1361C24.5054 38.6956 25.2955 37.912 26.8834 37.0054C25.4612 39.2926 24.7988 39.4255 24.6649 39.4255ZM37.6368 32.9231C36.8862 32.9231 36.057 32.9923 35.169 33.1287C34.2705 32.523 33.5288 31.8101 33.0163 31.0581C32.5347 30.3524 32.1077 29.5807 31.7446 28.7611C32.7275 25.8196 32.9191 23.8878 32.3133 23.0176C32.0737 22.6741 31.7183 22.4922 31.2859 22.4922C30.8032 22.4922 30.4083 22.71 30.1443 23.1228C29.3608 24.3476 29.9697 26.9052 30.7556 28.8006C30.3894 29.8566 29.9326 30.9945 29.429 32.1043C28.8615 33.356 28.2998 34.4942 27.7598 35.4902C26.2168 36.2358 23.7563 37.6224 23.5229 38.9717C23.4555 39.3628 23.5682 39.721 23.8492 40.008C24.0784 40.242 24.3606 40.3658 24.6656 40.3658C25.2935 40.3658 26.3635 39.9313 28.4186 36.2141C29.6028 35.6594 30.9023 35.1624 32.1871 34.7734C33.1212 34.4911 34.0557 34.2689 34.9688 34.1135C36.4743 35.0576 38.2236 35.6618 39.4689 35.6618C40.8463 35.6618 40.9883 34.8659 40.9992 34.6223C41.0143 34.2883 40.8978 33.9795 40.6624 33.7276C40.163 33.1939 39.1449 32.9231 37.6368 32.9231Z" fill="black"/>
    </svg>
    