<svg width="21" height="20" viewBox="0 0 21 20" fill="none" xmlns="http://www.w3.org/2000/svg">
      <path d="M20.362 16.1474L15.6266 11.4455C15.2583 11.1061 14.685 11.1061 14.3167 11.4455L11.8986 13.8212C11.6971 13.9697 10.2866 13.5243 8.67449 11.891C7.06242 10.2577 6.55863 8.92135 6.70977 8.72338L9.12788 6.34769C9.29172 6.17228 9.38174 5.94234 9.37977 5.70427C9.37405 5.48238 9.28422 5.27058 9.12788 5.11035L5.19845 1.24985C4.84711 0.916716 4.29036 0.916716 3.93902 1.24985L1.9743 3.1801C1.01713 4.12048 1.01713 5.80326 1.92392 7.93148C3.0249 10.256 4.56321 12.3551 6.45789 14.1182C9.58129 17.1868 13.1581 19.1665 15.5762 19.1665C16.3168 19.2209 17.0469 18.9698 17.5913 18.4736L18.6996 17.1868" stroke="black"/>
      </svg>
      