<svg width="19" height="22" viewBox="0 0 19 22" fill="none">
    <path d="M18.1829 18.6943L14.3229 13.2507C14.0182 12.8532 13.4534 12.755 13.0325 13.0264L10.2431 14.9527C10.0192 15.0645 8.70573 14.384 7.39729 12.4987C6.08884 10.6134 5.82142 9.21049 6.00424 9.04133L8.79358 7.115C8.98505 6.97024 9.11312 6.75912 9.15196 6.52424C9.18434 6.30465 9.13212 6.08059 9.00554 5.89594L5.79553 1.41938C5.50645 1.03098 4.95792 0.935606 4.55471 1.20363L2.28837 2.76878C1.18426 3.53129 0.895989 5.18919 1.42479 7.4413C2.11129 9.92006 3.26728 12.2516 4.83192 14.3132C7.38348 17.8715 10.5683 20.4347 12.9506 20.849C13.6709 21.0294 14.4333 20.9071 15.0546 20.5115L16.367 19.4336" stroke="black"/>
    </svg>