<svg width="
    " height="16" viewBox="0 0 16 16" fill="none">
    <path d="M5.78125 7.80001C6.29576 8.86251 7.15492 9.71947 8.21875 10.2313C8.29722 10.2684 8.38402 10.2845 8.47059 10.2779C8.55717 10.2713 8.64054 10.2423 8.7125 10.1938L10.275 9.15C10.344 9.10318 10.4238 9.07461 10.5069 9.06696C10.5899 9.05931 10.6736 9.07283 10.75 9.10626L13.675 10.3625C13.775 10.4041 13.8585 10.4774 13.9127 10.5712C13.9669 10.6649 13.9888 10.7739 13.975 10.8813C13.8823 11.6048 13.5291 12.2699 12.9815 12.7519C12.4339 13.2339 11.7295 13.4998 11 13.5C8.74566 13.5 6.58365 12.6045 4.98959 11.0104C3.39553 9.41635 2.5 7.25435 2.5 5.00001C2.50016 4.2705 2.76613 3.56606 3.24814 3.01848C3.73015 2.4709 4.39516 2.11771 5.11875 2.02501C5.22615 2.01121 5.33511 2.0331 5.42884 2.08731C5.52258 2.14152 5.59589 2.22504 5.6375 2.32501L6.89375 5.25626C6.92642 5.33147 6.94009 5.41357 6.93355 5.49531C6.92701 5.57706 6.90046 5.65594 6.85625 5.72501L5.8125 7.31251C5.76603 7.38431 5.73876 7.46683 5.73329 7.55218C5.72782 7.63753 5.74433 7.72286 5.78125 7.80001V7.80001Z" stroke="#646464" stroke-linecap="round"/>
    <path d="M10.5 3H13V5.5" stroke="#646464" stroke-linecap="square"/>
    <path d="M9.64645 5.64645L9.29289 6L10 6.70711L10.3536 6.35355L9.64645 5.64645ZM13.3536 3.35355C13.5488 3.15829 13.5488 2.84171 13.3536 2.64645C13.1583 2.45118 12.8417 2.45118 12.6464 2.64645L13.3536 3.35355ZM10.3536 6.35355L13.3536 3.35355L12.6464 2.64645L9.64645 5.64645L10.3536 6.35355Z" fill="#646464"/>
    </svg>