<svg viewBox="0 0 22.7 18.9" xmlns="http://www.w3.org/2000/svg">
      <path class="st0" d="M4.7,0C4.4,0,4.2,0.1,4,0.2L0.3,2.2L0,2.4v0.3v14.7c0,0.8,0.7,1.5,1.5,1.5h12.1v-1H1.5c-0.3,0-0.5-0.2-0.5-0.5
        V3.2h14.6c0.3,0,0.5,0.2,0.5,0.5v1.2l1-0.2v-1c0-0.8-0.7-1.5-1.5-1.5H2.4l2-1.1C4.5,1,4.6,1,4.7,1H20c0.3,0,0.5,0.2,0.5,0.5v2.4
        l1-0.2V1.5C21.5,0.7,20.8,0,20,0H4.7z M21.5,15.1l-1,0.3v0.1c0,0.2-0.1,0.4-0.3,0.5l-3,1.2v-0.9l-1,0.3v1.3v0.7l0.7-0.3l3.7-1.5
        c0.6-0.2,0.9-0.8,0.9-1.4V15.1z"/>
    <path class="st1" d="M20.5,0.9l-3.9,2.2"/>
    <path class="st1" d="M10.5,0.5L6.6,2.7v3.9l0.9-0.4l0.9,0.4l0.9-0.4l0.9,0.4V3.1l4.8-2.6"/>
    <path class="st1" d="M2.2,14.4H4"/>
    <path class="st1" d="M2.2,16.2h3.5"/>
    <path class="st1" d="M14.1,7.5l0.8-0.9c0.2-0.2,0.4-0.1,0.4,0l0.3,0.2L16,7.2c0.2-0.1,0.4-0.2,0.7-0.3L16.8,6c0-0.2,0.1-0.3,0.3-0.3
        h1.2c0.2,0,0.3,0.1,0.3,0.3l0.1,0.9c0.2,0.1,0.4,0.2,0.7,0.3L20,6.6c0.1-0.1,0.3-0.1,0.4,0l0.9,0.9c0.1,0.1,0.1,0.1,0.1,0.2
        c0,0.1,0,0.1-0.1,0.2l-0.6,0.7C20.9,8.8,21,9,21,9.3l0.9,0.1c0.2,0,0.3,0.1,0.3,0.3v0.9v0.4c0,0.1-0.1,0.2-0.3,0.3L21,11.2
        c-0.1,0.2-0.2,0.4-0.3,0.7l0.6,0.7c0.1,0.1,0.1,0.3,0,0.4l-0.9,0.9c-0.1,0.1-0.3,0.1-0.4,0l-0.7-0.6c-0.2,0.1-0.4,0.2-0.7,0.3
        l-0.1,0.9c0,0.2-0.1,0.3-0.3,0.3h-1.2c-0.2,0-0.3-0.1-0.3-0.3l-0.1-0.9c-0.2-0.1-0.4-0.2-0.7-0.3l-0.7,0.6c-0.1,0.1-0.3,0.1-0.4,0
        L14.1,13c-0.1-0.1-0.1-0.3,0-0.4l0.6-0.7c-0.1-0.2-0.2-0.4-0.3-0.7l-0.9-0.1c-0.2,0-0.3-0.1-0.3-0.3V9.7c0-0.2,0.1-0.3,0.3-0.3
        l0.9-0.1c0.1-0.2,0.2-0.4,0.3-0.7l-0.6-0.7C14,7.8,14,7.6,14.1,7.5z"/>
    <path class="st1" d="M16.6,10.2c0-0.6,0.5-1.1,1.1-1.1c0.6,0,1.1,0.5,1.1,1.1c0,0.6-0.5,1.1-1.1,1.1C17.1,11.3,16.6,10.8,16.6,10.2z
        "/>
      </svg>