<svg width="30" height="30" viewBox="0 0 30 30" fill="none" xmlns="http://www.w3.org/2000/svg">
      <path d="M28.5999 18.2199C28.8614 17.1571 29 16.0463 29 14.9034C29 7.21829 22.732 0.988281 15 0.988281C7.26801 0.988281 1 7.21829 1 14.9034C1 22.5885 7.26801 28.8185 15 28.8185C19.2688 28.8185 23.0914 26.9195 25.6593 23.9251C25.6593 23.9251 26.0346 23.4497 26.3506 22.9743C26.4697 22.7951 26.6314 22.5579 26.801 22.3027" stroke="black" stroke-linecap="round" stroke-linejoin="round"/>
      <path d="M15.0013 19.5412C18.223 19.5412 20.8346 16.9454 20.8346 13.7433C20.8346 10.5411 18.223 7.94531 15.0013 7.94531C11.7796 7.94531 9.16797 10.5411 9.16797 13.7433C9.16797 16.9454 11.7796 19.5412 15.0013 19.5412Z" fill="#D1D1D1" stroke="black" stroke-linecap="round" stroke-linejoin="round"/>
      <path d="M5.63672 25.2502C6.51552 23.5329 7.85531 22.0907 9.50775 21.0834C11.1602 20.0761 13.0609 19.543 14.9993 19.543C16.9378 19.543 18.8384 20.0761 20.4909 21.0834C22.1433 22.0907 23.4831 23.5328 24.3619 25.2502" stroke="black" stroke-linecap="round" stroke-linejoin="round"/>
      </svg>
      