<svg width="32" height="32" viewBox="0 0 32 32" fill="none" xmlns="http://www.w3.org/2000/svg">
      <g clip-path="url(#clip0)">
      <path d="M28.3783 26H3.32391C2.50678 26 1.75389 26.443 1.35705 27.1573C0.52389 28.657 1.60832 30.5 3.32391 30.5H28.3783C29.914 30.5 30.9985 28.9954 30.5128 27.5385C30.2066 26.6197 29.3468 26 28.3783 26Z" fill="#D1D1D1"/>
      <path d="M7.66667 7.46094H6.83308C5.86773 7.46094 5.04014 8.15049 4.86592 9.09999L1.4332 27.8083C1.20777 29.0369 2.15124 30.1693 3.40036 30.1693H28.5996C29.8488 30.1693 30.7922 29.0369 30.5668 27.8083L27.1341 9.09999C26.9599 8.15049 26.1323 7.46094 25.1669 7.46094H22.0417" stroke="black" stroke-linecap="round"/>
      <path d="M19.1263 7.46094H10.168" stroke="black" stroke-linecap="round"/>
      <path d="M10.168 12.6667V6.9375C10.168 3.65831 12.8263 1 16.1055 1V1C19.3847 1 22.043 3.65831 22.043 6.9375V12.6667" stroke="black" stroke-linecap="round"/>
      <circle cx="10.1667" cy="12.8776" r="1.66667" stroke="black" stroke-linecap="round"/>
      <circle cx="21.8346" cy="12.8776" r="1.66667" stroke="black" stroke-linecap="round"/>
      <path d="M12.25 26.3125L30.0625 26.3125" stroke="black" stroke-linecap="round"/>
      </g>
      <defs>
      <clipPath id="clip0">
      <rect width="32" height="32" fill="white"/>
      </clipPath>
      </defs>
      </svg>
      