<svg width="24" height="24" viewBox="0 0 32 32" fill="none" xmlns="http://www.w3.org/2000/svg"><path d="M8.54689 24.127H8.54692H23.3593H23.3593C23.6067 24.127 23.8439 24.0287 24.0188 23.8538C24.1937 23.6789 24.292 23.4417 24.292 23.1943V8.29009C24.292 8.29007 24.292 8.29005 24.292 8.29004C24.2919 7.77499 23.8744 7.35748 23.3593 7.35742L8.54689 24.127ZM8.54689 24.127C8.29954 24.127 8.06232 24.0287 7.88741 23.8538C7.71251 23.6789 7.61425 23.4417 7.61426 23.1944V8.29009C7.61426 8.29007 7.61426 8.29005 7.61426 8.29004M8.54689 24.127L7.61426 8.29004M7.61426 8.29004C7.61435 7.77498 8.03187 7.35748 8.54692 7.35742L7.61426 8.29004ZM23.3599 7.69076H23.3593L8.54692 7.69076L8.54632 7.69076C8.21594 7.69115 7.94817 7.95879 7.94759 8.28916V8.29004L7.94759 23.1943L7.94759 23.1952C7.94817 23.5256 8.21594 23.7932 8.54632 23.7936H8.54692H23.3593H23.3599C23.6903 23.7932 23.958 23.5256 23.9586 23.1952V23.1943V8.29004V8.28913C23.958 7.9588 23.6903 7.69118 23.3599 7.69076ZM8.54696 7.35742H23.3593H8.54696Z" fill="black" stroke="black"/><path d="M19.5372 11.6693H19.5381C19.869 11.6699 20.1368 11.9385 20.1365 12.2693M19.5372 11.6693L19.6365 12.2689M19.5372 11.6693L12.3135 11.6693L12.3126 11.6693C11.9818 11.6699 11.7141 11.9382 11.7142 12.2689H12.2142M19.5372 11.6693L12.3135 12.1693M20.1365 12.2693L19.6365 12.2689M20.1365 12.2693V12.2689H19.6365M20.1365 12.2693V19.5449V19.5458C20.1359 19.8762 19.8681 20.1438 19.5378 20.1442H19.5372H12.3135H12.3129C11.9825 20.1438 11.7148 19.8762 11.7142 19.5458L11.7142 19.5449L11.7142 12.269C11.7142 12.2691 11.7142 12.2692 11.7142 12.2693L12.2142 12.2689M19.6365 12.2689V19.5449C19.6364 19.5997 19.592 19.6441 19.5372 19.6442H12.3135C12.2587 19.6441 12.2143 19.5997 12.2142 19.5449V12.2689M12.2142 12.2689C12.2141 12.214 12.2586 12.1694 12.3135 12.1693M12.3135 12.1693H19.5372H12.3135ZM11.3809 12.2688V12.2689V19.5449C11.3809 19.5449 11.3809 19.5449 11.3809 19.5449C11.3809 20.06 11.7985 20.4775 12.3135 20.4775L11.3809 12.2688ZM11.3809 12.2688C11.3808 11.7537 11.7984 11.336 12.3135 11.3359C12.3135 11.3359 12.3136 11.3359 12.3136 11.3359M11.3809 12.2688L12.3136 11.3359M20.4698 12.2689V12.2688C20.4699 11.7537 20.0523 11.336 19.5372 11.3359L20.4698 12.2689ZM20.4698 12.2689V19.5449C20.4698 19.5449 20.4698 19.5449 20.4698 19.5449C20.4697 20.06 20.0522 20.4775 19.5372 20.4775C19.5371 20.4775 19.5371 20.4775 19.5371 20.4775M20.4698 12.2689L19.5371 20.4775M12.3136 11.3359H19.5371H12.3136ZM19.5371 20.4775H12.3136H19.5371Z" fill="black" stroke="black"/><path d="M24.3428 2H30.0001V7.29" stroke="black" stroke-linecap="round" stroke-linejoin="round"/><path d="M7.65733 2H2V7.29" stroke="black" stroke-linecap="round" stroke-linejoin="round"/><path d="M7.65733 30.0009H2V24.7109" stroke="black" stroke-linecap="round" stroke-linejoin="round"/><path d="M24.3428 30.0009H30.0001V24.7109" stroke="black" stroke-linecap="round" stroke-linejoin="round"/></svg>