<svg width="24" height="24" viewBox="0 0 32 32" fill="none" xmlns="http://www.w3.org/2000/svg"><path d="M13.6267 21.5639C17.8879 21.5639 21.3422 18.1096 21.3422 13.8484C21.3422 9.58718 17.8879 6.13281 13.6267 6.13281C9.3655 6.13281 5.91113 9.58718 5.91113 13.8484C5.91113 18.1096 9.3655 21.5639 13.6267 21.5639Z" stroke="black"/><path d="M3.67116 22.2153C1.68544 19.8443 0.605097 16.8458 0.622272 13.7531C0.651163 7.6355 4.88252 2.3405 10.8432 0.963039C16.8038 -0.414422 22.9293 2.48721 25.6394 7.97191C28.3495 13.4566 26.9329 20.0849 22.2176 23.9827C17.5023 27.8804 10.7258 28.0246 5.84894 24.3309" stroke="black"/></svg>