<svg width="22" height="22" viewBox="0 0 22 22" fill="none" xmlns="http://www.w3.org/2000/svg">
      <path d="M10.7164 16.5929C13.9122 16.5929 16.503 14.0021 16.503 10.8062C16.503 7.61031 13.9122 5.01953 10.7164 5.01953C7.52047 5.01953 4.92969 7.61031 4.92969 10.8062C4.92969 14.0021 7.52047 16.5929 10.7164 16.5929Z" fill="#14C17B"/>
      <path d="M10.7164 16.5929C13.9122 16.5929 16.503 14.0021 16.503 10.8062C16.503 7.61031 13.9122 5.01953 10.7164 5.01953C7.52047 5.01953 4.92969 7.61031 4.92969 10.8062C4.92969 14.0021 7.52047 16.5929 10.7164 16.5929Z" stroke="#00603C"/>
      <path d="M3.25166 17.0809C1.76237 15.3027 0.952114 13.0538 0.964995 10.7343C0.986664 6.14606 4.16018 2.17481 8.63066 1.14171C13.1011 0.108617 17.6953 2.28484 19.7279 6.39836C21.7604 10.5119 20.698 15.4831 17.1615 18.4064C13.625 21.3297 8.54263 21.4379 4.885 18.6676" stroke="#00784B"/>
      </svg>
      