<svg viewBox="0 0 22 19" fill="none" xmlns="http://www.w3.org/2000/svg">
      <path d="M12.5 18.375H2.25C1.69772 18.375 1.25 17.9273 1.25 17.375V4.875M1.25 4.875H14.125C14.6773 4.875 15.125 5.32272 15.125 5.875V18L18.2464 16.7514C18.626 16.5996 18.875 16.2319 18.875 15.823V4C18.875 3.44772 18.4273 3 17.875 3H4.88413C4.71418 3 4.54704 3.04331 4.39848 3.12584L1.25 4.875Z" stroke="black"/>
      <path d="M18.5 3.375L15.125 5.25" stroke="black"/>
      <path d="M9.875 3L6.5 4.875V8.25L7.25 7.875L8 8.25L8.75 7.875L9.5 8.25V5.25L13.625 3" stroke="black"/>
      <path d="M2.75 15H4.25" stroke="black"/>
      <path d="M2.75 16.5H5.75" stroke="black"/>
      <path d="M21 4.875C21 7.29125 19.0412 9.25 16.625 9.25C14.2088 9.25 12.25 7.29125 12.25 4.875C12.25 2.45875 14.2088 0.5 16.625 0.5C19.0412 0.5 21 2.45875 21 4.875Z" fill="white" stroke="black"/>
      <path d="M19 3C19 2.72386 18.7761 2.5 18.5 2.5H14C13.7239 2.5 13.5 2.72386 13.5 3C13.5 3.27614 13.7239 3.5 14 3.5H18V7.5C18 7.77614 18.2239 8 18.5 8C18.7761 8 19 7.77614 19 7.5V3ZM15.1036 7.10355L18.8536 3.35355L18.1464 2.64645L14.3964 6.39645L15.1036 7.10355Z" fill="black"/>
      </svg>