<svg viewBox="0 0 24 22" fill="none" xmlns="http://www.w3.org/2000/svg">
      <g clip-path="url(#clip0)">
      <path d="M13.1368 20.6163H1.82129C1.269 20.6163 0.821289 20.1686 0.821289 19.6163V5.83773M0.821289 5.83773H15.0104C15.5627 5.83773 16.0104 6.28545 16.0104 6.83773V20.2058L19.4869 18.8152C19.8666 18.6633 20.1155 18.2956 20.1155 17.8867V4.78516C20.1155 4.23287 19.6678 3.78516 19.1155 3.78516H4.77506C4.60511 3.78516 4.43797 3.82847 4.28941 3.911L0.821289 5.83773Z" stroke="black"/>
      <path d="M19.7054 4.19531L16.0107 6.24789" stroke="black"/>
      <path d="M10.263 3.78516L6.56836 5.83773V9.53237L7.38939 9.12186L8.21042 9.53237L9.03145 9.12186L9.85248 9.53237V6.24825L14.3682 3.78516" stroke="black"/>
      <path d="M2.46289 16.9219H4.10495" stroke="black"/>
      <path d="M2.46289 18.5625H5.74702" stroke="black"/>
      <path d="M22.75 6.5C22.75 9.53757 20.2876 12 17.25 12C14.2124 12 11.75 9.53757 11.75 6.5C11.75 3.46243 14.2124 1 17.25 1C20.2876 1 22.75 3.46243 22.75 6.5Z" fill="white" stroke="black"/>
      <path d="M15.0002 5.74375L19.0298 5.74375C19.1765 5.73242 19.3213 5.78298 19.4292 5.8832C19.537 5.98342 19.5981 6.12419 19.5977 6.27148V8.20073" stroke="black" stroke-linecap="round"/>
      <path fill-rule="evenodd" clip-rule="evenodd" d="M16.7273 3.5213C16.532 3.32612 16.2154 3.32625 16.0202 3.52159L14.3586 5.1846C14.2096 5.33191 14.1257 5.53277 14.1257 5.74236C14.1257 5.95194 14.2095 6.15279 14.3585 6.3001L16.1824 8.1255C16.3776 8.32084 16.6942 8.32098 16.8895 8.1258C17.0849 7.93061 17.085 7.61403 16.8898 7.41869L15.2149 5.74236L16.7276 4.22841C16.9228 4.03306 16.9226 3.71648 16.7273 3.5213Z" fill="black"/>
      </g>
      <defs>
      <clipPath id="clip0">
      <rect width="23.25" height="20.5258" fill="white" transform="translate(0 0.5)"/>
      </clipPath>
      </defs>
      </svg>
      