<svg xmlns="http://www.w3.org/2000/svg" width="40" height="40" viewBox="0 0 40 40" fill="none">
    <g clip-path="url(#clip0_2766_39666)">
    <path fill-rule="evenodd" clip-rule="evenodd" d="M7.86012 14.2515C7.6052 14.2515 7.35449 14.3164 7.13165 14.4402L2.22416 17.1666L1.96698 17.3095V17.6037V36.5693C1.96698 37.3977 2.63855 38.0693 3.46698 38.0693H20.7212V37.0693H3.46698C3.19084 37.0693 2.96698 36.8454 2.96698 36.5693V18.1037H22.5735C22.8496 18.1037 23.0735 18.3276 23.0735 18.6037V26.5446L24.0735 26.0446V18.6037C24.0735 17.7753 23.4019 17.1037 22.5735 17.1037H4.39654L7.6173 15.3144C7.69157 15.2731 7.77515 15.2515 7.86012 15.2515H28.2779C28.5541 15.2515 28.7779 15.4753 28.7779 15.7515V23.6924L29.7779 23.1924V15.7515C29.7779 14.923 29.1064 14.2515 28.2779 14.2515H7.86012ZM29.7779 30.951L28.7779 31.451V34.6105C28.7779 34.8149 28.6535 34.9988 28.4636 35.0747L24.0735 36.8308V33.8032L23.0735 34.3032V37.5693V38.3078L23.7592 38.0335L28.835 36.0032C29.4045 35.7754 29.7779 35.2238 29.7779 34.6105V30.951Z" fill="black"/>
    <path d="M9.31232 17.6037L14.4463 14.7515H20.1508L13.8759 18.1741V22.7377L12.735 22.1673L11.5941 22.7377L10.4532 22.1673L9.31232 22.7377V17.6037Z" stroke="black"/>
    <path d="M28.1371 14.7515L23.0031 17.6037" stroke="black"/>
    <path d="M25.9503 6.42236L25.9635 5.92236H25.9503V6.42236ZM13.7085 6.06881C13.5132 6.26407 13.5132 6.58065 13.7085 6.77592L16.8905 9.9579C17.0857 10.1532 17.4023 10.1532 17.5976 9.9579C17.7928 9.76263 17.7928 9.44605 17.5976 9.25079L14.7691 6.42236L17.5976 3.59394C17.7928 3.39867 17.7928 3.08209 17.5976 2.88683C17.4023 2.69157 17.0857 2.69157 16.8905 2.88683L13.7085 6.06881ZM12.8879 28.3414C12.6118 28.3414 12.3879 28.5653 12.3879 28.8414C12.3879 29.1176 12.6118 29.3414 12.8879 29.3414V28.3414ZM25.9267 28.8414V29.3414H25.9277L25.9267 28.8414ZM36.9922 17.7575L37.4922 17.7576V17.7574L36.9922 17.7575ZM25.9503 5.92236H14.062V6.92236H25.9503V5.92236ZM12.8879 29.3414H25.9267V28.3414H12.8879V29.3414ZM25.9277 29.3414C32.317 29.3291 37.4905 24.147 37.4922 17.7576L36.4922 17.7574C36.4907 23.5953 31.7637 28.3302 25.9258 28.3414L25.9277 29.3414ZM37.4922 17.7574C37.4909 11.3403 32.3784 6.09196 25.9635 5.92254L25.9371 6.92219C31.8102 7.0773 36.4911 11.8824 36.4922 17.7576L37.4922 17.7574Z" fill="black"/>
    </g>
    <defs>
    <clipPath id="clip0_2766_39666">
    <rect width="37.5" height="37.5" fill="white" transform="translate(1.25 1.25)"/>
    </clipPath>
    </defs>
    </svg>