<svg viewBox="0 0 24 24" fill="none" xmlns="http://www.w3.org/2000/svg">
      <path d="M18.75 9.75004L21.438 9.75004C21.6103 9.75004 21.75 9.95272 21.75 10.2027L21.75 22.5H2.25V10.2027C2.25 9.95269 2.38969 9.75003 2.562 9.75003L5.625 9.75003" stroke="black"/>
      <path d="M18 20.625V12H13.8161L12.023 13.8811L10.2299 12H6V22.125" stroke="black"/>
      <path d="M18.252 9.79498C18.2769 10.07 18.52 10.2728 18.795 10.248C19.07 10.2231 19.2728 9.98005 19.248 9.70502L18.252 9.79498ZM5.74797 9.79497C6.03023 6.66968 8.73326 4.25 12 4.25V3.25C8.24079 3.25 5.08304 6.0399 4.75203 9.70503L5.74797 9.79497ZM12 4.25C15.2667 4.25 17.9698 6.66968 18.252 9.79498L19.248 9.70502C18.9169 6.0399 15.7592 3.25 12 3.25V4.25Z" fill="black"/>
      <path d="M2.25 10.5C2.69292 4.98278 6.9257 0.75 12 0.75C17.0743 0.75 21.3071 4.98278 21.75 10.5" stroke="black"/>
      </svg>
      