<svg viewBox="0 0 24 24" fill="none" xmlns="http://www.w3.org/2000/svg">
      <g clip-path="url(#clip0)">
      <path fill-rule="evenodd" clip-rule="evenodd" d="M4.82 8.35156C4.56509 8.35156 4.31437 8.41653 4.09154 8.54033L1.23765 10.1258L0.980469 10.2687V10.5629V21.5423C0.980469 22.3707 1.65204 23.0423 2.48047 23.0423H12.433V22.0423H2.48047C2.20433 22.0423 1.98047 21.8184 1.98047 21.5423V11.0629H13.1444C13.4205 11.0629 13.6444 11.2868 13.6444 11.5629V16.0275L14.6444 15.5275V11.5629C14.6444 10.7345 13.9728 10.0629 13.1444 10.0629H3.41003L4.57718 9.41448C4.65146 9.37322 4.73503 9.35156 4.82 9.35156H16.567C16.8432 9.35156 17.067 9.57542 17.067 9.85156V14.3161L18.067 13.8161V9.85156C18.067 9.02313 17.3955 8.35156 16.567 8.35156H4.82ZM18.067 18.4713L17.067 18.9713V20.4962C17.067 20.7006 16.9426 20.8845 16.7527 20.9604L14.6444 21.8037V20.1826L13.6444 20.6826V22.5423V23.2808L14.3301 23.0065L17.1241 21.8889C17.6936 21.6611 18.067 21.1095 18.067 20.4962V18.4713Z" fill="black"/>
      <path d="M5.58789 10.5629L8.6683 8.85156H12.091L8.32603 10.9052V13.6433L7.64149 13.301L6.95696 13.6433L6.27243 13.301L5.58789 13.6433V10.5629Z" stroke="black"/>
      <path d="M16.8831 8.85156L13.8027 10.5629" stroke="black"/>
      <path d="M15.5698 3.85156L15.583 3.35156H15.5698V3.85156ZM8.08332 3.49801C7.88806 3.69327 7.88806 4.00985 8.08332 4.20512L11.2653 7.3871C11.4606 7.58236 11.7771 7.58236 11.9724 7.3871C12.1677 7.19183 12.1677 6.87525 11.9724 6.67999L9.14398 3.85156L11.9724 1.02314C12.1677 0.827873 12.1677 0.511291 11.9724 0.316029C11.7771 0.120766 11.4606 0.120766 11.2653 0.316029L8.08332 3.49801ZM7.73242 16.803C7.45628 16.803 7.23242 17.0269 7.23242 17.303C7.23242 17.5791 7.45628 17.803 7.73242 17.803V16.803ZM15.5557 17.303L15.5557 17.803L15.5567 17.803L15.5557 17.303ZM22.195 10.6527L22.695 10.6528L22.695 10.6526L22.195 10.6527ZM15.5698 3.35156H8.43687V4.35156H15.5698V3.35156ZM7.73242 17.803H15.5557V16.803H7.73242V17.803ZM15.5567 17.803C19.5005 17.7954 22.6939 14.5967 22.695 10.6528L21.695 10.6525C21.6941 14.045 18.9472 16.7965 15.5547 16.803L15.5567 17.803ZM22.695 10.6526C22.6942 6.69391 19.5403 3.45625 15.583 3.35174L15.5566 4.35139C18.9722 4.4416 21.6943 7.23603 21.695 10.6528L22.695 10.6526Z" fill="black"/>
      </g>
      <defs>
      <clipPath id="clip0">
      <rect width="22.5" height="22.5" fill="white" transform="translate(0.75 0.75)"/>
      </clipPath>
      </defs>
      </svg>
      