<svg version="1.1" id="Layer_1" xmlns="http://www.w3.org/2000/svg" xmlns:xlink="http://www.w3.org/1999/xlink" x="0px" y="0px"
      viewBox="0 0 20 20" style="enable-background:new 0 0 20 20;" xml:space="preserve">
    <style type="text/css">
     .st0{fill:none;stroke:#000000;stroke-linecap:round;stroke-linejoin:round;}
     .st1{fill:none;stroke:#FFFFFF;stroke-width:2;stroke-linecap:square;stroke-linejoin:round;}
    </style>
    <path class="st0" d="M6.2,7.8H2.5V4"/>
    <path class="st0" d="M5.1,14.9c1,1,2.2,1.6,3.5,1.9s2.7,0.1,4-0.4c1.3-0.5,2.3-1.4,3.1-2.5c0.8-1.1,1.2-2.5,1.2-3.8
     c0-1.4-0.4-2.7-1.2-3.8c-0.8-1.1-1.8-2-3.1-2.5C11.4,3.1,10,3,8.7,3.3S6.1,4.2,5.1,5.1L2.5,7.8"/>
    <path class="st1" d="M11,16.5c1,0-0.5,0.5,0.5,0"/>
    </svg>
    