<svg width="24" height="24" viewBox="0 0 24 24" fill="none" xmlns="http://www.w3.org/2000/svg">
    <g clip-path="url(#clip0)">
    <path d="M13.1368 21.6163H1.82129C1.269 21.6163 0.821289 21.1686 0.821289 20.6163V6.83773M0.821289 6.83773H15.0104C15.5627 6.83773 16.0104 7.28545 16.0104 7.83773V21.2058L19.4869 19.8152C19.8666 19.6633 20.1155 19.2956 20.1155 18.8867V5.78516C20.1155 5.23287 19.6678 4.78516 19.1155 4.78516H4.77506C4.60511 4.78516 4.43797 4.82847 4.28941 4.911L0.821289 6.83773Z" stroke="black"/>
    <path d="M19.7054 5.19531L16.0107 7.24789" stroke="black"/>
    <path d="M10.263 4.78516L6.56836 6.83773V10.5324L7.38939 10.1219L8.21042 10.5324L9.03145 10.1219L9.85248 10.5324V7.24825L14.3682 4.78516" stroke="black"/>
    <path d="M2.46289 17.9219H4.10495" stroke="black"/>
    <path d="M2.46289 19.5625H5.74702" stroke="black"/>
    <path d="M22.75 7.5C22.75 10.5376 20.2876 13 17.25 13C14.2124 13 11.75 10.5376 11.75 7.5C11.75 4.46243 14.2124 2 17.25 2C20.2876 2 22.75 4.46243 22.75 7.5Z" fill="white" stroke="black"/>
    <path d="M15.0002 6.74375L19.0298 6.74375C19.1765 6.73242 19.3213 6.78298 19.4292 6.8832C19.537 6.98342 19.5981 7.12419 19.5977 7.27148V9.20073" stroke="black" stroke-linecap="round"/>
    <path fill-rule="evenodd" clip-rule="evenodd" d="M16.7273 4.5213C16.532 4.32612 16.2154 4.32625 16.0202 4.52159L14.3586 6.1846C14.2096 6.33191 14.1257 6.53277 14.1257 6.74236C14.1257 6.95194 14.2095 7.15279 14.3585 7.3001L16.1824 9.1255C16.3776 9.32084 16.6942 9.32098 16.8895 9.1258C17.0849 8.93061 17.085 8.61403 16.8898 8.41869L15.2149 6.74236L16.7276 5.22841C16.9228 5.03306 16.9226 4.71648 16.7273 4.5213Z" fill="black"/>
    </g>
    <defs>
    <clipPath id="clip0">
    <rect width="23.25" height="20.5258" fill="white" transform="translate(0 1.5)"/>
    </clipPath>
    </defs>
    </svg>
    