<svg width="24" height="24" viewBox="0 0 32 32" fill="none" xmlns="http://www.w3.org/2000/svg"><path fill-rule="evenodd" clip-rule="evenodd" d="M22.8538 2.34954L22.4945 1.99023L22.1411 2.35529L9.84734 15.0523L2.66157 22.4738L2.31934 22.8272L2.66723 23.1751L8.82692 29.3348L9.18047 29.6884L9.53403 29.3349L29.333 9.53582L29.6866 9.18227L29.333 8.82872L22.8538 2.34954ZM17.3985 8.69106L19.6544 6.36116L22.1467 8.85352L22.8538 8.14641L20.3538 5.64641L20.1202 5.88005L22.506 3.41595L28.2723 9.18227L9.18047 28.2742L3.72223 22.8159L6.37221 20.079L8.14672 21.8535L8.85383 21.1464L7.06791 19.3605L10.2123 16.113L13.1467 19.0474L13.8538 18.3403L10.908 15.3944L13.5052 12.712L15.6467 14.8535L16.3538 14.1464L14.2009 11.9935L16.7028 9.40957L19.6467 12.3535L20.3538 11.6464L17.3985 8.69106Z" fill="black"/></svg>