<svg width="32" height="32" viewBox="0 0 32 32" fill="none" xmlns="http://www.w3.org/2000/svg">
      <path fill-rule="evenodd" clip-rule="evenodd" d="M5.75 15.6667C5.75 10.1898 10.1898 5.75 15.6667 5.75C21.1435 5.75 25.5833 10.1898 25.5833 15.6667C25.5833 16.6072 25.4524 17.5172 25.2078 18.3793L26.3986 19.5702C26.8417 18.3523 27.0833 17.0377 27.0833 15.6667C27.0833 9.36142 21.9719 4.25 15.6667 4.25C9.36142 4.25 4.25 9.36142 4.25 15.6667C4.25 21.9719 9.36142 27.0833 15.6667 27.0833C18.5494 27.0833 21.1826 26.0149 23.1918 24.2525L28.4697 29.5303L29 30.0607L30.0607 29L29.5303 28.4697L24.2525 23.1918C24.2585 23.185 24.2645 23.1781 24.2705 23.1713L23.1919 22.1254C23.0571 22.2823 22.9175 22.4349 22.7732 22.5831C22.7368 22.6084 22.7021 22.6372 22.6697 22.6697C22.6372 22.7021 22.6084 22.7368 22.5831 22.7732C20.7966 24.5122 18.3567 25.5833 15.6667 25.5833C10.1898 25.5833 5.75 21.1435 5.75 15.6667Z" fill="white"/>
      </svg>
      