<svg width="24" height="24" viewBox="0 0 32 32" fill="none" xmlns="http://www.w3.org/2000/svg"><path fill-rule="evenodd" clip-rule="evenodd" d="M7.12347 18.1679C6.92522 17.3762 6.81581 16.5686 6.79688 15.7571V5.96036L15.1721 3.16406L23.4015 6.05204V17.0134C23.1977 22.7948 15.1721 24.2509 15.1721 24.2509C15.1721 24.2509 12.4641 23.8222 9.05918 21.5822" fill="#D1D1D1"/><path d="M18.5247 13.0162H11.15" stroke="black"/><path d="M13.1023 10.8396V15.5247" stroke="black"/><path d="M17.3093 10.8132L14.5756 15.4983" stroke="black"/><path d="M7.02442 17.9609C6.82617 17.1692 6.71676 16.3616 6.69782 15.5502V5.75337L15.0731 2.95708L23.3024 5.84505V16.8065C23.0987 22.5879 15.0731 24.0439 15.0731 24.0439C15.0731 24.0439 12.365 23.6152 8.96018 21.3752" stroke="black" stroke-linejoin="round"/><path d="M9.7179 9.17845H10.8845C11.0382 9.17845 11.1629 9.29057 11.1629 9.42888V14.146C11.1629 14.157 11.1604 14.1664 11.1606 14.1773C11.1212 14.5167 11.2475 14.8547 11.5067 15.1037C11.7659 15.3527 12.1325 15.4882 12.5114 15.475L15.3773 15.4639C15.3773 15.4639 16.0997 15.5723 16.8221 14.7054L20.1876 11.2437L20.2002 11.2316C20.2799 11.16 20.3036 11.0523 20.2606 10.9586C20.2175 10.865 20.1161 10.804 20.0035 10.804H12.2465" stroke="black" stroke-linejoin="round"/><path fill-rule="evenodd" clip-rule="evenodd" d="M16.6361 17.4734C16.6361 17.8673 16.2814 18.1865 15.8438 18.1865C15.4061 18.1865 15.0515 17.8673 15.0515 17.4734C15.0515 17.0796 15.4061 16.7603 15.8438 16.7603C16.0542 16.7594 16.2563 16.8342 16.4051 16.9682C16.5539 17.1021 16.6371 17.284 16.6361 17.4734Z" stroke="black" stroke-linejoin="round"/><path fill-rule="evenodd" clip-rule="evenodd" d="M13.1569 17.5327C13.1569 17.9266 12.8021 18.2459 12.3646 18.2459C11.927 18.2459 11.5722 17.9266 11.5722 17.5327C11.5722 17.1389 11.927 16.8196 12.3646 16.8196C12.575 16.8188 12.7771 16.8936 12.9259 17.0275C13.0748 17.1615 13.1579 17.3433 13.1569 17.5327Z" stroke="black" stroke-linejoin="round"/></svg>