<svg width="24" height="24" viewBox="0 0 32 32" fill="none" xmlns="http://www.w3.org/2000/svg"><path fill-rule="evenodd" clip-rule="evenodd" d="M7.59837 21.5324C7.38691 20.594 7.2702 19.6368 7.25 18.6751V7.06413L16.1836 3.75L24.9616 7.17278V20.1641C24.7442 27.0161 16.1836 28.7418 16.1836 28.7418C16.1836 28.7418 13.295 28.2337 9.66316 25.5789" fill="#D1D1D1"/><path d="M19.7599 15.4258H11.8936" stroke="black"/><path d="M13.9756 12.8477V18.4004" stroke="black"/><path d="M18.4633 12.8145L15.5474 18.3672" stroke="black"/><path d="M7.4929 21.2863C7.28144 20.3479 7.16473 19.3907 7.14453 18.429V6.81803L16.0781 3.50391L24.8561 6.92669V19.918C24.6388 26.77 16.0781 28.4957 16.0781 28.4957C16.0781 28.4957 13.1896 27.9876 9.55769 25.3328" stroke="black" stroke-linejoin="round"/><path d="M10.3657 10.877H11.6101C11.7741 10.877 11.907 11.0099 11.907 11.1738V16.7644C11.907 16.7774 11.9044 16.7886 11.9046 16.8015C11.8626 17.2038 11.9973 17.6044 12.2738 17.8996C12.5503 18.1947 12.9413 18.3552 13.3454 18.3395L16.4023 18.3264C16.4023 18.3264 17.173 18.4549 17.9436 17.4273L21.5334 13.3248L21.5469 13.3103C21.6318 13.2254 21.6572 13.0978 21.6112 12.9868C21.5653 12.8759 21.4571 12.8036 21.337 12.8036H13.0629" stroke="black" stroke-linejoin="round"/><path fill-rule="evenodd" clip-rule="evenodd" d="M17.745 20.7084C17.745 21.1752 17.3666 21.5536 16.8998 21.5536C16.4331 21.5536 16.0547 21.1752 16.0547 20.7084C16.0547 20.2417 16.4331 19.8633 16.8998 19.8633C17.1243 19.8622 17.3399 19.9509 17.4986 20.1097C17.6574 20.2684 17.7461 20.484 17.745 20.7084Z" stroke="black" stroke-linejoin="round"/><path fill-rule="evenodd" clip-rule="evenodd" d="M14.0341 20.7807C14.0341 21.2475 13.6557 21.6259 13.1889 21.6259C12.7221 21.6259 12.3438 21.2475 12.3438 20.7807C12.3438 20.3139 12.7221 19.9356 13.1889 19.9356C13.4134 19.9345 13.629 20.0232 13.7877 20.1819C13.9464 20.3407 14.0351 20.5562 14.0341 20.7807Z" stroke="black" stroke-linejoin="round"/></svg>