<svg
      width="40"
      height="50"
      viewBox="0 0 40 50"
      fill="none"
    >
      <path
        d="M19.8636 0.855296C18.875 1.1857 17.932 1.64097 17.0572 2.21021C12.1673 5.27074 9.97371 10.8955 9.75353 16.34C9.74039 16.6493 9.73382 16.957 9.73382 17.2664C9.73382 17.2962 9.73382 17.455 9.73382 17.5046V36.839H16.091V17.5013C16.0903 16.9225 16.2165 16.3506 16.4604 15.8264C16.7044 15.3023 17.0602 14.8387 17.5025 14.4689L20.0115 17.5013L22.5156 14.4689C22.9579 14.8387 23.3137 15.3023 23.5577 15.8264C23.8016 16.3506 23.9277 16.9225 23.927 17.5013V36.839H30.2859V17.5013C30.2848 15.812 29.8733 14.1486 29.0873 12.6562C28.3012 11.1637 27.1645 9.88754 25.7762 8.93889C24.3879 7.99023 22.7902 7.39791 21.1224 7.21357C19.4546 7.02923 17.7673 7.25847 16.2077 7.8813C17.5107 6.33945 19.4791 5.5768 21.63 5.53047C22.3178 5.51638 23.0054 5.5718 23.6822 5.69591C29.3115 6.624 33.6001 11.3753 33.6214 17.1109C33.6313 17.3293 33.6362 17.5493 33.6362 17.7726V36.8373H39.9901C39.9901 36.8373 40 17.7495 40 17.6055C40 9.27426 35.0279 2.59401 26.5544 0.605491C26.2455 0.536008 25.7542 0.440056 25.3155 0.37719C24.675 0.282472 24.0289 0.231071 23.3815 0.223335C22.0062 0.223335 21.0056 0.468179 19.8538 0.855296H19.8636ZM18.6313 0.00165344C7.66185 0.00165344 0 7.4462 0 17.316V36.8373H6.36543C6.36543 36.8373 6.36543 26.0956 6.36543 17.3011C6.36543 8.11952 13.2829 1.56997 20.2235 0.14889C20.5061 0.0893336 20.8363 0 20.5077 0L18.6313 0.00165344Z"
        fill="white"
      />
      <path
        d="M38.9108 44.4282C38.7143 45.673 37.8842 46.0013 37.2435 46.0013H35.3713V48.2896H39.4289V49.9142C39.4289 49.9142 37.1494 49.9046 35.1772 49.9046C33.5992 49.9046 33.3907 48.9665 33.3907 47.8931C33.3907 47.2773 33.3907 42.4622 33.3907 42.4622C33.3907 41.0712 34.1148 40.6483 34.9044 40.616C35.4201 40.5956 39.5098 40.616 39.5098 40.616C39.3133 41.8608 38.4832 42.2046 37.8425 42.2046H35.3713V44.4282H38.9108ZM6.15258 41.0736C6.15258 41.0736 5.3475 40.4746 3.34432 40.4746C0.989818 40.4746 0.0453977 42.0321 0.0704076 43.2362C0.137101 46.4817 4.59601 45.6623 4.57457 47.3479C4.56028 48.7305 1.83539 48.6287 0.015625 47.5876C0.015625 47.5876 0.43603 49.9933 3.31693 49.9933C5.22959 49.9933 6.61943 48.8827 6.61943 47.2701C6.61943 43.6351 2.01046 44.7913 2.1367 42.9762C2.2558 41.2246 5.5321 42.1771 6.15258 42.5904V41.0736ZM29.9894 43.35C29.3737 42.5916 28.4805 43.2805 28.4805 43.2805C28.4805 43.2805 29.12 42.4514 28.4316 41.8692C27.785 41.3228 26.8227 41.8308 26.8227 42.5688V45.3028C26.8227 45.3028 27.4181 45.0477 28.6365 45.0572C30.0263 45.0716 30.4813 43.949 29.9894 43.35ZM21.8302 48.6574L21.5754 47.7517H18.517L18.2621 48.6574C18.024 49.5248 17.3725 49.9945 15.829 49.9945C14.5773 49.9945 13.284 49.3248 13.278 47.838V46.0121H9.98148L9.96957 49.9526C9.96957 49.9526 8.00807 49.8843 8.00807 47.8919C7.94972 46.3703 7.99974 43.0253 7.98307 42.4598C7.98307 41.4427 6.98386 41.1419 6.15853 41.0772C6.78378 40.3931 9.95766 39.8888 9.96957 42.1675C9.98386 43.9957 9.98267 44.3432 9.98267 44.3432H13.2768C13.2768 44.3432 13.2768 42.7941 13.2613 42.3364C13.2506 41.9494 12.885 41.0593 11.6405 40.8664C11.6405 40.8664 15.2788 39.3484 15.2788 42.3484C15.2788 45.5197 15.2895 48.213 15.2871 48.3939C15.2871 48.8036 15.3765 49.1487 15.7087 49.1487C16.0053 49.1487 16.1851 48.7066 16.253 48.4562C16.3209 48.2058 17.943 43.0313 18.1585 42.4011C18.6004 41.0724 19.3268 40.5141 20.0533 40.5141C20.7798 40.5141 21.5063 41.0724 21.9481 42.4011C22.1577 43.0313 23.7798 48.2058 23.8536 48.4562C23.9275 48.7066 24.1014 49.1487 24.3979 49.1487C24.7349 49.1487 24.8231 48.7269 24.8314 48.3328C24.8397 47.9386 24.8314 43.5405 24.8314 43.0097C24.8314 41.3324 25.0493 40.4794 28.1101 40.477C29.9954 40.477 31.9771 41.3276 31.9604 43.2577C31.9402 45.6539 29.9489 46.2661 29.9489 46.2661C29.9489 46.2661 31.0541 47.9578 31.4376 48.5185C32.1343 49.544 33.5908 49.1091 33.5908 49.1091C32.6095 50.4546 30.2276 50.2173 29.3106 48.7569C29.1236 48.4562 28.0708 46.6543 27.91 46.6507C26.8274 46.6267 26.8548 47.2138 26.8548 47.8416C26.8548 48.7353 26.1903 49.9981 24.2347 49.9981C22.6937 49.9945 22.0744 49.5248 21.8302 48.6574ZM19.8175 43.1319C19.6627 43.6783 18.96 46.1774 18.96 46.1774H21.1323C21.1323 46.1774 20.4416 43.6747 20.2748 43.1319C20.1319 42.6731 19.9485 42.6731 19.8175 43.1319Z"
        fill="white"
      />
    </svg>
    