<svg width="30" height="30" viewBox="0 0 30 30" fill="none" xmlns="http://www.w3.org/2000/svg">
      <path d="M2 4.5V8V8.5H28V4.5H2Z" fill="#D1D1D1"/>
      <path d="M2.96875 5.1875H27.0312V4.1875H2.96875V5.1875ZM27.0312 5.1875C27.346 5.1875 27.625 5.45395 27.625 5.8125H28.625C28.625 4.92841 27.9246 4.1875 27.0312 4.1875V5.1875ZM27.625 24.1875C27.625 24.546 27.346 24.8125 27.0312 24.8125V25.8125C27.9246 25.8125 28.625 25.0716 28.625 24.1875H27.625ZM27.0312 24.8125H2.96875V25.8125H27.0312V24.8125ZM2.96875 24.8125C2.65401 24.8125 2.375 24.546 2.375 24.1875H1.375C1.375 25.0716 2.07536 25.8125 2.96875 25.8125V24.8125ZM2.375 24.1875V5.8125H1.375V24.1875H2.375ZM2.375 5.8125C2.375 5.45395 2.65402 5.1875 2.96875 5.1875V4.1875C2.07536 4.1875 1.375 4.92841 1.375 5.8125H2.375ZM27.625 5.8125V11.7756H28.625V5.8125H27.625ZM27.625 15.9269V24.1875H28.625V15.9269H27.625Z" fill="black"/>
      <path d="M1.875 8.4375H28.125" stroke="black" stroke-linecap="round" stroke-linejoin="round"/>
      <path d="M20.625 14.0625C20.625 15.3057 20.0324 16.498 18.9775 17.3771C17.9226 18.2561 16.4918 18.75 15 18.75C13.5082 18.75 12.0774 18.2561 11.0225 17.3771C9.96763 16.498 9.375 15.3057 9.375 14.0625" stroke="black" stroke-linecap="round" stroke-linejoin="round"/>
      </svg>
      