<svg width="32" height="32" viewBox="0 0 32 32" fill="none" xmlns="http://www.w3.org/2000/svg">
      <path d="M23.3438 22L23.7901 26.7922C23.8317 27.1717 23.6842 27.547 23.3996 27.7857C23.0921 28.0215 22.6874 28.0661 22.3398 27.9026L15.9807 24.9221L9.67736 27.9026C9.3297 28.0661 8.92504 28.0215 8.61751 27.7857C8.34055 27.5362 8.17823 27.1749 8.17126 26.7922L8.9522 19.5455L4.26655 14.1688C4.02351 13.8591 3.94021 13.4445 4.04342 13.0585C4.17076 12.6991 4.46597 12.434 4.82436 12.3571L11.6297 10.8377L15.0882 4.58442C15.2658 4.23768 15.6053 4.01535 15.9807 4C16.3699 4.0175 16.7253 4.23654 16.929 4.58442L20.3874 10.8377L27.137 12.3571C27.5062 12.4099 27.8117 12.6842 27.9179 13.0585C28.0714 13.4314 28.0063 13.8636 27.7506 14.1688L23.0649 19.5455" stroke="white" stroke-width="1.5" stroke-linejoin="round"/>
      </svg>
      