<svg width="30" height="30" viewBox="0 0 30 30" fill="none" xmlns="http://www.w3.org/2000/svg">
      <path d="M23.7208 22.125L24.2507 27.8158C24.3002 28.2664 24.125 28.712 23.787 28.9956C23.4218 29.2755 22.9413 29.3285 22.5285 29.1344L14.977 25.595L7.49186 29.1344C7.07902 29.3285 6.59849 29.2755 6.23329 28.9956C5.9044 28.6993 5.71165 28.2701 5.70337 27.8158L6.63074 19.2102L1.06653 12.8255C0.777923 12.4577 0.678995 11.9654 0.801564 11.5069C0.952783 11.0802 1.30334 10.7654 1.72893 10.6741L9.81028 8.86972L13.9172 1.44399C14.1281 1.03224 14.5313 0.768225 14.9771 0.75C15.4392 0.770777 15.8613 1.03089 16.1031 1.44399L20.2101 8.86972L28.2252 10.6741C28.6636 10.7367 29.0264 11.0625 29.1525 11.5069C29.3348 11.9498 29.2575 12.463 28.9538 12.8255L23.3896 19.2102" stroke="black" stroke-linejoin="round"/>
      </svg>