<svg width="38" height="38" viewBox="0 0 38 38" fill="none" xmlns="http://www.w3.org/2000/svg">
      <path fill-rule="evenodd" clip-rule="evenodd" d="M21.2641 3.66058C21.3782 3.56558 21.5287 3.52622 21.6747 3.55316C23.7974 3.94475 26.9624 5.09581 29.6078 7.29053C32.2664 9.49617 34.4113 12.769 34.4113 17.3647C34.4113 17.3785 34.4107 17.3922 34.4096 17.4057C34.3204 18.6901 33.8415 20.6012 32.6792 22.2063C31.4995 23.8352 29.6167 25.1419 26.7858 25.1419H26.7548H26.7237H26.6927H26.6617H26.6306H26.5996H26.5687H26.5377H26.5067H26.4757H26.4448H26.4139H26.3829H26.352H26.3211H26.2903H26.2594H26.2285H26.1977H26.1668H26.136H26.1052H26.0744H26.0436H26.0129H25.9821H25.9514H25.9206H25.8899H25.8592H25.8285H25.7979H25.7672H25.7366H25.7059H25.6753H25.6447H25.6141H25.5836H25.553H25.5225H25.492H25.4614H25.431H25.4005H25.37H25.3396H25.3091H25.2787H25.2483H25.2179H25.1876H25.1572H25.1269H25.0966H25.0663H25.036H25.0058H24.9755H24.9453H24.9151H24.8849H24.8547H24.8246H24.7944H24.7643H24.7342H24.7041H24.674H24.644H24.614H24.584H24.554H24.524H24.494H24.4641H24.4342H24.4043H24.3744H24.3446H24.3147H24.2849H24.2551H24.2254H24.1956H24.1659H24.1362H24.1065H24.0768H24.0472H24.0175H23.9879H23.9583H23.9288H23.8992H23.8697H23.8402H23.8107H23.7813H23.7519H23.7224H23.6931H23.6637H23.6343H23.605H23.5757H23.5465H23.5172H23.488H23.4588H23.4296H23.4004H23.3713H23.3422H23.3131H23.284H23.255H23.226H23.197H23.168H23.1391H23.1102H23.0813H23.0524H23.0236H22.9948H22.966H22.9372H22.9085H22.8797H22.8511H22.8224H22.7938H22.7652H22.7366H22.708H22.6795H22.651H22.6225H22.594H22.5656H22.5372H22.5089H22.4805H22.4522H22.4239H22.3957H22.3674H22.3392H22.311H22.2829H22.2548H22.2267H22.1986H22.1706H22.1426H22.1146H22.0867H22.0587H22.0309H22.003H21.9752H21.9474H21.9196H21.8918H21.8641H21.8365H21.8088H21.7812H21.7536H21.726H21.6985H21.671H21.6435H21.6161H21.5887H21.5613H21.534H21.5067H21.4794H21.4521H21.4249H21.3977H21.3706H21.3435H21.3164H21.2893H21.2623H21.2353H21.2083H21.1814H21.1545H21.1276H21.1008H21.074H21.0473H21.0205H20.9938H20.9672H20.9406H20.914H20.8874H20.8609H20.8344H20.8079H20.7815H20.7551H20.7288H20.7025H20.6762H20.6499H20.6237H20.5976H20.5714H20.5453H20.5193H20.4932H20.4672H20.4413H20.4153H20.3895H20.3636H20.3378H20.312H20.2863H20.2606H20.2349H20.2093H20.1837H20.1581H20.1326H20.1071H20.0817H20.0563H20.0309H20.0056H19.9803H19.955H19.9298H19.9047H19.8795H19.8544H19.8294H19.8043H19.7794H19.7544H19.7295H19.7047H19.6798H19.6551H19.6303H19.6056H19.5809H19.5563H19.5317H19.5072H19.4827H19.4582H19.4338H19.4094H19.3851H19.3608H19.3366H19.3123H19.2882H19.264H19.2399H19.2159H19.1919H19.1679H19.144H19.1201H19.0963H19.0725H19.0487H19.025H19.0014H18.9778H18.9542H18.9306H18.9071H18.8837H18.8603H18.8369H18.8136H18.7903H18.7671H18.7439H18.7208H18.6977H18.6746H18.6516H18.6287H18.6057H18.5829H18.56H18.5373H18.5145H18.4918H18.4692H18.4466H18.424H18.4015H18.379H18.3566H18.3343H18.3119H18.2897H18.2674H18.2452H18.2231H18.201H18.179H18.157H18.135H18.1131H18.0913H18.0695H18.0477H18.026H18.0043H17.9827H17.9612H17.9396H17.9182H17.8968H17.8754H17.8541H17.8328H17.8116H17.7904H17.7693H17.7482H17.7272H17.7062H17.6853H17.6644H17.6436H17.6228H17.6021H17.5814H17.5608H17.5402H17.5197H17.4992H17.4788H17.4584H17.4381H17.4178H17.3976H17.3774H17.3573H17.3372H17.3172H17.2973H17.2774H17.2575H17.2377H17.218H17.1983H17.1786H17.159H17.1395H17.12H17.1006H17.0812H17.0619H17.0426H17.0234H17.0042H16.9851H16.9661H16.9471H16.9281H16.9092H16.8904H16.8716H16.8529H16.8342H16.8156H16.797H16.7785H16.76H16.7416H16.7233H16.705H16.6868H16.6686H16.6505H16.6324H16.6144H16.5965H16.5786H16.5607H16.543H16.5252H16.5076H16.49H16.4724H16.4549H16.4375H16.4201H16.4028H16.3855H16.3683H16.3512H16.3341H16.317H16.3001H16.2831H16.2663H16.2495H16.2327H16.2161H16.1994H16.1829H16.1664H16.1499H16.1336H16.1172H16.101H16.0848H16.0686H16.0525H16.0365H16.0205H16.0046H15.9888H15.973H15.9573H15.9416H15.926H15.9105H15.895H15.8796H15.8643H15.849H15.8337H15.8186H15.8035H15.7884H15.7734H15.7585H15.7437H15.7289H15.7141H15.6995H15.6849H15.6703H15.6558H15.6414H15.6271H15.6128H15.5985H15.5844H15.5703H15.5563H15.5423H15.5284H15.5145H15.5008H15.487H15.4734H15.4598H15.4463H15.4328H15.4195H15.4061H15.3929H15.3797H15.3666H15.3535H15.3405H15.3276H15.3147H15.3019H15.2892H15.2765H15.2639H15.2514H15.2389H15.2265H15.2142H15.202H15.1898H15.1776H15.1656H15.1536H15.1417H15.1298H15.118H15.1063H15.0946H15.0831H15.0715H15.0601H15.0487H15.0374H15.0262H15.015H15.0039H14.9929H14.9819H14.971H14.9602H14.9494H14.9387H14.9281H14.9176H14.9071H14.8967H14.8864C14.8728 25.1419 14.8593 25.1414 14.8459 25.1403C13.573 25.0369 11.6781 24.5315 10.0881 23.3378C8.47798 22.129 7.18945 20.2169 7.18945 17.3647C7.18945 17.34 7.19124 17.3157 7.19471 17.2919L3.63421 9.59478C3.51828 9.34415 3.62747 9.047 3.87809 8.93106C4.12872 8.81513 4.42588 8.92432 4.54181 9.17495L8.09891 16.8647H21.084V4.04486C21.084 3.89638 21.15 3.75557 21.2641 3.66058ZM21.584 17.8647L33.3547 17.8647C33.1949 18.9686 32.7501 20.4033 31.8692 21.6197C30.8531 23.0229 29.2563 24.1419 26.7858 24.1419H26.7548H26.7237H26.6927H26.6617H26.6306H26.5996H26.5687H26.5377H26.5067H26.4757H26.4448H26.4139H26.3829H26.352H26.3211H26.2903H26.2594H26.2285H26.1977H26.1668H26.136H26.1052H26.0744H26.0436H26.0129H25.9821H25.9514H25.9206H25.8899H25.8592H25.8285H25.7979H25.7672H25.7366H25.7059H25.6753H25.6447H25.6141H25.5836H25.553H25.5225H25.492H25.4614H25.431H25.4005H25.37H25.3396H25.3091H25.2787H25.2483H25.2179H25.1876H25.1572H25.1269H25.0966H25.0663H25.036H25.0058H24.9755H24.9453H24.9151H24.8849H24.8547H24.8246H24.7944H24.7643H24.7342H24.7041H24.674H24.644H24.614H24.584H24.554H24.524H24.494H24.4641H24.4342H24.4043H24.3744H24.3446H24.3147H24.2849H24.2551H24.2254H24.1956H24.1659H24.1362H24.1065H24.0768H24.0472H24.0175H23.9879H23.9583H23.9288H23.8992H23.8697H23.8402H23.8107H23.7813H23.7519H23.7224H23.6931H23.6637H23.6343H23.605H23.5757H23.5465H23.5172H23.488H23.4588H23.4296H23.4004H23.3713H23.3422H23.3131H23.284H23.255H23.226H23.197H23.168H23.1391H23.1102H23.0813H23.0524H23.0236H22.9948H22.966H22.9372H22.9085H22.8797H22.8511H22.8224H22.7938H22.7652H22.7366H22.708H22.6795H22.651H22.6225H22.594H22.5656H22.5372H22.5089H22.4805H22.4522H22.4239H22.3957H22.3674H22.3392H22.311H22.2829H22.2548H22.2267H22.1986H22.1706H22.1426H22.1146H22.0867H22.0587H22.0309H22.003H21.9752H21.9474H21.9196H21.8918H21.8641H21.8365H21.8088H21.7812H21.7536H21.726H21.6985H21.671H21.6435H21.6161H21.5887H21.5613H21.534H21.5067H21.4794H21.4521H21.4249H21.3977H21.3706H21.3435H21.3164H21.2893H21.2623H21.2353H21.2083H21.1814H21.1545H21.1276H21.1008H21.074H21.0473H21.0205H20.9938H20.9672H20.9406H20.914H20.8874H20.8609H20.8344H20.8079H20.7815H20.7551H20.7288H20.7025H20.6762H20.6499H20.6237H20.5976H20.5714H20.5453H20.5193H20.4932H20.4672H20.4413H20.4153H20.3895H20.3636H20.3378H20.312H20.2863H20.2606H20.2349H20.2093H20.1837H20.1581H20.1326H20.1071H20.0817H20.0563H20.0309H20.0056H19.9803H19.955H19.9298H19.9047H19.8795H19.8544H19.8294H19.8043H19.7794H19.7544H19.7295H19.7047H19.6798H19.6551H19.6303H19.6056H19.5809H19.5563H19.5317H19.5072H19.4827H19.4582H19.4338H19.4094H19.3851H19.3608H19.3366H19.3123H19.2882H19.264H19.2399H19.2159H19.1919H19.1679H19.144H19.1201H19.0963H19.0725H19.0487H19.025H19.0014H18.9778H18.9542H18.9306H18.9071H18.8837H18.8603H18.8369H18.8136H18.7903H18.7671H18.7439H18.7208H18.6977H18.6746H18.6516H18.6287H18.6057H18.5829H18.56H18.5373H18.5145H18.4918H18.4692H18.4466H18.424H18.4015H18.379H18.3566H18.3343H18.3119H18.2897H18.2674H18.2452H18.2231H18.201H18.179H18.157H18.135H18.1131H18.0913H18.0695H18.0477H18.026H18.0043H17.9827H17.9612H17.9396H17.9182H17.8968H17.8754H17.8541H17.8328H17.8116H17.7904H17.7693H17.7482H17.7272H17.7062H17.6853H17.6644H17.6436H17.6228H17.6021H17.5814H17.5608H17.5402H17.5197H17.4992H17.4788H17.4584H17.4381H17.4178H17.3976H17.3774H17.3573H17.3372H17.3172H17.2973H17.2774H17.2575H17.2377H17.218H17.1983H17.1786H17.159H17.1395H17.12H17.1006H17.0812H17.0619H17.0426H17.0234H17.0042H16.9851H16.9661H16.9471H16.9281H16.9092H16.8904H16.8716H16.8529H16.8342H16.8156H16.797H16.7785H16.76H16.7416H16.7233H16.705H16.6868H16.6686H16.6505H16.6324H16.6144H16.5965H16.5786H16.5607H16.543H16.5252H16.5076H16.49H16.4724H16.4549H16.4375H16.4201H16.4028H16.3855H16.3683H16.3512H16.3341H16.317H16.3001H16.2831H16.2663H16.2495H16.2327H16.2161H16.1994H16.1829H16.1664H16.1499H16.1336H16.1172H16.101H16.0848H16.0686H16.0525H16.0365H16.0205H16.0046H15.9888H15.973H15.9573H15.9416H15.926H15.9105H15.895H15.8796H15.8643H15.849H15.8337H15.8186H15.8035H15.7884H15.7734H15.7585H15.7437H15.7289H15.7141H15.6995H15.6849H15.6703H15.6558H15.6414H15.6271H15.6128H15.5985H15.5844H15.5703H15.5563H15.5423H15.5284H15.5145H15.5008H15.487H15.4734H15.4598H15.4463H15.4328H15.4195H15.4061H15.3929H15.3797H15.3666H15.3535H15.3405H15.3276H15.3147H15.3019H15.2892H15.2765H15.2639H15.2514H15.2389H15.2265H15.2142H15.202H15.1898H15.1776H15.1656H15.1536H15.1417H15.1298H15.118H15.1063H15.0946H15.0831H15.0715H15.0601H15.0487H15.0374H15.0262H15.015H15.0039H14.9929H14.9819H14.971H14.9602H14.9494H14.9387H14.9281H14.9176H14.9071H14.907C13.7808 24.0467 12.089 23.5896 10.6885 22.5381C9.39464 21.5667 8.34228 20.0861 8.20469 17.8647L21.584 17.8647ZM30.8961 10.0147C32.3096 11.7911 33.2973 14.0451 33.4021 16.8647H22.858L27.7484 12.6971L30.1852 10.6205L30.8961 10.0147ZM30.2426 9.25766L29.5365 9.8594L27.0998 11.936L22.084 16.2105V4.66047C24.0435 5.11848 26.7144 6.18943 28.9693 8.06015C29.413 8.42825 29.8402 8.82688 30.2426 9.25766ZM15.2458 27.2016C13.2809 27.2016 11.7685 28.6439 11.7685 30.3284C11.7685 32.0129 13.2809 33.4552 15.2458 33.4552C17.2106 33.4552 18.7231 32.0129 18.7231 30.3284C18.7231 28.6439 17.2106 27.2016 15.2458 27.2016ZM10.7685 30.3284C10.7685 28.0068 12.8175 26.2016 15.2458 26.2016C17.6741 26.2016 19.7231 28.0068 19.7231 30.3284C19.7231 32.65 17.6741 34.4552 15.2458 34.4552C12.8175 34.4552 10.7685 32.65 10.7685 30.3284ZM22.2573 30.3284C22.2573 28.6439 23.7697 27.2016 25.7346 27.2016C27.6995 27.2016 29.2119 28.6439 29.2119 30.3284C29.2119 32.0129 27.6995 33.4552 25.7346 33.4552C23.7697 33.4552 22.2573 32.0129 22.2573 30.3284ZM25.7346 26.2016C23.3063 26.2016 21.2573 28.0068 21.2573 30.3284C21.2573 32.65 23.3063 34.4552 25.7346 34.4552C28.1629 34.4552 30.2119 32.65 30.2119 30.3284C30.2119 28.0068 28.1629 26.2016 25.7346 26.2016Z" fill="black"/>
      </svg>
      