<svg width="32" height="32" viewBox="0 0 27 29" fill="none" xmlns="http://www.w3.org/2000/svg">
      <path fill-rule="evenodd" clip-rule="evenodd" d="M14.6107 0.717917V12.1209H4.37721C4.36823 12.0626 4.35188 12.0045 4.32768 11.9477L1.3783 5.0557C1.22156 4.69196 0.80039 4.52325 0.435456 4.6788C0.0705226 4.83554 -0.0969879 5.25672 0.0573611 5.62166L3.00674 12.5137C3.00995 12.5211 3.01326 12.5284 3.01668 12.5357C2.97405 12.6274 2.95026 12.7297 2.95026 12.8376C2.95026 17.0769 6.66181 20.5265 11.2265 20.5265H18.6711C23.2358 20.5265 26.9473 17.0769 26.9473 12.8376C26.9473 12.7542 26.9331 12.6741 26.9069 12.5996C26.9342 12.2762 26.9472 11.9496 26.9472 11.6197C26.9472 8.35166 25.5913 5.39454 23.4126 3.28136C23.3824 3.24376 23.3479 3.20867 23.3092 3.17678C23.2984 3.1679 23.2874 3.15938 23.2763 3.15122C21.2011 1.20215 18.4118 0.0052312 15.3482 0.000264783L15.3286 0C14.9325 0 14.6107 0.32067 14.6107 0.717917ZM16.0465 1.45988C18.2486 1.61386 20.2599 2.47113 21.8568 3.80805L16.0465 10.8417V1.45988ZM25.5126 11.6197C25.5126 9.00298 24.5209 6.61373 22.8938 4.80802L16.8522 12.1209H25.5006C25.5087 11.9546 25.5126 11.7874 25.5126 11.6197ZM11.2264 19.092C7.71941 19.092 4.82028 16.6679 4.43022 13.5557H25.4671C25.0771 16.6679 22.178 19.092 18.671 19.092H11.2264ZM10.0507 22.8558C8.78363 22.8558 7.75344 23.8872 7.75344 25.1543C7.75344 26.4203 8.78363 27.4517 10.0507 27.4517C11.3178 27.4517 12.348 26.4203 12.348 25.1543C12.348 23.8872 11.3178 22.8558 10.0507 22.8558ZM10.0505 28.8862C7.99256 28.8862 6.31865 27.2123 6.31865 25.1543C6.31865 23.095 7.99256 21.4211 10.0505 21.4211C12.1085 21.4211 13.7824 23.095 13.7824 25.1543C13.7824 27.2123 12.1085 28.8862 10.0505 28.8862ZM16.7927 25.1543C16.7927 23.8872 17.8229 22.8558 19.09 22.8558C20.3571 22.8558 21.3885 23.8872 21.3885 25.1543C21.3885 26.4203 20.3571 27.4517 19.09 27.4517C17.8229 27.4517 16.7927 26.4203 16.7927 25.1543ZM15.358 25.1543C15.358 27.2123 17.0319 28.8862 19.0899 28.8862C21.1491 28.8862 22.823 27.2123 22.823 25.1543C22.823 23.095 21.1491 21.4211 19.0899 21.4211C17.0319 21.4211 15.358 23.095 15.358 25.1543Z" fill="white"/>
      </svg>
      