<svg width="32" height="32" viewBox="0 0 32 32" fill="none" xmlns="http://www.w3.org/2000/svg">
      <path d="M16.4985 18.9587C21.2951 18.9587 25.1987 15.1331 25.1987 10.4309C25.1987 5.72884 21.2952 1.9 16.4985 1.9C11.702 1.9 7.79844 5.72564 7.79844 10.4278C7.79844 15.1299 11.7019 18.9587 16.4985 18.9587ZM16.4985 3.05041C20.6522 3.05041 24.0288 6.36228 24.0288 10.4278C24.0288 14.4933 20.6521 17.8083 16.4985 17.8083C12.3449 17.8083 8.96828 14.4964 8.96828 10.4309C8.96828 6.36537 12.345 3.05041 16.4985 3.05041Z" fill="black" stroke="black" stroke-width="0.2"/>
      <path d="M16.0386 26.11L16.0387 26.1102C16.1438 26.2628 16.3157 26.3548 16.5032 26.3548C16.6904 26.3548 16.8619 26.263 16.967 26.1143L16.9677 26.1134L20.0744 21.6091H20.7198C24.1733 21.6091 26.9783 24.3608 26.9783 27.7403V30.5537C26.9783 30.859 27.2301 31.1069 27.5408 31.1069C27.8473 31.1069 28.1032 30.863 28.1032 30.5537V27.7403V27.7402C28.1 23.7431 24.7874 20.4996 20.7166 20.4996H12.2834C8.21268 20.4996 4.9 23.743 4.9 27.7371V30.5506C4.9 30.8559 5.15176 31.1037 5.46244 31.1037C5.77266 31.1037 6.02488 30.8595 6.02488 30.5506V27.7371C6.02488 24.3577 8.82991 21.606 12.2834 21.606H12.9512L16.0386 26.11ZM14.3037 21.6028H18.7181L16.5035 24.8132L14.3037 21.6028Z" fill="black" stroke="black" stroke-width="0.2"/>
      <path d="M19.7771 26.6668L19.777 26.6666L19.7704 26.6702C19.3312 26.9075 19.5103 27.5568 20.001 27.5568H23.7519C24.0857 27.5568 24.3211 27.2279 24.2017 26.9174L23.6529 25.4862C23.6528 25.4861 23.6528 25.486 23.6527 25.4858C23.5506 25.2143 23.2285 25.1015 22.9755 25.2364L19.7771 26.6668Z" fill="black" stroke="black" stroke-width="0.2"/>
      </svg>