<svg width="32" height="32" viewBox="0 0 38 22" fill="none" xmlns="http://www.w3.org/2000/svg">
      <path d="M7.23633 4.4349C10.6493 4.03294 20.238 3.71137 17.5564 17.378L20.563 17.1368C19.2629 8.69568 22.0257 4.35451 30.5581 3.95255C16.3375 -3.76509 8.29271 4.27412 7.23633 4.4349Z" fill="#FEDA80"/>
      <path d="M20.4004 15.2074C21.9444 19.3878 26.6575 21.478 30.8017 19.9506C35.0273 18.4231 37.1401 13.7604 35.5961 9.66037C34.0522 5.47998 29.3391 3.38979 25.1948 4.91724C21.0505 6.44469 18.8565 11.027 20.4004 15.2074ZM18.1251 12.3937C18.1251 16.8153 14.4684 20.4329 9.99909 20.4329C5.52976 20.4329 1.87305 16.8153 1.87305 12.3937C1.87305 7.97214 5.52976 4.35449 9.99909 4.35449C14.5497 4.35449 18.1251 7.97214 18.1251 12.3937Z" fill="white"/>
      <path d="M11.462 12.3133C11.462 13.1172 10.8119 13.7603 9.9993 13.7603C9.1867 13.7603 8.53662 13.1172 8.53662 12.3133C8.53662 11.5093 9.1867 10.8662 9.9993 10.8662C10.7306 10.8662 11.462 11.5093 11.462 12.3133Z" fill="#A61E2E"/>
      <path d="M29.5015 12.3133C29.5015 13.1172 28.8515 13.7603 28.0389 13.7603C27.2263 13.7603 26.5762 13.1172 26.5762 12.3133C26.5762 11.5093 27.2263 10.8662 28.0389 10.8662C28.8515 10.8662 29.5015 11.5093 29.5015 12.3133Z" fill="#4A853E"/>
      <path d="M35.2714 7.08822C35.6777 5.31959 37.0591 3.55096 37.0591 3.55096H31.0458C27.6329 1.38037 23.5699 0.254883 19.0193 0.254883C14.3062 0.254883 10.0807 1.46077 6.66772 3.63136H0.979492C0.979492 3.63136 2.27966 5.39999 2.76722 7.16862C1.62958 8.61568 0.979492 10.4647 0.979492 12.4745C0.979492 17.3784 5.04251 21.398 9.9994 21.398C12.8435 21.398 15.3626 20.1118 17.069 18.0216L19.0193 20.8353L20.9695 17.9412C21.8634 19.0667 23.0011 19.951 24.3012 20.5137C26.4953 21.4784 28.9331 21.6392 31.2084 20.7549C35.8402 19.0667 38.278 13.9216 36.5715 9.25881C36.1652 8.53528 35.7589 7.81175 35.2714 7.08822ZM27.7142 3.55096C26.739 3.55096 25.8452 3.71175 24.87 4.11371C22.5948 4.91763 20.807 6.60587 19.8319 8.77646C19.3443 9.74117 19.1006 10.7863 19.0193 11.8314C18.6943 7.24901 14.875 3.63136 10.2432 3.55096C12.8435 2.42547 15.7689 1.86273 19.0193 1.86273C22.2697 1.78234 25.1951 2.34508 27.7142 3.55096ZM10.0807 19.549C6.0989 19.549 2.84848 16.3333 2.84848 12.3941C2.84848 8.45489 6.0989 5.2392 10.0807 5.2392C14.0624 5.2392 17.3128 8.45489 17.3128 12.3941C17.2316 16.3333 13.9812 19.549 10.0807 19.549ZM30.5583 19.1471C28.7705 19.7902 26.8203 19.7098 25.0326 18.9059C23.3261 18.102 21.9447 16.6549 21.2946 14.8863C20.6445 13.1176 20.7258 11.1882 21.5384 9.4196C22.351 7.65097 23.8137 6.36469 25.6014 5.72155C29.3394 4.35489 33.4836 6.2843 34.8651 9.90195C36.1652 13.6804 34.215 17.7804 30.5583 19.1471Z" fill="#020202"/>
      <path d="M9.91805 7.8916C7.48024 7.8916 5.44873 9.90141 5.44873 12.3132C5.44873 14.7249 7.48024 16.7348 9.91805 16.7348C12.3559 16.7348 14.3874 14.7249 14.3874 12.3132C14.3874 9.90141 12.3559 7.8916 9.91805 7.8916ZM9.91805 15.2073C8.29284 15.2073 6.99268 13.921 6.99268 12.3132C6.99268 10.7053 8.29284 9.41905 9.91805 9.41905C11.5433 9.41905 12.8434 10.7053 12.8434 12.3132C12.8434 13.921 11.5433 15.2073 9.91805 15.2073ZM28.0391 7.8916C25.6013 7.8916 23.5698 9.90141 23.5698 12.3132C23.5698 14.7249 25.6013 16.7348 28.0391 16.7348C30.4769 16.7348 32.5084 14.7249 32.5084 12.3132C32.4272 9.90141 30.4769 7.8916 28.0391 7.8916ZM28.0391 15.2073C26.4139 15.2073 25.1137 13.921 25.1137 12.3132C25.1137 10.7053 26.4139 9.41905 28.0391 9.41905C29.6643 9.41905 30.9645 10.7053 30.9645 12.3132C30.9645 13.921 29.6643 15.2073 28.0391 15.2073Z" fill="#020202"/>
      </svg>
      