<svg width="32" height="32" viewBox="0 0 32 32" fill="none" xmlns="http://www.w3.org/2000/svg">
      <path d="M25.4751 27.6282C19.2826 32.674 10.2221 31.9818 4.86812 26.0537C-0.485891 20.1257 -0.254953 11.0417 5.39338 5.39338C11.0417 -0.254953 20.1257 -0.485891 26.0537 4.86812C31.9818 10.2221 32.674 19.2826 27.6282 25.4751" stroke="white" stroke-linejoin="bevel"/>
      <path d="M23 11.4206C22.4849 11.6618 21.9313 11.8242 21.3503 11.8975C21.9436 11.5228 22.3992 10.929 22.6132 10.2215C22.0585 10.5685 21.4437 10.8208 20.7892 10.9567C20.2659 10.3679 19.5187 10 18.6927 10C16.8382 10 15.4756 11.8249 15.8944 13.7192C13.508 13.5931 11.3917 12.3872 9.97475 10.5543C9.22225 11.9159 9.5845 13.6971 10.8632 14.5991C10.393 14.5831 9.94967 14.4471 9.56292 14.2201C9.53142 15.6235 10.4852 16.9364 11.8665 17.2287C11.4622 17.3443 11.0195 17.3714 10.5692 17.2804C10.9343 18.4838 11.9948 19.3593 13.2525 19.3839C12.045 20.3825 10.5237 20.8285 9 20.639C10.2711 21.4986 11.7813 22 13.403 22C18.7358 22 21.7487 17.2496 21.5667 12.9889C22.1279 12.5613 22.615 12.0279 23 11.4206Z" fill="white"/>
      </svg>
      