<svg width="32" height="32" viewBox="0 0 32 32" fill="none" xmlns="http://www.w3.org/2000/svg">
      <circle cx="16" cy="16" r="13.25" stroke="black" stroke-width="1.5"/>
      <g clip-path="url(#clip0_187_172)">
      <path d="M16 26C21.5228 26 26 21.5228 26 16C26 10.4772 21.5228 6 16 6C10.4772 6 6 10.4772 6 16C6 21.5228 10.4772 26 16 26Z" fill="white"/>
      <path d="M11.6521 19.4783L12.5217 25.3781C13.605 25.7801 14.7767 26 15.9999 26C20.2995 26 23.965 23.2863 25.3779 19.4783H11.6521Z" fill="black"/>
      <path d="M11.6521 12.5218L12.5217 6.62191C13.605 6.21992 14.7767 6 15.9999 6C20.2995 6 23.965 8.71375 25.3779 12.5218H11.6521Z" fill="#6DA544"/>
      <path d="M6 15.9999C6 20.2996 8.71379 23.965 12.5218 25.3779V6.62192C8.71379 8.03485 6 11.7003 6 15.9999Z" fill="#A2001D"/>
      </g>
      <defs>
      <clipPath id="clip0_187_172">
      <rect x="6" y="6" width="20" height="20" rx="10" fill="white"/>
      </clipPath>
      </defs>
      </svg>
      