<svg width="32" height="32" viewBox="0 0 32 32" fill="none" xmlns="http://www.w3.org/2000/svg">
      <path fill-rule="evenodd" clip-rule="evenodd" d="M9.27401 12.804L10.1343 12.0915C10.2703 11.9788 10.4348 11.9127 10.6097 11.8971L11.9467 11.7883L13.5312 11.1406C13.6335 11.0991 13.741 11.0771 13.8511 11.0771C14.0118 11.0771 14.1699 11.1224 14.3059 11.2079L15.1234 10.8776L14.5171 9.37732L13.6996 9.70769C13.6335 9.97068 13.4482 10.1883 13.1904 10.2933L11.5477 10.9553L10.5605 11.7741C10.4245 11.8868 10.2586 11.9529 10.0824 11.9658L8.96956 12.05C8.96956 12.05 8.32309 12.7392 8.30495 12.7561H8.33216L9.27401 12.804ZM6.83453 13.7601L7.75565 12.9776L6.54951 13.0528L6.19583 13.6072L6.83453 13.7601ZM6.9706 15.1915C6.90452 15.1915 6.83845 15.1838 6.77367 15.1695L5.13223 14.777L5.01174 14.7329C4.80575 14.6474 4.64251 14.4803 4.55571 14.2691C4.45207 14.0113 4.48057 13.7185 4.62956 13.4853L5.52866 12.081C5.67376 11.8542 5.92251 11.7053 6.19586 11.6884L7.48751 11.6068L8.09901 10.9525C8.2467 10.7945 8.44492 10.6999 8.65868 10.6831L9.87519 10.5924L10.7613 9.82155C10.8274 9.76584 10.9038 9.72179 10.9842 9.6894L12.3341 9.14528C12.4015 8.88099 12.5893 8.66204 12.8459 8.55969L14.0442 8.07516C13.7825 6.81979 14.3616 5.53591 15.49 4.90369L21.2487 1.68039C21.6866 1.43553 22.1841 1.30469 22.6881 1.30469C23.0197 1.30469 23.3488 1.36169 23.6623 1.47181C24.4616 1.75294 25.1003 2.36184 25.4152 3.14694L27.2924 7.8031C27.6098 8.58431 27.5735 9.46786 27.1939 10.2245C26.8143 10.9798 26.129 11.5355 25.3115 11.7506L24.1093 12.0654L23.9577 12.081C23.6442 12.081 23.3682 11.8685 23.2879 11.564C23.1907 11.1961 23.4123 10.8165 23.7802 10.7194L24.9591 10.4084C25.3931 10.2944 25.7572 10.0016 25.9567 9.6013C26.1575 9.20228 26.1769 8.73459 26.0098 8.32002L24.1326 3.66386C23.9642 3.25058 23.626 2.9267 23.2037 2.77901C23.0366 2.71941 22.8617 2.68961 22.6855 2.68961C22.4186 2.68961 22.1556 2.75828 21.925 2.88913L16.1663 6.11242C15.4823 6.4959 15.1856 7.33411 15.4797 8.0635L16.7286 11.1572C16.9657 11.7428 17.55 12.1354 18.1822 12.1354C18.3156 12.1354 18.4478 12.1185 18.5773 12.0836L20.632 11.5446L20.7849 11.5291C21.0971 11.5291 21.3731 11.7415 21.4521 12.046C21.5506 12.4152 21.329 12.7935 20.9598 12.8907L18.9271 13.4244C18.6835 13.4879 18.4322 13.5216 18.1822 13.5216C17.7832 13.5216 17.3958 13.4413 17.0279 13.2832C16.476 13.05 16.0031 12.6484 15.6857 12.1444L14.4847 12.6264C14.3837 12.6691 14.2761 12.6899 14.1647 12.6899C14.052 12.6899 13.9393 12.6678 13.8318 12.6225C13.789 12.6044 13.7488 12.5836 13.7113 12.5603L12.3613 13.1044C12.2823 13.1368 12.2007 13.155 12.1139 13.164L10.8287 13.269L9.99956 14.0009C9.8441 14.1279 9.65106 14.1979 9.45414 14.1979L8.51488 14.1512L7.52638 14.9894C7.37092 15.1203 7.17399 15.1915 6.9706 15.1915ZM24.0449 8.05068L22.9813 5.41427C22.8997 5.21216 22.7442 5.05411 22.5447 4.9673C22.3439 4.88309 22.1223 4.8818 21.9202 4.96212C21.7181 5.04374 21.5601 5.19921 21.4759 5.39872C21.3891 5.59953 21.3878 5.82106 21.4694 6.02446L22.533 8.66088C22.6147 8.86299 22.7701 9.02104 22.9709 9.10525C23.1704 9.19205 23.392 9.19335 23.5941 9.11173C24.0112 8.94331 24.2133 8.46785 24.0449 8.05068ZM28.694 18.3174C29.0926 17.8212 29.3951 17.4446 29.4675 17.3598C30.0233 16.7069 29.8885 15.9321 29.2343 15.4308C28.5477 14.9035 27.655 14.9657 26.9749 15.7534C25.7208 17.2044 24.205 18.8536 22.4237 20.7023C21.8925 21.3902 21.0595 21.8346 20.1215 21.8346H15.6519C15.2814 21.8346 14.9808 21.5353 14.9808 21.1661C14.9808 20.7943 15.2814 20.495 15.6519 20.495H20.1215C20.5762 20.495 20.9843 20.302 21.2706 19.9924C21.2888 19.9626 21.3095 19.9328 21.3328 19.9056C21.5595 19.6296 21.6839 19.2876 21.6852 18.9248C21.6826 18.0633 20.983 17.3663 20.1215 17.3663H15.4485H12.3288C11.2186 17.3663 9.92042 17.983 9.04464 18.8911C8.27639 19.6892 7.62732 20.4004 7.09615 21.0223L9.74423 25.6072H20.8638C21.6243 25.6072 22.7437 24.9206 24.0962 23.6315C24.7776 22.9825 25.4993 22.2012 26.2869 21.2762C26.8115 20.6605 27.9294 19.269 28.694 18.3174ZM2.34668 21.7349L6.59346 29.0897L9.30372 27.526L5.05695 20.1712L2.34668 21.7349ZM25.9604 14.8763C27.1173 13.538 28.8145 13.4175 30.0504 14.3658C31.2838 15.3129 31.5688 16.9582 30.4883 18.2291C30.4272 18.301 30.1619 18.6313 29.8028 19.0784C29.0428 20.0246 27.8625 21.494 27.3065 22.1468C26.4916 23.1042 25.7402 23.9178 25.0212 24.6019C23.4354 26.1151 22.0764 26.9481 20.8638 26.9481H10.5189L10.6873 27.2422C10.9335 27.6697 10.7884 28.2164 10.3609 28.4626L6.87717 30.4745C6.44835 30.7207 5.90293 30.5743 5.65548 30.1468L0.963041 22.0186C0.716889 21.591 0.861989 21.0443 1.28952 20.7969L4.77322 18.7875C5.20204 18.5388 5.74746 18.6851 5.99491 19.114L6.38746 19.7941C6.87328 19.2383 7.43684 18.6281 8.07943 17.9609C9.19618 16.8027 10.8311 16.0254 12.3288 16.0254H18.0317H20.1214H20.1396H20.1707C21.5103 16.0423 22.6283 16.9686 22.9405 18.2136C24.0793 17.0022 25.0859 15.8881 25.9604 14.8763Z" fill="white"/>
      </svg>
      