<svg width="36" height="34" viewBox="0 0 36 34" fill="none" xmlns="http://www.w3.org/2000/svg">
      <path d="M5.07912 20.0519C4.9485 20.0519 4.81787 20.0875 4.69912 20.1588L0.566625 22.5456C0.1985 22.7594 0.0797496 23.2225 0.2935 23.5906L5.86287 33.245C6.07662 33.6131 6.53975 33.7319 6.90788 33.53L11.0404 31.1431C11.2185 31.0481 11.3372 30.8819 11.3966 30.68C11.4441 30.4781 11.4204 30.2763 11.3254 30.0981L10.8741 29.3025H23.6754C24.9698 29.3025 26.4779 28.4475 28.4016 26.595C29.221 25.8113 30.0998 24.8731 31.0973 23.6975C31.7623 22.9137 33.1991 21.1325 34.0541 20.0637C34.4816 19.5294 34.8022 19.1375 34.8735 19.0544C35.4198 18.4131 35.6691 17.665 35.586 16.905C35.5029 16.1213 35.0872 15.4088 34.3985 14.8863C32.9972 13.8056 31.1685 14.0431 29.9454 15.4563C28.8647 16.7031 27.6654 18.0331 26.3473 19.4225L25.9791 19.8144L25.8485 19.2919C25.5041 17.9144 24.2691 16.9406 22.8441 16.9169H13.5341C11.8716 16.9169 10.0191 17.76 8.701 19.1256C7.941 19.9094 7.276 20.6456 6.706 21.2869L6.43287 21.5956L5.73225 20.4438C5.62537 20.2656 5.45913 20.135 5.26912 20.0875C5.20975 20.0638 5.1385 20.0519 5.07912 20.0519ZM6.59912 32.5444L1.25537 23.2937L4.98413 21.1444L10.3279 30.395L6.59912 32.5444ZM23.6516 28.2931H10.2804L6.9435 22.5219L7.07412 22.3675C7.71537 21.6075 8.49912 20.7525 9.40162 19.8262C10.5179 18.6744 12.1329 17.9263 13.5104 17.9263H22.761C23.9485 17.9263 24.9104 18.8881 24.9104 20.0756C24.9104 20.5744 24.7441 21.0494 24.4235 21.4294C24.3997 21.4531 24.3879 21.4769 24.376 21.5006C23.9366 21.9875 23.3548 22.2369 22.761 22.2369H17.4529C17.1798 22.2369 16.9541 22.4625 16.9541 22.7356C16.9541 23.0087 17.1798 23.2344 17.4529 23.2344H22.761C23.7466 23.2344 24.661 22.7831 25.2548 21.9994C27.3685 19.8144 29.1735 17.8431 30.6698 16.1094C31.5366 15.1 32.7835 14.9338 33.7573 15.6819C34.2204 16.0381 34.5054 16.5012 34.5529 17C34.6004 17.4869 34.446 17.9738 34.0779 18.4013C33.9948 18.4963 33.6385 18.9475 33.1635 19.5294L33.116 19.5888C32.1898 20.7406 30.9191 22.3319 30.3016 23.0444C29.3279 24.1844 28.4729 25.1106 27.6772 25.8587C26.0029 27.4856 24.6491 28.2931 23.6516 28.2931ZM24.1266 0.375C23.5804 0.375 23.046 0.5175 22.5591 0.77875L15.7191 4.6025C14.496 5.29125 13.8666 6.68062 14.1516 8.04625L14.1991 8.28375L12.5485 8.94875C12.3347 9.03187 12.1804 9.22188 12.121 9.4475L12.0854 9.59L10.3398 10.3144C10.2685 10.3381 10.2091 10.3737 10.1497 10.4213L9.0335 11.395L7.48975 11.5138C7.31162 11.5256 7.14538 11.6087 7.01475 11.7394L6.20725 12.6062L4.55662 12.7131C4.331 12.725 4.11725 12.8438 3.9985 13.0337L2.92975 14.6963C2.79912 14.8981 2.77537 15.1356 2.87037 15.3612C2.94162 15.5394 3.08412 15.6819 3.25037 15.7531L3.381 15.8006L5.29287 16.2519C5.50662 16.2994 5.756 16.24 5.92225 16.0975L7.181 15.0288L8.416 15.0881C8.57037 15.0881 8.72475 15.0288 8.86725 14.9219L9.91225 13.9956L11.5391 13.865C11.6104 13.8531 11.6816 13.8412 11.741 13.8175L13.4866 13.1169L13.6172 13.2C13.6529 13.2238 13.6766 13.2356 13.7122 13.2475C13.8904 13.3188 14.0922 13.3188 14.2585 13.2475L15.921 12.5825L16.0516 12.7963C16.396 13.3425 16.9185 13.7819 17.5122 14.0312C18.1654 14.3162 18.8779 14.3638 19.5785 14.1856L21.9891 13.5563C22.1198 13.5206 22.2385 13.4375 22.3097 13.3069C22.381 13.1881 22.4048 13.0456 22.3691 12.915C22.3098 12.6894 22.096 12.5231 21.8585 12.5231L21.7041 12.535C21.7041 12.535 19.4598 13.1288 19.3054 13.1644C19.1273 13.2119 18.9491 13.2356 18.7591 13.2356C17.8922 13.2356 17.0847 12.6894 16.7522 11.8938L15.2916 8.2125C14.8879 7.215 15.2916 6.05125 16.2416 5.52875L23.0816 1.705C23.6041 1.40813 24.2691 1.34875 24.8391 1.55062C25.421 1.7525 25.8841 2.19187 26.1216 2.77375L28.3541 8.3075C28.5798 8.8775 28.556 9.51875 28.2829 10.0769C28.0098 10.6231 27.511 11.0269 26.9054 11.1931L25.5041 11.5612C25.2191 11.6325 25.0529 11.9175 25.136 12.2025C25.1954 12.4281 25.4091 12.5944 25.6466 12.5944L25.801 12.5825L27.1785 12.2144C28.0691 11.9769 28.8054 11.3712 29.221 10.5519C29.6366 9.7325 29.6722 8.77063 29.3279 7.9275L27.0954 2.39375C26.751 1.53875 26.0623 0.87375 25.1954 0.576875C24.8391 0.434375 24.4829 0.375 24.1266 0.375ZM5.376 15.195L4.06975 14.8863L4.79412 13.7463L6.68225 13.6275L6.8485 13.4613C6.896 13.4138 7.62037 12.6419 7.62037 12.6419L7.7035 12.5588L9.14038 12.4519C9.29475 12.44 9.42537 12.3806 9.54412 12.2975L10.791 11.2763L12.7385 10.4925C12.9522 10.4094 13.1066 10.2194 13.166 10.0056L13.2016 9.86312L14.591 9.305L15.5291 11.6325L14.1397 12.1906L14.0091 12.1075C13.8191 11.9888 13.5816 11.965 13.356 12.0481L11.3847 12.8319L9.7935 12.9625C9.651 12.9744 9.5085 13.0337 9.38975 13.1287L8.29725 14.0312L6.82475 13.96L5.376 15.195ZM23.5804 4.65C23.4972 4.65 23.4141 4.66188 23.331 4.6975C23.1648 4.76875 23.0341 4.8875 22.9629 5.05375C22.8916 5.22 22.8916 5.39813 22.951 5.57625L24.2098 8.71125C24.281 8.8775 24.4116 9.00813 24.566 9.07938C24.7323 9.15063 24.9104 9.15063 25.0766 9.07938C25.2429 9.00813 25.3735 8.88938 25.4448 8.72313C25.516 8.55688 25.516 8.37875 25.4448 8.2125L24.186 5.0775C24.1147 4.91125 23.9841 4.78063 23.8298 4.70937C23.7585 4.66188 23.6635 4.65 23.5804 4.65Z" fill="black"/>
      </svg>
      