<svg width="24" height="24" viewBox="0 0 32 32" fill="none" xmlns="http://www.w3.org/2000/svg"><path d="M7.63597 5.15461L7.60884 5.06628C6.547 5.39241 5.81874 5.95883 5.42124 6.69388C5.02457 7.42738 4.97 8.29493 5.14397 9.18718C5.49137 10.969 6.75169 12.927 8.3374 14.549C9.92318 16.171 11.8538 17.4713 13.6462 17.843C14.5443 18.0292 15.4196 17.9788 16.1777 17.5819C16.9369 17.1843 17.544 16.4496 17.9272 15.3671L17.9272 15.3671L17.9278 15.3653C17.952 15.2929 17.9513 15.2145 17.926 15.1425C17.9007 15.0704 17.8522 15.0088 17.788 14.9674L17.7869 14.9667L14.2951 12.7786C14.2895 12.7746 14.2839 12.7707 14.2781 12.7671L14.2711 12.7601L14.2425 12.7317L14.2167 12.7313L14.2015 12.7244C14.193 12.7194 14.1844 12.7148 14.1756 12.7105L14.1557 12.7009L14.1336 12.7006H14.1263C14.1219 12.7005 14.1174 12.7004 14.113 12.7005C14.0964 12.6968 14.0796 12.6944 14.0626 12.6932L14.0627 12.6923L14.0489 12.6932C14.0285 12.6946 14.0083 12.6979 13.9885 12.7028C13.9306 12.7138 13.8764 12.7395 13.8312 12.7774L13.8168 12.7895L13.8078 12.806C13.8071 12.8073 13.8064 12.8086 13.8057 12.8099C13.7935 12.8227 13.7823 12.8364 13.7723 12.8509L12.9289 13.6872C11.4417 12.9677 10.3219 11.7307 9.32063 10.0538L10.0974 9.27704L10.0974 9.27703L10.1219 9.25252L10.1475 9.25212L10.1755 9.20106C10.1762 9.19968 10.177 9.19829 10.1777 9.1969L10.1843 9.19007L10.1907 9.17835C10.1945 9.17135 10.1981 9.16423 10.2014 9.15701L10.2035 9.15243L10.2059 9.14806C10.2067 9.14669 10.2074 9.14532 10.2082 9.14393L10.2322 9.11896L10.2332 9.08801L10.2398 9.0811L10.241 9.04258C10.2412 9.03589 10.2413 9.02918 10.2411 9.02248V9.01863C10.2412 9.01235 10.2412 9.00607 10.2411 8.99978V8.99593C10.2412 8.98965 10.2412 8.98335 10.2411 8.97707V8.97322C10.2412 8.96693 10.2412 8.96064 10.2411 8.95436V8.94709L10.2407 8.92599L10.2332 8.90966L10.2331 8.90329L10.2256 8.88696L10.2252 8.86348L10.2101 8.84705L10.21 8.83955L10.1838 8.81238C10.1736 8.79483 10.162 8.77819 10.1489 8.76267L10.149 8.76253L10.1445 8.75779C10.1443 8.75765 10.1442 8.75752 10.1441 8.75738L8.00615 5.21954L8.00616 5.21954L8.00532 5.21819C7.97544 5.17049 7.93433 5.13084 7.88558 5.10272C7.84911 5.08168 7.80919 5.06756 7.76782 5.06095L7.76757 5.03483L7.65095 5.05589C7.63639 5.05852 7.62201 5.06209 7.60793 5.06656L7.63597 5.15461ZM8.64374 9.75333L8.64369 9.75339C8.58933 9.80735 8.55452 9.87789 8.54478 9.95388C8.53506 10.0297 8.55084 10.1065 8.58963 10.1724C9.71037 12.1131 11.0236 13.6073 12.8631 14.4181L12.8631 14.4181L12.8651 14.4189C12.9282 14.4451 12.9977 14.452 13.0648 14.4386C13.1317 14.4252 13.1932 14.3922 13.2414 14.3437C13.2414 14.3437 13.2415 14.3436 13.2415 14.3436L14.1083 13.4768L17.1823 15.397C16.8479 16.2045 16.3923 16.7006 15.8636 16.9774C15.2799 17.283 14.5748 17.3377 13.786 17.1741C12.2052 16.8463 10.3472 15.6241 8.8238 14.0659C7.30058 12.5078 6.12791 10.6315 5.82101 9.0574C5.66791 8.27216 5.73135 7.58179 6.03212 7.02563C6.304 6.52287 6.7825 6.09844 7.56437 5.81021L9.45779 8.94642L8.64374 9.75333Z" fill="black" stroke="white" stroke-width="0.2"/><mask id="path-2-outside-1_3277_44764" maskUnits="userSpaceOnUse" x="0" y="0" width="23" height="23" fill="black"><rect fill="white" width="23" height="23"/><path fill-rule="evenodd" clip-rule="evenodd" d="M1 11.5C1 5.7029 5.70535 1 11.5 1C17.297 1 22 5.70295 22 11.5C22 13.286 21.5536 14.9682 20.7663 16.4409L20.3544 16.1799C21.0933 14.7836 21.5116 13.1911 21.5116 11.5C21.5116 5.96679 17.0332 1.48837 11.5 1.48837C5.9693 1.48837 1.48837 5.96687 1.48837 11.5C1.48837 13.5868 2.12617 15.5222 3.25536 17.179C3.27583 17.2091 3.28934 17.2433 3.2949 17.2792C3.30045 17.3151 3.29792 17.3518 3.28749 17.3866L2.15691 21.1597L5.85289 19.8841C5.88797 19.872 5.92535 19.8681 5.96218 19.8726C5.99902 19.877 6.03435 19.8899 6.06549 19.9101C7.62651 20.9229 9.49421 21.5116 11.5 21.5116C14.6237 21.5116 17.4113 20.0843 19.2467 17.8457L19.6596 18.1074C17.7342 20.4818 14.7937 22 11.5 22C9.44159 22 7.518 21.4072 5.90081 20.3842L1.86594 21.7766C1.82348 21.7913 1.77779 21.7939 1.73392 21.7843C1.69004 21.7746 1.64968 21.7531 1.61727 21.722C1.58486 21.6909 1.56165 21.6514 1.5502 21.608C1.53876 21.5646 1.53952 21.5188 1.5524 21.4758L2.78668 17.3566C1.6466 15.6454 1 13.6457 1 11.5Z"/></mask><path fill-rule="evenodd" clip-rule="evenodd" d="M1 11.5C1 5.7029 5.70535 1 11.5 1C17.297 1 22 5.70295 22 11.5C22 13.286 21.5536 14.9682 20.7663 16.4409L20.3544 16.1799C21.0933 14.7836 21.5116 13.1911 21.5116 11.5C21.5116 5.96679 17.0332 1.48837 11.5 1.48837C5.9693 1.48837 1.48837 5.96687 1.48837 11.5C1.48837 13.5868 2.12617 15.5222 3.25536 17.179C3.27583 17.2091 3.28934 17.2433 3.2949 17.2792C3.30045 17.3151 3.29792 17.3518 3.28749 17.3866L2.15691 21.1597L5.85289 19.8841C5.88797 19.872 5.92535 19.8681 5.96218 19.8726C5.99902 19.877 6.03435 19.8899 6.06549 19.9101C7.62651 20.9229 9.49421 21.5116 11.5 21.5116C14.6237 21.5116 17.4113 20.0843 19.2467 17.8457L19.6596 18.1074C17.7342 20.4818 14.7937 22 11.5 22C9.44159 22 7.518 21.4072 5.90081 20.3842L1.86594 21.7766C1.82348 21.7913 1.77779 21.7939 1.73392 21.7843C1.69004 21.7746 1.64968 21.7531 1.61727 21.722C1.58486 21.6909 1.56165 21.6514 1.5502 21.608C1.53876 21.5646 1.53952 21.5188 1.5524 21.4758L2.78668 17.3566C1.6466 15.6454 1 13.6457 1 11.5Z" fill="black"/><path d="M20.7663 16.4409L20.6593 16.6099L20.8412 16.7251L20.9427 16.5352L20.7663 16.4409ZM20.3544 16.1799L20.1776 16.0864L20.0911 16.2499L20.2474 16.3489L20.3544 16.1799ZM3.25536 17.179L3.42064 17.0664L3.42063 17.0664L3.25536 17.179ZM3.2949 17.2792L3.49254 17.2486L3.49254 17.2486L3.2949 17.2792ZM3.28749 17.3866L3.09591 17.3292L3.0959 17.3292L3.28749 17.3866ZM2.15691 21.1597L1.96532 21.1023L1.85333 21.476L2.22216 21.3487L2.15691 21.1597ZM5.85289 19.8841L5.91814 20.0732L5.91819 20.0732L5.85289 19.8841ZM6.06549 19.9101L6.17435 19.7423L6.1743 19.7422L6.06549 19.9101ZM19.2467 17.8457L19.3537 17.6768L19.2042 17.5821L19.092 17.7189L19.2467 17.8457ZM19.6596 18.1074L19.8149 18.2333L19.9565 18.0587L19.7666 17.9384L19.6596 18.1074ZM5.90081 20.3842L6.00774 20.2152L5.92647 20.1637L5.83557 20.1951L5.90081 20.3842ZM1.86594 21.7766L1.93113 21.9657L1.93119 21.9657L1.86594 21.7766ZM1.73392 21.7843L1.69097 21.9796L1.69097 21.9796L1.73392 21.7843ZM1.61727 21.722L1.75574 21.5777H1.75574L1.61727 21.722ZM1.5502 21.608L1.7436 21.557L1.7436 21.557L1.5502 21.608ZM1.5524 21.4758L1.36081 21.4184L1.36079 21.4184L1.5524 21.4758ZM2.78668 17.3566L2.97826 17.4141L3.00525 17.324L2.95312 17.2458L2.78668 17.3566ZM11.5 0.8C5.59493 0.8 0.8 5.59241 0.8 11.5H1.2C1.2 5.81339 5.81578 1.2 11.5 1.2V0.8ZM22.2 11.5C22.2 5.59249 17.4075 0.8 11.5 0.8V1.2C17.1866 1.2 21.8 5.81341 21.8 11.5H22.2ZM20.9427 16.5352C21.7451 15.0342 22.2 13.3197 22.2 11.5H21.8C21.8 13.2523 21.3621 14.9022 20.5899 16.3467L20.9427 16.5352ZM20.2474 16.3489L20.6593 16.6099L20.8734 16.272L20.4615 16.011L20.2474 16.3489ZM21.3116 11.5C21.3116 13.1577 20.9016 14.7183 20.1776 16.0864L20.5312 16.2735C21.285 14.849 21.7116 13.2244 21.7116 11.5H21.3116ZM11.5 1.68837C16.9227 1.68837 21.3116 6.07725 21.3116 11.5H21.7116C21.7116 5.85634 17.1437 1.28837 11.5 1.28837V1.68837ZM1.68837 11.5C1.68837 6.07735 6.07972 1.68837 11.5 1.68837V1.28837C5.85887 1.28837 1.28837 5.85638 1.28837 11.5H1.68837ZM3.42063 17.0664C2.31299 15.4412 1.68837 13.5447 1.68837 11.5H1.28837C1.28837 13.6288 1.93935 15.6032 3.0901 17.2917L3.42063 17.0664ZM3.49254 17.2486C3.48244 17.1833 3.45787 17.121 3.42064 17.0664L3.09009 17.2917C3.0938 17.2971 3.09624 17.3033 3.09725 17.3098L3.49254 17.2486ZM3.47907 17.4441C3.49805 17.3807 3.50265 17.314 3.49254 17.2486L3.09725 17.3098C3.09825 17.3163 3.0978 17.3229 3.09591 17.3292L3.47907 17.4441ZM2.34849 21.2171L3.47907 17.444L3.0959 17.3292L1.96532 21.1023L2.34849 21.2171ZM5.78764 19.6951L2.09166 20.9706L2.22216 21.3487L5.91814 20.0732L5.78764 19.6951ZM5.9864 19.674C5.91946 19.6659 5.85146 19.673 5.7876 19.6951L5.91819 20.0732C5.92448 20.071 5.93124 20.0703 5.93797 20.0711L5.9864 19.674ZM6.1743 19.7422C6.11762 19.7055 6.05335 19.6822 5.9864 19.674L5.93797 20.0711C5.94469 20.0719 5.95108 20.0742 5.95667 20.0779L6.1743 19.7422ZM11.5 21.3116C9.53385 21.3116 7.70381 20.7347 6.17435 19.7423L5.95662 20.0778C7.54921 21.1112 9.45457 21.7116 11.5 21.7116V21.3116ZM19.092 17.7189C17.293 19.9131 14.5614 21.3116 11.5 21.3116V21.7116C14.6861 21.7116 17.5295 20.2556 19.4013 17.9725L19.092 17.7189ZM19.7666 17.9384L19.3537 17.6768L19.1396 18.0147L19.5525 18.2763L19.7666 17.9384ZM11.5 22.2C14.8566 22.2 17.8532 20.6526 19.8149 18.2333L19.5042 17.9814C17.6152 20.3111 14.7308 21.8 11.5 21.8V22.2ZM5.79389 20.5532C7.44223 21.5959 9.40276 22.2 11.5 22.2V21.8C9.48043 21.8 7.59376 21.2185 6.00774 20.2152L5.79389 20.5532ZM1.93119 21.9657L5.96606 20.5732L5.83557 20.1951L1.8007 21.5876L1.93119 21.9657ZM1.69097 21.9796C1.77076 21.9972 1.85386 21.9924 1.93113 21.9657L1.80076 21.5876C1.79309 21.5902 1.78482 21.5907 1.77686 21.5889L1.69097 21.9796ZM1.47879 21.8663C1.53777 21.9229 1.6112 21.9621 1.69097 21.9796L1.77687 21.5889C1.76889 21.5872 1.76159 21.5833 1.75574 21.5777L1.47879 21.8663ZM1.35681 21.659C1.37762 21.738 1.41983 21.8097 1.47879 21.8663L1.75574 21.5777C1.74988 21.572 1.74568 21.5649 1.7436 21.557L1.35681 21.659ZM1.36079 21.4184C1.33737 21.4967 1.33599 21.5799 1.35681 21.659L1.7436 21.557C1.74153 21.5492 1.74167 21.5409 1.744 21.5331L1.36079 21.4184ZM2.5951 17.2992L1.36081 21.4184L1.74398 21.5332L2.97826 17.4141L2.5951 17.2992ZM0.8 11.5C0.8 13.687 1.4593 15.725 2.62024 17.4675L2.95312 17.2458C1.83391 15.5658 1.2 13.6045 1.2 11.5H0.8Z" fill="white" mask="url(#path-2-outside-1_3277_44764)"/></svg>