<svg width="24" height="24" viewBox="0 0 32 32" fill="none" xmlns="http://www.w3.org/2000/svg"><path d="M25.4751 27.6282C19.2826 32.674 10.2221 31.9818 4.86812 26.0537C-0.485891 20.1257 -0.254953 11.0417 5.39338 5.39338C11.0417 -0.254952 20.1257 -0.48589 26.0537 4.86812C31.9818 10.2221 32.674 19.2826 27.6282 25.4751" stroke="white" stroke-linejoin="bevel"/> <path d="M7.29388 20.54C6.44583 19.0706 5.99907 17.403 6 15.6938C6.00232 10.349 10.3514 6.0001 15.6944 6C18.2888 6.00098 20.7211 7.00996 22.5522 8.84292C24.3829 10.676 25.3896 13.1101 25.3887 15.7017C25.3868 21.0466 21.0367 25.3959 15.6946 25.396H15.6902C14.0676 25.3955 12.4734 24.9887 11.0582 24.2165L10.8839 24.1214L10.6919 24.1718L6.12543 25.3695L7.34309 20.9219L7.39819 20.7207L7.29388 20.54Z" stroke="white" stroke-miterlimit="10"/> <path fill-rule="evenodd" clip-rule="evenodd" d="M21.3163 17.1395C21.2528 17.0334 21.0826 16.9694 20.828 16.8418C20.5733 16.7142 19.321 16.0983 19.0873 16.0133C18.8537 15.9282 18.6841 15.8857 18.5145 16.1409C18.3448 16.396 17.8565 16.9699 17.7079 17.1395C17.5593 17.3096 17.4107 17.3306 17.1561 17.203C16.9014 17.0755 16.0807 16.8066 15.1075 15.939C14.3503 15.2635 13.839 14.4296 13.6904 14.1744C13.5418 13.9192 13.6748 13.7814 13.8019 13.6548C13.9162 13.5404 14.0565 13.3571 14.1841 13.2085C14.3117 13.0599 14.3537 12.9534 14.4388 12.7837C14.5238 12.6136 14.4813 12.465 14.4178 12.3375C14.3542 12.2099 13.8449 10.9561 13.6323 10.4463C13.4255 9.9496 13.2153 10.0171 13.0594 10.0088C12.9108 10.0014 12.7412 10 12.5711 10C12.4014 10 12.1253 10.0635 11.8916 10.3187C11.658 10.5738 11 11.1902 11 12.4435C11 13.6973 11.9126 14.9086 12.0402 15.0787C12.1678 15.2488 13.8366 17.8214 16.3916 18.9251C16.9992 19.1876 17.4738 19.3445 17.8438 19.4618C18.4538 19.6559 19.0091 19.6285 19.4481 19.5625C19.9374 19.4892 20.9551 18.9461 21.1672 18.3513C21.3803 17.7559 21.3803 17.2461 21.3163 17.1395Z" fill="white"/></svg>