<svg width="22" height="22" viewBox="0 0 18 18" fill="none" xmlns="http://www.w3.org/2000/svg">
    <mask id="path-1-inside-1_4010_643" fill="white">
    <path d="M14.4447 3.56052C13.001 2.11536 11.0814 1.31909 9.03613 1.31836C4.82163 1.31836 1.39204 4.74795 1.39021 8.96355C1.38947 10.3112 1.74178 11.6266 2.41084 12.7858L1.32605 16.7481L5.37924 15.6849C6.49592 16.2942 7.75338 16.615 9.03283 16.6153H9.03613C9.03576 16.6153 9.0365 16.6153 9.03613 16.6153C13.2499 16.6153 16.6802 13.1854 16.6817 8.96979C16.6824 6.92669 15.888 5.00568 14.4447 3.56052Z"/>
    </mask>
    <path d="M14.4447 3.56052L15.1522 2.85386L15.1521 2.85377L14.4447 3.56052ZM9.03613 1.31836L9.03649 0.318359H9.03613V1.31836ZM1.39021 8.96355L2.39021 8.9641V8.96399L1.39021 8.96355ZM2.41084 12.7858L3.37534 13.0498L3.48554 12.6473L3.27693 12.2859L2.41084 12.7858ZM1.32605 16.7481L0.361544 16.484L-0.0959046 18.1549L1.57977 17.7153L1.32605 16.7481ZM5.37924 15.6849L5.85821 14.8071L5.50963 14.6169L5.12552 14.7176L5.37924 15.6849ZM9.03283 16.6153L9.03254 17.6153H9.03283V16.6153ZM16.6817 8.96979L15.6817 8.96943V8.96944L16.6817 8.96979ZM15.1521 2.85377C13.5209 1.22086 11.3469 0.319188 9.03649 0.318359L9.03577 2.31836C10.8159 2.319 12.4811 3.00986 13.7372 4.26727L15.1521 2.85377ZM9.03613 0.318359C4.26917 0.318359 0.392279 4.19575 0.390206 8.96312L2.39021 8.96399C2.3918 5.30016 5.3741 2.31836 9.03613 2.31836V0.318359ZM0.390206 8.96301C0.389377 10.4859 0.787644 11.9739 1.54474 13.2857L3.27693 12.2859C2.69592 11.2792 2.38957 10.1365 2.39021 8.9641L0.390206 8.96301ZM1.44633 12.5217L0.361544 16.484L2.29056 17.0121L3.37534 13.0498L1.44633 12.5217ZM1.57977 17.7153L5.63296 16.6522L5.12552 14.7176L1.07233 15.7808L1.57977 17.7153ZM4.90027 16.5627C6.16428 17.2524 7.58639 17.6149 9.03254 17.6153L9.03312 15.6153C7.92036 15.615 6.82756 15.336 5.85821 14.8071L4.90027 16.5627ZM9.03283 17.6153H9.03613V15.6153H9.03283V17.6153ZM9.03613 17.6153C9.03613 17.6153 9.03613 17.6153 9.03613 17.6153C9.03613 17.6153 9.03613 17.6153 9.03613 17.6153C9.03614 17.6153 9.03614 17.6153 9.03614 17.6153C9.03614 17.6153 9.03614 17.6153 9.03614 17.6153C9.03614 17.6153 9.03614 17.6153 9.03614 17.6153C9.03614 17.6153 9.03614 17.6153 9.03614 17.6153C9.03614 17.6153 9.03614 17.6153 9.03614 17.6153C9.03615 17.6153 9.03615 17.6153 9.03615 17.6153C9.03615 17.6153 9.03615 17.6153 9.03615 17.6153C9.03615 17.6153 9.03615 17.6153 9.03615 17.6153C9.03615 17.6153 9.03615 17.6153 9.03615 17.6153C9.03615 17.6153 9.03615 17.6153 9.03615 17.6153C9.03616 17.6153 9.03616 17.6153 9.03616 17.6153C9.03616 17.6153 9.03616 17.6153 9.03616 17.6153C9.03616 17.6153 9.03616 17.6153 9.03616 17.6153C9.03616 17.6153 9.03616 17.6153 9.03616 17.6153C9.03616 17.6153 9.03616 17.6153 9.03616 17.6153C9.03616 17.6153 9.03616 17.6153 9.03617 17.6153C9.03617 17.6153 9.03617 17.6153 9.03617 17.6153C9.03617 17.6153 9.03617 17.6153 9.03617 17.6153C9.03617 17.6153 9.03617 17.6153 9.03617 17.6153C9.03617 17.6153 9.03617 17.6153 9.03617 17.6153C9.03617 17.6153 9.03617 17.6153 9.03617 17.6153C9.03617 17.6153 9.03617 17.6153 9.03617 17.6153C9.03618 17.6153 9.03618 17.6153 9.03618 17.6153C9.03618 17.6153 9.03618 17.6153 9.03618 17.6153C9.03618 17.6153 9.03618 17.6153 9.03618 17.6153C9.03618 17.6153 9.03618 17.6153 9.03618 17.6153C9.03618 17.6153 9.03618 17.6153 9.03618 17.6153C9.03618 17.6153 9.03618 17.6153 9.03618 17.6153C9.03618 17.6153 9.03618 17.6153 9.03619 17.6153C9.03619 17.6153 9.03619 17.6153 9.03619 17.6153C9.03619 17.6153 9.03619 17.6153 9.03619 17.6153C9.03619 17.6153 9.03619 17.6153 9.03619 17.6153C9.03619 17.6153 9.03619 17.6153 9.03619 17.6153C9.03619 17.6153 9.03619 17.6153 9.03619 17.6153C9.03619 17.6153 9.03619 17.6153 9.03619 17.6153C9.03619 17.6153 9.03619 17.6153 9.03619 17.6153C9.0362 17.6153 9.0362 17.6153 9.0362 17.6153C9.0362 17.6153 9.0362 17.6153 9.0362 17.6153C9.0362 17.6153 9.0362 17.6153 9.0362 17.6153C9.0362 17.6153 9.0362 17.6153 9.0362 17.6153C9.0362 17.6153 9.0362 17.6153 9.0362 17.6153C9.0362 17.6153 9.0362 17.6153 9.0362 17.6153C9.0362 17.6153 9.0362 17.6153 9.0362 17.6153C9.0362 17.6153 9.0362 17.6153 9.0362 17.6153C9.0362 17.6153 9.0362 17.6153 9.03621 17.6153C9.03621 17.6153 9.03621 17.6153 9.03621 17.6153C9.03621 17.6153 9.03621 17.6153 9.03621 17.6153C9.03621 17.6153 9.03621 17.6153 9.03621 17.6153C9.03621 17.6153 9.03621 17.6153 9.03621 17.6153C9.03621 17.6153 9.03621 17.6153 9.03621 17.6153C9.03621 17.6153 9.03621 17.6153 9.03621 17.6153C9.03621 17.6153 9.03621 17.6153 9.03621 17.6153C9.03621 17.6153 9.03621 17.6153 9.03621 17.6153H9.03621C9.03621 17.6153 9.03621 17.6153 9.03621 17.6153C9.03622 17.6153 9.03622 17.6153 9.03622 17.6153C9.03622 17.6153 9.03622 17.6153 9.03622 17.6153C9.03622 17.6153 9.03622 17.6153 9.03622 17.6153H9.03622C9.03622 17.6153 9.03622 17.6153 9.03622 17.6153C9.03622 17.6153 9.03622 17.6153 9.03622 17.6153H9.03622C9.03622 17.6153 9.03622 17.6153 9.03622 17.6153H9.03622C9.03622 17.6153 9.03622 17.6153 9.03622 17.6153H9.03622C9.03622 17.6153 9.03622 17.6153 9.03622 17.6153C9.03622 17.6153 9.03622 17.6153 9.03622 17.6153H9.03623H9.03623C9.03623 17.6153 9.03623 17.6153 9.03623 17.6153C9.03623 17.6153 9.03623 17.6153 9.03623 17.6153C9.03623 17.6153 9.03623 17.6153 9.03623 17.6153H9.03623H9.03623H9.03623H9.03623H9.03623H9.03623H9.03623C9.03623 17.6153 9.03623 17.6153 9.03623 17.6153C9.03623 17.6153 9.03623 17.6153 9.03623 17.6153C9.03623 17.6153 9.03623 17.6153 9.03623 17.6153C9.03623 17.6153 9.03623 17.6153 9.03623 17.6153C9.03623 17.6153 9.03623 17.6153 9.03623 17.6153C9.03623 17.6153 9.03623 17.6153 9.03623 17.6153H9.03623H9.03623C9.03623 17.6153 9.03623 17.6153 9.03624 17.6153C9.03624 17.6153 9.03624 17.6153 9.03624 17.6153C9.03624 17.6153 9.03624 17.6153 9.03624 17.6153C9.03624 16.6153 9.03624 15.6153 9.03624 15.6153H9.03624C9.03624 15.6153 9.03624 15.6153 9.03624 15.6153C9.03624 15.6153 9.03624 15.6153 9.03623 15.6153H9.03623H9.03623H9.03623C9.03623 15.6153 9.03623 15.6153 9.03623 15.6153C9.03623 15.6153 9.03623 15.6153 9.03623 15.6153H9.03623C9.03623 15.6153 9.03623 15.6153 9.03623 15.6153C9.03623 15.6153 9.03623 15.6153 9.03623 15.6153H9.03623C9.03623 15.6153 9.03623 15.6153 9.03623 15.6153C9.03623 15.6153 9.03623 15.6153 9.03623 15.6153C9.03623 15.6153 9.03623 15.6153 9.03623 15.6153C9.03623 15.6153 9.03623 15.6153 9.03623 15.6153H9.03623H9.03623H9.03623H9.03623H9.03623H9.03623H9.03623H9.03622C9.03622 15.6153 9.03622 15.6153 9.03622 15.6153C9.03622 15.6153 9.03622 15.6153 9.03622 15.6153C9.03622 15.6153 9.03622 15.6153 9.03622 15.6153C9.03622 15.6153 9.03622 15.6153 9.03622 15.6153H9.03622H9.03622C9.03622 15.6153 9.03622 15.6153 9.03622 15.6153C9.03622 15.6153 9.03622 15.6153 9.03622 15.6153C9.03622 15.6153 9.03622 15.6153 9.03622 15.6153H9.03622C9.03622 15.6153 9.03622 15.6153 9.03622 15.6153C9.03622 15.6153 9.03622 15.6153 9.03622 15.6153H9.03622C9.03622 15.6153 9.03622 15.6153 9.03622 15.6153C9.03622 15.6153 9.03622 15.6153 9.03622 15.6153H9.03622C9.03621 15.6153 9.03621 15.6153 9.03621 15.6153H9.03621C9.03621 15.6153 9.03621 15.6153 9.03621 15.6153H9.03621C9.03621 15.6153 9.03621 15.6153 9.03621 15.6153H9.03621C9.03621 15.6153 9.03621 15.6153 9.03621 15.6153H9.03621C9.03621 15.6153 9.03621 15.6153 9.03621 15.6153H9.03621C9.03621 15.6153 9.03621 15.6153 9.03621 15.6153C9.03621 15.6153 9.03621 15.6153 9.03621 15.6153H9.03621C9.03621 15.6153 9.03621 15.6153 9.0362 15.6153C9.0362 15.6153 9.0362 15.6153 9.0362 15.6153H9.0362C9.0362 15.6153 9.0362 15.6153 9.0362 15.6153C9.0362 15.6153 9.0362 15.6153 9.0362 15.6153H9.0362C9.0362 15.6153 9.0362 15.6153 9.0362 15.6153C9.0362 15.6153 9.0362 15.6153 9.0362 15.6153C9.0362 15.6153 9.0362 15.6153 9.0362 15.6153H9.0362C9.0362 15.6153 9.0362 15.6153 9.0362 15.6153C9.0362 15.6153 9.0362 15.6153 9.0362 15.6153C9.0362 15.6153 9.0362 15.6153 9.03619 15.6153C9.03619 15.6153 9.03619 15.6153 9.03619 15.6153C9.03619 15.6153 9.03619 15.6153 9.03619 15.6153H9.03619C9.03619 15.6153 9.03619 15.6153 9.03619 15.6153C9.03619 15.6153 9.03619 15.6153 9.03619 15.6153C9.03619 15.6153 9.03619 15.6153 9.03619 15.6153C9.03619 15.6153 9.03619 15.6153 9.03619 15.6153C9.03619 15.6153 9.03619 15.6153 9.03619 15.6153C9.03619 15.6153 9.03619 15.6153 9.03619 15.6153C9.03619 15.6153 9.03619 15.6153 9.03619 15.6153C9.03619 15.6153 9.03619 15.6153 9.03618 15.6153C9.03618 15.6153 9.03618 15.6153 9.03618 15.6153C9.03618 15.6153 9.03618 15.6153 9.03618 15.6153C9.03618 15.6153 9.03618 15.6153 9.03618 15.6153C9.03618 15.6153 9.03618 15.6153 9.03618 15.6153C9.03618 15.6153 9.03618 15.6153 9.03618 15.6153C9.03618 15.6153 9.03618 15.6153 9.03618 15.6153C9.03618 15.6153 9.03618 15.6153 9.03618 15.6153C9.03618 15.6153 9.03618 15.6153 9.03618 15.6153C9.03618 15.6153 9.03618 15.6153 9.03618 15.6153C9.03618 15.6153 9.03618 15.6153 9.03618 15.6153C9.03617 15.6153 9.03617 15.6153 9.03617 15.6153C9.03617 15.6153 9.03617 15.6153 9.03617 15.6153C9.03617 15.6153 9.03617 15.6153 9.03617 15.6153C9.03617 15.6153 9.03617 15.6153 9.03617 15.6153C9.03617 15.6153 9.03617 15.6153 9.03617 15.6153C9.03617 15.6153 9.03617 15.6153 9.03617 15.6153C9.03617 15.6153 9.03617 15.6153 9.03617 15.6153C9.03617 15.6153 9.03617 15.6153 9.03617 15.6153C9.03617 15.6153 9.03617 15.6153 9.03617 15.6153C9.03617 15.6153 9.03617 15.6153 9.03617 15.6153C9.03616 15.6153 9.03616 15.6153 9.03616 15.6153C9.03616 15.6153 9.03616 15.6153 9.03616 15.6153C9.03616 15.6153 9.03616 15.6153 9.03616 15.6153C9.03616 15.6153 9.03616 15.6153 9.03616 15.6153C9.03616 15.6153 9.03616 15.6153 9.03616 15.6153C9.03616 15.6153 9.03616 15.6153 9.03616 15.6153C9.03616 15.6153 9.03616 15.6153 9.03616 15.6153C9.03616 15.6153 9.03616 15.6153 9.03616 15.6153C9.03616 15.6153 9.03616 15.6153 9.03616 15.6153C9.03616 15.6153 9.03616 15.6153 9.03615 15.6153C9.03615 15.6153 9.03615 15.6153 9.03615 15.6153C9.03615 15.6153 9.03615 15.6153 9.03615 15.6153C9.03615 15.6153 9.03615 15.6153 9.03615 15.6153C9.03615 15.6153 9.03615 15.6153 9.03615 15.6153C9.03615 15.6153 9.03615 15.6153 9.03615 15.6153C9.03615 15.6153 9.03615 15.6153 9.03615 15.6153C9.03615 15.6153 9.03615 15.6153 9.03615 15.6153C9.03615 15.6153 9.03615 15.6153 9.03615 15.6153C9.03615 15.6153 9.03615 15.6153 9.03615 15.6153C9.03615 15.6153 9.03614 15.6153 9.03614 15.6153C9.03614 15.6153 9.03614 15.6153 9.03614 15.6153C9.03614 15.6153 9.03614 15.6153 9.03614 15.6153C9.03614 15.6153 9.03614 15.6153 9.03614 15.6153C9.03614 15.6153 9.03614 15.6153 9.03614 15.6153C9.03614 15.6153 9.03614 15.6153 9.03614 15.6153C9.03614 15.6153 9.03614 15.6153 9.03614 15.6153C9.03614 15.6153 9.03614 15.6153 9.03614 15.6153C9.03614 15.6153 9.03614 15.6153 9.03614 15.6153C9.03614 15.6153 9.03614 15.6153 9.03613 15.6153C9.03613 15.6153 9.03613 15.6153 9.03613 15.6153C9.03613 15.6153 9.03613 15.6153 9.03613 15.6153C9.03613 15.6153 9.03613 15.6153 9.03613 15.6153C9.03613 15.6153 9.03613 15.6153 9.03613 15.6153C9.03613 15.6153 9.03613 15.6153 9.03613 15.6153C9.03613 15.6153 9.03613 15.6153 9.03613 15.6153C9.03613 15.6153 9.03613 15.6153 9.03613 15.6153C9.03613 15.6153 9.03613 15.6153 9.03613 15.6153C9.03613 15.6153 9.03613 15.6153 9.03613 15.6153C9.03612 15.6153 9.03612 15.6153 9.03612 15.6153C9.03612 15.6153 9.03612 15.6153 9.03612 15.6153C9.03612 15.6153 9.03612 15.6153 9.03612 15.6153C9.03612 15.6153 9.03612 15.6153 9.03612 15.6153C9.03612 15.6153 9.03612 15.6153 9.03612 15.6153C9.03612 15.6153 9.03612 15.6153 9.03612 15.6153C9.03612 15.6153 9.03612 15.6153 9.03612 15.6153C9.03612 15.6153 9.03612 15.6153 9.03612 15.6153C9.03612 15.6153 9.03612 15.6153 9.03612 15.6153C9.03612 15.6153 9.03611 15.6153 9.03611 15.6153C9.03611 15.6153 9.03611 15.6153 9.03611 15.6153C9.03611 15.6153 9.03611 15.6153 9.03611 15.6153C9.03611 15.6153 9.03611 15.6153 9.03611 15.6153C9.03611 15.6153 9.03611 15.6153 9.03611 15.6153C9.03611 15.6153 9.03611 15.6153 9.03611 15.6153C9.03611 15.6153 9.03611 15.6153 9.03611 15.6153C9.03611 15.6153 9.03611 15.6153 9.03611 15.6153C9.03611 15.6153 9.03611 15.6153 9.03611 15.6153C9.03611 15.6153 9.03611 15.6153 9.0361 15.6153C9.0361 15.6153 9.0361 15.6153 9.0361 15.6153C9.0361 15.6153 9.0361 15.6153 9.0361 15.6153C9.0361 15.6153 9.0361 15.6153 9.0361 15.6153C9.0361 15.6153 9.0361 15.6153 9.0361 15.6153C9.0361 15.6153 9.0361 15.6153 9.0361 15.6153C9.0361 15.6153 9.0361 15.6153 9.0361 15.6153C9.0361 15.6153 9.0361 15.6153 9.0361 15.6153C9.0361 15.6153 9.0361 15.6153 9.0361 15.6153C9.0361 15.6153 9.0361 15.6153 9.0361 15.6153C9.0361 15.6153 9.03609 15.6153 9.03609 15.6153C9.03609 15.6153 9.03609 15.6153 9.03609 15.6153C9.03609 15.6153 9.03609 15.6153 9.03609 15.6153C9.03609 15.6153 9.03609 15.6153 9.03609 15.6153C9.03609 15.6153 9.03609 15.6153 9.03609 15.6153C9.03609 15.6153 9.03609 15.6153 9.03609 15.6153C9.03609 15.6153 9.03609 15.6153 9.03609 15.6153C9.03609 15.6153 9.03609 15.6153 9.03609 15.6153C9.03609 15.6153 9.03609 15.6153 9.03609 15.6153C9.03609 15.6153 9.03609 15.6153 9.03609 15.6153C9.03609 15.6153 9.03608 15.6153 9.03608 15.6153C9.03608 15.6153 9.03608 15.6153 9.03608 15.6153C9.03608 15.6153 9.03608 15.6153 9.03608 15.6153C9.03608 15.6153 9.03608 15.6153 9.03608 15.6153C9.03608 15.6153 9.03608 15.6153 9.03608 15.6153C9.03608 15.6153 9.03608 15.6153 9.03608 15.6153C9.03608 15.6153 9.03608 15.6153 9.03608 15.6153C9.03608 15.6153 9.03608 15.6153 9.03608 15.6153C9.03608 15.6153 9.03608 15.6153 9.03608 15.6153C9.03608 15.6153 9.03608 15.6153 9.03608 15.6153C9.03608 15.6153 9.03608 15.6153 9.03608 15.6153C9.03607 15.6153 9.03607 15.6153 9.03607 15.6153C9.03607 15.6153 9.03607 15.6153 9.03607 15.6153C9.03607 15.6153 9.03607 15.6153 9.03607 15.6153C9.03607 15.6153 9.03607 15.6153 9.03607 15.6153C9.03607 15.6153 9.03607 15.6153 9.03607 15.6153C9.03607 15.6153 9.03607 15.6153 9.03607 15.6153C9.03607 15.6153 9.03607 15.6153 9.03607 15.6153H9.03607C9.03607 15.6153 9.03607 15.6153 9.03607 15.6153C9.03607 15.6153 9.03607 15.6153 9.03607 15.6153C9.03607 15.6153 9.03607 15.6153 9.03607 15.6153C9.03606 15.6153 9.03606 15.6153 9.03606 15.6153C9.03606 15.6153 9.03606 15.6153 9.03606 15.6153H9.03606C9.03606 15.6153 9.03606 15.6153 9.03606 15.6153C9.03606 15.6153 9.03606 15.6153 9.03606 15.6153C9.03606 15.6153 9.03606 15.6153 9.03606 15.6153H9.03606C9.03606 15.6153 9.03606 15.6153 9.03606 15.6153C9.03606 15.6153 9.03606 15.6153 9.03606 15.6153H9.03606C9.03606 15.6153 9.03606 15.6153 9.03606 15.6153C9.03606 15.6153 9.03606 15.6153 9.03606 15.6153H9.03605C9.03605 15.6153 9.03605 15.6153 9.03605 15.6153C9.03605 15.6153 9.03605 15.6153 9.03605 15.6153H9.03605C9.03605 15.6153 9.03605 15.6153 9.03605 15.6153H9.03605C9.03605 15.6153 9.03605 15.6153 9.03605 15.6153H9.03605C9.03605 15.6153 9.03605 15.6153 9.03605 15.6153H9.03605C9.03605 15.6153 9.03605 15.6153 9.03605 15.6153H9.03605C9.03605 15.6153 9.03605 15.6153 9.03605 15.6153H9.03605C9.03604 15.6153 9.03604 15.6153 9.03604 15.6153C9.03604 15.6153 9.03604 15.6153 9.03604 15.6153H9.03604C9.03604 15.6153 9.03604 15.6153 9.03604 15.6153C9.03604 15.6153 9.03604 15.6153 9.03604 15.6153H9.03604C9.03604 15.6153 9.03604 15.6153 9.03604 15.6153C9.03604 15.6153 9.03604 15.6153 9.03604 15.6153H9.03604H9.03604C9.03604 15.6153 9.03604 15.6153 9.03604 15.6153C9.03604 15.6153 9.03604 15.6153 9.03604 15.6153C9.03604 15.6153 9.03604 15.6153 9.03604 15.6153C9.03604 15.6153 9.03604 15.6153 9.03604 15.6153C9.03604 15.6153 9.03604 15.6153 9.03604 15.6153H9.03604H9.03604H9.03603H9.03603H9.03603H9.03603H9.03603H9.03603C9.03603 15.6153 9.03603 15.6153 9.03603 15.6153C9.03603 15.6153 9.03603 15.6153 9.03603 15.6153C9.03603 15.6153 9.03603 15.6153 9.03603 15.6153C9.03603 15.6153 9.03603 15.6153 9.03603 15.6153H9.03603C9.03603 15.6153 9.03603 15.6153 9.03603 15.6153C9.03603 15.6153 9.03603 15.6153 9.03603 15.6153H9.03603C9.03603 15.6153 9.03603 15.6153 9.03603 15.6153C9.03603 15.6153 9.03603 15.6153 9.03603 15.6153H9.03603C9.03603 15.6153 9.03603 15.6153 9.03603 15.6153H9.03603C9.03603 15.6153 9.03603 15.6153 9.03603 15.6153C9.03603 15.6153 9.03603 15.6153 9.03603 15.6153C9.03602 15.6153 9.03602 15.6153 9.03602 15.6153C9.03602 15.6153 9.03602 16.6153 9.03602 17.6153H9.03603H9.03603H9.03603H9.03603H9.03603H9.03603C9.03603 17.6153 9.03603 17.6153 9.03603 17.6153H9.03603C9.03603 17.6153 9.03603 17.6153 9.03603 17.6153C9.03603 17.6153 9.03603 17.6153 9.03603 17.6153C9.03603 17.6153 9.03603 17.6153 9.03603 17.6153H9.03603H9.03603H9.03603H9.03603H9.03603H9.03603H9.03603H9.03603C9.03603 17.6153 9.03603 17.6153 9.03603 17.6153C9.03603 17.6153 9.03603 17.6153 9.03604 17.6153C9.03604 17.6153 9.03604 17.6153 9.03604 17.6153H9.03604C9.03604 17.6153 9.03604 17.6153 9.03604 17.6153C9.03604 17.6153 9.03604 17.6153 9.03604 17.6153H9.03604C9.03604 17.6153 9.03604 17.6153 9.03604 17.6153H9.03604C9.03604 17.6153 9.03604 17.6153 9.03604 17.6153H9.03604C9.03604 17.6153 9.03604 17.6153 9.03604 17.6153C9.03604 17.6153 9.03604 17.6153 9.03604 17.6153H9.03604C9.03604 17.6153 9.03604 17.6153 9.03604 17.6153C9.03604 17.6153 9.03604 17.6153 9.03605 17.6153C9.03605 17.6153 9.03605 17.6153 9.03605 17.6153H9.03605C9.03605 17.6153 9.03605 17.6153 9.03605 17.6153C9.03605 17.6153 9.03605 17.6153 9.03605 17.6153C9.03605 17.6153 9.03605 17.6153 9.03605 17.6153C9.03605 17.6153 9.03605 17.6153 9.03605 17.6153C9.03605 17.6153 9.03605 17.6153 9.03605 17.6153C9.03605 17.6153 9.03605 17.6153 9.03605 17.6153C9.03605 17.6153 9.03605 17.6153 9.03605 17.6153C9.03605 17.6153 9.03605 17.6153 9.03605 17.6153C9.03605 17.6153 9.03606 17.6153 9.03606 17.6153C9.03606 17.6153 9.03606 17.6153 9.03606 17.6153C9.03606 17.6153 9.03606 17.6153 9.03606 17.6153C9.03606 17.6153 9.03606 17.6153 9.03606 17.6153C9.03606 17.6153 9.03606 17.6153 9.03606 17.6153C9.03606 17.6153 9.03606 17.6153 9.03606 17.6153C9.03606 17.6153 9.03606 17.6153 9.03606 17.6153C9.03606 17.6153 9.03606 17.6153 9.03606 17.6153C9.03606 17.6153 9.03606 17.6153 9.03606 17.6153C9.03607 17.6153 9.03607 17.6153 9.03607 17.6153C9.03607 17.6153 9.03607 17.6153 9.03607 17.6153C9.03607 17.6153 9.03607 17.6153 9.03607 17.6153C9.03607 17.6153 9.03607 17.6153 9.03607 17.6153C9.03607 17.6153 9.03607 17.6153 9.03607 17.6153C9.03607 17.6153 9.03607 17.6153 9.03607 17.6153C9.03607 17.6153 9.03607 17.6153 9.03607 17.6153C9.03607 17.6153 9.03608 17.6153 9.03608 17.6153C9.03608 17.6153 9.03608 17.6153 9.03608 17.6153C9.03608 17.6153 9.03608 17.6153 9.03608 17.6153C9.03608 17.6153 9.03608 17.6153 9.03608 17.6153C9.03608 17.6153 9.03608 17.6153 9.03608 17.6153C9.03608 17.6153 9.03608 17.6153 9.03608 17.6153C9.03608 17.6153 9.03608 17.6153 9.03608 17.6153C9.03608 17.6153 9.03609 17.6153 9.03609 17.6153C9.03609 17.6153 9.03609 17.6153 9.03609 17.6153C9.03609 17.6153 9.03609 17.6153 9.03609 17.6153C9.03609 17.6153 9.03609 17.6153 9.03609 17.6153C9.03609 17.6153 9.03609 17.6153 9.03609 17.6153C9.03609 17.6153 9.03609 17.6153 9.03609 17.6153C9.03609 17.6153 9.0361 17.6153 9.0361 17.6153C9.0361 17.6153 9.0361 17.6153 9.0361 17.6153C9.0361 17.6153 9.0361 17.6153 9.0361 17.6153C9.0361 17.6153 9.0361 17.6153 9.0361 17.6153C9.0361 17.6153 9.0361 17.6153 9.0361 17.6153C9.0361 17.6153 9.0361 17.6153 9.0361 17.6153C9.03611 17.6153 9.03611 17.6153 9.03611 17.6153C9.03611 17.6153 9.03611 17.6153 9.03611 17.6153C9.03611 17.6153 9.03611 17.6153 9.03611 17.6153C9.03611 17.6153 9.03611 17.6153 9.03611 17.6153C9.03611 17.6153 9.03611 17.6153 9.03611 17.6153C9.03611 17.6153 9.03612 17.6153 9.03612 17.6153C9.03612 17.6153 9.03612 17.6153 9.03612 17.6153C9.03612 17.6153 9.03612 17.6153 9.03612 17.6153C9.03612 17.6153 9.03612 17.6153 9.03612 17.6153C9.03612 17.6153 9.03612 17.6153 9.03612 17.6153C9.03612 17.6153 9.03613 17.6153 9.03613 17.6153C9.03613 17.6153 9.03613 17.6153 9.03613 17.6153C9.03613 17.6153 9.03613 17.6153 9.03613 17.6153V15.6153C9.03613 15.6153 9.03613 15.6153 9.03613 15.6153C9.03613 15.6153 9.03613 15.6153 9.03613 15.6153C9.03613 15.6153 9.03612 15.6153 9.03612 15.6153C9.03612 15.6153 9.03612 15.6153 9.03612 15.6153C9.03612 15.6153 9.03612 15.6153 9.03612 15.6153C9.03612 15.6153 9.03612 15.6153 9.03612 15.6153C9.03612 15.6153 9.03612 15.6153 9.03612 15.6153C9.03612 15.6153 9.03611 15.6153 9.03611 15.6153C9.03611 15.6153 9.03611 15.6153 9.03611 15.6153C9.03611 15.6153 9.03611 15.6153 9.03611 15.6153C9.03611 15.6153 9.03611 15.6153 9.03611 15.6153C9.03611 15.6153 9.03611 15.6153 9.03611 15.6153C9.03611 15.6153 9.03611 15.6153 9.0361 15.6153C9.0361 15.6153 9.0361 15.6153 9.0361 15.6153C9.0361 15.6153 9.0361 15.6153 9.0361 15.6153C9.0361 15.6153 9.0361 15.6153 9.0361 15.6153C9.0361 15.6153 9.0361 15.6153 9.0361 15.6153C9.0361 15.6153 9.0361 15.6153 9.0361 15.6153C9.0361 15.6153 9.03609 15.6153 9.03609 15.6153C9.03609 15.6153 9.03609 15.6153 9.03609 15.6153C9.03609 15.6153 9.03609 15.6153 9.03609 15.6153C9.03609 15.6153 9.03609 15.6153 9.03609 15.6153C9.03609 15.6153 9.03609 15.6153 9.03609 15.6153C9.03609 15.6153 9.03609 15.6153 9.03609 15.6153C9.03609 15.6153 9.03608 15.6153 9.03608 15.6153C9.03608 15.6153 9.03608 15.6153 9.03608 15.6153C9.03608 15.6153 9.03608 15.6153 9.03608 15.6153C9.03608 15.6153 9.03608 15.6153 9.03608 15.6153C9.03608 15.6153 9.03608 15.6153 9.03608 15.6153C9.03608 15.6153 9.03608 15.6153 9.03608 15.6153C9.03608 15.6153 9.03608 15.6153 9.03608 15.6153C9.03608 15.6153 9.03607 15.6153 9.03607 15.6153C9.03607 15.6153 9.03607 15.6153 9.03607 15.6153C9.03607 15.6153 9.03607 15.6153 9.03607 15.6153C9.03607 15.6153 9.03607 15.6153 9.03607 15.6153C9.03607 15.6153 9.03607 15.6153 9.03607 15.6153C9.03607 15.6153 9.03607 15.6153 9.03607 15.6153C9.03607 15.6153 9.03607 15.6153 9.03607 15.6153C9.03607 15.6153 9.03607 15.6153 9.03606 15.6153C9.03606 15.6153 9.03606 15.6153 9.03606 15.6153C9.03606 15.6153 9.03606 15.6153 9.03606 15.6153C9.03606 15.6153 9.03606 15.6153 9.03606 15.6153C9.03606 15.6153 9.03606 15.6153 9.03606 15.6153C9.03606 15.6153 9.03606 15.6153 9.03606 15.6153C9.03606 15.6153 9.03606 15.6153 9.03606 15.6153C9.03606 15.6153 9.03606 15.6153 9.03606 15.6153C9.03606 15.6153 9.03606 15.6153 9.03606 15.6153C9.03606 15.6153 9.03605 15.6153 9.03605 15.6153C9.03605 15.6153 9.03605 15.6153 9.03605 15.6153C9.03605 15.6153 9.03605 15.6153 9.03605 15.6153C9.03605 15.6153 9.03605 15.6153 9.03605 15.6153C9.03605 15.6153 9.03605 15.6153 9.03605 15.6153C9.03605 15.6153 9.03605 15.6153 9.03605 15.6153C9.03605 15.6153 9.03605 15.6153 9.03605 15.6153C9.03605 15.6153 9.03605 15.6153 9.03605 15.6153C9.03605 15.6153 9.03605 15.6153 9.03605 15.6153H9.03605C9.03605 15.6153 9.03605 15.6153 9.03605 15.6153C9.03604 15.6153 9.03604 15.6153 9.03604 15.6153C9.03604 15.6153 9.03604 15.6153 9.03604 15.6153H9.03604C9.03604 15.6153 9.03604 15.6153 9.03604 15.6153C9.03604 15.6153 9.03604 15.6153 9.03604 15.6153H9.03604C9.03604 15.6153 9.03604 15.6153 9.03604 15.6153H9.03604C9.03604 15.6153 9.03604 15.6153 9.03604 15.6153H9.03604C9.03604 15.6153 9.03604 15.6153 9.03604 15.6153C9.03604 15.6153 9.03604 15.6153 9.03604 15.6153H9.03604C9.03604 15.6153 9.03604 15.6153 9.03604 15.6153C9.03603 15.6153 9.03603 15.6153 9.03603 15.6153C9.03603 15.6153 9.03603 15.6153 9.03603 15.6153H9.03603H9.03603H9.03603H9.03603H9.03603H9.03603H9.03603H9.03603C9.03603 15.6153 9.03603 15.6153 9.03603 15.6153C9.03603 15.6153 9.03603 15.6153 9.03603 15.6153C9.03603 15.6153 9.03603 15.6153 9.03603 15.6153H9.03603C9.03603 15.6153 9.03603 15.6153 9.03603 15.6153H9.03603H9.03603H9.03603H9.03603H9.03603H9.03602C9.03602 16.6153 9.03602 17.6153 9.03602 17.6153C9.03602 17.6153 9.03602 17.6153 9.03603 17.6153C9.03603 17.6153 9.03603 17.6153 9.03603 17.6153C9.03603 17.6153 9.03603 17.6153 9.03603 17.6153H9.03603C9.03603 17.6153 9.03603 17.6153 9.03603 17.6153H9.03603C9.03603 17.6153 9.03603 17.6153 9.03603 17.6153C9.03603 17.6153 9.03603 17.6153 9.03603 17.6153H9.03603C9.03603 17.6153 9.03603 17.6153 9.03603 17.6153C9.03603 17.6153 9.03603 17.6153 9.03603 17.6153H9.03603C9.03603 17.6153 9.03603 17.6153 9.03603 17.6153C9.03603 17.6153 9.03603 17.6153 9.03603 17.6153C9.03603 17.6153 9.03603 17.6153 9.03603 17.6153C9.03603 17.6153 9.03603 17.6153 9.03603 17.6153H9.03603H9.03603H9.03603H9.03603H9.03603H9.03604H9.03604H9.03604C9.03604 17.6153 9.03604 17.6153 9.03604 17.6153C9.03604 17.6153 9.03604 17.6153 9.03604 17.6153C9.03604 17.6153 9.03604 17.6153 9.03604 17.6153C9.03604 17.6153 9.03604 17.6153 9.03604 17.6153C9.03604 17.6153 9.03604 17.6153 9.03604 17.6153H9.03604H9.03604C9.03604 17.6153 9.03604 17.6153 9.03604 17.6153C9.03604 17.6153 9.03604 17.6153 9.03604 17.6153H9.03604C9.03604 17.6153 9.03604 17.6153 9.03604 17.6153C9.03604 17.6153 9.03604 17.6153 9.03604 17.6153H9.03604C9.03604 17.6153 9.03604 17.6153 9.03604 17.6153C9.03604 17.6153 9.03604 17.6153 9.03605 17.6153H9.03605C9.03605 17.6153 9.03605 17.6153 9.03605 17.6153H9.03605C9.03605 17.6153 9.03605 17.6153 9.03605 17.6153H9.03605C9.03605 17.6153 9.03605 17.6153 9.03605 17.6153H9.03605C9.03605 17.6153 9.03605 17.6153 9.03605 17.6153H9.03605C9.03605 17.6153 9.03605 17.6153 9.03605 17.6153H9.03605C9.03605 17.6153 9.03605 17.6153 9.03605 17.6153C9.03605 17.6153 9.03605 17.6153 9.03605 17.6153H9.03606C9.03606 17.6153 9.03606 17.6153 9.03606 17.6153C9.03606 17.6153 9.03606 17.6153 9.03606 17.6153H9.03606C9.03606 17.6153 9.03606 17.6153 9.03606 17.6153C9.03606 17.6153 9.03606 17.6153 9.03606 17.6153H9.03606C9.03606 17.6153 9.03606 17.6153 9.03606 17.6153C9.03606 17.6153 9.03606 17.6153 9.03606 17.6153C9.03606 17.6153 9.03606 17.6153 9.03606 17.6153H9.03606C9.03606 17.6153 9.03606 17.6153 9.03606 17.6153C9.03606 17.6153 9.03606 17.6153 9.03607 17.6153C9.03607 17.6153 9.03607 17.6153 9.03607 17.6153C9.03607 17.6153 9.03607 17.6153 9.03607 17.6153C9.03607 17.6153 9.03607 17.6153 9.03607 17.6153H9.03607C9.03607 17.6153 9.03607 17.6153 9.03607 17.6153C9.03607 17.6153 9.03607 17.6153 9.03607 17.6153C9.03607 17.6153 9.03607 17.6153 9.03607 17.6153C9.03607 17.6153 9.03607 17.6153 9.03607 17.6153C9.03607 17.6153 9.03607 17.6153 9.03607 17.6153C9.03607 17.6153 9.03607 17.6153 9.03607 17.6153C9.03607 17.6153 9.03607 17.6153 9.03608 17.6153C9.03608 17.6153 9.03608 17.6153 9.03608 17.6153C9.03608 17.6153 9.03608 17.6153 9.03608 17.6153C9.03608 17.6153 9.03608 17.6153 9.03608 17.6153C9.03608 17.6153 9.03608 17.6153 9.03608 17.6153C9.03608 17.6153 9.03608 17.6153 9.03608 17.6153C9.03608 17.6153 9.03608 17.6153 9.03608 17.6153C9.03608 17.6153 9.03608 17.6153 9.03608 17.6153C9.03608 17.6153 9.03608 17.6153 9.03608 17.6153C9.03608 17.6153 9.03608 17.6153 9.03608 17.6153C9.03608 17.6153 9.03608 17.6153 9.03608 17.6153C9.03608 17.6153 9.03609 17.6153 9.03609 17.6153C9.03609 17.6153 9.03609 17.6153 9.03609 17.6153C9.03609 17.6153 9.03609 17.6153 9.03609 17.6153C9.03609 17.6153 9.03609 17.6153 9.03609 17.6153C9.03609 17.6153 9.03609 17.6153 9.03609 17.6153C9.03609 17.6153 9.03609 17.6153 9.03609 17.6153C9.03609 17.6153 9.03609 17.6153 9.03609 17.6153C9.03609 17.6153 9.03609 17.6153 9.03609 17.6153C9.03609 17.6153 9.03609 17.6153 9.03609 17.6153C9.03609 17.6153 9.03609 17.6153 9.03609 17.6153C9.03609 17.6153 9.0361 17.6153 9.0361 17.6153C9.0361 17.6153 9.0361 17.6153 9.0361 17.6153C9.0361 17.6153 9.0361 17.6153 9.0361 17.6153C9.0361 17.6153 9.0361 17.6153 9.0361 17.6153C9.0361 17.6153 9.0361 17.6153 9.0361 17.6153C9.0361 17.6153 9.0361 17.6153 9.0361 17.6153C9.0361 17.6153 9.0361 17.6153 9.0361 17.6153C9.0361 17.6153 9.0361 17.6153 9.0361 17.6153C9.0361 17.6153 9.0361 17.6153 9.0361 17.6153C9.0361 17.6153 9.0361 17.6153 9.0361 17.6153C9.03611 17.6153 9.03611 17.6153 9.03611 17.6153C9.03611 17.6153 9.03611 17.6153 9.03611 17.6153C9.03611 17.6153 9.03611 17.6153 9.03611 17.6153C9.03611 17.6153 9.03611 17.6153 9.03611 17.6153C9.03611 17.6153 9.03611 17.6153 9.03611 17.6153C9.03611 17.6153 9.03611 17.6153 9.03611 17.6153C9.03611 17.6153 9.03611 17.6153 9.03611 17.6153C9.03611 17.6153 9.03611 17.6153 9.03611 17.6153C9.03611 17.6153 9.03611 17.6153 9.03611 17.6153C9.03611 17.6153 9.03612 17.6153 9.03612 17.6153C9.03612 17.6153 9.03612 17.6153 9.03612 17.6153C9.03612 17.6153 9.03612 17.6153 9.03612 17.6153C9.03612 17.6153 9.03612 17.6153 9.03612 17.6153C9.03612 17.6153 9.03612 17.6153 9.03612 17.6153C9.03612 17.6153 9.03612 17.6153 9.03612 17.6153C9.03612 17.6153 9.03612 17.6153 9.03612 17.6153C9.03612 17.6153 9.03612 17.6153 9.03612 17.6153C9.03612 17.6153 9.03612 17.6153 9.03612 17.6153C9.03612 17.6153 9.03612 17.6153 9.03613 17.6153C9.03613 17.6153 9.03613 17.6153 9.03613 17.6153C9.03613 17.6153 9.03613 17.6153 9.03613 17.6153C9.03613 17.6153 9.03613 17.6153 9.03613 17.6153C9.03613 17.6153 9.03613 17.6153 9.03613 17.6153C9.03613 17.6153 9.03613 17.6153 9.03613 17.6153C9.03613 17.6153 9.03613 17.6153 9.03613 17.6153C9.03613 17.6153 9.03613 17.6153 9.03613 17.6153C9.03613 17.6153 9.03613 17.6153 9.03613 17.6153C9.03613 17.6153 9.03613 17.6153 9.03613 17.6153C9.03614 17.6153 9.03614 17.6153 9.03614 17.6153C9.03614 17.6153 9.03614 17.6153 9.03614 17.6153C9.03614 17.6153 9.03614 17.6153 9.03614 17.6153C9.03614 17.6153 9.03614 17.6153 9.03614 17.6153C9.03614 17.6153 9.03614 17.6153 9.03614 17.6153C9.03614 17.6153 9.03614 17.6153 9.03614 17.6153C9.03614 17.6153 9.03614 17.6153 9.03614 17.6153C9.03614 17.6153 9.03614 17.6153 9.03614 17.6153C9.03614 17.6153 9.03614 17.6153 9.03614 17.6153C9.03614 17.6153 9.03615 17.6153 9.03615 17.6153C9.03615 17.6153 9.03615 17.6153 9.03615 17.6153C9.03615 17.6153 9.03615 17.6153 9.03615 17.6153C9.03615 17.6153 9.03615 17.6153 9.03615 17.6153C9.03615 17.6153 9.03615 17.6153 9.03615 17.6153C9.03615 17.6153 9.03615 17.6153 9.03615 17.6153C9.03615 17.6153 9.03615 17.6153 9.03615 17.6153C9.03615 17.6153 9.03615 17.6153 9.03615 17.6153C9.03615 17.6153 9.03615 17.6153 9.03615 17.6153C9.03615 17.6153 9.03615 17.6153 9.03615 17.6153C9.03616 17.6153 9.03616 17.6153 9.03616 17.6153C9.03616 17.6153 9.03616 17.6153 9.03616 17.6153C9.03616 17.6153 9.03616 17.6153 9.03616 17.6153C9.03616 17.6153 9.03616 17.6153 9.03616 17.6153C9.03616 17.6153 9.03616 17.6153 9.03616 17.6153C9.03616 17.6153 9.03616 17.6153 9.03616 17.6153C9.03616 17.6153 9.03616 17.6153 9.03616 17.6153C9.03616 17.6153 9.03616 17.6153 9.03616 17.6153C9.03616 17.6153 9.03616 17.6153 9.03616 17.6153C9.03616 17.6153 9.03616 17.6153 9.03617 17.6153C9.03617 17.6153 9.03617 17.6153 9.03617 17.6153C9.03617 17.6153 9.03617 17.6153 9.03617 17.6153C9.03617 17.6153 9.03617 17.6153 9.03617 17.6153C9.03617 17.6153 9.03617 17.6153 9.03617 17.6153C9.03617 17.6153 9.03617 17.6153 9.03617 17.6153C9.03617 17.6153 9.03617 17.6153 9.03617 17.6153C9.03617 17.6153 9.03617 17.6153 9.03617 17.6153C9.03617 17.6153 9.03617 17.6153 9.03617 17.6153C9.03617 17.6153 9.03617 17.6153 9.03617 17.6153C9.03617 17.6153 9.03617 17.6153 9.03618 17.6153C9.03618 17.6153 9.03618 17.6153 9.03618 17.6153C9.03618 17.6153 9.03618 17.6153 9.03618 17.6153C9.03618 17.6153 9.03618 17.6153 9.03618 17.6153C9.03618 17.6153 9.03618 17.6153 9.03618 17.6153C9.03618 17.6153 9.03618 17.6153 9.03618 17.6153C9.03618 17.6153 9.03618 17.6153 9.03618 17.6153C9.03618 17.6153 9.03618 17.6153 9.03618 17.6153C9.03618 17.6153 9.03618 17.6153 9.03618 17.6153C9.03618 17.6153 9.03618 17.6153 9.03618 17.6153C9.03618 17.6153 9.03618 17.6153 9.03618 17.6153C9.03619 17.6153 9.03619 17.6153 9.03619 17.6153C9.03619 17.6153 9.03619 17.6153 9.03619 17.6153C9.03619 17.6153 9.03619 17.6153 9.03619 17.6153C9.03619 17.6153 9.03619 17.6153 9.03619 17.6153C9.03619 17.6153 9.03619 17.6153 9.03619 17.6153C9.03619 17.6153 9.03619 17.6153 9.03619 17.6153C9.03619 17.6153 9.03619 17.6153 9.03619 17.6153C9.03619 17.6153 9.03619 17.6153 9.03619 17.6153H9.03619C9.03619 17.6153 9.03619 17.6153 9.03619 17.6153C9.03619 17.6153 9.03619 17.6153 9.03619 17.6153C9.0362 17.6153 9.0362 17.6153 9.0362 17.6153C9.0362 17.6153 9.0362 17.6153 9.0362 17.6153C9.0362 17.6153 9.0362 17.6153 9.0362 17.6153H9.0362C9.0362 17.6153 9.0362 17.6153 9.0362 17.6153C9.0362 17.6153 9.0362 17.6153 9.0362 17.6153C9.0362 17.6153 9.0362 17.6153 9.0362 17.6153H9.0362C9.0362 17.6153 9.0362 17.6153 9.0362 17.6153C9.0362 17.6153 9.0362 17.6153 9.0362 17.6153H9.0362C9.0362 17.6153 9.0362 17.6153 9.0362 17.6153C9.03621 17.6153 9.03621 17.6153 9.03621 17.6153H9.03621C9.03621 17.6153 9.03621 17.6153 9.03621 17.6153C9.03621 17.6153 9.03621 17.6153 9.03621 17.6153H9.03621C9.03621 17.6153 9.03621 17.6153 9.03621 17.6153H9.03621C9.03621 17.6153 9.03621 17.6153 9.03621 17.6153H9.03621C9.03621 17.6153 9.03621 17.6153 9.03621 17.6153H9.03621C9.03621 17.6153 9.03621 17.6153 9.03621 17.6153H9.03621C9.03621 17.6153 9.03621 17.6153 9.03622 17.6153H9.03622C9.03622 17.6153 9.03622 17.6153 9.03622 17.6153C9.03622 17.6153 9.03622 17.6153 9.03622 17.6153H9.03622C9.03622 17.6153 9.03622 17.6153 9.03622 17.6153C9.03622 17.6153 9.03622 17.6153 9.03622 17.6153H9.03622C9.03622 17.6153 9.03622 17.6153 9.03622 17.6153C9.03622 17.6153 9.03622 17.6153 9.03622 17.6153C9.03622 17.6153 9.03622 17.6153 9.03622 17.6153H9.03622H9.03622C9.03622 17.6153 9.03622 17.6153 9.03622 17.6153C9.03622 17.6153 9.03622 17.6153 9.03622 17.6153C9.03622 17.6153 9.03622 17.6153 9.03622 17.6153C9.03622 17.6153 9.03622 17.6153 9.03622 17.6153H9.03623H9.03623H9.03623H9.03623H9.03623H9.03623H9.03623H9.03623C9.03623 17.6153 9.03623 17.6153 9.03623 17.6153C9.03623 17.6153 9.03623 17.6153 9.03623 17.6153C9.03623 17.6153 9.03623 17.6153 9.03623 17.6153C9.03623 17.6153 9.03623 17.6153 9.03623 17.6153H9.03623C9.03623 17.6153 9.03623 17.6153 9.03623 17.6153C9.03623 17.6153 9.03623 17.6153 9.03623 17.6153H9.03623C9.03623 17.6153 9.03623 17.6153 9.03623 17.6153C9.03623 17.6153 9.03623 17.6153 9.03623 17.6153H9.03623H9.03623H9.03623C9.03624 17.6153 9.03624 17.6153 9.03624 17.6153C9.03624 17.6153 9.03624 17.6153 9.03624 17.6153H9.03624C9.03624 17.6153 9.03624 16.6153 9.03624 15.6153C9.03624 15.6153 9.03624 15.6153 9.03624 15.6153C9.03624 15.6153 9.03624 15.6153 9.03624 15.6153C9.03623 15.6153 9.03623 15.6153 9.03623 15.6153H9.03623H9.03623C9.03623 15.6153 9.03623 15.6153 9.03623 15.6153C9.03623 15.6153 9.03623 15.6153 9.03623 15.6153C9.03623 15.6153 9.03623 15.6153 9.03623 15.6153C9.03623 15.6153 9.03623 15.6153 9.03623 15.6153C9.03623 15.6153 9.03623 15.6153 9.03623 15.6153C9.03623 15.6153 9.03623 15.6153 9.03623 15.6153H9.03623H9.03623H9.03623H9.03623H9.03623H9.03623H9.03623C9.03623 15.6153 9.03623 15.6153 9.03623 15.6153C9.03623 15.6153 9.03623 15.6153 9.03623 15.6153C9.03623 15.6153 9.03623 15.6153 9.03623 15.6153H9.03623H9.03622C9.03622 15.6153 9.03622 15.6153 9.03622 15.6153C9.03622 15.6153 9.03622 15.6153 9.03622 15.6153H9.03622C9.03622 15.6153 9.03622 15.6153 9.03622 15.6153H9.03622C9.03622 15.6153 9.03622 15.6153 9.03622 15.6153H9.03622C9.03622 15.6153 9.03622 15.6153 9.03622 15.6153C9.03622 15.6153 9.03622 15.6153 9.03622 15.6153H9.03622C9.03622 15.6153 9.03622 15.6153 9.03622 15.6153C9.03622 15.6153 9.03622 15.6153 9.03622 15.6153C9.03622 15.6153 9.03622 15.6153 9.03621 15.6153C9.03621 15.6153 9.03621 15.6153 9.03621 15.6153H9.03621C9.03621 15.6153 9.03621 15.6153 9.03621 15.6153C9.03621 15.6153 9.03621 15.6153 9.03621 15.6153C9.03621 15.6153 9.03621 15.6153 9.03621 15.6153C9.03621 15.6153 9.03621 15.6153 9.03621 15.6153C9.03621 15.6153 9.03621 15.6153 9.03621 15.6153C9.03621 15.6153 9.03621 15.6153 9.03621 15.6153C9.03621 15.6153 9.03621 15.6153 9.03621 15.6153C9.03621 15.6153 9.03621 15.6153 9.03621 15.6153C9.0362 15.6153 9.0362 15.6153 9.0362 15.6153C9.0362 15.6153 9.0362 15.6153 9.0362 15.6153C9.0362 15.6153 9.0362 15.6153 9.0362 15.6153C9.0362 15.6153 9.0362 15.6153 9.0362 15.6153C9.0362 15.6153 9.0362 15.6153 9.0362 15.6153C9.0362 15.6153 9.0362 15.6153 9.0362 15.6153C9.0362 15.6153 9.0362 15.6153 9.0362 15.6153C9.0362 15.6153 9.0362 15.6153 9.0362 15.6153C9.0362 15.6153 9.0362 15.6153 9.03619 15.6153C9.03619 15.6153 9.03619 15.6153 9.03619 15.6153C9.03619 15.6153 9.03619 15.6153 9.03619 15.6153C9.03619 15.6153 9.03619 15.6153 9.03619 15.6153C9.03619 15.6153 9.03619 15.6153 9.03619 15.6153C9.03619 15.6153 9.03619 15.6153 9.03619 15.6153C9.03619 15.6153 9.03619 15.6153 9.03619 15.6153C9.03619 15.6153 9.03619 15.6153 9.03619 15.6153C9.03618 15.6153 9.03618 15.6153 9.03618 15.6153C9.03618 15.6153 9.03618 15.6153 9.03618 15.6153C9.03618 15.6153 9.03618 15.6153 9.03618 15.6153C9.03618 15.6153 9.03618 15.6153 9.03618 15.6153C9.03618 15.6153 9.03618 15.6153 9.03618 15.6153C9.03618 15.6153 9.03618 15.6153 9.03618 15.6153C9.03618 15.6153 9.03618 15.6153 9.03617 15.6153C9.03617 15.6153 9.03617 15.6153 9.03617 15.6153C9.03617 15.6153 9.03617 15.6153 9.03617 15.6153C9.03617 15.6153 9.03617 15.6153 9.03617 15.6153C9.03617 15.6153 9.03617 15.6153 9.03617 15.6153C9.03617 15.6153 9.03617 15.6153 9.03617 15.6153C9.03617 15.6153 9.03617 15.6153 9.03617 15.6153C9.03616 15.6153 9.03616 15.6153 9.03616 15.6153C9.03616 15.6153 9.03616 15.6153 9.03616 15.6153C9.03616 15.6153 9.03616 15.6153 9.03616 15.6153C9.03616 15.6153 9.03616 15.6153 9.03616 15.6153C9.03616 15.6153 9.03616 15.6153 9.03616 15.6153C9.03616 15.6153 9.03616 15.6153 9.03615 15.6153C9.03615 15.6153 9.03615 15.6153 9.03615 15.6153C9.03615 15.6153 9.03615 15.6153 9.03615 15.6153C9.03615 15.6153 9.03615 15.6153 9.03615 15.6153C9.03615 15.6153 9.03615 15.6153 9.03615 15.6153C9.03615 15.6153 9.03615 15.6153 9.03614 15.6153C9.03614 15.6153 9.03614 15.6153 9.03614 15.6153C9.03614 15.6153 9.03614 15.6153 9.03614 15.6153C9.03614 15.6153 9.03614 15.6153 9.03614 15.6153C9.03614 15.6153 9.03614 15.6153 9.03614 15.6153C9.03614 15.6153 9.03614 15.6153 9.03613 15.6153C9.03613 15.6153 9.03613 15.6153 9.03613 15.6153C9.03613 15.6153 9.03613 15.6153 9.03613 15.6153V17.6153ZM9.03613 17.6153C13.8023 17.6153 17.68 13.7376 17.6817 8.97013L15.6817 8.96944C15.6804 12.6332 12.6974 15.6153 9.03613 15.6153V17.6153ZM17.6817 8.97014C17.6825 6.66203 16.783 4.48668 15.1522 2.85386L13.7371 4.26718C14.993 5.52468 15.6823 7.19136 15.6817 8.96943L17.6817 8.97014Z" fill="white" mask="url(#path-1-inside-1_4010_643)"/>
    <path fill-rule="evenodd" clip-rule="evenodd" d="M12.8583 10.7834C12.8106 10.7038 12.6831 10.6558 12.4921 10.5601C12.3011 10.4644 11.3618 10.0025 11.1866 9.93869C11.0113 9.8749 10.8841 9.84301 10.7569 10.0344C10.6297 10.2257 10.2635 10.6561 10.152 10.7834C10.0406 10.9109 9.92912 10.9267 9.73812 10.831C9.54712 10.7353 8.93159 10.5337 8.20168 9.88297C7.63381 9.37632 7.25034 8.75089 7.13889 8.55952C7.02744 8.36815 7.12716 8.26477 7.22247 8.16982C7.30826 8.08403 7.41348 7.94656 7.50916 7.83511C7.60484 7.72366 7.63637 7.64374 7.70016 7.51653C7.76395 7.38895 7.73206 7.2775 7.6844 7.18182C7.63674 7.08613 7.25474 6.14579 7.09526 5.76342C6.94019 5.39095 6.78255 5.44154 6.6656 5.43531C6.55415 5.42981 6.42694 5.42871 6.29936 5.42871C6.17215 5.42871 5.96502 5.47637 5.78978 5.66774C5.61454 5.85911 5.12109 6.3214 5.12109 7.26137C5.12109 8.20171 5.80555 9.11016 5.90123 9.23774C5.99691 9.36532 7.2485 11.2948 9.16475 12.1226C9.62044 12.3194 9.97641 12.4371 10.2539 12.5251C10.7115 12.6706 11.1279 12.6501 11.4571 12.6006C11.8241 12.5456 12.5874 12.1383 12.7465 11.6922C12.9063 11.2456 12.9063 10.8633 12.8583 10.7834Z" fill="white" stroke="white" stroke-miterlimit="10"/>
    </svg>
    
    