<svg width="33" height="32" viewBox="0 0 33 32" fill="none" xmlns="http://www.w3.org/2000/svg">
      <path fill-rule="evenodd" clip-rule="evenodd" d="M10.9622 13.476C8.04167 14.2177 5.92209 16.9416 5.92091 19.9533C5.91854 21.7424 6.61163 23.4236 7.87461 24.6902C9.13641 25.9544 10.8164 26.6523 12.6043 26.6546L12.8768 26.657C16.4228 26.516 19.2971 23.5161 19.2971 19.9782C19.2971 16.3965 16.3861 13.3954 12.8069 13.2888L12.6694 13.2841L13.3933 19.8443C13.4395 20.2732 13.1268 20.6642 12.6979 20.7152C12.218 20.7152 11.8579 20.4296 11.8164 20.0055L11.0937 13.4428L10.9622 13.476ZM26.3975 23.5693C25.5172 23.5693 24.8028 24.2837 24.8028 25.1629C24.8028 26.0432 25.5172 26.7588 26.3975 26.7588C27.2778 26.7588 27.9922 26.0432 27.9922 25.1629C27.9922 24.2837 27.2778 23.5693 26.3975 23.5693ZM26.4022 28.4637C24.8323 28.4637 23.516 27.3346 23.2732 25.7802C23.1417 24.9425 23.3454 24.1036 23.8454 23.42C24.2589 22.8525 24.8584 22.4354 25.5302 22.2411L25.6155 22.2174V19.926H20.8609V20.0445C20.8574 24.1475 17.9428 27.5763 13.9311 28.2386C13.4833 28.3109 13.0272 28.35 12.5781 28.35C8.5155 28.35 5.08555 25.4342 4.42207 21.4177C3.72068 17.1536 6.58548 12.925 10.8081 11.9937L10.9182 11.97L10.6979 10.6383L11.4858 10.6312L12.3056 10.6418L12.4976 11.6869H12.5959C16.4287 11.688 19.816 14.3977 20.656 18.1298L20.6761 18.2234L25.606 18.2163V12.9818C25.6036 11.0293 24.0137 9.43808 22.0599 9.43571L11.5308 9.43453C11.3294 9.43334 11.1268 9.43216 10.9277 9.42505L10.6896 9.41557L10.6066 9.23904L10.1552 5.1159H6.77268C6.33668 5.1159 5.98125 4.76164 5.98125 4.32445C5.98125 3.88962 6.33668 3.53418 6.77268 3.53418H11.1836L11.4182 3.67636L11.513 3.6337L11.6481 3.67399V3.9382L12.0544 7.86347H22.0599C24.8809 7.87058 27.1806 10.1703 27.1877 12.9913L27.1901 22.2151L27.2766 22.2399C28.4613 22.5752 29.3499 23.58 29.5407 24.8003C29.8096 26.529 28.6237 28.1557 26.8962 28.4246C26.7316 28.4507 26.5657 28.4637 26.4022 28.4637Z" fill="white"/>
      </svg>
      