<svg width="32" height="32" viewBox="0 0 40 40" fill="none" xmlns="http://www.w3.org/2000/svg">
      <rect width="32" height="32" fill="white"/>
      <path fill-rule="evenodd" clip-rule="evenodd" d="M8.03223 5.96484C8.03223 5.6887 8.25608 5.46484 8.53223 5.46484H13.6621C13.9152 5.46484 14.1284 5.65396 14.1585 5.90525L14.7471 10.8083H27.0567C27.0684 10.8083 27.0801 10.8087 27.0918 10.8096C28.0111 10.8743 29.3744 11.2306 30.5208 12.1018C31.6881 12.989 32.6152 14.4018 32.6152 16.5093V16.532V16.5548V16.5776V16.6004V16.6232V16.646V16.6689V16.6918V16.7147V16.7377V16.7607V16.7837V16.8067V16.8297V16.8528V16.8759V16.899V16.9221V16.9453V16.9685V16.9917V17.0149V17.0381V17.0614V17.0847V17.108V17.1313V17.1547V17.178V17.2014V17.2248V17.2483V17.2717V17.2952V17.3187V17.3422V17.3657V17.3893V17.4129V17.4365V17.4601V17.4837V17.5073V17.531V17.5547V17.5784V17.6021V17.6258V17.6496V17.6733V17.6971V17.7209V17.7447V17.7685V17.7924V17.8163V17.8401V17.864V17.8879V17.9119V17.9358V17.9598V17.9837V18.0077V18.0317V18.0557V18.0797V18.1038V18.1278V18.1519V18.176V18.2V18.2241V18.2483V18.2724V18.2965V18.3207V18.3448V18.369V18.3932V18.4174V18.4416V18.4658V18.49V18.5143V18.5385V18.5628V18.5871V18.6113V18.6356V18.6599V18.6842V18.7086V18.7329V18.7572V18.7816V18.8059V18.8303V18.8546V18.879V18.9034V18.9278V18.9522V18.9766V19.001V19.0254V19.0498V19.0742V19.0987V19.1231V19.1476V19.172V19.1965V19.2209V19.2454V19.2699V19.2943V19.3188V19.3433V19.3678V19.3923V19.4168V19.4413V19.4658V19.4903V19.5148V19.5393V19.5638V19.5883V19.6128V19.6373V19.6619V19.6864V19.7109V19.7354V19.76V19.7845V19.809V19.8335V19.8581V19.8826V19.9071V19.9317V19.9562V19.9807V20.0052V20.0298V20.0543V20.0788V20.1033V20.1278V20.1524V20.1769V20.2014V20.2259V20.2504V20.2749V20.2994V20.3239V20.3484V20.3729V20.3974V20.4219V20.4464V20.4708V20.4953V20.5198V20.5442V20.5687V20.5931V20.6176V20.642V20.6665V20.6909V20.7153V20.7397V20.7641V20.7885V20.8129V20.8373V20.8617V20.8861V20.9104V20.9348V20.9591V20.9835V21.0078V21.0321V21.0565V21.0808V21.1051V21.1294V21.1536V21.1779V21.2022V21.2264V21.2507V21.2749V21.2991V21.3233V21.3475V21.3717V21.3959V21.42V21.4442V21.4683V21.4925V21.5166V21.5407V21.5648V21.5888V21.6129V21.637V21.661V21.685V21.709V21.733V21.757V21.781V21.8049V21.8289V21.8528V21.8767V21.9006V21.9245V21.9483V21.9722V21.996V22.0198V22.0436V22.0674V22.0912V22.1149V22.1387V22.1624V22.1861V22.2098V22.2334V22.2571V22.2807V22.3043V22.3279V22.3515V22.375V22.3986V22.4221V22.4456V22.469V22.4925V22.5159V22.5394V22.5627V22.5861V22.6095V22.6328V22.6561V22.6794V22.7027V22.7259V22.7492V22.7724V22.7955V22.8187V22.8418V22.8649V22.888V22.9111V22.9342V22.9572V22.9802V23.0031V23.0261V23.049V23.0719V23.0948V23.1176V23.1405V23.1633V23.1861V23.2088V23.2315V23.2542V23.2769V23.2995V23.3222V23.3448V23.3673V23.3899V23.4124V23.4349V23.4573V23.4798V23.5022V23.5245V23.5469V23.5692V23.5915V23.6138V23.636V23.6582V23.6804V23.7025V23.7246V23.7467V23.7688V23.7908V23.8128V23.8347V23.8567V23.8786V23.9004V23.9223V23.9441V23.9659V23.9876V24.0093V24.031V24.0526V24.0742V24.0958V24.1174V24.1389V24.1604V24.1818V24.2032V24.2246V24.246V24.2673V24.2885V24.3098V24.331V24.3522V24.3733V24.3944V24.4155V24.4365V24.4575V24.4784V24.4994V24.5203V24.5411V24.5619V24.5827V24.6034V24.6241V24.6448V24.6654V24.686V24.7065V24.7271V24.7475V24.768V24.7883V24.8087V24.829V24.8493V24.8695V24.8897V24.9099V24.93V24.9501V24.9701V24.9901V25.01V25.03V25.0498V25.0697V25.0894V25.1092V25.1289V25.1486V25.1682V25.1878V25.2073V25.2268V25.2462V25.2656V25.285V25.3043V25.3236V25.3428V25.362V25.3811V25.4002V25.4193V25.4383V25.4572V25.4762V25.495V25.5138V25.5326V25.5514V25.57V25.5887V25.6073V25.6258V25.6443V25.6628V25.6812V25.6995V25.7178V25.7361V25.7543V25.7725V25.7906V25.8086V25.8267V25.8446V25.8626V25.8804V25.8982V25.916V25.9337V25.9514V25.969V25.9866V26.0041V26.0216V26.039V26.0564V26.0737V26.0909V26.1082V26.1253V26.1424V26.1595V26.1765V26.1934V26.2103V26.2272V26.244V26.2607V26.2774V26.294V26.3106V26.3271V26.3436V26.36V26.3763V26.3926V26.4089V26.4251V26.4412V26.4573V26.4733V26.4893V26.5052V26.521V26.5368V26.5526V26.5683V26.5839V26.5995V26.615V26.6304V26.6458V26.6612V26.6765V26.6917V26.7068V26.722V26.737V26.752V26.7669V26.7818V26.7966V26.8113V26.826V26.8407V26.8552V26.8697V26.8842V26.8986V26.9129V26.9272V26.9414V26.9555V26.9696V26.9836V26.9975V27.0114V27.0253V27.039V27.0527V27.0664V27.0799V27.0935V27.1069V27.1203V27.1336V27.1469V27.1601V27.1732V27.1862V27.1992V27.2122V27.225V27.2378V27.2506V27.2632V27.2758V27.2836C34.455 27.4631 35.8927 29.0142 35.8927 30.9011C35.8927 32.9086 34.2654 34.536 32.2579 34.536C30.2504 34.536 28.623 32.9086 28.623 30.9011C28.623 29.1129 29.9143 27.6264 31.6152 27.3229V27.3132V27.3008V27.2884V27.2758V27.2632V27.2506V27.2378V27.225V27.2122V27.1992V27.1862V27.1732V27.1601V27.1469V27.1336V27.1203V27.1069V27.0935V27.0799V27.0664V27.0527V27.039V27.0253V27.0114V26.9975V26.9836V26.9696V26.9555V26.9414V26.9272V26.9129V26.8986V26.8842V26.8697V26.8552V26.8407V26.826V26.8113V26.7966V26.7818V26.7669V26.752V26.737V26.722V26.7068V26.6917V26.6765V26.6612V26.6458V26.6304V26.615V26.5995V26.5839V26.5683V26.5526V26.5368V26.521V26.5052V26.4893V26.4733V26.4573V26.4412V26.4251V26.4089V26.3926V26.3763V26.36V26.3436V26.3271V26.3106V26.294V26.2774V26.2607V26.244V26.2272V26.2103V26.1934V26.1765V26.1595V26.1424V26.1253V26.1082V26.0909V26.0737V26.0564V26.039V26.0216V26.0041V25.9866V25.969V25.9514V25.9337V25.916V25.8982V25.8804V25.8626V25.8446V25.8267V25.8086V25.7906V25.7725V25.7543V25.7361V25.7178V25.6995V25.6812V25.6628V25.6443V25.6258V25.6073V25.5887V25.57V25.5514V25.5326V25.5138V25.495V25.4762V25.4572V25.4383V25.4193V25.4002V25.3811V25.362V25.3428V25.3236V25.3043V25.285V25.2656V25.2462V25.2268V25.2073V25.1878V25.1682V25.1486V25.1289V25.1092V25.0894V25.0697V25.0498V25.03V25.01V24.9901V24.9701V24.9501V24.93V24.9099V24.8897V24.8695V24.8493V24.829V24.8087V24.7883V24.768V24.7475V24.7271V24.7065V24.686V24.6654V24.6448V24.6241V24.6034V24.5827V24.5619V24.5411V24.5203V24.4994V24.4784V24.4575V24.4365V24.4155V24.3944V24.3733V24.3522V24.331V24.3098V24.2885V24.2673V24.246V24.2246V24.2032V24.1818V24.1604V24.1389V24.1174V24.0958V24.0742V24.0627H25.6078C25.6247 24.2976 25.6333 24.5348 25.6333 24.774C25.6333 30.1654 21.2627 34.536 15.8713 34.536C10.48 34.536 6.10938 30.1654 6.10938 24.774C6.10938 20.0128 9.5179 16.0478 14.0279 15.1859L13.8801 14.1581C13.8408 13.8848 14.0305 13.6314 14.3038 13.5921C14.5771 13.5527 14.8306 13.7425 14.8699 14.0158L15.0185 15.0488C15.2995 15.0245 15.584 15.012 15.8713 15.012C20.6789 15.012 24.6748 18.4873 25.4838 23.0627H31.6152V23.049V23.0261V23.0031V22.9802V22.9572V22.9342V22.9111V22.888V22.8649V22.8418V22.8187V22.7955V22.7724V22.7492V22.7259V22.7027V22.6794V22.6561V22.6328V22.6095V22.5861V22.5627V22.5394V22.5159V22.4925V22.469V22.4456V22.4221V22.3986V22.375V22.3515V22.3279V22.3043V22.2807V22.2571V22.2334V22.2098V22.1861V22.1624V22.1387V22.1149V22.0912V22.0674V22.0436V22.0198V21.996V21.9722V21.9483V21.9245V21.9006V21.8767V21.8528V21.8289V21.8049V21.781V21.757V21.733V21.709V21.685V21.661V21.637V21.6129V21.5888V21.5648V21.5407V21.5166V21.4925V21.4683V21.4442V21.42V21.3959V21.3717V21.3475V21.3233V21.2991V21.2749V21.2507V21.2264V21.2022V21.1779V21.1536V21.1294V21.1051V21.0808V21.0565V21.0321V21.0078V20.9835V20.9591V20.9348V20.9104V20.8861V20.8617V20.8373V20.8129V20.7885V20.7641V20.7397V20.7153V20.6909V20.6665V20.642V20.6176V20.5931V20.5687V20.5442V20.5198V20.4953V20.4708V20.4464V20.4219V20.3974V20.3729V20.3484V20.3239V20.2994V20.2749V20.2504V20.2259V20.2014V20.1769V20.1524V20.1278V20.1033V20.0788V20.0543V20.0298V20.0052V19.9807V19.9562V19.9317V19.9071V19.8826V19.8581V19.8335V19.809V19.7845V19.76V19.7354V19.7109V19.6864V19.6619V19.6373V19.6128V19.5883V19.5638V19.5393V19.5148V19.4903V19.4658V19.4413V19.4168V19.3923V19.3678V19.3433V19.3188V19.2943V19.2699V19.2454V19.2209V19.1965V19.172V19.1476V19.1231V19.0987V19.0742V19.0498V19.0254V19.001V18.9766V18.9522V18.9278V18.9034V18.879V18.8546V18.8303V18.8059V18.7816V18.7572V18.7329V18.7086V18.6842V18.6599V18.6356V18.6113V18.5871V18.5628V18.5385V18.5143V18.49V18.4658V18.4416V18.4174V18.3932V18.369V18.3448V18.3207V18.2965V18.2724V18.2483V18.2241V18.2V18.176V18.1519V18.1278V18.1038V18.0797V18.0557V18.0317V18.0077V17.9837V17.9598V17.9358V17.9119V17.8879V17.864V17.8401V17.8163V17.7924V17.7685V17.7447V17.7209V17.6971V17.6733V17.6496V17.6258V17.6021V17.5784V17.5547V17.531V17.5073V17.4837V17.4601V17.4365V17.4129V17.3893V17.3657V17.3422V17.3187V17.2952V17.2717V17.2483V17.2248V17.2014V17.178V17.1547V17.1313V17.108V17.0847V17.0614V17.0381V17.0149V16.9917V16.9685V16.9453V16.9221V16.899V16.8759V16.8528V16.8297V16.8067V16.7837V16.7607V16.7377V16.7147V16.6918V16.6689V16.646V16.6232V16.6004V16.5776V16.5548V16.532V16.5093C31.6152 14.741 30.8562 13.6127 29.9157 12.898C28.9615 12.1728 27.8057 11.8656 27.0386 11.8083H14.3036C14.0505 11.8083 13.8373 11.6192 13.8071 11.3679L13.2185 6.46484H8.53223C8.25608 6.46484 8.03223 6.24099 8.03223 5.96484ZM14.1705 16.177L15.3762 24.5601C15.4155 24.8335 15.6689 25.0232 15.9423 24.9839C16.2156 24.9445 16.4053 24.6911 16.366 24.4178L15.1611 16.0404C15.3954 16.0216 15.6322 16.012 15.8713 16.012C20.7104 16.012 24.6333 19.9349 24.6333 24.774C24.6333 29.6131 20.7104 33.536 15.8713 33.536C11.0322 33.536 7.10938 29.6131 7.10938 24.774C7.10938 20.5169 10.1454 16.9688 14.1705 16.177ZM32.2579 28.2663C30.8027 28.2663 29.623 29.4459 29.623 30.9011C29.623 32.3563 30.8027 33.536 32.2579 33.536C33.7131 33.536 34.8927 32.3563 34.8927 30.9011C34.8927 29.4459 33.7131 28.2663 32.2579 28.2663Z" fill="black"/>
      </svg>
      