<svg width="38" height="38" viewBox="0 0 38 38" fill="none" xmlns="http://www.w3.org/2000/svg">
      <path fill-rule="evenodd" clip-rule="evenodd" d="M6.03125 4.96448C6.03125 4.68834 6.25511 4.46448 6.53125 4.46448H11.6611C11.9142 4.46448 12.1274 4.65359 12.1576 4.90488L12.7462 9.80797H25.0557C25.0674 9.80797 25.0792 9.80838 25.0909 9.8092C26.0101 9.87394 27.3734 10.2302 28.5198 11.1015C29.6871 11.9886 30.6142 13.4015 30.6142 15.509V15.5317V15.5544V15.5772V15.6V15.6228V15.6457V15.6686V15.6915V15.7144V15.7373V15.7603V15.7833V15.8063V15.8293V15.8524V15.8755V15.8986V15.9217V15.9449V15.9681V15.9913V16.0145V16.0378V16.061V16.0843V16.1076V16.131V16.1543V16.1777V16.2011V16.2245V16.2479V16.2714V16.2948V16.3183V16.3418V16.3654V16.3889V16.4125V16.4361V16.4597V16.4833V16.507V16.5306V16.5543V16.578V16.6017V16.6254V16.6492V16.673V16.6967V16.7205V16.7444V16.7682V16.792V16.8159V16.8398V16.8637V16.8876V16.9115V16.9354V16.9594V16.9834V17.0073V17.0313V17.0553V17.0794V17.1034V17.1275V17.1515V17.1756V17.1997V17.2238V17.2479V17.272V17.2962V17.3203V17.3445V17.3686V17.3928V17.417V17.4412V17.4655V17.4897V17.5139V17.5382V17.5624V17.5867V17.611V17.6353V17.6596V17.6839V17.7082V17.7325V17.7568V17.7812V17.8055V17.8299V17.8543V17.8786V17.903V17.9274V17.9518V17.9762V18.0006V18.025V18.0494V18.0739V18.0983V18.1227V18.1472V18.1716V18.1961V18.2206V18.245V18.2695V18.294V18.3184V18.3429V18.3674V18.3919V18.4164V18.4409V18.4654V18.4899V18.5144V18.5389V18.5634V18.5879V18.6125V18.637V18.6615V18.686V18.7105V18.7351V18.7596V18.7841V18.8087V18.8332V18.8577V18.8822V18.9068V18.9313V18.9558V18.9803V19.0049V19.0294V19.0539V19.0784V19.103V19.1275V19.152V19.1765V19.201V19.2255V19.25V19.2745V19.2991V19.3235V19.348V19.3725V19.397V19.4215V19.446V19.4705V19.4949V19.5194V19.5439V19.5683V19.5928V19.6172V19.6417V19.6661V19.6905V19.7149V19.7394V19.7638V19.7882V19.8126V19.8369V19.8613V19.8857V19.9101V19.9344V19.9588V19.9831V20.0075V20.0318V20.0561V20.0804V20.1047V20.129V20.1533V20.1775V20.2018V20.226V20.2503V20.2745V20.2987V20.3229V20.3471V20.3713V20.3955V20.4197V20.4438V20.468V20.4921V20.5162V20.5403V20.5644V20.5885V20.6125V20.6366V20.6606V20.6847V20.7087V20.7327V20.7566V20.7806V20.8046V20.8285V20.8524V20.8763V20.9002V20.9241V20.948V20.9718V20.9957V21.0195V21.0433V21.0671V21.0908V21.1146V21.1383V21.162V21.1857V21.2094V21.2331V21.2567V21.2803V21.3039V21.3275V21.3511V21.3747V21.3982V21.4217V21.4452V21.4687V21.4921V21.5156V21.539V21.5624V21.5858V21.6091V21.6324V21.6558V21.679V21.7023V21.7256V21.7488V21.772V21.7952V21.8183V21.8415V21.8646V21.8877V21.9107V21.9338V21.9568V21.9798V22.0028V22.0257V22.0487V22.0716V22.0944V22.1173V22.1401V22.1629V22.1857V22.2084V22.2312V22.2539V22.2765V22.2992V22.3218V22.3444V22.367V22.3895V22.412V22.4345V22.457V22.4794V22.5018V22.5242V22.5465V22.5688V22.5911V22.6134V22.6356V22.6578V22.68V22.7021V22.7243V22.7463V22.7684V22.7904V22.8124V22.8344V22.8563V22.8782V22.9001V22.9219V22.9437V22.9655V22.9872V23.0089V23.0306V23.0523V23.0739V23.0955V23.117V23.1385V23.16V23.1814V23.2029V23.2242V23.2456V23.2669V23.2882V23.3094V23.3306V23.3518V23.3729V23.394V23.4151V23.4361V23.4571V23.4781V23.499V23.5199V23.5407V23.5615V23.5823V23.6031V23.6238V23.6444V23.665V23.6856V23.7062V23.7267V23.7472V23.7676V23.788V23.8083V23.8286V23.8489V23.8692V23.8894V23.9095V23.9296V23.9497V23.9697V23.9897V24.0097V24.0296V24.0495V24.0693V24.0891V24.1088V24.1285V24.1482V24.1678V24.1874V24.2069V24.2264V24.2459V24.2653V24.2846V24.3039V24.3232V24.3424V24.3616V24.3808V24.3999V24.4189V24.4379V24.4569V24.4758V24.4947V24.5135V24.5323V24.551V24.5697V24.5883V24.6069V24.6254V24.6439V24.6624V24.6808V24.6992V24.7175V24.7357V24.7539V24.7721V24.7902V24.8083V24.8263V24.8443V24.8622V24.8801V24.8979V24.9156V24.9334V24.951V24.9687V24.9862V25.0037V25.0212V25.0386V25.056V25.0733V25.0906V25.1078V25.1249V25.1421V25.1591V25.1761V25.1931V25.21V25.2268V25.2436V25.2603V25.277V25.2936V25.3102V25.3267V25.3432V25.3596V25.376V25.3923V25.4085V25.4247V25.4408V25.4569V25.4729V25.4889V25.5048V25.5207V25.5365V25.5522V25.5679V25.5835V25.5991V25.6146V25.6301V25.6455V25.6608V25.6761V25.6913V25.7065V25.7216V25.7366V25.7516V25.7665V25.7814V25.7962V25.811V25.8257V25.8403V25.8549V25.8694V25.8838V25.8982V25.9125V25.9268V25.941V25.9551V25.9692V25.9832V25.9972V26.0111V26.0249V26.0387V26.0524V26.066V26.0796V26.0931V26.1065V26.1199V26.1332V26.1465V26.1597V26.1728V26.1859V26.1989V26.2118V26.2247V26.2375V26.2502V26.2629V26.2755V26.2832C32.454 26.4627 33.8918 28.0138 33.8918 29.9007C33.8918 31.9082 32.2644 33.5356 30.2569 33.5356C28.2494 33.5356 26.6221 31.9082 26.6221 29.9007C26.6221 28.1126 27.9133 26.626 29.6142 26.3225V26.3129V26.3005V26.288V26.2755V26.2629V26.2502V26.2375V26.2247V26.2118V26.1989V26.1859V26.1728V26.1597V26.1465V26.1332V26.1199V26.1065V26.0931V26.0796V26.066V26.0524V26.0387V26.0249V26.0111V25.9972V25.9832V25.9692V25.9551V25.941V25.9268V25.9125V25.8982V25.8838V25.8694V25.8549V25.8403V25.8257V25.811V25.7962V25.7814V25.7665V25.7516V25.7366V25.7216V25.7065V25.6913V25.6761V25.6608V25.6455V25.6301V25.6146V25.5991V25.5835V25.5679V25.5522V25.5365V25.5207V25.5048V25.4889V25.4729V25.4569V25.4408V25.4247V25.4085V25.3923V25.376V25.3596V25.3432V25.3267V25.3102V25.2936V25.277V25.2603V25.2436V25.2268V25.21V25.1931V25.1761V25.1591V25.1421V25.1249V25.1078V25.0906V25.0733V25.056V25.0386V25.0212V25.0037V24.9862V24.9687V24.951V24.9334V24.9156V24.8979V24.8801V24.8622V24.8443V24.8263V24.8083V24.7902V24.7721V24.7539V24.7357V24.7175V24.6992V24.6808V24.6624V24.6439V24.6254V24.6069V24.5883V24.5697V24.551V24.5323V24.5135V24.4947V24.4758V24.4569V24.4379V24.4189V24.3999V24.3808V24.3616V24.3424V24.3232V24.3039V24.2846V24.2653V24.2459V24.2264V24.2069V24.1874V24.1678V24.1482V24.1285V24.1088V24.0891V24.0693V24.0495V24.0296V24.0097V23.9897V23.9697V23.9497V23.9296V23.9095V23.8894V23.8692V23.8489V23.8286V23.8083V23.788V23.7676V23.7472V23.7267V23.7062V23.6856V23.665V23.6444V23.6238V23.6031V23.5823V23.5615V23.5407V23.5199V23.499V23.4781V23.4571V23.4361V23.4151V23.394V23.3729V23.3518V23.3306V23.3094V23.2882V23.2669V23.2456V23.2242V23.2029V23.1814V23.16V23.1385V23.117V23.0955V23.0739V23.0624H23.6068C23.6237 23.2973 23.6323 23.5344 23.6323 23.7736C23.6323 29.165 19.2617 33.5356 13.8704 33.5356C8.47897 33.5356 4.1084 29.165 4.1084 23.7736C4.1084 19.0125 7.51693 15.0474 12.0269 14.1855L11.8791 13.1578C11.8398 12.8845 12.0295 12.631 12.3028 12.5917C12.5762 12.5524 12.8296 12.7421 12.8689 13.0154L13.0175 14.0484C13.2985 14.0241 13.583 14.0117 13.8704 14.0117C18.6779 14.0117 22.6738 17.487 23.4828 22.0624H29.6142V22.0487V22.0257V22.0028V21.9798V21.9568V21.9338V21.9107V21.8877V21.8646V21.8415V21.8183V21.7952V21.772V21.7488V21.7256V21.7023V21.679V21.6558V21.6324V21.6091V21.5858V21.5624V21.539V21.5156V21.4921V21.4687V21.4452V21.4217V21.3982V21.3747V21.3511V21.3275V21.3039V21.2803V21.2567V21.2331V21.2094V21.1857V21.162V21.1383V21.1146V21.0908V21.0671V21.0433V21.0195V20.9957V20.9718V20.948V20.9241V20.9002V20.8763V20.8524V20.8285V20.8046V20.7806V20.7566V20.7327V20.7087V20.6847V20.6606V20.6366V20.6125V20.5885V20.5644V20.5403V20.5162V20.4921V20.468V20.4438V20.4197V20.3955V20.3713V20.3471V20.3229V20.2987V20.2745V20.2503V20.226V20.2018V20.1775V20.1533V20.129V20.1047V20.0804V20.0561V20.0318V20.0075V19.9831V19.9588V19.9344V19.9101V19.8857V19.8613V19.8369V19.8126V19.7882V19.7638V19.7394V19.7149V19.6905V19.6661V19.6417V19.6172V19.5928V19.5683V19.5439V19.5194V19.4949V19.4705V19.446V19.4215V19.397V19.3725V19.348V19.3235V19.2991V19.2745V19.25V19.2255V19.201V19.1765V19.152V19.1275V19.103V19.0784V19.0539V19.0294V19.0049V18.9803V18.9558V18.9313V18.9068V18.8822V18.8577V18.8332V18.8087V18.7841V18.7596V18.7351V18.7105V18.686V18.6615V18.637V18.6125V18.5879V18.5634V18.5389V18.5144V18.4899V18.4654V18.4409V18.4164V18.3919V18.3674V18.3429V18.3184V18.294V18.2695V18.245V18.2206V18.1961V18.1716V18.1472V18.1227V18.0983V18.0739V18.0494V18.025V18.0006V17.9762V17.9518V17.9274V17.903V17.8786V17.8543V17.8299V17.8055V17.7812V17.7568V17.7325V17.7082V17.6839V17.6596V17.6353V17.611V17.5867V17.5624V17.5382V17.5139V17.4897V17.4655V17.4412V17.417V17.3928V17.3686V17.3445V17.3203V17.2962V17.272V17.2479V17.2238V17.1997V17.1756V17.1515V17.1275V17.1034V17.0794V17.0553V17.0313V17.0073V16.9834V16.9594V16.9354V16.9115V16.8876V16.8637V16.8398V16.8159V16.792V16.7682V16.7444V16.7205V16.6967V16.673V16.6492V16.6254V16.6017V16.578V16.5543V16.5306V16.507V16.4833V16.4597V16.4361V16.4125V16.3889V16.3654V16.3418V16.3183V16.2948V16.2714V16.2479V16.2245V16.2011V16.1777V16.1543V16.131V16.1076V16.0843V16.061V16.0378V16.0145V15.9913V15.9681V15.9449V15.9217V15.8986V15.8755V15.8524V15.8293V15.8063V15.7833V15.7603V15.7373V15.7144V15.6915V15.6686V15.6457V15.6228V15.6V15.5772V15.5544V15.5317V15.509C29.6142 13.7406 28.8552 12.6124 27.9147 11.8976C26.9606 11.1725 25.8047 10.8653 25.0376 10.808H12.3026C12.0495 10.808 11.8363 10.6188 11.8062 10.3676L11.2176 5.46448H6.53125C6.25511 5.46448 6.03125 5.24062 6.03125 4.96448ZM12.1695 15.1767L13.3752 23.5598C13.4145 23.8331 13.668 24.0228 13.9413 23.9835C14.2146 23.9442 14.4043 23.6907 14.365 23.4174L13.1601 15.04C13.3944 15.0213 13.6313 15.0117 13.8704 15.0117C18.7094 15.0117 22.6323 18.9345 22.6323 23.7736C22.6323 28.6127 18.7094 32.5356 13.8704 32.5356C9.03126 32.5356 5.1084 28.6127 5.1084 23.7736C5.1084 19.5165 8.14447 15.9685 12.1695 15.1767ZM30.2569 27.2659C28.8017 27.2659 27.6221 28.4456 27.6221 29.9007C27.6221 31.3559 28.8017 32.5356 30.2569 32.5356C31.7121 32.5356 32.8918 31.3559 32.8918 29.9007C32.8918 28.4456 31.7121 27.2659 30.2569 27.2659Z" fill="black"/>
      </svg>