<svg width="32" height="32" viewBox="0 0 32 32" fill="none" xmlns="http://www.w3.org/2000/svg">
     <path d="M10.7331 28.6183C5.84353 28.6183 1.88062 24.9091 1.88062 20.3326C1.88062 15.7598 5.84353 12.0469 10.7331 12.0469C15.6187 12.0469 19.5856 15.7598 19.5856 20.3326C19.5856 24.9091 15.6187 28.6183 10.7331 28.6183Z" fill="#D1D1D1"/>
     <path fill-rule="evenodd" clip-rule="evenodd" d="M27.1769 23.15L27.1872 23.2947C28.615 23.5216 29.7359 24.6582 29.9597 26.106C30.243 27.9462 29.002 29.6709 27.1872 29.9592C25.3723 30.2464 23.6714 28.987 23.3881 27.1468C23.1038 25.3066 24.3458 23.583 26.1607 23.2947V19.7767H19.704V20.3908C19.6989 25.0287 16.3854 28.9818 11.8719 29.7354C6.77537 30.5858 1.9642 27.0875 1.12556 21.9198C0.286913 16.7531 3.73798 11.8747 8.83348 11.0232L8.60101 8.83871C8.95207 8.83246 9.30313 8.83246 9.65317 8.84183L9.85998 10.763H10.3732C14.9031 10.7651 18.7771 14.0656 19.5603 18.5901L26.1504 18.5797V11.8871C26.1442 9.30899 24.0841 7.219 21.5415 7.21379H9.46991H9.45656C9.33981 7.2124 9.22295 7.21171 9.10601 7.21101C8.87234 7.20963 8.63838 7.20824 8.40441 7.2013L7.85832 2.04084H3.48546C3.20215 2.04084 2.97222 1.80769 2.97222 1.52042C2.97222 1.23315 3.20215 1 3.48546 1H8.58713L8.65898 1.05204L8.82322 1.09368V1.16653C8.8263 1.20088 8.8263 1.23627 8.82322 1.27062C8.82527 1.29456 8.82527 1.31954 8.82322 1.34348L9.34673 6.18336H21.5415C24.6517 6.18961 27.1707 8.74382 27.1769 11.8976V23.15ZM10.3732 28.707V28.6862C5.77557 28.681 2.05249 24.8965 2.05865 20.2346C2.06378 16.1348 4.97286 12.6313 8.95667 11.9288L9.85998 20.2555C9.88667 20.5219 10.1084 20.7249 10.3732 20.7238H10.4348C10.7151 20.6905 10.9162 20.4355 10.8865 20.1514L9.98316 11.8247H10.3732C14.9709 11.8247 18.6981 15.604 18.6981 20.2659C18.6981 24.9288 14.9709 28.707 10.3732 28.707ZM26.6636 28.8101C25.3908 28.8101 24.3591 27.764 24.3591 26.4734C24.3591 25.1838 25.3908 24.1367 26.6636 24.1367C27.9354 24.1367 28.9681 25.1838 28.9681 26.4734C28.9681 27.764 27.9354 28.8101 26.6636 28.8101Z" fill="black"/>
     </svg>