<svg width="24" height="24" viewBox="0 0 32 32" fill="none" xmlns="http://www.w3.org/2000/svg"><path d="M16.8017 13.1228L12.8555 9.2046C12.5486 8.92174 12.0708 8.92174 11.764 9.2046L9.74886 11.1843C9.58094 11.3081 8.40546 10.9369 7.06207 9.57581C5.71868 8.21473 5.29886 7.10113 5.42481 6.93615L7.4399 4.95641C7.57643 4.81023 7.65145 4.61861 7.64981 4.42023C7.64504 4.23532 7.57018 4.05882 7.4399 3.92529L4.16538 0.708209C3.87259 0.430597 3.40863 0.430597 3.11585 0.708209L1.47858 2.31675C0.680944 3.1004 0.680945 4.50272 1.4366 6.27624C2.35408 8.21334 3.63601 9.96258 5.2149 11.4318C7.81774 13.989 10.7984 15.6388 12.8135 15.6388C13.4306 15.6841 14.0391 15.4749 14.4927 15.0613L15.4163 13.989" stroke="#ffffff"/></svg>