<svg width="24" height="24" viewBox="0 0 32 32" fill="none" xmlns="http://www.w3.org/2000/svg"><path fill-rule="evenodd" clip-rule="evenodd" d="M31.7786 9.07595C28.4552 6.10122 23.1468 2.90539 16.5111 2.95367C16.5062 2.9539 16.5014 2.95382 16.4965 2.95374L16.4889 2.95367C9.85311 2.90539 4.54472 6.10122 1.22138 9.07595C0.947311 9.32224 0.924061 9.79348 1.17206 10.0653C1.41971 10.3371 1.89492 10.3606 2.16864 10.1146C5.31479 7.29839 10.3072 4.30127 16.4889 4.35304C16.4963 4.35339 16.5037 4.35339 16.5111 4.35304C22.6927 4.30127 27.6851 7.29839 30.8313 10.1146C31.105 10.3606 31.5802 10.3371 31.8282 10.0653C32.0762 9.79348 32.0523 9.32224 31.7786 9.07595ZM9.58242 19.6896C10.9693 17.7392 13.4296 16.2461 16.5 16.2461C19.5704 16.2461 22.0307 17.7392 23.4176 19.6896C23.6842 19.9831 23.6247 20.5044 23.2992 20.7311C22.9734 20.9581 22.4594 20.8361 22.272 20.488C21.1415 18.8983 19.111 17.6455 16.5 17.6455C13.8893 17.6455 11.8584 18.8983 10.728 20.488C10.5406 20.8361 10.0266 20.9581 9.70078 20.7311C9.37528 20.5044 9.31575 19.9831 9.58242 19.6896ZM13.6799 25.3309C13.6799 23.7832 14.9936 22.543 16.5439 22.543C18.0946 22.543 19.3198 23.8147 19.3198 25.3309C19.3198 26.6106 18.4483 27.728 17.2425 28.0467C17.245 27.7642 17.2466 27.4816 17.2482 27.1991L17.2482 27.1964C17.2494 26.9775 17.2506 26.7585 17.2523 26.5396C17.6515 26.2954 17.9097 25.8507 17.9097 25.3309C17.9097 24.5448 17.3298 23.9423 16.5439 23.9423C15.7583 23.9423 15.0901 24.5763 15.0901 25.3309C15.0901 25.8007 15.3508 26.2317 15.7361 26.4906C15.7349 26.6727 15.7339 26.8547 15.7328 27.0368L15.7328 27.0375C15.731 27.3649 15.7291 27.6924 15.7259 28.0198C14.5564 27.6703 13.6799 26.5966 13.6799 25.3309ZM16.5136 9.60174C16.5906 9.60182 16.6683 9.60191 16.7481 9.60191C21.91 9.64284 26.0284 12.2565 28.6172 14.6855C28.8857 14.937 28.8987 15.4086 28.6447 15.6749C28.3907 15.9411 27.9162 15.954 27.6478 15.7022C25.2132 13.4177 21.3685 10.9971 16.6241 11.0006C16.6001 11.0006 16.5755 11.0007 16.5506 11.0008C16.5 11.0011 16.4481 11.0013 16.3973 11.0006C11.6434 10.9901 7.7909 13.4142 5.35247 15.7022C5.08439 15.954 4.60918 15.9411 4.35554 15.6749C4.1019 15.4086 4.11494 14.937 4.38302 14.6855C6.9775 12.2513 11.1093 9.63095 16.2874 9.60156C16.3629 9.60156 16.4379 9.60165 16.5136 9.60174Z" fill="black"/>
     </svg>