<svg width="24" height="24" viewBox="0 0 32 32" fill="none" xmlns="http://www.w3.org/2000/svg"><g opacity="0.8"><path opacity="0.8" d="M16 31C24.2843 31 31 24.2843 31 16C31 7.71573 24.2843 1 16 1C7.71573 1 1 7.71573 1 16C1 24.2843 7.71573 31 16 31Z" fill="#EEEEEE"/></g><mask id="mask0" mask-type="alpha" maskUnits="userSpaceOnUse" x="7" y="8" width="18" height="16"><path d="M7 8H25V23.9415H7V8Z" fill="white"/></mask><g mask="url(#mask0)"><path fill-rule="evenodd" clip-rule="evenodd" d="M16 22.8003C14.5227 21.7511 8.0492 16.9166 8.0492 12.8017C8.0492 10.7187 9.78666 9.0236 11.9218 9.0236C13.5082 9.0236 14.9183 9.95508 15.5121 11.3963C15.6727 11.7843 16.3263 11.7843 16.4858 11.3963C17.0817 9.95508 18.4897 9.0236 20.0761 9.0236C22.2133 9.0236 23.9508 10.7187 23.9508 12.8017C23.9508 16.0998 19.7886 19.8615 17.3776 21.7634C17.6147 21.9261 17.8518 22.0889 18.0785 22.2649C18.1372 22.309 18.1939 22.353 18.2516 22.397C20.82 20.3467 25 16.4519 25 12.8017C25 10.1537 22.7914 8 20.0761 8C18.4121 8 16.9013 8.80558 16 10.1168C15.0977 8.80558 13.5879 8 11.9218 8C9.20856 8 7 10.1526 7 12.8017C7 17.9556 15.3464 23.6141 15.7031 23.8515C15.7933 23.9119 15.8951 23.9416 16 23.9416C16.1049 23.9416 16.2067 23.9119 16.2969 23.8515C16.3473 23.8178 16.5697 23.6663 16.8939 23.4319" fill="black"/></g></svg>