<svg width="32" height="32" viewBox="0 0 24 24" fill="none" xmlns="http://www.w3.org/2000/svg">
      <path fill-rule="evenodd" clip-rule="evenodd" d="M15.462 3.08964C14.1798 3.25219 12.9813 3.86097 11.9962 4.79936C11.0079 3.85664 9.79837 3.23329 8.51286 3.05343C6.95089 2.8349 5.32933 3.28015 3.94583 4.51016C2.41925 5.86737 1.63007 7.4675 1.51478 9.11791C1.40021 10.7581 1.95621 12.3703 2.97636 13.7609L2.97631 13.7609L2.98217 13.7687C3.81227 14.8699 5.43505 16.5384 7.00217 18.0785C8.37151 19.4243 9.73422 20.7065 10.5631 21.4865L10.8933 21.7974C10.9942 21.9015 11.1271 22.0278 11.2287 22.1228C11.2836 22.1741 11.3327 22.2195 11.3682 22.252L11.4104 22.2907L11.4221 22.3013L11.4253 22.3043L11.4262 22.3051L11.4265 22.3053L11.4265 22.3054L11.4266 22.3054L11.9306 21.75L11.4266 22.3054L11.9405 22.7718L12.4453 22.2955L11.9306 21.75L12.4453 22.2955L12.4453 22.2955L12.4454 22.2954L12.4456 22.2952L12.4465 22.2944L12.4494 22.2916L12.4606 22.2811L12.5009 22.2428C12.5348 22.2105 12.582 22.1655 12.6348 22.1146C12.7324 22.0204 12.8572 21.8986 12.953 21.7996L12.9954 21.7603L13.1554 21.6115C13.2918 21.4846 13.4834 21.306 13.7044 21.0993C14.1441 20.6877 14.702 20.1625 15.1722 19.7102L16.4266 18.5479L15.3652 17.4865L14.1476 18.6146L14.1475 18.6145L14.1373 18.6243C13.6735 19.0705 13.1191 19.5925 12.6793 20.0041C12.4597 20.2097 12.2692 20.3872 12.1337 20.5133L11.9749 20.6609L11.9325 20.7003L11.9243 20.7079L11.5896 20.3928L11.5896 20.3927C10.7599 19.612 9.41016 18.3419 8.05358 17.0087C6.47611 15.4584 4.93622 13.8678 4.18293 12.8697C3.33501 11.7123 2.9257 10.4455 3.01114 9.22244C3.09596 8.0082 3.67333 6.75952 4.94248 5.63118C6.00438 4.68709 7.18784 4.38266 8.30502 4.53896C9.43669 4.6973 10.5527 5.33751 11.4206 6.37623L11.9961 7.06499L12.5717 6.37623C13.4388 5.33844 14.5335 4.71935 15.6507 4.57773C16.7562 4.43758 17.9492 4.75575 19.0579 5.71325C20.3306 6.81249 20.9071 8.05675 20.9895 9.27645C21.0726 10.5061 20.6579 11.7853 19.8112 12.942C19.3032 13.6026 18.4882 14.4624 17.556 15.4347L18.617 16.4956C19.5466 15.5262 20.4366 14.5909 21.0061 13.8488L21.0111 13.8424L21.0159 13.8358C22.036 12.4453 22.5973 10.8209 22.4861 9.17534C22.3741 7.51756 21.5841 5.91301 20.0383 4.57802C18.6297 3.36143 17.0177 2.89243 15.462 3.08964Z" fill="#1A1A1A"/>
      </svg>
      