<svg width="50" height="50" viewBox="0 0 50 50" fill="none">
      <path d="M30.3008 42.6901H5.66992C5.11764 42.6901 4.66992 42.2424 4.66992 41.6901V11.9331M4.66992 11.9331H35.2813C35.8336 11.9331 36.2813 12.3808 36.2813 12.9331V41.8357L44.1963 38.6697C44.576 38.5179 44.8249 38.1501 44.8249 37.7412V8.66125C44.8249 8.10897 44.3772 7.66125 43.8249 7.66125H12.6183C12.4484 7.66125 12.2812 7.70457 12.1327 7.7871L4.66992 11.9331Z" stroke="black"/>
      <path d="M43.9705 8.51477L36.2812 12.7866" stroke="black"/>
      <path d="M16.6309 11.9331L24.3201 7.66125H32.8637L23.4657 12.7874V19.6223L21.757 18.768L20.0483 19.6223L18.3396 18.768L16.6309 19.6223V11.9331Z" fill="#D1D1D1" stroke="black"/>
      <path d="M8.08789 35.0012H11.5053" stroke="black"/>
      <path d="M8.08789 38.4189H14.9228" stroke="black"/>
      </svg>