<svg width="32" height="32" viewBox="0 0 32 32" fill="none" xmlns="http://www.w3.org/2000/svg">
      <path fill-rule="evenodd" clip-rule="evenodd" d="M11.3159 4.31881C13.0473 4.56106 14.6799 5.4292 15.9949 6.74875C17.306 5.43395 18.9219 4.58626 20.6475 4.36751C22.6467 4.11407 24.7262 4.71427 26.5544 6.29321C28.5699 8.0339 29.5877 10.1133 29.7321 12.2506C29.8757 14.3758 29.1515 16.4845 27.8196 18.2999L27.8148 18.3064L27.8099 18.3129C27.0608 19.2888 25.8864 20.5236 24.6458 21.8174L23.5849 20.7564C24.828 19.4597 25.9275 18.3005 26.615 17.4061C27.7733 15.8245 28.351 14.0609 28.2355 12.3517C28.1207 10.6524 27.3165 8.93338 25.5739 7.42844C24.0457 6.10859 22.3852 5.65923 20.8361 5.8556C19.2755 6.05345 17.7612 6.91619 16.5704 8.34131L15.9949 9.03008L15.4193 8.34131C14.2277 6.91526 12.6862 6.02515 11.108 5.80434C9.54432 5.58556 7.89337 6.01494 6.4239 7.32138C4.68879 8.86398 3.88366 10.5875 3.76549 12.2791C3.6467 13.9796 4.21704 15.7265 5.37665 17.3087C6.39363 18.6567 8.46096 20.7908 10.5629 22.8565C12.3739 24.6363 14.1757 26.3318 15.2818 27.3727L15.2819 27.3727C15.4528 27.5336 15.6071 27.6788 15.7422 27.8062L15.7559 27.8191L15.7689 27.8326C15.8061 27.8714 15.8509 27.9162 15.8997 27.964C15.9473 27.9166 15.9915 27.8717 16.029 27.8326L16.0443 27.8167L16.0605 27.8017L16.5702 28.3519C16.0605 27.8017 16.0605 27.8017 16.0605 27.8017L16.0606 27.8016L16.0608 27.8014L16.0617 27.8006L16.0654 27.7972L16.08 27.7837L16.1366 27.7311L16.3486 27.5341C16.5295 27.3658 16.7836 27.129 17.0767 26.8547C17.6633 26.3056 18.4035 25.6087 19.0231 25.0126L19.0333 25.0028L19.0333 25.0029L20.6638 23.4922L21.7252 24.5536L20.058 26.0984C19.4319 26.7007 18.6882 27.4008 18.1017 27.9498C17.8073 28.2253 17.552 28.4632 17.3703 28.6323L17.1571 28.8305L17.0999 28.8835L17.0958 28.8874C16.9708 29.0168 16.8045 29.1791 16.6728 29.3061C16.603 29.3735 16.5405 29.4331 16.4956 29.4759L16.4422 29.5266L16.4276 29.5404L16.4237 29.5441L16.4226 29.5451L16.4223 29.5454L16.4222 29.5455L16.4222 29.5455C16.4222 29.5455 16.4222 29.5455 15.9075 29L15.4035 29.5554L15.4034 29.5554L15.4033 29.5553L15.403 29.555L15.4019 29.5539L15.3977 29.5502L15.3823 29.5362L15.3267 29.4852C15.2798 29.4422 15.2149 29.3823 15.1423 29.3144C15.0057 29.1866 14.8302 29.0198 14.7001 28.8852C14.5691 28.7617 14.42 28.6214 14.2552 28.4663C13.1499 27.4262 11.3351 25.7186 9.51149 23.9263C7.41993 21.8708 5.26971 19.6588 4.17589 18.2077L4.17003 18.2L4.17008 18.1999C2.83826 16.3846 2.1212 14.2923 2.26913 12.1746C2.41777 10.0468 3.43471 7.97183 5.42725 6.20036C7.21831 4.608 9.30738 4.0378 11.3159 4.31881ZM15.9075 29L16.4222 29.5455L15.9174 30.0217L15.4035 29.5554L15.9075 29Z" fill="white"/>
      </svg>
      