<svg width="24" height="24" viewBox="0 0 32 32" fill="none" xmlns="http://www.w3.org/2000/svg"><g opacity="0.8" filter="url(#filter0_b)"> <circle cx="16" cy="16" r="15" fill="#EEEEEE"/> </g> <path fill-rule="evenodd" clip-rule="evenodd" d="M15.794 24.8772C15.8455 24.9221 15.9184 24.94 15.9885 24.94C16.0025 24.94 16.0168 24.939 16.0311 24.9374C16.0976 24.9311 16.1653 24.8954 16.2151 24.8479C16.602 24.5157 23.1038 18.9093 24.4866 16.048C25.0914 14.7993 25.1663 13.2735 24.6878 11.9664C24.2755 10.8411 23.4868 9.96246 22.4668 9.49223C21.7698 9.1696 20.9875 9 20.2036 9C18.4659 9 16.8574 9.819 16.1051 11.085L15.9933 11.2718L15.8956 11.1089C15.1443 9.84004 13.5348 9.02136 11.7964 9.02136C11.0132 9.02136 10.2309 9.19128 9.53459 9.51295C8.51459 9.98286 7.72613 10.8612 7.31318 11.9859C6.83346 13.2939 6.90869 14.8213 7.51249 16.0716C8.90735 18.9574 15.514 24.6365 15.794 24.8772Z" fill="#C6A36F"/> <path fill-rule="evenodd" clip-rule="evenodd" d="M16 24.7113C14.3586 23.5266 7.16577 18.0679 7.16577 13.4217C7.16577 11.0697 9.09629 9.15577 11.4686 9.15577C13.2313 9.15577 14.7981 10.2075 15.4579 11.8349C15.6363 12.2729 16.3626 12.2729 16.5398 11.8349C17.2019 10.2075 18.7664 9.15577 20.529 9.15577C22.9037 9.15577 24.8342 11.0697 24.8342 13.4217C24.8342 17.1456 20.2096 21.3931 17.5307 23.5405C17.7941 23.7243 18.0576 23.9081 18.3094 24.1068C18.3747 24.1565 18.4376 24.2062 18.5017 24.2559C21.3556 21.9409 26 17.5432 26 13.4217C26 10.4317 23.546 8 20.529 8C18.6801 8 17.0014 8.90959 16 10.3901C14.9974 8.90959 13.3199 8 11.4686 8C8.45395 8 6 10.4306 6 13.4217C6 19.241 15.2737 25.6302 15.6701 25.8983C15.7703 25.9665 15.8834 26 16 26C16.1166 26 16.2297 25.9665 16.3299 25.8983C16.3859 25.8602 16.633 25.6891 16.9932 25.4244" fill="black"/> <defs> <filter id="filter0_b" x="-3" y="-3" width="38" height="38" filterUnits="userSpaceOnUse" color-interpolation-filters="sRGB"> <feFlood flood-opacity="0" result="BackgroundImageFix"/> <feGaussianBlur in="BackgroundImage" stdDeviation="2"/> <feComposite in2="SourceAlpha" operator="in" result="effect1_backgroundBlur"/> <feBlend mode="normal" in="SourceGraphic" in2="effect1_backgroundBlur" result="shape"/> </filter> </defs></svg>