<svg width="52" height="52" viewBox="0 0 52 52" fill="none">
      <path fill-rule="evenodd" clip-rule="evenodd" d="M31.9396 19.9132V14.595H8.00781V39.3245H11.1101C11.1101 36.2222 12.7942 34.5381 15.8078 34.5381C18.8214 34.5381 20.6828 36.2222 20.6828 39.3245H29.1919C29.2039 37.8246 29.8094 36.3905 30.876 35.3358H30.7874V20.9768C30.7768 20.7143 30.8727 20.4586 31.0533 20.2677C31.2351 20.0626 31.4891 19.9355 31.7623 19.9132L31.9396 19.9132Z" fill="#D1D1D1"/>
      <path fill-rule="evenodd" clip-rule="evenodd" d="M34.3322 43.8258C36.1682 43.8618 37.8435 42.7836 38.5712 41.0976C39.2989 39.4116 38.9344 37.4529 37.6488 36.1416C36.3632 34.8303 34.4121 34.427 32.712 35.1212C31.012 35.8154 29.9007 37.469 29.9004 39.3054C29.8992 41.7664 31.869 43.7768 34.3309 43.8258L34.3322 43.8258Z" stroke="black" stroke-linejoin="round"/>
      <path fill-rule="evenodd" clip-rule="evenodd" d="M15.807 43.5348C17.5566 43.7816 19.2895 42.9865 20.2435 41.4992C21.1974 40.012 21.1974 38.1053 20.2435 36.6181C19.2895 35.1309 17.5566 34.3357 15.807 34.5825C13.5765 34.8972 11.918 36.806 11.918 39.0587C11.918 41.3113 13.5765 43.2202 15.807 43.5348Z" stroke="black" stroke-linejoin="round"/>
      <path d="M39.0302 39.945H42.3097L44.6143 37.2859V29.8405L38.2325 20.8882H31.4961V29.9291H44.6143" stroke="black" stroke-linejoin="round"/>
      <path d="M20.2383 39.9449H30.0769" stroke="black" stroke-linejoin="round"/>
      <path d="M31.6731 13.9751H7.38672V39.9456H11.3754" stroke="black" stroke-linejoin="round"/>
      <path fill-rule="evenodd" clip-rule="evenodd" d="M34.3315 40.5659C35.1148 40.5659 35.7497 39.9309 35.7497 39.1477C35.7028 38.3992 35.0814 37.8166 34.3315 37.8181C33.5972 37.8181 33.002 38.4134 33.002 39.1477C33.0005 39.8976 33.5831 40.519 34.3316 40.5659H34.3315Z" fill="black"/>
      <path fill-rule="evenodd" clip-rule="evenodd" d="M16.2944 40.3881C17.0777 40.3881 17.7126 39.7532 17.7126 38.9699C17.6657 38.2215 17.0443 37.6389 16.2944 37.6404C15.5601 37.6404 14.9648 38.2356 14.9648 38.9699C14.9634 39.7199 15.546 40.3413 16.2945 40.3881H16.2944Z" fill="black"/>
      <path d="M35.3958 32.0568H33.623" stroke="black" stroke-width="0.97674" stroke-linejoin="round"/>
      <path d="M29.9896 18.5836H11.375" stroke="black" stroke-linejoin="round"/>
      <path d="M32.1337 35.4244H19.2637" stroke="black" stroke-linejoin="round"/>
      <path d="M14.0492 35.4244H7.38672" stroke="black" stroke-linejoin="round"/>
      <path fill-rule="evenodd" clip-rule="evenodd" d="M30.8842 27.9354C35.7446 27.4638 39.4526 23.3788 39.4526 18.4956C39.4526 13.6124 35.7446 9.52733 30.8842 9.05582C27.2933 8.70745 23.8158 10.4266 21.9121 13.4913C20.0085 16.5559 20.0085 20.4352 21.9121 23.4999C23.8158 26.5645 27.2933 28.2837 30.8842 27.9354V27.9354Z" fill="white" stroke="black"/>
      <path d="M23.873 18.5841L27.5958 22.1295L34.9526 14.7727" stroke="black" stroke-linejoin="round"/>
      </svg>