<svg width="50" height="50" viewBox="0 0 50 50" fill="none">
      <path fill-rule="evenodd" clip-rule="evenodd" d="M45.8148 19.2104C45.8077 22.0885 44.666 24.8457 42.6405 26.8769L40.6302 28.8999L24.9719 44.6581L7.30362 26.8766C3.09868 22.6129 3.12342 15.7263 7.35877 11.4933C11.5942 7.26026 18.4371 7.28307 22.6446 11.5442L24.9722 13.7802L27.2998 11.5442C31.5474 7.30828 38.3932 7.30828 42.6408 11.5442C44.6663 13.5755 45.8078 16.3327 45.8148 19.2104Z" fill="#D1D1D1"/>
      <path d="M29.6274 39.9729L24.9722 44.6578L9.63123 29.219L7.30362 26.8765C3.09868 22.6129 3.12342 15.7263 7.35877 11.4933C11.5942 7.26026 18.4371 7.28307 22.6446 11.5442L24.9722 13.7802L27.2998 11.5442C31.5474 7.30828 38.3932 7.30828 42.6408 11.5442C44.6827 13.5658 45.8327 16.3278 45.8327 19.2104C45.8327 22.093 44.6827 24.855 42.6408 26.8766L40.6306 28.8996" stroke="black" stroke-linejoin="round"/>
      <path d="M26.0684 32.8763H40.8803" stroke="black" stroke-linejoin="round"/>
      <path d="M33.4727 25.4189V40.3254" stroke="black" stroke-linejoin="round"/>
      </svg>