<svg width="32" height="32" viewBox="0 0 32 32" fill="none" xmlns="http://www.w3.org/2000/svg">
      <path fill-rule="evenodd" clip-rule="evenodd" d="M22.2602 10.3365C22.9456 10.5176 23.4859 11.0482 23.6704 11.7212C24.0131 12.9506 23.9999 15.5129 23.9999 15.5129C23.9999 15.5129 23.9999 18.0624 23.6704 19.2918C23.4859 19.9647 22.9456 20.4953 22.2602 20.6765C21.0082 21 16 21 16 21C16 21 11.0049 21 9.7397 20.6635C9.05436 20.4824 8.514 19.9518 8.32949 19.2788C8 18.0624 8 15.5 8 15.5C8 15.5 8 12.9506 8.32949 11.7212C8.514 11.0482 9.06754 10.5047 9.7397 10.3235C10.9918 10 16 10 16 10C16 10 21.0082 10 22.2602 10.3365ZM14 13L19 15.5L14 18V13Z" fill="white"/>
      <path d="M25.4751 27.6282C19.2826 32.674 10.2221 31.9818 4.86812 26.0537C-0.485891 20.1257 -0.254953 11.0417 5.39338 5.39338C11.0417 -0.254953 20.1257 -0.485891 26.0537 4.86812C31.9818 10.2221 32.674 19.2826 27.6282 25.4751" stroke="white" stroke-linejoin="bevel"/>
      </svg>
      